<?xml version="1.0" encoding="UTF-8" standalone="no"?>
<!DOCTYPE svg PUBLIC "-//W3C//DTD SVG 1.1//EN"
 "http://www.w3.org/Graphics/SVG/1.1/DTD/svg11.dtd">
<!-- Generated by graphviz version 2.43.0 (0)
 -->
<!-- Title: %3 Pages: 1 -->
<svg width="244pt" height="147pt"
 viewBox="0.00 0.00 244.00 147.00" xmlns="http://www.w3.org/2000/svg" xmlns:xlink="http://www.w3.org/1999/xlink">
<g id="graph0" class="graph" transform="scale(1 1) rotate(0) translate(4 143)">
<title>%3</title>
<polygon fill="white" stroke="transparent" points="-4,4 -4,-143 240,-143 240,4 -4,4"/>
<g id="clust1" class="cluster">
<title>cluster0</title>
<polygon fill="none" stroke="black" points="8,-8 8,-131 228,-131 228,-8 8,-8"/>
<text text-anchor="middle" x="83" y="-115.8" font-family="Times,serif" font-size="14.00">Schema: fera&#45;v001</text>
</g>
<g id="clust2" class="cluster">
<title>cluster1</title>
<polygon fill="none" stroke="black" points="16,-16 16,-100 220,-100 220,-16 16,-16"/>
<text text-anchor="middle" x="71.5" y="-84.8" font-family="Times,serif" font-size="14.00">Cluster: base</text>
</g>
<!-- NamedType -->
<g id="node1" class="node">
<title>NamedType</title>
<polygon fill="white" stroke="transparent" points="27,-46.5 27,-65.5 131,-65.5 131,-46.5 27,-46.5"/>
<text text-anchor="start" x="29" y="-52.3" font-family="Times,serif" font-size="14.00"> &#160;NamedType </text>
<text text-anchor="start" x="29" y="-32.3" font-family="Times,serif" font-size="14.00">name: </text>
<text text-anchor="start" x="134" y="-32.3" font-family="Times,serif" font-size="14.00">xsd:string</text>
<polygon fill="none" stroke="cyan" stroke-width="2" points="25,-25 25,-68 211,-68 211,-25 25,-25"/>
</g>
</g>
</svg>
