<?xml version="1.0" encoding="UTF-8" standalone="no"?>
<!DOCTYPE svg PUBLIC "-//W3C//DTD SVG 1.1//EN"
 "http://www.w3.org/Graphics/SVG/1.1/DTD/svg11.dtd">
<!-- Generated by graphviz version 2.43.0 (0)
 -->
<!-- Title: %3 Pages: 1 -->
<svg width="2859pt" height="397pt"
 viewBox="0.00 0.00 2859.00 397.00" xmlns="http://www.w3.org/2000/svg" xmlns:xlink="http://www.w3.org/1999/xlink">
<g id="graph0" class="graph" transform="scale(1 1) rotate(0) translate(4 393)">
<title>%3</title>
<polygon fill="white" stroke="transparent" points="-4,4 -4,-393 2855,-393 2855,4 -4,4"/>
<g id="clust1" class="cluster">
<title>cluster0</title>
<polygon fill="none" stroke="black" points="8,-8 8,-381 2843,-381 2843,-8 8,-8"/>
<text text-anchor="middle" x="83" y="-365.8" font-family="Times,serif" font-size="14.00">Schema: fera&#45;v001</text>
</g>
<g id="clust2" class="cluster">
<title>cluster1</title>
<polygon fill="none" stroke="black" points="2616,-204 2616,-268 2835,-268 2835,-204 2616,-204"/>
<text text-anchor="middle" x="2669.5" y="-252.8" font-family="Times,serif" font-size="14.00">Cluster: fera</text>
</g>
<g id="clust4" class="cluster">
<title>cluster3</title>
<polygon fill="none" stroke="black" points="1503,-286 1503,-350 1653,-350 1653,-286 1503,-286"/>
<text text-anchor="middle" x="1555" y="-334.8" font-family="Times,serif" font-size="14.00">Cluster: usd</text>
</g>
<g id="clust5" class="cluster">
<title>cluster4</title>
<polygon fill="none" stroke="black" points="16,-16 16,-278 2608,-278 2608,-16 16,-16"/>
<text text-anchor="middle" x="87.5" y="-262.8" font-family="Times,serif" font-size="14.00">Cluster: usdValue</text>
</g>
<!-- TemporalEntity -->
<g id="node1" class="node">
<title>TemporalEntity</title>
<polygon fill="white" stroke="transparent" points="2699,-214.5 2699,-233.5 2824,-233.5 2824,-214.5 2699,-214.5"/>
<text text-anchor="start" x="2701" y="-220.3" font-family="Times,serif" font-size="14.00"> TemporalEntity </text>
<polygon fill="none" stroke="cornflowerblue" stroke-width="2" points="2696.5,-213 2696.5,-236 2825.5,-236 2825.5,-213 2696.5,-213"/>
</g>
<!-- TemporalVtFloat -->
<g id="node10" class="node">
<title>TemporalVtFloat</title>
<text text-anchor="start" x="2397" y="-51.3" font-family="Times,serif" font-size="14.00"> &#160;TemporalVtFloat </text>
<text text-anchor="start" x="2397" y="-31.3" font-family="Times,serif" font-size="14.00">vtFloat: </text>
<text text-anchor="start" x="2535" y="-31.3" font-family="Times,serif" font-size="14.00">xsd:float</text>
<polygon fill="none" stroke="black" points="2392.5,-24 2392.5,-67 2599.5,-67 2599.5,-24 2392.5,-24"/>
</g>
<!-- TemporalEntity&#45;&gt;TemporalVtFloat -->
<g id="TemporalEntity&#45;TemporalVtFloat" class="edge">
<title>TemporalEntity&#45;&gt;TemporalVtFloat</title>
<path fill="none" stroke="cornflowerblue" stroke-dasharray="5,2" d="M2748.27,-211.89C2722.98,-189.2 2664.11,-138.09 2609,-103 2591.04,-91.56 2570.44,-80.67 2551.8,-71.56"/>
<polygon fill="cornflowerblue" stroke="cornflowerblue" points="2553.07,-68.29 2542.54,-67.1 2550.03,-74.59 2553.07,-68.29"/>
</g>
<!-- Pose -->
<g id="node2" class="node">
<title>Pose</title>
<polygon fill="white" stroke="transparent" points="2628,-214.5 2628,-233.5 2675,-233.5 2675,-214.5 2628,-214.5"/>
<text text-anchor="start" x="2630" y="-220.3" font-family="Times,serif" font-size="14.00"> Pose </text>
<polygon fill="none" stroke="green" stroke-width="2" points="2625.5,-213 2625.5,-236 2676.5,-236 2676.5,-213 2625.5,-213"/>
</g>
<!-- VtVec3dArray -->
<g id="node13" class="node">
<title>VtVec3dArray</title>
<text text-anchor="start" x="2062" y="-140.3" font-family="Times,serif" font-size="14.00"> &#160;VtVec3dArray </text>
<text text-anchor="start" x="2062" y="-120.3" font-family="Times,serif" font-size="14.00">vtVec3dArray: </text>
<text text-anchor="start" x="2179" y="-120.3" font-family="Times,serif" font-size="14.00">[GfVec3d]</text>
<polygon fill="none" stroke="black" points="2057.5,-113 2057.5,-156 2252.5,-156 2252.5,-113 2057.5,-113"/>
</g>
<!-- Pose&#45;&gt;VtVec3dArray -->
<g id="Pose&#45;VtVec3dArray" class="edge">
<title>Pose&#45;&gt;VtVec3dArray</title>
<path fill="none" stroke="green" stroke-dasharray="5,2" d="M2633.42,-211.87C2626.94,-208.12 2619.37,-204.33 2612,-202 2470.9,-157.41 2426.77,-191.46 2281,-166 2268.67,-163.85 2255.74,-161.19 2243.07,-158.35"/>
<polygon fill="green" stroke="green" points="2243.5,-154.86 2232.97,-156.03 2241.94,-161.68 2243.5,-154.86"/>
</g>
<!-- UsdObjectValue -->
<g id="node3" class="node">
<title>UsdObjectValue</title>
<polygon fill="white" stroke="transparent" points="1514,-296.5 1514,-315.5 1642,-315.5 1642,-296.5 1514,-296.5"/>
<text text-anchor="start" x="1516" y="-302.3" font-family="Times,serif" font-size="14.00"> UsdObjectValue </text>
<polygon fill="none" stroke="green" stroke-width="2" points="1512,-295 1512,-318 1644,-318 1644,-295 1512,-295"/>
</g>
<!-- GraphicFoundations -->
<g id="node4" class="node">
<title>GraphicFoundations</title>
<polygon fill="white" stroke="transparent" points="1898,-214.5 1898,-233.5 2060,-233.5 2060,-214.5 1898,-214.5"/>
<text text-anchor="start" x="1900" y="-220.3" font-family="Times,serif" font-size="14.00"> &#160;GraphicFoundations </text>
<polygon fill="none" stroke="green" stroke-width="2" points="1896,-213 1896,-236 2062,-236 2062,-213 1896,-213"/>
</g>
<!-- UsdObjectValue&#45;&gt;GraphicFoundations -->
<g id="UsdObjectValue&#45;GraphicFoundations" class="edge">
<title>UsdObjectValue&#45;&gt;GraphicFoundations</title>
<path fill="none" stroke="green" stroke-dasharray="5,2" d="M1635.88,-293.95C1708.74,-279.42 1833.69,-254.49 1911.02,-239.06"/>
<polygon fill="green" stroke="green" points="1912.01,-242.43 1921.14,-237.04 1910.65,-235.57 1912.01,-242.43"/>
</g>
<!-- ValueType -->
<g id="node5" class="node">
<title>ValueType</title>
<polygon fill="white" stroke="transparent" points="1055,-224.5 1055,-243.5 1147,-243.5 1147,-224.5 1055,-224.5"/>
<text text-anchor="start" x="1057" y="-230.3" font-family="Times,serif" font-size="14.00"> &#160;ValueType </text>
<text text-anchor="start" x="1057" y="-210.3" font-family="Times,serif" font-size="14.00">roleName: </text>
<text text-anchor="start" x="1150" y="-210.3" font-family="Times,serif" font-size="14.00">xsd:string</text>
<polygon fill="none" stroke="green" stroke-width="2" points="1053,-203 1053,-246 1227,-246 1227,-203 1053,-203"/>
</g>
<!-- UsdObjectValue&#45;&gt;ValueType -->
<g id="UsdObjectValue&#45;ValueType" class="edge">
<title>UsdObjectValue&#45;&gt;ValueType</title>
<path fill="none" stroke="green" stroke-dasharray="5,2" d="M1514.78,-293.95C1442.31,-280.72 1322.66,-258.86 1238.07,-243.41"/>
<polygon fill="green" stroke="green" points="1238.66,-239.96 1228.2,-241.61 1237.41,-246.85 1238.66,-239.96"/>
</g>
<!-- GfVec3f -->
<g id="node14" class="node">
<title>GfVec3f</title>
<text text-anchor="start" x="1568" y="-51.3" font-family="Times,serif" font-size="14.00"> &#160;GfVec3f </text>
<text text-anchor="start" x="1568" y="-31.3" font-family="Times,serif" font-size="14.00">gfVec3f: </text>
<text text-anchor="start" x="1643" y="-31.3" font-family="Times,serif" font-size="14.00">[xsd:float]</text>
<polygon fill="none" stroke="black" points="1563.5,-24 1563.5,-67 1718.5,-67 1718.5,-24 1563.5,-24"/>
</g>
<!-- GraphicFoundations&#45;&gt;GfVec3f -->
<g id="GraphicFoundations&#45;GfVec3f" class="edge">
<title>GraphicFoundations&#45;&gt;GfVec3f</title>
<path fill="none" stroke="green" stroke-dasharray="5,2" d="M1898.95,-211.98C1867.67,-203.81 1833.7,-189.85 1810,-166 1789.19,-145.07 1809.42,-124.31 1789,-103 1772.6,-85.88 1750.47,-73.89 1728.32,-65.5"/>
<polygon fill="green" stroke="green" points="1729.44,-62.19 1718.85,-62.13 1727.09,-68.78 1729.44,-62.19"/>
</g>
<!-- GfVec3d -->
<g id="node15" class="node">
<title>GfVec3d</title>
<text text-anchor="start" x="2196" y="-51.3" font-family="Times,serif" font-size="14.00"> &#160;GfVec3d </text>
<text text-anchor="start" x="2196" y="-31.3" font-family="Times,serif" font-size="14.00">gfVec3d: </text>
<text text-anchor="start" x="2274" y="-31.3" font-family="Times,serif" font-size="14.00">[xsd:double]</text>
<polygon fill="none" stroke="black" points="2192,-24 2192,-67 2366,-67 2366,-24 2192,-24"/>
</g>
<!-- GraphicFoundations&#45;&gt;GfVec3d -->
<g id="GraphicFoundations&#45;GfVec3d" class="edge">
<title>GraphicFoundations&#45;&gt;GfVec3d</title>
<path fill="none" stroke="green" stroke-dasharray="5,2" d="M2063.24,-216.99C2136.59,-209.49 2235.26,-194.37 2262,-166 2273.7,-153.59 2277.39,-108.63 2278.53,-77.55"/>
<polygon fill="green" stroke="green" points="2282.04,-77.3 2278.84,-67.2 2275.04,-77.1 2282.04,-77.3"/>
</g>
<!-- GfMatrix4d -->
<g id="node20" class="node">
<title>GfMatrix4d</title>
<polygon fill="white" stroke="transparent" points="1821,-134.5 1821,-153.5 1922,-153.5 1922,-134.5 1821,-134.5"/>
<text text-anchor="start" x="1823" y="-140.3" font-family="Times,serif" font-size="14.00"> &#160;GfMatrix4d </text>
<text text-anchor="start" x="1823" y="-120.3" font-family="Times,serif" font-size="14.00">gfMatrix4d: </text>
<text text-anchor="start" x="1925" y="-120.3" font-family="Times,serif" font-size="14.00">[GfVector4d]</text>
<polygon fill="none" stroke="black" points="1818.5,-113 1818.5,-156 2019.5,-156 2019.5,-113 1818.5,-113"/>
</g>
<!-- GraphicFoundations&#45;&gt;GfMatrix4d -->
<g id="GraphicFoundations&#45;GfMatrix4d" class="edge">
<title>GraphicFoundations&#45;&gt;GfMatrix4d</title>
<path fill="none" stroke="green" stroke-dasharray="5,2" d="M1971.16,-212C1963.01,-200.05 1949.93,-180.87 1938.91,-164.71"/>
<polygon fill="green" stroke="green" points="1941.57,-162.39 1933.05,-156.1 1935.79,-166.34 1941.57,-162.39"/>
</g>
<!-- GfVector4d -->
<g id="node21" class="node">
<title>GfVector4d</title>
<text text-anchor="start" x="1912" y="-51.3" font-family="Times,serif" font-size="14.00"> &#160;GfVector4d </text>
<text text-anchor="start" x="1912" y="-31.3" font-family="Times,serif" font-size="14.00">gfMatrix4d: </text>
<text text-anchor="start" x="2011" y="-31.3" font-family="Times,serif" font-size="14.00">[xsd:double]</text>
<polygon fill="none" stroke="black" points="1907.5,-24 1907.5,-67 2102.5,-67 2102.5,-24 1907.5,-24"/>
</g>
<!-- GraphicFoundations&#45;&gt;GfVector4d -->
<g id="GraphicFoundations&#45;GfVector4d" class="edge">
<title>GraphicFoundations&#45;&gt;GfVector4d</title>
<path fill="none" stroke="green" stroke-dasharray="5,2" d="M1994.04,-211.65C2006.08,-201.13 2022.05,-184.59 2029,-166 2039.99,-136.6 2030.19,-101.16 2020,-76.54"/>
<polygon fill="green" stroke="green" points="2023.19,-75.1 2015.97,-67.35 2016.78,-77.91 2023.19,-75.1"/>
</g>
<!-- Range3d -->
<g id="node22" class="node">
<title>Range3d</title>
<polygon fill="white" stroke="transparent" points="2292,-144.5 2292,-163.5 2373,-163.5 2373,-144.5 2292,-144.5"/>
<text text-anchor="start" x="2294" y="-150.3" font-family="Times,serif" font-size="14.00"> &#160;Range3d </text>
<text text-anchor="start" x="2294" y="-130.3" font-family="Times,serif" font-size="14.00">max: </text>
<text text-anchor="start" x="2376" y="-130.3" font-family="Times,serif" font-size="14.00">GfVec3d</text>
<text text-anchor="start" x="2294" y="-110.3" font-family="Times,serif" font-size="14.00">min: </text>
<text text-anchor="start" x="2376" y="-110.3" font-family="Times,serif" font-size="14.00">GfVec3d</text>
<polygon fill="none" stroke="black" points="2290,-103 2290,-166 2440,-166 2440,-103 2290,-103"/>
</g>
<!-- GraphicFoundations&#45;&gt;Range3d -->
<g id="GraphicFoundations&#45;Range3d" class="edge">
<title>GraphicFoundations&#45;&gt;Range3d</title>
<path fill="none" stroke="green" stroke-dasharray="5,2" d="M2053.8,-211.98C2114.25,-201.96 2201.28,-185.93 2276,-166 2277.43,-165.62 2278.87,-165.23 2280.32,-164.82"/>
<polygon fill="green" stroke="green" points="2281.33,-168.17 2289.96,-162.03 2279.38,-161.45 2281.33,-168.17"/>
</g>
<!-- VtInt -->
<g id="node6" class="node">
<title>VtInt</title>
<text text-anchor="start" x="835" y="-140.3" font-family="Times,serif" font-size="14.00"> &#160;VtInt </text>
<text text-anchor="start" x="835" y="-120.3" font-family="Times,serif" font-size="14.00">vtInt: </text>
<text text-anchor="start" x="890" y="-120.3" font-family="Times,serif" font-size="14.00">xsd:int</text>
<polygon fill="none" stroke="black" points="831,-113 831,-156 943,-156 943,-113 831,-113"/>
</g>
<!-- ValueType&#45;&gt;VtInt -->
<g id="ValueType&#45;VtInt" class="edge">
<title>ValueType&#45;&gt;VtInt</title>
<path fill="none" stroke="green" stroke-dasharray="5,2" d="M1061.41,-201.89C1027.68,-191.97 988.05,-179.42 953,-166 948.26,-164.19 943.38,-162.19 938.52,-160.11"/>
<polygon fill="green" stroke="green" points="939.81,-156.85 929.24,-156.04 937,-163.26 939.81,-156.85"/>
</g>
<!-- VtString -->
<g id="node7" class="node">
<title>VtString</title>
<text text-anchor="start" x="269" y="-140.3" font-family="Times,serif" font-size="14.00"> &#160;VtString </text>
<text text-anchor="start" x="269" y="-120.3" font-family="Times,serif" font-size="14.00">vtString: </text>
<text text-anchor="start" x="349" y="-120.3" font-family="Times,serif" font-size="14.00">xsd:string</text>
<polygon fill="none" stroke="black" points="264.5,-113 264.5,-156 425.5,-156 425.5,-113 264.5,-113"/>
</g>
<!-- ValueType&#45;&gt;VtString -->
<g id="ValueType&#45;VtString" class="edge">
<title>ValueType&#45;&gt;VtString</title>
<path fill="none" stroke="green" stroke-dasharray="5,2" d="M1051.77,-223.32C917.14,-221.48 652.95,-211.69 434,-166 425.4,-164.21 416.49,-161.82 407.78,-159.17"/>
<polygon fill="green" stroke="green" points="408.64,-155.77 398.05,-156.08 406.52,-162.44 408.64,-155.77"/>
</g>
<!-- VtBoolean -->
<g id="node8" class="node">
<title>VtBoolean</title>
<text text-anchor="start" x="448" y="-140.3" font-family="Times,serif" font-size="14.00"> &#160;VtBoolean </text>
<text text-anchor="start" x="448" y="-120.3" font-family="Times,serif" font-size="14.00">vtBoolean: </text>
<text text-anchor="start" x="540" y="-120.3" font-family="Times,serif" font-size="14.00">xsd:boolean</text>
<polygon fill="none" stroke="black" points="443.5,-113 443.5,-156 628.5,-156 628.5,-113 443.5,-113"/>
</g>
<!-- ValueType&#45;&gt;VtBoolean -->
<g id="ValueType&#45;VtBoolean" class="edge">
<title>ValueType&#45;&gt;VtBoolean</title>
<path fill="none" stroke="green" stroke-dasharray="5,2" d="M1051.75,-218.12C950.9,-210.89 781.29,-195.39 638,-166 628.29,-164.01 618.17,-161.51 608.24,-158.81"/>
<polygon fill="green" stroke="green" points="608.98,-155.38 598.4,-156.05 607.09,-162.12 608.98,-155.38"/>
</g>
<!-- VtFloat -->
<g id="node9" class="node">
<title>VtFloat</title>
<text text-anchor="start" x="2463" y="-140.3" font-family="Times,serif" font-size="14.00"> &#160;VtFloat </text>
<text text-anchor="start" x="2463" y="-120.3" font-family="Times,serif" font-size="14.00">vtFloat: </text>
<text text-anchor="start" x="2535" y="-120.3" font-family="Times,serif" font-size="14.00">xsd:float</text>
<polygon fill="none" stroke="black" points="2458.5,-113 2458.5,-156 2599.5,-156 2599.5,-113 2458.5,-113"/>
</g>
<!-- ValueType&#45;&gt;VtFloat -->
<g id="ValueType&#45;VtFloat" class="edge">
<title>ValueType&#45;&gt;VtFloat</title>
<path fill="none" stroke="green" stroke-dasharray="5,2" d="M1228.35,-221.26C1502.96,-214.05 2330.38,-190.55 2449,-166 2456.86,-164.37 2464.97,-162.07 2472.87,-159.46"/>
<polygon fill="green" stroke="green" points="2474.09,-162.74 2482.37,-156.14 2471.78,-156.13 2474.09,-162.74"/>
</g>
<!-- VtDouble -->
<g id="node11" class="node">
<title>VtDouble</title>
<text text-anchor="start" x="651" y="-140.3" font-family="Times,serif" font-size="14.00"> &#160;VtDouble </text>
<text text-anchor="start" x="651" y="-120.3" font-family="Times,serif" font-size="14.00">vtDouble: </text>
<text text-anchor="start" x="736" y="-120.3" font-family="Times,serif" font-size="14.00">xsd:string</text>
<polygon fill="none" stroke="black" points="647,-113 647,-156 813,-156 813,-113 647,-113"/>
</g>
<!-- ValueType&#45;&gt;VtDouble -->
<g id="ValueType&#45;VtDouble" class="edge">
<title>ValueType&#45;&gt;VtDouble</title>
<path fill="none" stroke="green" stroke-dasharray="5,2" d="M1051.89,-210.99C987.65,-201.05 898.79,-185.57 822,-166 814.12,-163.99 805.93,-161.65 797.84,-159.18"/>
<polygon fill="green" stroke="green" points="798.62,-155.76 788.04,-156.12 796.53,-162.44 798.62,-155.76"/>
</g>
<!-- VtVec3fArray -->
<g id="node12" class="node">
<title>VtVec3fArray</title>
<polygon fill="white" stroke="transparent" points="1354,-134.5 1354,-153.5 1467,-153.5 1467,-134.5 1354,-134.5"/>
<text text-anchor="start" x="1356" y="-140.3" font-family="Times,serif" font-size="14.00"> &#160;VtVec3fArray </text>
<text text-anchor="start" x="1356" y="-120.3" font-family="Times,serif" font-size="14.00">vtVec3fArray: </text>
<text text-anchor="start" x="1470" y="-120.3" font-family="Times,serif" font-size="14.00">[GfVec3f]</text>
<polygon fill="none" stroke="black" points="1351.5,-113 1351.5,-156 1540.5,-156 1540.5,-113 1351.5,-113"/>
</g>
<!-- ValueType&#45;&gt;VtVec3fArray -->
<g id="ValueType&#45;VtVec3fArray" class="edge">
<title>ValueType&#45;&gt;VtVec3fArray</title>
<path fill="none" stroke="green" stroke-dasharray="5,2" d="M1217.18,-201.87C1255.11,-191.18 1301.48,-178.03 1343,-166 1350.92,-163.71 1359.17,-161.3 1367.41,-158.88"/>
<polygon fill="green" stroke="green" points="1368.45,-162.22 1377.05,-156.04 1366.47,-155.5 1368.45,-162.22"/>
</g>
<!-- ValueType&#45;&gt;VtVec3dArray -->
<g id="ValueType&#45;VtVec3dArray" class="edge">
<title>ValueType&#45;&gt;VtVec3dArray</title>
<path fill="none" stroke="green" stroke-dasharray="5,2" d="M1228.24,-222.83C1388.59,-220.5 1738.1,-210.27 2029,-166 2042.25,-163.98 2056.15,-161.25 2069.69,-158.25"/>
<polygon fill="green" stroke="green" points="2070.49,-161.66 2079.46,-156.03 2068.94,-154.84 2070.49,-161.66"/>
</g>
<!-- VtIntArray -->
<g id="node16" class="node">
<title>VtIntArray</title>
<text text-anchor="start" x="966" y="-140.3" font-family="Times,serif" font-size="14.00"> &#160;VtIntArray </text>
<text text-anchor="start" x="966" y="-120.3" font-family="Times,serif" font-size="14.00">vtIntArray: </text>
<text text-anchor="start" x="1061" y="-120.3" font-family="Times,serif" font-size="14.00">[xsd:int]</text>
<polygon fill="none" stroke="black" points="961.5,-113 961.5,-156 1124.5,-156 1124.5,-113 961.5,-113"/>
</g>
<!-- ValueType&#45;&gt;VtIntArray -->
<g id="ValueType&#45;VtIntArray" class="edge">
<title>ValueType&#45;&gt;VtIntArray</title>
<path fill="none" stroke="green" stroke-dasharray="5,2" d="M1116.02,-201.75C1103.17,-190.09 1087.21,-175.6 1073.48,-163.15"/>
<polygon fill="green" stroke="green" points="1075.46,-160.22 1065.7,-156.1 1070.76,-165.41 1075.46,-160.22"/>
</g>
<!-- VtFloatArray -->
<g id="node17" class="node">
<title>VtFloatArray</title>
<text text-anchor="start" x="1147" y="-140.3" font-family="Times,serif" font-size="14.00"> &#160;VtFloatArray </text>
<text text-anchor="start" x="1147" y="-120.3" font-family="Times,serif" font-size="14.00">vtFloatArray: </text>
<text text-anchor="start" x="1258" y="-120.3" font-family="Times,serif" font-size="14.00">[xsd:float]</text>
<polygon fill="none" stroke="black" points="1142.5,-113 1142.5,-156 1333.5,-156 1333.5,-113 1142.5,-113"/>
</g>
<!-- ValueType&#45;&gt;VtFloatArray -->
<g id="ValueType&#45;VtFloatArray" class="edge">
<title>ValueType&#45;&gt;VtFloatArray</title>
<path fill="none" stroke="green" stroke-dasharray="5,2" d="M1163.97,-201.97C1177.07,-190.21 1193.44,-175.52 1207.44,-162.94"/>
<polygon fill="green" stroke="green" points="1209.85,-165.48 1214.95,-156.2 1205.17,-160.28 1209.85,-165.48"/>
</g>
<!-- VtDoubleArray -->
<g id="node18" class="node">
<title>VtDoubleArray</title>
<text text-anchor="start" x="1563" y="-140.3" font-family="Times,serif" font-size="14.00"> &#160;VtDoubleArray </text>
<text text-anchor="start" x="1563" y="-120.3" font-family="Times,serif" font-size="14.00">vtDoubleArray: </text>
<text text-anchor="start" x="1688" y="-120.3" font-family="Times,serif" font-size="14.00">[xsd:double]</text>
<polygon fill="none" stroke="black" points="1558.5,-113 1558.5,-156 1779.5,-156 1779.5,-113 1558.5,-113"/>
</g>
<!-- ValueType&#45;&gt;VtDoubleArray -->
<g id="ValueType&#45;VtDoubleArray" class="edge">
<title>ValueType&#45;&gt;VtDoubleArray</title>
<path fill="none" stroke="green" stroke-dasharray="5,2" d="M1228.05,-214.03C1311.4,-204.39 1439.82,-187.77 1550,-166 1561.09,-163.81 1572.68,-161.22 1584.1,-158.49"/>
<polygon fill="green" stroke="green" points="1585.18,-161.83 1594.07,-156.06 1583.52,-155.03 1585.18,-161.83"/>
</g>
<!-- VtTfTokenArray -->
<g id="node19" class="node">
<title>VtTfTokenArray</title>
<text text-anchor="start" x="28" y="-140.3" font-family="Times,serif" font-size="14.00"> &#160;VtTfTokenArray </text>
<text text-anchor="start" x="28" y="-120.3" font-family="Times,serif" font-size="14.00">vtTfTokenArray: </text>
<text text-anchor="start" x="159" y="-120.3" font-family="Times,serif" font-size="14.00">[xsd:string]</text>
<polygon fill="none" stroke="black" points="24,-113 24,-156 246,-156 246,-113 24,-113"/>
</g>
<!-- ValueType&#45;&gt;VtTfTokenArray -->
<g id="ValueType&#45;VtTfTokenArray" class="edge">
<title>ValueType&#45;&gt;VtTfTokenArray</title>
<path fill="none" stroke="green" stroke-dasharray="5,2" d="M1051.79,-223.12C891.94,-221.25 544.14,-211.74 255,-166 242.6,-164.04 229.62,-161.39 216.96,-158.46"/>
<polygon fill="green" stroke="green" points="217.43,-154.97 206.89,-156.06 215.81,-161.78 217.43,-154.97"/>
</g>
<!-- VtFloat&#45;&gt;TemporalVtFloat -->
<g id="VtFloat&#45;TemporalVtFloat" class="edge">
<title>VtFloat&#45;&gt;TemporalVtFloat</title>
<path fill="none" stroke="blue" stroke-dasharray="5,2" d="M2521.18,-112.88C2517.1,-102.13 2512.03,-88.76 2507.51,-76.85"/>
<polygon fill="blue" stroke="blue" points="2510.7,-75.38 2503.88,-67.27 2504.15,-77.86 2510.7,-75.38"/>
</g>
<!-- VtVec3fArray&#45;&gt;GfVec3f -->
<g id="VtVec3fArray&#45;vtVec3fArray&#45;GfVec3f" class="edge">
<title>VtVec3fArray:vtVec3fArray&#45;&gt;GfVec3f</title>
<path fill="none" stroke="black" d="M1540,-123.5C1550.14,-123.5 1543.21,-110.52 1550,-103 1560.74,-91.11 1574.55,-80.83 1588.15,-72.41"/>
<polygon fill="black" stroke="black" points="1590.21,-75.26 1597.03,-67.16 1586.64,-69.24 1590.21,-75.26"/>
</g>
<!-- VtVec3dArray&#45;&gt;GfVec3d -->
<g id="VtVec3dArray&#45;vtVec3dArray&#45;GfVec3d" class="edge">
<title>VtVec3dArray:vtVec3dArray&#45;&gt;GfVec3d</title>
<path fill="none" stroke="blue" d="M2252,-123.5C2257.17,-123.5 2265.21,-98.49 2271.18,-76.98"/>
<polygon fill="blue" stroke="blue" points="2274.61,-77.7 2273.84,-67.13 2267.85,-75.88 2274.61,-77.7"/>
</g>
<!-- GfMatrix4d&#45;&gt;GfVector4d -->
<g id="GfMatrix4d&#45;gfMatrix4d&#45;GfVector4d" class="edge">
<title>GfMatrix4d:gfMatrix4d&#45;&gt;GfVector4d</title>
<path fill="none" stroke="black" d="M1971,-113.5C1971,-100.22 1976.38,-86.91 1982.85,-75.69"/>
<polygon fill="black" stroke="black" points="1985.84,-77.51 1988.2,-67.18 1979.91,-73.79 1985.84,-77.51"/>
</g>
<!-- Range3d&#45;&gt;GfVec3d -->
<g id="Range3d&#45;max&#45;GfVec3d" class="edge">
<title>Range3d:max&#45;&gt;GfVec3d</title>
<path fill="none" stroke="black" d="M2439,-133.5C2452.56,-133.5 2446,-113.95 2438,-103 2429.15,-90.89 2401.93,-79.42 2372.46,-70.03"/>
<polygon fill="black" stroke="black" points="2373.42,-66.66 2362.83,-67.05 2371.35,-73.35 2373.42,-66.66"/>
</g>
<!-- Range3d&#45;&gt;GfVec3d -->
<g id="Range3d&#45;min&#45;GfVec3d" class="edge">
<title>Range3d:min&#45;&gt;GfVec3d</title>
<path fill="none" stroke="black" d="M2406,-103.5C2406,-83.85 2393.18,-70.93 2375.69,-62.45"/>
<polygon fill="black" stroke="black" points="2376.74,-59.09 2366.16,-58.41 2374,-65.53 2376.74,-59.09"/>
</g>
</g>
</svg>
