<?xml version="1.0" encoding="UTF-8" standalone="no"?>
<!DOCTYPE svg PUBLIC "-//W3C//DTD SVG 1.1//EN"
 "http://www.w3.org/Graphics/SVG/1.1/DTD/svg11.dtd">
<!-- Generated by graphviz version 2.43.0 (0)
 -->
<!-- Title: %3 Pages: 1 -->
<svg width="1262pt" height="362pt"
 viewBox="0.00 0.00 1262.00 362.00" xmlns="http://www.w3.org/2000/svg" xmlns:xlink="http://www.w3.org/1999/xlink">
<g id="graph0" class="graph" transform="scale(1 1) rotate(0) translate(4 358)">
<title>%3</title>
<polygon fill="white" stroke="transparent" points="-4,4 -4,-358 1258,-358 1258,4 -4,4"/>
<g id="clust1" class="cluster">
<title>cluster0</title>
<polygon fill="none" stroke="black" points="8,-8 8,-346 1246,-346 1246,-8 8,-8"/>
<text text-anchor="middle" x="77.5" y="-330.8" font-family="Times,serif" font-size="14.00">Schema: all&#45;v022</text>
</g>
<g id="clust2" class="cluster">
<title>cluster1</title>
<polygon fill="none" stroke="black" points="755,-251 755,-315 931,-315 931,-251 755,-251"/>
<text text-anchor="middle" x="822" y="-299.8" font-family="Times,serif" font-size="14.00">Cluster: product</text>
</g>
<g id="clust3" class="cluster">
<title>cluster2</title>
<polygon fill="none" stroke="black" points="485,-251 485,-315 747,-315 747,-251 485,-251"/>
<text text-anchor="middle" x="531" y="-299.8" font-family="Times,serif" font-size="14.00">Cluster: i4</text>
</g>
<g id="clust4" class="cluster">
<title>cluster3</title>
<polygon fill="none" stroke="black" points="988,-95 988,-159 1238,-159 1238,-95 988,-95"/>
<text text-anchor="middle" x="1038.5" y="-143.8" font-family="Times,serif" font-size="14.00">Cluster: ros</text>
</g>
<g id="clust5" class="cluster">
<title>cluster4</title>
<polygon fill="none" stroke="black" points="16,-251 16,-315 477,-315 477,-251 16,-251"/>
<text text-anchor="middle" x="70.5" y="-299.8" font-family="Times,serif" font-size="14.00">Cluster: core</text>
</g>
<g id="clust11" class="cluster">
<title>cluster10</title>
<polygon fill="none" stroke="black" points="29,-16 29,-243 980,-243 980,-16 29,-16"/>
<text text-anchor="middle" x="86.5" y="-227.8" font-family="Times,serif" font-size="14.00">Cluster: plant</text>
</g>
<!-- ProductInformation -->
<g id="node1" class="node">
<title>ProductInformation</title>
<polygon fill="white" stroke="transparent" points="766,-261.5 766,-280.5 920,-280.5 920,-261.5 766,-261.5"/>
<text text-anchor="start" x="768" y="-267.3" font-family="Times,serif" font-size="14.00"> ProductInformation </text>
<polygon fill="none" stroke="#1e8449" stroke-width="2" points="764,-260 764,-283 922,-283 922,-260 764,-260"/>
</g>
<!-- AssetPart -->
<g id="node22" class="node">
<title>AssetPart</title>
<polygon fill="white" stroke="transparent" points="515,-189.5 515,-208.5 602,-208.5 602,-189.5 515,-189.5"/>
<text text-anchor="start" x="517" y="-195.3" font-family="Times,serif" font-size="14.00"> &#160;AssetPart </text>
<text text-anchor="start" x="517" y="-175.3" font-family="Times,serif" font-size="14.00">partOf: </text>
<text text-anchor="start" x="605" y="-175.3" font-family="Times,serif" font-size="14.00">Asset</text>
<polygon fill="none" stroke="#1e8449" stroke-width="2" points="513,-168 513,-211 649,-211 649,-168 513,-168"/>
</g>
<!-- ProductInformation&#45;&gt;AssetPart -->
<g id="ProductInformation&#45;AssetPart" class="edge">
<title>ProductInformation&#45;&gt;AssetPart</title>
<path fill="none" stroke="#1e8449" stroke-dasharray="5,2" d="M794.02,-258.97C780.17,-256.02 765.05,-253.1 751,-251 710.85,-245 698.32,-256.43 660,-243 643.94,-237.37 627.97,-227.73 614.63,-218.23"/>
<polygon fill="#1e8449" stroke="#1e8449" points="616.4,-215.18 606.28,-212.06 612.24,-220.81 616.4,-215.18"/>
</g>
<!-- ProductionOperation -->
<g id="node2" class="node">
<title>ProductionOperation</title>
<polygon fill="white" stroke="transparent" points="574,-261.5 574,-280.5 737,-280.5 737,-261.5 574,-261.5"/>
<text text-anchor="start" x="576" y="-267.3" font-family="Times,serif" font-size="14.00"> ProductionOperation </text>
<polygon fill="none" stroke="red" stroke-width="2" points="571.5,-260 571.5,-283 738.5,-283 738.5,-260 571.5,-260"/>
</g>
<!-- Grip -->
<g id="node11" class="node">
<title>Grip</title>
<polygon fill="white" stroke="transparent" points="672,-189.5 672,-208.5 735,-208.5 735,-189.5 672,-189.5"/>
<text text-anchor="start" x="680.5" y="-195.3" font-family="Times,serif" font-size="14.00"> &#160;Grip </text>
<text text-anchor="start" x="674" y="-175.3" font-family="Times,serif" font-size="14.00">gripOn: </text>
<text text-anchor="start" x="738" y="-175.3" font-family="Times,serif" font-size="14.00">Grippable</text>
<polygon fill="none" stroke="black" stroke-width="2" points="669.5,-168 669.5,-211 812.5,-211 812.5,-168 669.5,-168"/>
</g>
<!-- ProductionOperation&#45;&gt;Grip -->
<g id="ProductionOperation&#45;Grip" class="edge">
<title>ProductionOperation&#45;&gt;Grip</title>
<path fill="none" stroke="red" stroke-dasharray="5,2" d="M667.69,-258.7C678.91,-248.26 695.73,-232.61 710.43,-218.93"/>
<polygon fill="red" stroke="red" points="712.95,-221.37 717.89,-212 708.18,-216.25 712.95,-221.37"/>
</g>
<!-- Asset -->
<g id="node3" class="node">
<title>Asset</title>
<polygon fill="white" stroke="transparent" points="497,-261.5 497,-280.5 550,-280.5 550,-261.5 497,-261.5"/>
<text text-anchor="start" x="499" y="-267.3" font-family="Times,serif" font-size="14.00"> Asset </text>
<polygon fill="none" stroke="#1e8449" stroke-width="2" points="494.5,-260 494.5,-283 551.5,-283 551.5,-260 494.5,-260"/>
</g>
<!-- AssetGroup -->
<g id="node21" class="node">
<title>AssetGroup</title>
<polygon fill="white" stroke="transparent" points="335,-189.5 335,-208.5 436,-208.5 436,-189.5 335,-189.5"/>
<text text-anchor="start" x="337" y="-195.3" font-family="Times,serif" font-size="14.00"> &#160;AssetGroup </text>
<text text-anchor="start" x="337" y="-175.3" font-family="Times,serif" font-size="14.00">assets: </text>
<text text-anchor="start" x="439" y="-175.3" font-family="Times,serif" font-size="14.00">[Asset]</text>
<polygon fill="none" stroke="#1e8449" stroke-width="2" points="333,-168 333,-211 493,-211 493,-168 333,-168"/>
</g>
<!-- Asset&#45;&gt;AssetGroup -->
<g id="Asset&#45;AssetGroup" class="edge">
<title>Asset&#45;&gt;AssetGroup</title>
<path fill="none" stroke="#1e8449" stroke-dasharray="5,2" d="M506.77,-258.7C492.09,-248.02 469.91,-231.89 450.81,-218"/>
<polygon fill="#1e8449" stroke="#1e8449" points="452.71,-215.05 442.56,-212 448.59,-220.71 452.71,-215.05"/>
</g>
<!-- Geometry -->
<g id="node4" class="node">
<title>Geometry</title>
<polygon fill="white" stroke="transparent" points="1071,-105.5 1071,-124.5 1155,-124.5 1155,-105.5 1071,-105.5"/>
<text text-anchor="start" x="1073" y="-111.3" font-family="Times,serif" font-size="14.00"> Geometry </text>
<polygon fill="none" stroke="cyan" stroke-width="2" points="1069,-104 1069,-127 1157,-127 1157,-104 1069,-104"/>
</g>
<!-- Zone -->
<g id="node10" class="node">
<title>Zone</title>
<polygon fill="white" stroke="transparent" points="835,-189.5 835,-208.5 916,-208.5 916,-189.5 835,-189.5"/>
<text text-anchor="start" x="851" y="-195.3" font-family="Times,serif" font-size="14.00"> &#160;Zone </text>
<text text-anchor="start" x="837" y="-175.3" font-family="Times,serif" font-size="14.00">rectangle: </text>
<text text-anchor="start" x="919" y="-175.3" font-family="Times,serif" font-size="14.00">[Point]</text>
<polygon fill="none" stroke="cyan" stroke-width="2" points="833,-168 833,-211 971,-211 971,-168 833,-168"/>
</g>
<!-- Geometry&#45;&gt;Zone -->
<g id="Geometry&#45;Zone" class="edge">
<title>Geometry&#45;&gt;Zone</title>
<path fill="none" stroke="cyan" stroke-dasharray="5,2" d="M1101.68,-128.13C1091.45,-137.93 1075.51,-151.5 1059,-159 1035.15,-169.83 1007.52,-176.69 982.15,-181.02"/>
<polygon fill="cyan" stroke="cyan" points="981.51,-177.58 972.19,-182.62 982.61,-184.5 981.51,-177.58"/>
</g>
<!-- Point -->
<g id="node5" class="node">
<title>Point</title>
<polygon fill="white" stroke="transparent" points="1178,-105.5 1178,-124.5 1228,-124.5 1228,-105.5 1178,-105.5"/>
<text text-anchor="start" x="1180" y="-111.3" font-family="Times,serif" font-size="14.00"> Point </text>
<polygon fill="none" stroke="black" points="1176,-104 1176,-127 1230,-127 1230,-104 1176,-104"/>
</g>
<!-- Pose -->
<g id="node6" class="node">
<title>Pose</title>
<polygon fill="white" stroke="transparent" points="1000,-105.5 1000,-124.5 1047,-124.5 1047,-105.5 1000,-105.5"/>
<text text-anchor="start" x="1002" y="-111.3" font-family="Times,serif" font-size="14.00"> Pose </text>
<polygon fill="none" stroke="cyan" stroke-width="2" points="997.5,-104 997.5,-127 1048.5,-127 1048.5,-104 997.5,-104"/>
</g>
<!-- PhysicalEntity -->
<g id="node7" class="node">
<title>PhysicalEntity</title>
<polygon fill="white" stroke="transparent" points="171,-261.5 171,-280.5 288,-280.5 288,-261.5 171,-261.5"/>
<text text-anchor="start" x="173" y="-267.3" font-family="Times,serif" font-size="14.00"> PhysicalEntity </text>
<polygon fill="none" stroke="#1e8449" stroke-width="2" points="168.5,-260 168.5,-283 289.5,-283 289.5,-260 168.5,-260"/>
</g>
<!-- Gripper -->
<g id="node12" class="node">
<title>Gripper</title>
<polygon fill="white" stroke="transparent" points="165,-179.5 165,-198.5 239,-198.5 239,-179.5 165,-179.5"/>
<text text-anchor="start" x="167" y="-185.3" font-family="Times,serif" font-size="14.00"> &#160;Gripper </text>
<polygon fill="none" stroke="black" stroke-width="2" points="163,-178 163,-201 241,-201 241,-178 163,-178"/>
</g>
<!-- PhysicalEntity&#45;&gt;Gripper -->
<g id="PhysicalEntity&#45;Gripper" class="edge">
<title>PhysicalEntity&#45;&gt;Gripper</title>
<path fill="none" stroke="#1e8449" stroke-dasharray="5,2" d="M225.02,-258.7C220.84,-246.34 214.21,-226.67 209.13,-211.62"/>
<polygon fill="#1e8449" stroke="#1e8449" points="212.43,-210.45 205.91,-202.09 205.79,-212.69 212.43,-210.45"/>
</g>
<!-- RoomEntity -->
<g id="node16" class="node">
<title>RoomEntity</title>
<polygon fill="white" stroke="transparent" points="39,-179.5 39,-198.5 142,-198.5 142,-179.5 39,-179.5"/>
<text text-anchor="start" x="41" y="-185.3" font-family="Times,serif" font-size="14.00"> &#160;RoomEntity </text>
<polygon fill="none" stroke="black" points="36.5,-178 36.5,-201 143.5,-201 143.5,-178 36.5,-178"/>
</g>
<!-- PhysicalEntity&#45;&gt;RoomEntity -->
<g id="PhysicalEntity&#45;RoomEntity" class="edge">
<title>PhysicalEntity&#45;&gt;RoomEntity</title>
<path fill="none" stroke="#1e8449" stroke-dasharray="5,2" d="M188.78,-258.87C176.88,-254.67 164.07,-249.36 153,-243 136.34,-233.44 119.75,-219.38 107.78,-208.22"/>
<polygon fill="#1e8449" stroke="#1e8449" points="109.93,-205.43 100.28,-201.04 105.09,-210.49 109.93,-205.43"/>
</g>
<!-- PhysicalEntity&#45;&gt;AssetPart -->
<g id="PhysicalEntity&#45;AssetPart" class="edge">
<title>PhysicalEntity&#45;&gt;AssetPart</title>
<path fill="none" stroke="#1e8449" stroke-dasharray="5,2" d="M264.77,-258.96C275.94,-255.83 288.38,-252.8 300,-251 344.61,-244.09 460.09,-257.03 503,-243 519.16,-237.72 535.09,-228.04 548.29,-218.42"/>
<polygon fill="#1e8449" stroke="#1e8449" points="550.7,-220.98 556.55,-212.15 546.47,-215.41 550.7,-220.98"/>
</g>
<!-- AbstractEntity -->
<g id="node8" class="node">
<title>AbstractEntity</title>
<polygon fill="white" stroke="transparent" points="28,-261.5 28,-280.5 147,-280.5 147,-261.5 28,-261.5"/>
<text text-anchor="start" x="30" y="-267.3" font-family="Times,serif" font-size="14.00"> AbstractEntity </text>
<polygon fill="none" stroke="aquamarine" stroke-width="2" points="25.5,-260 25.5,-283 148.5,-283 148.5,-260 25.5,-260"/>
</g>
<!-- Grippable -->
<g id="node13" class="node">
<title>Grippable</title>
<polygon fill="white" stroke="transparent" points="562,-105.5 562,-124.5 651,-124.5 651,-105.5 562,-105.5"/>
<text text-anchor="start" x="564" y="-111.3" font-family="Times,serif" font-size="14.00"> &#160;Grippable </text>
<polygon fill="none" stroke="aquamarine" stroke-width="2" points="559.5,-104 559.5,-127 652.5,-127 652.5,-104 559.5,-104"/>
</g>
<!-- AbstractEntity&#45;&gt;Grippable -->
<g id="AbstractEntity&#45;Grippable" class="edge">
<title>AbstractEntity&#45;&gt;Grippable</title>
<path fill="none" stroke="aquamarine" stroke-dasharray="5,2" d="M46.15,-258.94C38.95,-255.04 32.37,-249.86 28,-243 9.85,-214.51 4.34,-191.1 28,-167 36.51,-158.34 453.01,-160.88 465,-159 500.09,-153.5 538.63,-141.45 566.53,-131.58"/>
<polygon fill="aquamarine" stroke="aquamarine" points="568.08,-134.74 576.3,-128.06 565.71,-128.16 568.08,-134.74"/>
</g>
<!-- CyberPhysicalActor -->
<g id="node9" class="node">
<title>CyberPhysicalActor</title>
<polygon fill="white" stroke="transparent" points="312,-261.5 312,-280.5 466,-280.5 466,-261.5 312,-261.5"/>
<text text-anchor="start" x="314" y="-267.3" font-family="Times,serif" font-size="14.00"> CyberPhysicalActor </text>
<polygon fill="none" stroke="purple" stroke-width="2" points="310,-260 310,-283 468,-283 468,-260 310,-260"/>
</g>
<!-- AGV -->
<g id="node15" class="node">
<title>AGV</title>
<polygon fill="white" stroke="transparent" points="263,-179.5 263,-198.5 312,-198.5 312,-179.5 263,-179.5"/>
<text text-anchor="start" x="265" y="-185.3" font-family="Times,serif" font-size="14.00"> &#160;AGV </text>
<polygon fill="none" stroke="black" points="260.5,-178 260.5,-201 313.5,-201 313.5,-178 260.5,-178"/>
</g>
<!-- CyberPhysicalActor&#45;&gt;AGV -->
<g id="CyberPhysicalActor&#45;AGV" class="edge">
<title>CyberPhysicalActor&#45;&gt;AGV</title>
<path fill="none" stroke="purple" stroke-dasharray="5,2" d="M350.96,-258.99C341.22,-254.92 331.19,-249.65 323,-243 311.99,-234.05 302.97,-220.88 296.71,-209.96"/>
<polygon fill="purple" stroke="purple" points="299.77,-208.26 291.94,-201.11 293.6,-211.58 299.77,-208.26"/>
</g>
<!-- Zone&#45;&gt;Point -->
<g id="Zone&#45;rectangle&#45;Point" class="edge">
<title>Zone:rectangle&#45;&gt;Point</title>
<path fill="none" stroke="cyan" d="M970,-178.5C992,-178.5 1147.52,-169.22 1167,-159 1177.04,-153.73 1185.44,-144.37 1191.59,-135.77"/>
<polygon fill="cyan" stroke="cyan" points="1194.59,-137.57 1197.16,-127.29 1188.74,-133.73 1194.59,-137.57"/>
</g>
<!-- Room -->
<g id="node19" class="node">
<title>Room</title>
<polygon fill="white" stroke="transparent" points="873,-105.5 873,-124.5 932,-124.5 932,-105.5 873,-105.5"/>
<text text-anchor="start" x="875" y="-111.3" font-family="Times,serif" font-size="14.00"> &#160;Room </text>
<polygon fill="none" stroke="black" points="870.5,-104 870.5,-127 933.5,-127 933.5,-104 870.5,-104"/>
</g>
<!-- Zone&#45;&gt;Room -->
<g id="Zone&#45;Room" class="edge">
<title>Zone&#45;&gt;Room</title>
<path fill="none" stroke="cyan" stroke-dasharray="5,2" d="M902,-166.9C902,-157.59 902,-146.75 902,-137.51"/>
<polygon fill="cyan" stroke="cyan" points="905.5,-137.25 902,-127.25 898.5,-137.25 905.5,-137.25"/>
</g>
<!-- Grip&#45;&gt;Grippable -->
<g id="Grip&#45;gripOn&#45;Grippable" class="edge">
<title>Grip:gripOn&#45;&gt;Grippable</title>
<path fill="none" stroke="black" d="M774,-168.5C774,-144.84 712.43,-130.77 663.84,-123.35"/>
<polygon fill="black" stroke="black" points="664.09,-119.85 653.69,-121.87 663.08,-126.78 664.09,-119.85"/>
</g>
<!-- Obstacle -->
<g id="node14" class="node">
<title>Obstacle</title>
<polygon fill="white" stroke="transparent" points="191,-105.5 191,-124.5 271,-124.5 271,-105.5 191,-105.5"/>
<text text-anchor="start" x="193" y="-111.3" font-family="Times,serif" font-size="14.00"> &#160;Obstacle </text>
<polygon fill="none" stroke="black" points="189,-104 189,-127 273,-127 273,-104 189,-104"/>
</g>
<!-- RoomEntity&#45;&gt;Obstacle -->
<g id="RoomEntity&#45;Obstacle" class="edge">
<title>RoomEntity&#45;&gt;Obstacle</title>
<path fill="none" stroke="black" stroke-dasharray="5,2" d="M120.04,-177.97C130.45,-174.4 142.21,-170.44 153,-167 164.92,-163.2 168.97,-164.91 180,-159 192.26,-152.44 204.29,-142.62 213.59,-134.07"/>
<polygon fill="black" stroke="black" points="216.18,-136.44 220.99,-127 211.34,-131.38 216.18,-136.44"/>
</g>
<!-- Passage -->
<g id="node17" class="node">
<title>Passage</title>
<polygon fill="white" stroke="transparent" points="378,-105.5 378,-124.5 454,-124.5 454,-105.5 378,-105.5"/>
<text text-anchor="start" x="380" y="-111.3" font-family="Times,serif" font-size="14.00"> &#160;Passage </text>
<polygon fill="none" stroke="black" points="376,-104 376,-127 456,-127 456,-104 376,-104"/>
</g>
<!-- RoomEntity&#45;&gt;Passage -->
<g id="RoomEntity&#45;Passage" class="edge">
<title>RoomEntity&#45;&gt;Passage</title>
<path fill="none" stroke="black" stroke-dasharray="5,2" d="M115.93,-177.91C127.14,-173.79 140.53,-169.47 153,-167 209.35,-155.85 225.53,-169.54 282,-159 315.93,-152.67 353.27,-140.36 379.9,-130.61"/>
<polygon fill="black" stroke="black" points="381.39,-133.79 389.55,-127.02 378.95,-127.23 381.39,-133.79"/>
</g>
<!-- NoTouchObject -->
<g id="node20" class="node">
<title>NoTouchObject</title>
<polygon fill="white" stroke="transparent" points="41,-105.5 41,-124.5 168,-124.5 168,-105.5 41,-105.5"/>
<text text-anchor="start" x="43" y="-111.3" font-family="Times,serif" font-size="14.00"> &#160;NoTouchObject </text>
<polygon fill="none" stroke="yellow" stroke-width="2" points="38.5,-104 38.5,-127 169.5,-127 169.5,-104 38.5,-104"/>
</g>
<!-- RoomEntity&#45;&gt;NoTouchObject -->
<g id="RoomEntity&#45;NoTouchObject" class="edge">
<title>RoomEntity&#45;&gt;NoTouchObject</title>
<path fill="none" stroke="black" stroke-dasharray="5,2" d="M92.07,-177.88C94.09,-167.49 97.22,-151.36 99.77,-138.24"/>
<polygon fill="black" stroke="black" points="103.27,-138.61 101.74,-128.12 96.4,-137.27 103.27,-138.61"/>
</g>
<!-- Route -->
<g id="node18" class="node">
<title>Route</title>
<polygon fill="white" stroke="transparent" points="599,-45.5 599,-64.5 685,-64.5 685,-45.5 599,-45.5"/>
<text text-anchor="start" x="614" y="-51.3" font-family="Times,serif" font-size="14.00"> &#160;Route </text>
<text text-anchor="start" x="601" y="-31.3" font-family="Times,serif" font-size="14.00">wayPoints: </text>
<text text-anchor="start" x="688" y="-31.3" font-family="Times,serif" font-size="14.00">Pose</text>
<polygon fill="none" stroke="black" points="596.5,-24 596.5,-67 725.5,-67 725.5,-24 596.5,-24"/>
</g>
<!-- Passage&#45;&gt;Route -->
<g id="Passage&#45;Route" class="edge">
<title>Passage&#45;&gt;Route</title>
<path fill="none" stroke="black" stroke-dasharray="5,2" d="M454.01,-103.95C489.25,-94.17 542.67,-79.34 586.42,-67.2"/>
<polygon fill="black" stroke="black" points="587.46,-70.54 596.16,-64.5 585.59,-63.8 587.46,-70.54"/>
</g>
<!-- Route&#45;&gt;Pose -->
<g id="Route&#45;wayPoints&#45;Pose" class="edge">
<title>Route:wayPoints&#45;&gt;Pose</title>
<path fill="none" stroke="black" d="M725,-34.5C843.21,-34.5 872.82,-54.85 984,-95 986.9,-96.05 989.86,-97.25 992.79,-98.54"/>
<polygon fill="black" stroke="black" points="991.4,-101.76 1001.94,-102.85 994.38,-95.42 991.4,-101.76"/>
</g>
<!-- AssetGroup&#45;&gt;Asset -->
<g id="AssetGroup&#45;assets&#45;Asset" class="edge">
<title>AssetGroup:assets&#45;&gt;Asset</title>
<path fill="none" stroke="#1e8449" d="M492,-178.5C506.54,-178.5 497.35,-229.6 503,-243 504.08,-245.56 505.44,-248.12 506.94,-250.57"/>
<polygon fill="#1e8449" stroke="#1e8449" points="504.16,-252.7 512.74,-258.91 509.91,-248.7 504.16,-252.7"/>
</g>
<!-- AssetPart&#45;&gt;Asset -->
<g id="AssetPart&#45;partOf&#45;Asset" class="edge">
<title>AssetPart:partOf&#45;&gt;Asset</title>
<path fill="none" stroke="#1e8449" d="M625,-168.5C625,-157.38 642.3,-161.48 650,-169.5 663.09,-183.12 660.3,-196.17 650,-212 626.67,-247.86 600.7,-232.76 562,-251 559.58,-252.14 557.08,-253.34 554.58,-254.55"/>
<polygon fill="#1e8449" stroke="#1e8449" points="553.02,-251.42 545.6,-258.98 556.12,-257.7 553.02,-251.42"/>
</g>
</g>
</svg>
