solid OpenSCAD_Model
  facet normal 0.994522 0.104529 0
    outer loop
      vertex 40 0 40
      vertex 39.1259 8.31647 0
      vertex 39.1259 8.31647 40
    endloop
  endfacet
  facet normal 0.994522 0.104529 0
    outer loop
      vertex 39.1259 8.31647 0
      vertex 40 0 40
      vertex 40 0 0
    endloop
  endfacet
  facet normal 0.951056 0.309017 0
    outer loop
      vertex 39.1259 8.31647 40
      vertex 36.5418 16.2695 0
      vertex 36.5418 16.2695 40
    endloop
  endfacet
  facet normal 0.951056 0.309017 0
    outer loop
      vertex 36.5418 16.2695 0
      vertex 39.1259 8.31647 40
      vertex 39.1259 8.31647 0
    endloop
  endfacet
  facet normal 0.866026 0.499999 0
    outer loop
      vertex 36.5418 16.2695 40
      vertex 32.3607 23.5114 0
      vertex 32.3607 23.5114 40
    endloop
  endfacet
  facet normal 0.866026 0.499999 0
    outer loop
      vertex 32.3607 23.5114 0
      vertex 36.5418 16.2695 40
      vertex 36.5418 16.2695 0
    endloop
  endfacet
  facet normal 0.743143 0.669133 0
    outer loop
      vertex 32.3607 23.5114 40
      vertex 26.7652 29.7258 0
      vertex 26.7652 29.7258 40
    endloop
  endfacet
  facet normal 0.743143 0.669133 0
    outer loop
      vertex 26.7652 29.7258 0
      vertex 32.3607 23.5114 40
      vertex 32.3607 23.5114 0
    endloop
  endfacet
  facet normal 0.587785 0.809017 -0
    outer loop
      vertex 26.7652 29.7258 0
      vertex 20 34.641 40
      vertex 26.7652 29.7258 40
    endloop
  endfacet
  facet normal 0.587785 0.809017 0
    outer loop
      vertex 20 34.641 40
      vertex 26.7652 29.7258 0
      vertex 20 34.641 0
    endloop
  endfacet
  facet normal 0.406743 0.913543 -0
    outer loop
      vertex 20 34.641 0
      vertex 12.3607 38.0423 40
      vertex 20 34.641 40
    endloop
  endfacet
  facet normal 0.406743 0.913543 0
    outer loop
      vertex 12.3607 38.0423 40
      vertex 20 34.641 0
      vertex 12.3607 38.0423 0
    endloop
  endfacet
  facet normal 0.207909 0.978148 -0
    outer loop
      vertex 12.3607 38.0423 0
      vertex 4.18114 39.7809 40
      vertex 12.3607 38.0423 40
    endloop
  endfacet
  facet normal 0.207909 0.978148 0
    outer loop
      vertex 4.18114 39.7809 40
      vertex 12.3607 38.0423 0
      vertex 4.18114 39.7809 0
    endloop
  endfacet
  facet normal 0 1 -0
    outer loop
      vertex 4.18114 39.7809 0
      vertex -4.18114 39.7809 40
      vertex 4.18114 39.7809 40
    endloop
  endfacet
  facet normal 0 1 0
    outer loop
      vertex -4.18114 39.7809 40
      vertex 4.18114 39.7809 0
      vertex -4.18114 39.7809 0
    endloop
  endfacet
  facet normal -0.207909 0.978148 0
    outer loop
      vertex -4.18114 39.7809 0
      vertex -12.3607 38.0423 40
      vertex -4.18114 39.7809 40
    endloop
  endfacet
  facet normal -0.207909 0.978148 0
    outer loop
      vertex -12.3607 38.0423 40
      vertex -4.18114 39.7809 0
      vertex -12.3607 38.0423 0
    endloop
  endfacet
  facet normal -0.406743 0.913543 0
    outer loop
      vertex -12.3607 38.0423 0
      vertex -20 34.641 40
      vertex -12.3607 38.0423 40
    endloop
  endfacet
  facet normal -0.406743 0.913543 0
    outer loop
      vertex -20 34.641 40
      vertex -12.3607 38.0423 0
      vertex -20 34.641 0
    endloop
  endfacet
  facet normal -0.587785 0.809017 0
    outer loop
      vertex -20 34.641 0
      vertex -26.7652 29.7258 40
      vertex -20 34.641 40
    endloop
  endfacet
  facet normal -0.587785 0.809017 0
    outer loop
      vertex -26.7652 29.7258 40
      vertex -20 34.641 0
      vertex -26.7652 29.7258 0
    endloop
  endfacet
  facet normal -0.743143 0.669133 0
    outer loop
      vertex -32.3607 23.5114 0
      vertex -26.7652 29.7258 40
      vertex -26.7652 29.7258 0
    endloop
  endfacet
  facet normal -0.743143 0.669133 0
    outer loop
      vertex -26.7652 29.7258 40
      vertex -32.3607 23.5114 0
      vertex -32.3607 23.5114 40
    endloop
  endfacet
  facet normal -0.866026 0.499999 0
    outer loop
      vertex -36.5418 16.2695 0
      vertex -32.3607 23.5114 40
      vertex -32.3607 23.5114 0
    endloop
  endfacet
  facet normal -0.866026 0.499999 0
    outer loop
      vertex -32.3607 23.5114 40
      vertex -36.5418 16.2695 0
      vertex -36.5418 16.2695 40
    endloop
  endfacet
  facet normal -0.951056 0.309017 0
    outer loop
      vertex -39.1259 8.31647 0
      vertex -36.5418 16.2695 40
      vertex -36.5418 16.2695 0
    endloop
  endfacet
  facet normal -0.951056 0.309017 0
    outer loop
      vertex -36.5418 16.2695 40
      vertex -39.1259 8.31647 0
      vertex -39.1259 8.31647 40
    endloop
  endfacet
  facet normal -0.994522 0.104529 0
    outer loop
      vertex -40 -0 0
      vertex -39.1259 8.31647 40
      vertex -39.1259 8.31647 0
    endloop
  endfacet
  facet normal -0.994522 0.104529 0
    outer loop
      vertex -39.1259 8.31647 40
      vertex -40 -0 0
      vertex -40 -0 40
    endloop
  endfacet
  facet normal -0.994522 -0.104529 0
    outer loop
      vertex -39.1259 -8.31647 0
      vertex -40 -0 40
      vertex -40 -0 0
    endloop
  endfacet
  facet normal -0.994522 -0.104529 0
    outer loop
      vertex -40 -0 40
      vertex -39.1259 -8.31647 0
      vertex -39.1259 -8.31647 40
    endloop
  endfacet
  facet normal -0.951056 -0.309017 0
    outer loop
      vertex -36.5418 -16.2695 0
      vertex -39.1259 -8.31647 40
      vertex -39.1259 -8.31647 0
    endloop
  endfacet
  facet normal -0.951056 -0.309017 0
    outer loop
      vertex -39.1259 -8.31647 40
      vertex -36.5418 -16.2695 0
      vertex -36.5418 -16.2695 40
    endloop
  endfacet
  facet normal -0.866026 -0.499999 0
    outer loop
      vertex -32.3607 -23.5114 0
      vertex -36.5418 -16.2695 40
      vertex -36.5418 -16.2695 0
    endloop
  endfacet
  facet normal -0.866026 -0.499999 0
    outer loop
      vertex -36.5418 -16.2695 40
      vertex -32.3607 -23.5114 0
      vertex -32.3607 -23.5114 40
    endloop
  endfacet
  facet normal -0.743143 -0.669133 0
    outer loop
      vertex -26.7652 -29.7258 0
      vertex -32.3607 -23.5114 40
      vertex -32.3607 -23.5114 0
    endloop
  endfacet
  facet normal -0.743143 -0.669133 0
    outer loop
      vertex -32.3607 -23.5114 40
      vertex -26.7652 -29.7258 0
      vertex -26.7652 -29.7258 40
    endloop
  endfacet
  facet normal -0.587785 -0.809017 0
    outer loop
      vertex -26.7652 -29.7258 0
      vertex -20 -34.641 40
      vertex -26.7652 -29.7258 40
    endloop
  endfacet
  facet normal -0.587785 -0.809017 -0
    outer loop
      vertex -20 -34.641 40
      vertex -26.7652 -29.7258 0
      vertex -20 -34.641 0
    endloop
  endfacet
  facet normal -0.406743 -0.913543 0
    outer loop
      vertex -20 -34.641 0
      vertex -12.3607 -38.0423 40
      vertex -20 -34.641 40
    endloop
  endfacet
  facet normal -0.406743 -0.913543 -0
    outer loop
      vertex -12.3607 -38.0423 40
      vertex -20 -34.641 0
      vertex -12.3607 -38.0423 0
    endloop
  endfacet
  facet normal -0.207909 -0.978148 0
    outer loop
      vertex -12.3607 -38.0423 0
      vertex -4.18114 -39.7809 40
      vertex -12.3607 -38.0423 40
    endloop
  endfacet
  facet normal -0.207909 -0.978148 -0
    outer loop
      vertex -4.18114 -39.7809 40
      vertex -12.3607 -38.0423 0
      vertex -4.18114 -39.7809 0
    endloop
  endfacet
  facet normal 0 -1 0
    outer loop
      vertex -4.18114 -39.7809 0
      vertex 4.18114 -39.7809 40
      vertex -4.18114 -39.7809 40
    endloop
  endfacet
  facet normal 0 -1 -0
    outer loop
      vertex 4.18114 -39.7809 40
      vertex -4.18114 -39.7809 0
      vertex 4.18114 -39.7809 0
    endloop
  endfacet
  facet normal 0.207909 -0.978148 0
    outer loop
      vertex 4.18114 -39.7809 0
      vertex 12.3607 -38.0423 40
      vertex 4.18114 -39.7809 40
    endloop
  endfacet
  facet normal 0.207909 -0.978148 0
    outer loop
      vertex 12.3607 -38.0423 40
      vertex 4.18114 -39.7809 0
      vertex 12.3607 -38.0423 0
    endloop
  endfacet
  facet normal 0.406743 -0.913543 0
    outer loop
      vertex 12.3607 -38.0423 0
      vertex 20 -34.641 40
      vertex 12.3607 -38.0423 40
    endloop
  endfacet
  facet normal 0.406743 -0.913543 0
    outer loop
      vertex 20 -34.641 40
      vertex 12.3607 -38.0423 0
      vertex 20 -34.641 0
    endloop
  endfacet
  facet normal 0.587785 -0.809017 0
    outer loop
      vertex 20 -34.641 0
      vertex 26.7652 -29.7258 40
      vertex 20 -34.641 40
    endloop
  endfacet
  facet normal 0.587785 -0.809017 0
    outer loop
      vertex 26.7652 -29.7258 40
      vertex 20 -34.641 0
      vertex 26.7652 -29.7258 0
    endloop
  endfacet
  facet normal 0.743143 -0.669133 0
    outer loop
      vertex 26.7652 -29.7258 40
      vertex 32.3607 -23.5114 0
      vertex 32.3607 -23.5114 40
    endloop
  endfacet
  facet normal 0.743143 -0.669133 0
    outer loop
      vertex 32.3607 -23.5114 0
      vertex 26.7652 -29.7258 40
      vertex 26.7652 -29.7258 0
    endloop
  endfacet
  facet normal 0.866026 -0.499999 0
    outer loop
      vertex 32.3607 -23.5114 40
      vertex 36.5418 -16.2695 0
      vertex 36.5418 -16.2695 40
    endloop
  endfacet
  facet normal 0.866026 -0.499999 0
    outer loop
      vertex 36.5418 -16.2695 0
      vertex 32.3607 -23.5114 40
      vertex 32.3607 -23.5114 0
    endloop
  endfacet
  facet normal 0.951056 -0.309017 0
    outer loop
      vertex 36.5418 -16.2695 40
      vertex 39.1259 -8.31647 0
      vertex 39.1259 -8.31647 40
    endloop
  endfacet
  facet normal 0.951056 -0.309017 0
    outer loop
      vertex 39.1259 -8.31647 0
      vertex 36.5418 -16.2695 40
      vertex 36.5418 -16.2695 0
    endloop
  endfacet
  facet normal 0.994522 -0.104529 0
    outer loop
      vertex 39.1259 -8.31647 40
      vertex 40 0 0
      vertex 40 0 40
    endloop
  endfacet
  facet normal 0.994522 -0.104529 0
    outer loop
      vertex 40 0 0
      vertex 39.1259 -8.31647 40
      vertex 39.1259 -8.31647 0
    endloop
  endfacet
  facet normal 0 0 -1
    outer loop
      vertex 39.1259 -8.31647 0
      vertex 39.1259 8.31647 0
      vertex 40 0 0
    endloop
  endfacet
  facet normal 0 0 -1
    outer loop
      vertex 36.5418 -16.2695 0
      vertex 39.1259 8.31647 0
      vertex 39.1259 -8.31647 0
    endloop
  endfacet
  facet normal 0 0 -1
    outer loop
      vertex 36.5418 -16.2695 0
      vertex 36.5418 16.2695 0
      vertex 39.1259 8.31647 0
    endloop
  endfacet
  facet normal 0 0 -1
    outer loop
      vertex 32.3607 -23.5114 0
      vertex 36.5418 16.2695 0
      vertex 36.5418 -16.2695 0
    endloop
  endfacet
  facet normal 0 0 -1
    outer loop
      vertex 32.3607 -23.5114 0
      vertex 32.3607 23.5114 0
      vertex 36.5418 16.2695 0
    endloop
  endfacet
  facet normal 0 0 -1
    outer loop
      vertex 26.7652 -29.7258 0
      vertex 32.3607 23.5114 0
      vertex 32.3607 -23.5114 0
    endloop
  endfacet
  facet normal 0 0 -1
    outer loop
      vertex 26.7652 -29.7258 0
      vertex 26.7652 29.7258 0
      vertex 32.3607 23.5114 0
    endloop
  endfacet
  facet normal 0 0 -1
    outer loop
      vertex 20 -34.641 0
      vertex 26.7652 29.7258 0
      vertex 26.7652 -29.7258 0
    endloop
  endfacet
  facet normal 0 0 -1
    outer loop
      vertex 20 -34.641 0
      vertex 20 34.641 0
      vertex 26.7652 29.7258 0
    endloop
  endfacet
  facet normal 0 0 -1
    outer loop
      vertex 12.3607 -38.0423 0
      vertex 20 34.641 0
      vertex 20 -34.641 0
    endloop
  endfacet
  facet normal 0 0 -1
    outer loop
      vertex 12.3607 -38.0423 0
      vertex 12.3607 38.0423 0
      vertex 20 34.641 0
    endloop
  endfacet
  facet normal 0 0 -1
    outer loop
      vertex 4.18114 -39.7809 0
      vertex 12.3607 38.0423 0
      vertex 12.3607 -38.0423 0
    endloop
  endfacet
  facet normal 0 0 -1
    outer loop
      vertex 4.18114 -39.7809 0
      vertex 4.18114 39.7809 0
      vertex 12.3607 38.0423 0
    endloop
  endfacet
  facet normal 0 0 -1
    outer loop
      vertex -4.18114 -39.7809 0
      vertex 4.18114 39.7809 0
      vertex 4.18114 -39.7809 0
    endloop
  endfacet
  facet normal 0 0 -1
    outer loop
      vertex -4.18114 -39.7809 0
      vertex -4.18114 39.7809 0
      vertex 4.18114 39.7809 0
    endloop
  endfacet
  facet normal 0 0 -1
    outer loop
      vertex -12.3607 -38.0423 0
      vertex -4.18114 39.7809 0
      vertex -4.18114 -39.7809 0
    endloop
  endfacet
  facet normal 0 0 -1
    outer loop
      vertex -12.3607 -38.0423 0
      vertex -12.3607 38.0423 0
      vertex -4.18114 39.7809 0
    endloop
  endfacet
  facet normal 0 0 -1
    outer loop
      vertex -20 -34.641 0
      vertex -12.3607 38.0423 0
      vertex -12.3607 -38.0423 0
    endloop
  endfacet
  facet normal 0 0 -1
    outer loop
      vertex -20 -34.641 0
      vertex -20 34.641 0
      vertex -12.3607 38.0423 0
    endloop
  endfacet
  facet normal 0 0 -1
    outer loop
      vertex -26.7652 -29.7258 0
      vertex -20 34.641 0
      vertex -20 -34.641 0
    endloop
  endfacet
  facet normal 0 0 -1
    outer loop
      vertex -26.7652 -29.7258 0
      vertex -26.7652 29.7258 0
      vertex -20 34.641 0
    endloop
  endfacet
  facet normal 0 0 -1
    outer loop
      vertex -32.3607 -23.5114 0
      vertex -26.7652 29.7258 0
      vertex -26.7652 -29.7258 0
    endloop
  endfacet
  facet normal 0 0 -1
    outer loop
      vertex -32.3607 -23.5114 0
      vertex -32.3607 23.5114 0
      vertex -26.7652 29.7258 0
    endloop
  endfacet
  facet normal 0 0 -1
    outer loop
      vertex -36.5418 -16.2695 0
      vertex -32.3607 23.5114 0
      vertex -32.3607 -23.5114 0
    endloop
  endfacet
  facet normal 0 0 -1
    outer loop
      vertex -36.5418 -16.2695 0
      vertex -36.5418 16.2695 0
      vertex -32.3607 23.5114 0
    endloop
  endfacet
  facet normal 0 0 -1
    outer loop
      vertex -39.1259 -8.31647 0
      vertex -36.5418 16.2695 0
      vertex -36.5418 -16.2695 0
    endloop
  endfacet
  facet normal 0 0 -1
    outer loop
      vertex -39.1259 -8.31647 0
      vertex -39.1259 8.31647 0
      vertex -36.5418 16.2695 0
    endloop
  endfacet
  facet normal 0 -0 -1
    outer loop
      vertex -39.1259 8.31647 0
      vertex -39.1259 -8.31647 0
      vertex -40 -0 0
    endloop
  endfacet
  facet normal 0 0 1
    outer loop
      vertex 39.1259 8.31647 40
      vertex 39.1259 -8.31647 40
      vertex 40 0 40
    endloop
  endfacet
  facet normal 0 0 1
    outer loop
      vertex 36.5418 16.2695 40
      vertex 39.1259 -8.31647 40
      vertex 39.1259 8.31647 40
    endloop
  endfacet
  facet normal 0 0 1
    outer loop
      vertex 36.5418 16.2695 40
      vertex 36.5418 -16.2695 40
      vertex 39.1259 -8.31647 40
    endloop
  endfacet
  facet normal 0 0 1
    outer loop
      vertex 32.3607 23.5114 40
      vertex 36.5418 -16.2695 40
      vertex 36.5418 16.2695 40
    endloop
  endfacet
  facet normal 0 0 1
    outer loop
      vertex 32.3607 23.5114 40
      vertex 32.3607 -23.5114 40
      vertex 36.5418 -16.2695 40
    endloop
  endfacet
  facet normal 0 0 1
    outer loop
      vertex 26.7652 29.7258 40
      vertex 32.3607 -23.5114 40
      vertex 32.3607 23.5114 40
    endloop
  endfacet
  facet normal 0 0 1
    outer loop
      vertex 26.7652 29.7258 40
      vertex 26.7652 -29.7258 40
      vertex 32.3607 -23.5114 40
    endloop
  endfacet
  facet normal 0 0 1
    outer loop
      vertex 20 34.641 40
      vertex 26.7652 -29.7258 40
      vertex 26.7652 29.7258 40
    endloop
  endfacet
  facet normal 0 0 1
    outer loop
      vertex 20 34.641 40
      vertex 20 -34.641 40
      vertex 26.7652 -29.7258 40
    endloop
  endfacet
  facet normal 0 0 1
    outer loop
      vertex 12.3607 38.0423 40
      vertex 20 -34.641 40
      vertex 20 34.641 40
    endloop
  endfacet
  facet normal 0 0 1
    outer loop
      vertex 12.3607 38.0423 40
      vertex 12.3607 -38.0423 40
      vertex 20 -34.641 40
    endloop
  endfacet
  facet normal 0 0 1
    outer loop
      vertex 4.18114 39.7809 40
      vertex 12.3607 -38.0423 40
      vertex 12.3607 38.0423 40
    endloop
  endfacet
  facet normal 0 0 1
    outer loop
      vertex 4.18114 39.7809 40
      vertex 4.18114 -39.7809 40
      vertex 12.3607 -38.0423 40
    endloop
  endfacet
  facet normal -0 0 1
    outer loop
      vertex -4.18114 39.7809 40
      vertex 4.18114 -39.7809 40
      vertex 4.18114 39.7809 40
    endloop
  endfacet
  facet normal 0 0 1
    outer loop
      vertex -4.18114 39.7809 40
      vertex -4.18114 -39.7809 40
      vertex 4.18114 -39.7809 40
    endloop
  endfacet
  facet normal -0 0 1
    outer loop
      vertex -12.3607 38.0423 40
      vertex -4.18114 -39.7809 40
      vertex -4.18114 39.7809 40
    endloop
  endfacet
  facet normal 0 0 1
    outer loop
      vertex -12.3607 38.0423 40
      vertex -12.3607 -38.0423 40
      vertex -4.18114 -39.7809 40
    endloop
  endfacet
  facet normal -0 0 1
    outer loop
      vertex -20 34.641 40
      vertex -12.3607 -38.0423 40
      vertex -12.3607 38.0423 40
    endloop
  endfacet
  facet normal 0 0 1
    outer loop
      vertex -20 34.641 40
      vertex -20 -34.641 40
      vertex -12.3607 -38.0423 40
    endloop
  endfacet
  facet normal -0 0 1
    outer loop
      vertex -26.7652 29.7258 40
      vertex -20 -34.641 40
      vertex -20 34.641 40
    endloop
  endfacet
  facet normal 0 0 1
    outer loop
      vertex -26.7652 29.7258 40
      vertex -26.7652 -29.7258 40
      vertex -20 -34.641 40
    endloop
  endfacet
  facet normal -0 0 1
    outer loop
      vertex -32.3607 23.5114 40
      vertex -26.7652 -29.7258 40
      vertex -26.7652 29.7258 40
    endloop
  endfacet
  facet normal 0 0 1
    outer loop
      vertex -32.3607 23.5114 40
      vertex -32.3607 -23.5114 40
      vertex -26.7652 -29.7258 40
    endloop
  endfacet
  facet normal -0 0 1
    outer loop
      vertex -36.5418 16.2695 40
      vertex -32.3607 -23.5114 40
      vertex -32.3607 23.5114 40
    endloop
  endfacet
  facet normal 0 0 1
    outer loop
      vertex -36.5418 16.2695 40
      vertex -36.5418 -16.2695 40
      vertex -32.3607 -23.5114 40
    endloop
  endfacet
  facet normal -0 0 1
    outer loop
      vertex -39.1259 8.31647 40
      vertex -36.5418 -16.2695 40
      vertex -36.5418 16.2695 40
    endloop
  endfacet
  facet normal 0 0 1
    outer loop
      vertex -39.1259 8.31647 40
      vertex -39.1259 -8.31647 40
      vertex -36.5418 -16.2695 40
    endloop
  endfacet
  facet normal 0 -0 1
    outer loop
      vertex -39.1259 -8.31647 40
      vertex -39.1259 8.31647 40
      vertex -40 -0 40
    endloop
  endfacet
endsolid OpenSCAD_Model
