solid OpenSCAD_Model
  facet normal 0.994523 0.104517 0
    outer loop
      vertex 20 0 60
      vertex 19.563 4.15823 0
      vertex 19.563 4.15823 60
    endloop
  endfacet
  facet normal 0.994523 0.104517 0
    outer loop
      vertex 19.563 4.15823 0
      vertex 20 0 60
      vertex 20 0 0
    endloop
  endfacet
  facet normal 0.951053 0.309029 0
    outer loop
      vertex 19.563 4.15823 60
      vertex 18.2709 8.13473 0
      vertex 18.2709 8.13473 60
    endloop
  endfacet
  facet normal 0.951053 0.309029 0
    outer loop
      vertex 18.2709 8.13473 0
      vertex 19.563 4.15823 60
      vertex 19.563 4.15823 0
    endloop
  endfacet
  facet normal 0.866022 0.500006 0
    outer loop
      vertex 18.2709 8.13473 60
      vertex 16.1803 11.7557 0
      vertex 16.1803 11.7557 60
    endloop
  endfacet
  facet normal 0.866022 0.500006 0
    outer loop
      vertex 16.1803 11.7557 0
      vertex 18.2709 8.13473 60
      vertex 18.2709 8.13473 0
    endloop
  endfacet
  facet normal 0.743149 0.669126 0
    outer loop
      vertex 16.1803 11.7557 60
      vertex 13.3826 14.8629 0
      vertex 13.3826 14.8629 60
    endloop
  endfacet
  facet normal 0.743149 0.669126 0
    outer loop
      vertex 13.3826 14.8629 0
      vertex 16.1803 11.7557 60
      vertex 16.1803 11.7557 0
    endloop
  endfacet
  facet normal 0.587785 0.809017 -0
    outer loop
      vertex 13.3826 14.8629 0
      vertex 10 17.3205 60
      vertex 13.3826 14.8629 60
    endloop
  endfacet
  facet normal 0.587785 0.809017 0
    outer loop
      vertex 10 17.3205 60
      vertex 13.3826 14.8629 0
      vertex 10 17.3205 0
    endloop
  endfacet
  facet normal 0.406732 0.913547 -0
    outer loop
      vertex 10 17.3205 0
      vertex 6.18034 19.0211 60
      vertex 10 17.3205 60
    endloop
  endfacet
  facet normal 0.406732 0.913547 0
    outer loop
      vertex 6.18034 19.0211 60
      vertex 10 17.3205 0
      vertex 6.18034 19.0211 0
    endloop
  endfacet
  facet normal 0.20791 0.978148 -0
    outer loop
      vertex 6.18034 19.0211 0
      vertex 2.09057 19.8904 60
      vertex 6.18034 19.0211 60
    endloop
  endfacet
  facet normal 0.20791 0.978148 0
    outer loop
      vertex 2.09057 19.8904 60
      vertex 6.18034 19.0211 0
      vertex 2.09057 19.8904 0
    endloop
  endfacet
  facet normal 0 1 -0
    outer loop
      vertex 2.09057 19.8904 0
      vertex -2.09057 19.8904 60
      vertex 2.09057 19.8904 60
    endloop
  endfacet
  facet normal 0 1 0
    outer loop
      vertex -2.09057 19.8904 60
      vertex 2.09057 19.8904 0
      vertex -2.09057 19.8904 0
    endloop
  endfacet
  facet normal -0.20791 0.978148 0
    outer loop
      vertex -2.09057 19.8904 0
      vertex -6.18034 19.0211 60
      vertex -2.09057 19.8904 60
    endloop
  endfacet
  facet normal -0.20791 0.978148 0
    outer loop
      vertex -6.18034 19.0211 60
      vertex -2.09057 19.8904 0
      vertex -6.18034 19.0211 0
    endloop
  endfacet
  facet normal -0.406732 0.913547 0
    outer loop
      vertex -6.18034 19.0211 0
      vertex -10 17.3205 60
      vertex -6.18034 19.0211 60
    endloop
  endfacet
  facet normal -0.406732 0.913547 0
    outer loop
      vertex -10 17.3205 60
      vertex -6.18034 19.0211 0
      vertex -10 17.3205 0
    endloop
  endfacet
  facet normal -0.587785 0.809017 0
    outer loop
      vertex -10 17.3205 0
      vertex -13.3826 14.8629 60
      vertex -10 17.3205 60
    endloop
  endfacet
  facet normal -0.587785 0.809017 0
    outer loop
      vertex -13.3826 14.8629 60
      vertex -10 17.3205 0
      vertex -13.3826 14.8629 0
    endloop
  endfacet
  facet normal -0.743149 0.669126 0
    outer loop
      vertex -16.1803 11.7557 0
      vertex -13.3826 14.8629 60
      vertex -13.3826 14.8629 0
    endloop
  endfacet
  facet normal -0.743149 0.669126 0
    outer loop
      vertex -13.3826 14.8629 60
      vertex -16.1803 11.7557 0
      vertex -16.1803 11.7557 60
    endloop
  endfacet
  facet normal -0.866022 0.500006 0
    outer loop
      vertex -18.2709 8.13473 0
      vertex -16.1803 11.7557 60
      vertex -16.1803 11.7557 0
    endloop
  endfacet
  facet normal -0.866022 0.500006 0
    outer loop
      vertex -16.1803 11.7557 60
      vertex -18.2709 8.13473 0
      vertex -18.2709 8.13473 60
    endloop
  endfacet
  facet normal -0.951053 0.309029 0
    outer loop
      vertex -19.563 4.15823 0
      vertex -18.2709 8.13473 60
      vertex -18.2709 8.13473 0
    endloop
  endfacet
  facet normal -0.951053 0.309029 0
    outer loop
      vertex -18.2709 8.13473 60
      vertex -19.563 4.15823 0
      vertex -19.563 4.15823 60
    endloop
  endfacet
  facet normal -0.994523 0.104517 0
    outer loop
      vertex -20 -0 0
      vertex -19.563 4.15823 60
      vertex -19.563 4.15823 0
    endloop
  endfacet
  facet normal -0.994523 0.104517 0
    outer loop
      vertex -19.563 4.15823 60
      vertex -20 -0 0
      vertex -20 -0 60
    endloop
  endfacet
  facet normal -0.994523 -0.104517 0
    outer loop
      vertex -19.563 -4.15823 0
      vertex -20 -0 60
      vertex -20 -0 0
    endloop
  endfacet
  facet normal -0.994523 -0.104517 0
    outer loop
      vertex -20 -0 60
      vertex -19.563 -4.15823 0
      vertex -19.563 -4.15823 60
    endloop
  endfacet
  facet normal -0.951053 -0.309029 0
    outer loop
      vertex -18.2709 -8.13473 0
      vertex -19.563 -4.15823 60
      vertex -19.563 -4.15823 0
    endloop
  endfacet
  facet normal -0.951053 -0.309029 0
    outer loop
      vertex -19.563 -4.15823 60
      vertex -18.2709 -8.13473 0
      vertex -18.2709 -8.13473 60
    endloop
  endfacet
  facet normal -0.866022 -0.500006 0
    outer loop
      vertex -16.1803 -11.7557 0
      vertex -18.2709 -8.13473 60
      vertex -18.2709 -8.13473 0
    endloop
  endfacet
  facet normal -0.866022 -0.500006 0
    outer loop
      vertex -18.2709 -8.13473 60
      vertex -16.1803 -11.7557 0
      vertex -16.1803 -11.7557 60
    endloop
  endfacet
  facet normal -0.743149 -0.669126 0
    outer loop
      vertex -13.3826 -14.8629 0
      vertex -16.1803 -11.7557 60
      vertex -16.1803 -11.7557 0
    endloop
  endfacet
  facet normal -0.743149 -0.669126 0
    outer loop
      vertex -16.1803 -11.7557 60
      vertex -13.3826 -14.8629 0
      vertex -13.3826 -14.8629 60
    endloop
  endfacet
  facet normal -0.587785 -0.809017 0
    outer loop
      vertex -13.3826 -14.8629 0
      vertex -10 -17.3205 60
      vertex -13.3826 -14.8629 60
    endloop
  endfacet
  facet normal -0.587785 -0.809017 -0
    outer loop
      vertex -10 -17.3205 60
      vertex -13.3826 -14.8629 0
      vertex -10 -17.3205 0
    endloop
  endfacet
  facet normal -0.406732 -0.913547 0
    outer loop
      vertex -10 -17.3205 0
      vertex -6.18034 -19.0211 60
      vertex -10 -17.3205 60
    endloop
  endfacet
  facet normal -0.406732 -0.913547 -0
    outer loop
      vertex -6.18034 -19.0211 60
      vertex -10 -17.3205 0
      vertex -6.18034 -19.0211 0
    endloop
  endfacet
  facet normal -0.20791 -0.978148 0
    outer loop
      vertex -6.18034 -19.0211 0
      vertex -2.09057 -19.8904 60
      vertex -6.18034 -19.0211 60
    endloop
  endfacet
  facet normal -0.20791 -0.978148 -0
    outer loop
      vertex -2.09057 -19.8904 60
      vertex -6.18034 -19.0211 0
      vertex -2.09057 -19.8904 0
    endloop
  endfacet
  facet normal 0 -1 0
    outer loop
      vertex -2.09057 -19.8904 0
      vertex 2.09057 -19.8904 60
      vertex -2.09057 -19.8904 60
    endloop
  endfacet
  facet normal 0 -1 -0
    outer loop
      vertex 2.09057 -19.8904 60
      vertex -2.09057 -19.8904 0
      vertex 2.09057 -19.8904 0
    endloop
  endfacet
  facet normal 0.20791 -0.978148 0
    outer loop
      vertex 2.09057 -19.8904 0
      vertex 6.18034 -19.0211 60
      vertex 2.09057 -19.8904 60
    endloop
  endfacet
  facet normal 0.20791 -0.978148 0
    outer loop
      vertex 6.18034 -19.0211 60
      vertex 2.09057 -19.8904 0
      vertex 6.18034 -19.0211 0
    endloop
  endfacet
  facet normal 0.406732 -0.913547 0
    outer loop
      vertex 6.18034 -19.0211 0
      vertex 10 -17.3205 60
      vertex 6.18034 -19.0211 60
    endloop
  endfacet
  facet normal 0.406732 -0.913547 0
    outer loop
      vertex 10 -17.3205 60
      vertex 6.18034 -19.0211 0
      vertex 10 -17.3205 0
    endloop
  endfacet
  facet normal 0.587785 -0.809017 0
    outer loop
      vertex 10 -17.3205 0
      vertex 13.3826 -14.8629 60
      vertex 10 -17.3205 60
    endloop
  endfacet
  facet normal 0.587785 -0.809017 0
    outer loop
      vertex 13.3826 -14.8629 60
      vertex 10 -17.3205 0
      vertex 13.3826 -14.8629 0
    endloop
  endfacet
  facet normal 0.743149 -0.669126 0
    outer loop
      vertex 13.3826 -14.8629 60
      vertex 16.1803 -11.7557 0
      vertex 16.1803 -11.7557 60
    endloop
  endfacet
  facet normal 0.743149 -0.669126 0
    outer loop
      vertex 16.1803 -11.7557 0
      vertex 13.3826 -14.8629 60
      vertex 13.3826 -14.8629 0
    endloop
  endfacet
  facet normal 0.866022 -0.500006 0
    outer loop
      vertex 16.1803 -11.7557 60
      vertex 18.2709 -8.13473 0
      vertex 18.2709 -8.13473 60
    endloop
  endfacet
  facet normal 0.866022 -0.500006 0
    outer loop
      vertex 18.2709 -8.13473 0
      vertex 16.1803 -11.7557 60
      vertex 16.1803 -11.7557 0
    endloop
  endfacet
  facet normal 0.951053 -0.309029 0
    outer loop
      vertex 18.2709 -8.13473 60
      vertex 19.563 -4.15823 0
      vertex 19.563 -4.15823 60
    endloop
  endfacet
  facet normal 0.951053 -0.309029 0
    outer loop
      vertex 19.563 -4.15823 0
      vertex 18.2709 -8.13473 60
      vertex 18.2709 -8.13473 0
    endloop
  endfacet
  facet normal 0.994523 -0.104517 0
    outer loop
      vertex 19.563 -4.15823 60
      vertex 20 0 0
      vertex 20 0 60
    endloop
  endfacet
  facet normal 0.994523 -0.104517 0
    outer loop
      vertex 20 0 0
      vertex 19.563 -4.15823 60
      vertex 19.563 -4.15823 0
    endloop
  endfacet
  facet normal 0 0 -1
    outer loop
      vertex 19.563 -4.15823 0
      vertex 19.563 4.15823 0
      vertex 20 0 0
    endloop
  endfacet
  facet normal 0 0 -1
    outer loop
      vertex 18.2709 -8.13473 0
      vertex 19.563 4.15823 0
      vertex 19.563 -4.15823 0
    endloop
  endfacet
  facet normal 0 0 -1
    outer loop
      vertex 18.2709 -8.13473 0
      vertex 18.2709 8.13473 0
      vertex 19.563 4.15823 0
    endloop
  endfacet
  facet normal 0 0 -1
    outer loop
      vertex 16.1803 -11.7557 0
      vertex 18.2709 8.13473 0
      vertex 18.2709 -8.13473 0
    endloop
  endfacet
  facet normal 0 0 -1
    outer loop
      vertex 16.1803 -11.7557 0
      vertex 16.1803 11.7557 0
      vertex 18.2709 8.13473 0
    endloop
  endfacet
  facet normal 0 0 -1
    outer loop
      vertex 13.3826 -14.8629 0
      vertex 16.1803 11.7557 0
      vertex 16.1803 -11.7557 0
    endloop
  endfacet
  facet normal 0 0 -1
    outer loop
      vertex 13.3826 -14.8629 0
      vertex 13.3826 14.8629 0
      vertex 16.1803 11.7557 0
    endloop
  endfacet
  facet normal 0 0 -1
    outer loop
      vertex 10 -17.3205 0
      vertex 13.3826 14.8629 0
      vertex 13.3826 -14.8629 0
    endloop
  endfacet
  facet normal 0 0 -1
    outer loop
      vertex 10 -17.3205 0
      vertex 10 17.3205 0
      vertex 13.3826 14.8629 0
    endloop
  endfacet
  facet normal 0 0 -1
    outer loop
      vertex 6.18034 -19.0211 0
      vertex 10 17.3205 0
      vertex 10 -17.3205 0
    endloop
  endfacet
  facet normal 0 0 -1
    outer loop
      vertex 6.18034 -19.0211 0
      vertex 6.18034 19.0211 0
      vertex 10 17.3205 0
    endloop
  endfacet
  facet normal 0 0 -1
    outer loop
      vertex 2.09057 -19.8904 0
      vertex 6.18034 19.0211 0
      vertex 6.18034 -19.0211 0
    endloop
  endfacet
  facet normal 0 0 -1
    outer loop
      vertex 2.09057 -19.8904 0
      vertex 2.09057 19.8904 0
      vertex 6.18034 19.0211 0
    endloop
  endfacet
  facet normal 0 0 -1
    outer loop
      vertex -2.09057 -19.8904 0
      vertex 2.09057 19.8904 0
      vertex 2.09057 -19.8904 0
    endloop
  endfacet
  facet normal 0 0 -1
    outer loop
      vertex -2.09057 -19.8904 0
      vertex -2.09057 19.8904 0
      vertex 2.09057 19.8904 0
    endloop
  endfacet
  facet normal 0 0 -1
    outer loop
      vertex -6.18034 -19.0211 0
      vertex -2.09057 19.8904 0
      vertex -2.09057 -19.8904 0
    endloop
  endfacet
  facet normal 0 0 -1
    outer loop
      vertex -6.18034 -19.0211 0
      vertex -6.18034 19.0211 0
      vertex -2.09057 19.8904 0
    endloop
  endfacet
  facet normal 0 0 -1
    outer loop
      vertex -10 -17.3205 0
      vertex -6.18034 19.0211 0
      vertex -6.18034 -19.0211 0
    endloop
  endfacet
  facet normal 0 0 -1
    outer loop
      vertex -10 -17.3205 0
      vertex -10 17.3205 0
      vertex -6.18034 19.0211 0
    endloop
  endfacet
  facet normal 0 0 -1
    outer loop
      vertex -13.3826 -14.8629 0
      vertex -10 17.3205 0
      vertex -10 -17.3205 0
    endloop
  endfacet
  facet normal 0 0 -1
    outer loop
      vertex -13.3826 -14.8629 0
      vertex -13.3826 14.8629 0
      vertex -10 17.3205 0
    endloop
  endfacet
  facet normal 0 0 -1
    outer loop
      vertex -16.1803 -11.7557 0
      vertex -13.3826 14.8629 0
      vertex -13.3826 -14.8629 0
    endloop
  endfacet
  facet normal 0 0 -1
    outer loop
      vertex -16.1803 -11.7557 0
      vertex -16.1803 11.7557 0
      vertex -13.3826 14.8629 0
    endloop
  endfacet
  facet normal 0 0 -1
    outer loop
      vertex -18.2709 -8.13473 0
      vertex -16.1803 11.7557 0
      vertex -16.1803 -11.7557 0
    endloop
  endfacet
  facet normal 0 0 -1
    outer loop
      vertex -18.2709 -8.13473 0
      vertex -18.2709 8.13473 0
      vertex -16.1803 11.7557 0
    endloop
  endfacet
  facet normal 0 0 -1
    outer loop
      vertex -19.563 -4.15823 0
      vertex -18.2709 8.13473 0
      vertex -18.2709 -8.13473 0
    endloop
  endfacet
  facet normal 0 0 -1
    outer loop
      vertex -19.563 -4.15823 0
      vertex -19.563 4.15823 0
      vertex -18.2709 8.13473 0
    endloop
  endfacet
  facet normal 0 -0 -1
    outer loop
      vertex -19.563 4.15823 0
      vertex -19.563 -4.15823 0
      vertex -20 -0 0
    endloop
  endfacet
  facet normal 0 0 1
    outer loop
      vertex 19.563 4.15823 60
      vertex 19.563 -4.15823 60
      vertex 20 0 60
    endloop
  endfacet
  facet normal 0 0 1
    outer loop
      vertex 18.2709 8.13473 60
      vertex 19.563 -4.15823 60
      vertex 19.563 4.15823 60
    endloop
  endfacet
  facet normal 0 0 1
    outer loop
      vertex 18.2709 8.13473 60
      vertex 18.2709 -8.13473 60
      vertex 19.563 -4.15823 60
    endloop
  endfacet
  facet normal 0 0 1
    outer loop
      vertex 16.1803 11.7557 60
      vertex 18.2709 -8.13473 60
      vertex 18.2709 8.13473 60
    endloop
  endfacet
  facet normal 0 0 1
    outer loop
      vertex 16.1803 11.7557 60
      vertex 16.1803 -11.7557 60
      vertex 18.2709 -8.13473 60
    endloop
  endfacet
  facet normal 0 0 1
    outer loop
      vertex 13.3826 14.8629 60
      vertex 16.1803 -11.7557 60
      vertex 16.1803 11.7557 60
    endloop
  endfacet
  facet normal 0 0 1
    outer loop
      vertex 13.3826 14.8629 60
      vertex 13.3826 -14.8629 60
      vertex 16.1803 -11.7557 60
    endloop
  endfacet
  facet normal 0 0 1
    outer loop
      vertex 10 17.3205 60
      vertex 13.3826 -14.8629 60
      vertex 13.3826 14.8629 60
    endloop
  endfacet
  facet normal 0 0 1
    outer loop
      vertex 10 17.3205 60
      vertex 10 -17.3205 60
      vertex 13.3826 -14.8629 60
    endloop
  endfacet
  facet normal 0 0 1
    outer loop
      vertex 6.18034 19.0211 60
      vertex 10 -17.3205 60
      vertex 10 17.3205 60
    endloop
  endfacet
  facet normal 0 0 1
    outer loop
      vertex 6.18034 19.0211 60
      vertex 6.18034 -19.0211 60
      vertex 10 -17.3205 60
    endloop
  endfacet
  facet normal 0 0 1
    outer loop
      vertex 2.09057 19.8904 60
      vertex 6.18034 -19.0211 60
      vertex 6.18034 19.0211 60
    endloop
  endfacet
  facet normal 0 0 1
    outer loop
      vertex 2.09057 19.8904 60
      vertex 2.09057 -19.8904 60
      vertex 6.18034 -19.0211 60
    endloop
  endfacet
  facet normal -0 0 1
    outer loop
      vertex -2.09057 19.8904 60
      vertex 2.09057 -19.8904 60
      vertex 2.09057 19.8904 60
    endloop
  endfacet
  facet normal 0 0 1
    outer loop
      vertex -2.09057 19.8904 60
      vertex -2.09057 -19.8904 60
      vertex 2.09057 -19.8904 60
    endloop
  endfacet
  facet normal -0 0 1
    outer loop
      vertex -6.18034 19.0211 60
      vertex -2.09057 -19.8904 60
      vertex -2.09057 19.8904 60
    endloop
  endfacet
  facet normal 0 0 1
    outer loop
      vertex -6.18034 19.0211 60
      vertex -6.18034 -19.0211 60
      vertex -2.09057 -19.8904 60
    endloop
  endfacet
  facet normal -0 0 1
    outer loop
      vertex -10 17.3205 60
      vertex -6.18034 -19.0211 60
      vertex -6.18034 19.0211 60
    endloop
  endfacet
  facet normal 0 0 1
    outer loop
      vertex -10 17.3205 60
      vertex -10 -17.3205 60
      vertex -6.18034 -19.0211 60
    endloop
  endfacet
  facet normal -0 0 1
    outer loop
      vertex -13.3826 14.8629 60
      vertex -10 -17.3205 60
      vertex -10 17.3205 60
    endloop
  endfacet
  facet normal 0 0 1
    outer loop
      vertex -13.3826 14.8629 60
      vertex -13.3826 -14.8629 60
      vertex -10 -17.3205 60
    endloop
  endfacet
  facet normal -0 0 1
    outer loop
      vertex -16.1803 11.7557 60
      vertex -13.3826 -14.8629 60
      vertex -13.3826 14.8629 60
    endloop
  endfacet
  facet normal 0 0 1
    outer loop
      vertex -16.1803 11.7557 60
      vertex -16.1803 -11.7557 60
      vertex -13.3826 -14.8629 60
    endloop
  endfacet
  facet normal -0 0 1
    outer loop
      vertex -18.2709 8.13473 60
      vertex -16.1803 -11.7557 60
      vertex -16.1803 11.7557 60
    endloop
  endfacet
  facet normal 0 0 1
    outer loop
      vertex -18.2709 8.13473 60
      vertex -18.2709 -8.13473 60
      vertex -16.1803 -11.7557 60
    endloop
  endfacet
  facet normal -0 0 1
    outer loop
      vertex -19.563 4.15823 60
      vertex -18.2709 -8.13473 60
      vertex -18.2709 8.13473 60
    endloop
  endfacet
  facet normal 0 0 1
    outer loop
      vertex -19.563 4.15823 60
      vertex -19.563 -4.15823 60
      vertex -18.2709 -8.13473 60
    endloop
  endfacet
  facet normal 0 -0 1
    outer loop
      vertex -19.563 -4.15823 60
      vertex -19.563 4.15823 60
      vertex -20 -0 60
    endloop
  endfacet
endsolid OpenSCAD_Model
