<?xml version="1.0" encoding="UTF-8" standalone="no"?>
<!DOCTYPE svg PUBLIC "-//W3C//DTD SVG 1.1//EN"
 "http://www.w3.org/Graphics/SVG/1.1/DTD/svg11.dtd">
<!-- Generated by graphviz version 2.43.0 (0)
 -->
<!-- Title: %3 Pages: 1 -->
<svg width="716pt" height="1040pt"
 viewBox="0.00 0.00 716.00 1040.00" xmlns="http://www.w3.org/2000/svg" xmlns:xlink="http://www.w3.org/1999/xlink">
<g id="graph0" class="graph" transform="scale(1 1) rotate(0) translate(4 1036)">
<title>%3</title>
<polygon fill="white" stroke="transparent" points="-4,4 -4,-1036 712,-1036 712,4 -4,4"/>
<g id="clust1" class="cluster">
<title>cluster0</title>
<polygon fill="none" stroke="black" points="8,-8 8,-1024 700,-1024 700,-8 8,-8"/>
<text text-anchor="middle" x="77.5" y="-1008.8" font-family="Times,serif" font-size="14.00">Schema: all&#45;v022</text>
</g>
<g id="clust2" class="cluster">
<title>cluster1</title>
<polygon fill="none" stroke="black" points="16,-16 16,-993 562,-993 562,-16 16,-16"/>
<text text-anchor="middle" x="68.5" y="-977.8" font-family="Times,serif" font-size="14.00">Cluster: bdd</text>
</g>
<!-- BDDBehavior -->
<g id="node1" class="node">
<title>BDDBehavior</title>
<polygon fill="white" stroke="transparent" points="259,-939.5 259,-958.5 374,-958.5 374,-939.5 259,-939.5"/>
<text text-anchor="start" x="261" y="-945.3" font-family="Times,serif" font-size="14.00"> &#160;BDDBehavior </text>
<text text-anchor="start" x="261" y="-925.3" font-family="Times,serif" font-size="14.00">feature: </text>
<text text-anchor="start" x="385.5" y="-925.3" font-family="Times,serif" font-size="14.00">BDDFeature</text>
<text text-anchor="start" x="261" y="-905.3" font-family="Times,serif" font-size="14.00">describes: </text>
<text text-anchor="start" x="377" y="-905.3" font-family="Times,serif" font-size="14.00">AbstractEntity</text>
<polygon fill="none" stroke="blue" stroke-width="2" points="257,-898 257,-961 487,-961 487,-898 257,-898"/>
</g>
<!-- BDDFeature -->
<g id="node2" class="node">
<title>BDDFeature</title>
<polygon fill="white" stroke="transparent" points="211,-839.5 211,-858.5 351,-858.5 351,-839.5 211,-839.5"/>
<text text-anchor="start" x="229.5" y="-845.3" font-family="Times,serif" font-size="14.00"> &#160;BDDFeature </text>
<text text-anchor="start" x="213" y="-825.3" font-family="Times,serif" font-size="14.00">descriptions: </text>
<text text-anchor="start" x="398.5" y="-825.3" font-family="Times,serif" font-size="14.00">xsd:string</text>
<text text-anchor="start" x="213" y="-805.3" font-family="Times,serif" font-size="14.00">background: </text>
<text text-anchor="start" x="375.5" y="-805.3" font-family="Times,serif" font-size="14.00">BDDBackground</text>
<text text-anchor="start" x="213" y="-785.3" font-family="Times,serif" font-size="14.00">rule: </text>
<text text-anchor="start" x="402" y="-785.3" font-family="Times,serif" font-size="14.00">BDDRule</text>
<text text-anchor="start" x="213" y="-765.3" font-family="Times,serif" font-size="14.00">scenario: </text>
<text text-anchor="start" x="387" y="-765.3" font-family="Times,serif" font-size="14.00">BDDScenario</text>
<text text-anchor="start" x="213" y="-745.3" font-family="Times,serif" font-size="14.00">scenarioTemplate: </text>
<text text-anchor="start" x="354" y="-745.3" font-family="Times,serif" font-size="14.00">BDDScenarioTemplate</text>
<polygon fill="none" stroke="black" points="208.5,-738 208.5,-861 519.5,-861 519.5,-738 208.5,-738"/>
</g>
<!-- BDDBehavior&#45;&gt;BDDFeature -->
<g id="BDDBehavior&#45;feature&#45;BDDFeature" class="edge">
<title>BDDBehavior:feature&#45;&gt;BDDFeature</title>
<path fill="none" stroke="blue" d="M486,-928.5C523.98,-928.5 496.76,-898.61 458.5,-867.72"/>
<polygon fill="blue" stroke="blue" points="460.19,-864.6 450.18,-861.13 455.84,-870.08 460.19,-864.6"/>
</g>
<!-- AbstractEntity -->
<g id="node13" class="node">
<title>AbstractEntity</title>
<polygon fill="none" stroke="black" points="692,-817.5 570,-817.5 570,-781.5 692,-781.5 692,-817.5"/>
<text text-anchor="middle" x="631" y="-795.8" font-family="Times,serif" font-size="14.00">AbstractEntity</text>
</g>
<!-- BDDBehavior&#45;&gt;AbstractEntity -->
<g id="BDDBehavior&#45;describes&#45;AbstractEntity" class="edge">
<title>BDDBehavior:describes&#45;&gt;AbstractEntity</title>
<path fill="none" stroke="blue" d="M486,-908.5C541.04,-908.5 588.7,-857.84 613.27,-825.91"/>
<polygon fill="blue" stroke="blue" points="616.12,-827.96 619.3,-817.85 610.51,-823.77 616.12,-827.96"/>
</g>
<!-- BDDBackground -->
<g id="node3" class="node">
<title>BDDBackground</title>
<polygon fill="white" stroke="transparent" points="336,-601.5 336,-620.5 473,-620.5 473,-601.5 336,-601.5"/>
<text text-anchor="start" x="338" y="-607.3" font-family="Times,serif" font-size="14.00"> &#160;BDDBackground </text>
<text text-anchor="start" x="338" y="-587.3" font-family="Times,serif" font-size="14.00">given: </text>
<text text-anchor="start" x="476" y="-587.3" font-family="Times,serif" font-size="14.00">BDDGiven</text>
<polygon fill="none" stroke="black" points="333.5,-580 333.5,-623 554.5,-623 554.5,-580 333.5,-580"/>
</g>
<!-- BDDFeature&#45;&gt;BDDBackground -->
<g id="BDDFeature&#45;background&#45;BDDBackground" class="edge">
<title>BDDFeature:background&#45;&gt;BDDBackground</title>
<path fill="none" stroke="black" d="M519,-809.5C526.96,-809.5 521.82,-745.66 524,-738 528.96,-720.6 538.65,-719.56 543,-702 547.59,-683.45 552.6,-675.53 543,-659 535.61,-646.28 524.17,-636.18 511.64,-628.25"/>
<polygon fill="black" stroke="black" points="513.24,-625.13 502.84,-623.11 509.7,-631.18 513.24,-625.13"/>
</g>
<!-- BDDScenario -->
<g id="node10" class="node">
<title>BDDScenario</title>
<polygon fill="white" stroke="transparent" points="111,-601.5 111,-620.5 224,-620.5 224,-601.5 111,-601.5"/>
<text text-anchor="start" x="113" y="-607.3" font-family="Times,serif" font-size="14.00"> &#160;BDDScenario </text>
<text text-anchor="start" x="113" y="-587.3" font-family="Times,serif" font-size="14.00">steps: </text>
<text text-anchor="start" x="227" y="-587.3" font-family="Times,serif" font-size="14.00">[BDDSteps]</text>
<polygon fill="none" stroke="black" points="108.5,-580 108.5,-623 315.5,-623 315.5,-580 108.5,-580"/>
</g>
<!-- BDDFeature&#45;&gt;BDDScenario -->
<g id="BDDFeature&#45;scenario&#45;BDDScenario" class="edge">
<title>BDDFeature:scenario&#45;&gt;BDDScenario</title>
<path fill="none" stroke="black" d="M519,-768.5C525.78,-768.5 522.41,-743.15 518,-738 461.78,-672.41 395.2,-755.02 327,-702 310.36,-689.06 321.13,-674.64 307,-659 296.03,-646.86 281.82,-636.53 267.75,-628.16"/>
<polygon fill="black" stroke="black" points="269.46,-625.11 259.04,-623.21 266,-631.19 269.46,-625.11"/>
</g>
<!-- BDDRule -->
<g id="node11" class="node">
<title>BDDRule</title>
<polygon fill="white" stroke="transparent" points="338,-680.5 338,-699.5 421,-699.5 421,-680.5 338,-680.5"/>
<text text-anchor="start" x="340" y="-686.3" font-family="Times,serif" font-size="14.00"> &#160;BDDRule </text>
<text text-anchor="start" x="340" y="-666.3" font-family="Times,serif" font-size="14.00">scenarios: </text>
<text text-anchor="start" x="424" y="-666.3" font-family="Times,serif" font-size="14.00">[BDDScenario]</text>
<polygon fill="none" stroke="black" points="336,-659 336,-702 534,-702 534,-659 336,-659"/>
</g>
<!-- BDDFeature&#45;&gt;BDDRule -->
<g id="BDDFeature&#45;rule&#45;BDDRule" class="edge">
<title>BDDFeature:rule&#45;&gt;BDDRule</title>
<path fill="none" stroke="black" d="M519,-788.5C524.61,-788.5 520.67,-742.93 518,-738 511.39,-725.79 500.85,-715.71 489.47,-707.61"/>
<polygon fill="black" stroke="black" points="491.36,-704.66 481.09,-702.07 487.5,-710.5 491.36,-704.66"/>
</g>
<!-- BDDScenarioTemplate -->
<g id="node12" class="node">
<title>BDDScenarioTemplate</title>
<polygon fill="white" stroke="transparent" points="27,-680.5 27,-699.5 206,-699.5 206,-680.5 27,-680.5"/>
<text text-anchor="start" x="29" y="-686.3" font-family="Times,serif" font-size="14.00"> &#160;BDDScenarioTemplate </text>
<text text-anchor="start" x="29" y="-666.3" font-family="Times,serif" font-size="14.00">steps: </text>
<text text-anchor="start" x="209" y="-666.3" font-family="Times,serif" font-size="14.00">[BDDSteps]</text>
<polygon fill="none" stroke="black" points="24.5,-659 24.5,-702 297.5,-702 297.5,-659 24.5,-659"/>
</g>
<!-- BDDFeature&#45;&gt;BDDScenarioTemplate -->
<g id="BDDFeature&#45;scenarioTemplate&#45;BDDScenarioTemplate" class="edge">
<title>BDDFeature:scenarioTemplate&#45;&gt;BDDScenarioTemplate</title>
<path fill="none" stroke="black" d="M435,-738.5C435,-730.66 365.27,-716.22 296.16,-703.84"/>
<polygon fill="black" stroke="black" points="296.43,-700.33 285.97,-702.03 295.21,-707.22 296.43,-700.33"/>
</g>
<!-- BDDGiven -->
<g id="node5" class="node">
<title>BDDGiven</title>
<polygon fill="white" stroke="transparent" points="362,-363.5 362,-382.5 454,-382.5 454,-363.5 362,-363.5"/>
<text text-anchor="start" x="364" y="-369.3" font-family="Times,serif" font-size="14.00"> &#160;BDDGiven </text>
<text text-anchor="start" x="364" y="-349.3" font-family="Times,serif" font-size="14.00">and: </text>
<text text-anchor="start" x="464" y="-349.3" font-family="Times,serif" font-size="14.00">BDDAnd</text>
<text text-anchor="start" x="364" y="-329.3" font-family="Times,serif" font-size="14.00">but: </text>
<text text-anchor="start" x="465" y="-329.3" font-family="Times,serif" font-size="14.00">BDDBut</text>
<text text-anchor="start" x="364" y="-309.3" font-family="Times,serif" font-size="14.00">step: </text>
<text text-anchor="start" x="458" y="-309.3" font-family="Times,serif" font-size="14.00">xsd:string</text>
<text text-anchor="start" x="364" y="-289.3" font-family="Times,serif" font-size="14.00">given: </text>
<text text-anchor="start" x="457" y="-289.3" font-family="Times,serif" font-size="14.00">BDDGiven</text>
<polygon fill="none" stroke="black" points="360,-282 360,-385 536,-385 536,-282 360,-282"/>
</g>
<!-- BDDBackground&#45;&gt;BDDGiven -->
<g id="BDDBackground&#45;given&#45;BDDGiven" class="edge">
<title>BDDBackground:given&#45;&gt;BDDGiven</title>
<path fill="none" stroke="black" d="M514,-580.5C514,-515.42 492.18,-443.85 473.64,-394.77"/>
<polygon fill="black" stroke="black" points="476.83,-393.34 469.98,-385.27 470.3,-395.86 476.83,-393.34"/>
</g>
<!-- BDDSteps -->
<g id="node4" class="node">
<title>BDDSteps</title>
<polygon fill="white" stroke="transparent" points="26,-522.5 26,-541.5 118,-541.5 118,-522.5 26,-522.5"/>
<text text-anchor="start" x="28" y="-528.3" font-family="Times,serif" font-size="14.00"> &#160;BDDSteps </text>
<text text-anchor="start" x="28" y="-508.3" font-family="Times,serif" font-size="14.00">when: </text>
<text text-anchor="start" x="121.5" y="-508.3" font-family="Times,serif" font-size="14.00">BDDWhen</text>
<text text-anchor="start" x="28" y="-488.3" font-family="Times,serif" font-size="14.00">given: </text>
<text text-anchor="start" x="121" y="-488.3" font-family="Times,serif" font-size="14.00">BDDGiven</text>
<text text-anchor="start" x="28" y="-468.3" font-family="Times,serif" font-size="14.00">then: </text>
<text text-anchor="start" x="124" y="-468.3" font-family="Times,serif" font-size="14.00">BDDThen</text>
<text text-anchor="start" x="28" y="-448.3" font-family="Times,serif" font-size="14.00">and: </text>
<text text-anchor="start" x="128" y="-448.3" font-family="Times,serif" font-size="14.00">BDDAnd</text>
<text text-anchor="start" x="28" y="-428.3" font-family="Times,serif" font-size="14.00">but: </text>
<text text-anchor="start" x="129" y="-428.3" font-family="Times,serif" font-size="14.00">BDDBut</text>
<polygon fill="none" stroke="black" points="24,-421 24,-544 200,-544 200,-421 24,-421"/>
</g>
<!-- BDDSteps&#45;&gt;BDDGiven -->
<g id="BDDSteps&#45;given&#45;BDDGiven" class="edge">
<title>BDDSteps:given&#45;&gt;BDDGiven</title>
<path fill="none" stroke="black" d="M199,-492.5C276.27,-492.5 348.98,-437.58 395.64,-392.5"/>
<polygon fill="black" stroke="black" points="398.23,-394.87 402.91,-385.36 393.32,-389.88 398.23,-394.87"/>
</g>
<!-- BDDThen -->
<g id="node6" class="node">
<title>BDDThen</title>
<polygon fill="white" stroke="transparent" points="79,-224.5 79,-243.5 165,-243.5 165,-224.5 79,-224.5"/>
<text text-anchor="start" x="81" y="-230.3" font-family="Times,serif" font-size="14.00"> &#160;BDDThen </text>
<text text-anchor="start" x="81" y="-210.3" font-family="Times,serif" font-size="14.00">and: </text>
<text text-anchor="start" x="174" y="-210.3" font-family="Times,serif" font-size="14.00">BDDAnd</text>
<text text-anchor="start" x="81" y="-190.3" font-family="Times,serif" font-size="14.00">but: </text>
<text text-anchor="start" x="170" y="-190.3" font-family="Times,serif" font-size="14.00">BDDThen</text>
<text text-anchor="start" x="81" y="-170.3" font-family="Times,serif" font-size="14.00">step: </text>
<text text-anchor="start" x="168" y="-170.3" font-family="Times,serif" font-size="14.00">xsd:string</text>
<text text-anchor="start" x="81" y="-150.3" font-family="Times,serif" font-size="14.00">then: </text>
<text text-anchor="start" x="170" y="-150.3" font-family="Times,serif" font-size="14.00">BDDThen</text>
<polygon fill="none" stroke="black" points="77,-143 77,-246 245,-246 245,-143 77,-143"/>
</g>
<!-- BDDSteps&#45;&gt;BDDThen -->
<g id="BDDSteps&#45;then&#45;BDDThen" class="edge">
<title>BDDSteps:then&#45;&gt;BDDThen</title>
<path fill="none" stroke="black" d="M199,-471.5C221.45,-471.5 208.79,-440.69 198,-421 184.14,-395.7 157.61,-410.43 144,-385 122.88,-345.53 128.88,-294.75 139.21,-255.69"/>
<polygon fill="black" stroke="black" points="142.59,-256.6 141.92,-246.02 135.85,-254.71 142.59,-256.6"/>
</g>
<!-- BDDWhen -->
<g id="node7" class="node">
<title>BDDWhen</title>
<polygon fill="white" stroke="transparent" points="170,-333.5 170,-352.5 262,-352.5 262,-333.5 170,-333.5"/>
<text text-anchor="start" x="172" y="-339.3" font-family="Times,serif" font-size="14.00"> &#160;BDDWhen </text>
<text text-anchor="start" x="172" y="-319.3" font-family="Times,serif" font-size="14.00">step: </text>
<text text-anchor="start" x="265" y="-319.3" font-family="Times,serif" font-size="14.00">xsd:string</text>
<polygon fill="none" stroke="black" points="168,-312 168,-355 342,-355 342,-312 168,-312"/>
</g>
<!-- BDDSteps&#45;&gt;BDDWhen -->
<g id="BDDSteps&#45;when&#45;BDDWhen" class="edge">
<title>BDDSteps:when&#45;&gt;BDDWhen</title>
<path fill="none" stroke="black" d="M199,-512.5C259.94,-512.5 261.56,-416.38 258.13,-365.41"/>
<polygon fill="black" stroke="black" points="261.61,-364.97 257.34,-355.27 254.63,-365.51 261.61,-364.97"/>
</g>
<!-- BDDAnd -->
<g id="node8" class="node">
<title>BDDAnd</title>
<polygon fill="white" stroke="transparent" points="234,-85.5 234,-104.5 313,-104.5 313,-85.5 234,-85.5"/>
<text text-anchor="start" x="236" y="-91.3" font-family="Times,serif" font-size="14.00"> &#160;BDDAnd </text>
<text text-anchor="start" x="236" y="-71.3" font-family="Times,serif" font-size="14.00">and: </text>
<text text-anchor="start" x="322" y="-71.3" font-family="Times,serif" font-size="14.00">BDDAnd</text>
<text text-anchor="start" x="236" y="-51.3" font-family="Times,serif" font-size="14.00">but: </text>
<text text-anchor="start" x="322" y="-51.3" font-family="Times,serif" font-size="14.00">BDDAnd</text>
<text text-anchor="start" x="236" y="-31.3" font-family="Times,serif" font-size="14.00">step: </text>
<text text-anchor="start" x="316" y="-31.3" font-family="Times,serif" font-size="14.00">xsd:string</text>
<polygon fill="none" stroke="black" points="231.5,-24 231.5,-107 392.5,-107 392.5,-24 231.5,-24"/>
</g>
<!-- BDDSteps&#45;&gt;BDDAnd -->
<g id="BDDSteps&#45;and&#45;BDDAnd" class="edge">
<title>BDDSteps:and&#45;&gt;BDDAnd</title>
<path fill="none" stroke="black" d="M199,-451.5C212.56,-451.5 205.35,-432.4 198,-421 178.4,-390.6 149.68,-411.45 125,-385 49.61,-304.22 2.59,-232.06 68,-143 102.95,-95.42 167.42,-76.63 221.32,-69.56"/>
<polygon fill="black" stroke="black" points="221.74,-73.03 231.25,-68.37 220.91,-66.08 221.74,-73.03"/>
</g>
<!-- BDDBut -->
<g id="node9" class="node">
<title>BDDBut</title>
<polygon fill="white" stroke="transparent" points="302,-214.5 302,-233.5 379,-233.5 379,-214.5 302,-214.5"/>
<text text-anchor="start" x="304" y="-220.3" font-family="Times,serif" font-size="14.00"> &#160;BDDBut </text>
<text text-anchor="start" x="304" y="-200.3" font-family="Times,serif" font-size="14.00">and: </text>
<text text-anchor="start" x="388" y="-200.3" font-family="Times,serif" font-size="14.00">BDDAnd</text>
<text text-anchor="start" x="304" y="-180.3" font-family="Times,serif" font-size="14.00">but: </text>
<text text-anchor="start" x="389" y="-180.3" font-family="Times,serif" font-size="14.00">BDDBut</text>
<text text-anchor="start" x="304" y="-160.3" font-family="Times,serif" font-size="14.00">step: </text>
<text text-anchor="start" x="382" y="-160.3" font-family="Times,serif" font-size="14.00">xsd:string</text>
<polygon fill="none" stroke="black" points="299.5,-153 299.5,-236 458.5,-236 458.5,-153 299.5,-153"/>
</g>
<!-- BDDSteps&#45;&gt;BDDBut -->
<g id="BDDSteps&#45;but&#45;BDDBut" class="edge">
<title>BDDSteps:but&#45;&gt;BDDBut</title>
<path fill="none" stroke="black" d="M159,-421.5C159,-359.5 121.41,-331.31 159,-282 195.6,-233.98 234.2,-269.08 290,-246 294.08,-244.31 298.21,-242.48 302.34,-240.54"/>
<polygon fill="black" stroke="black" points="303.9,-243.67 311.35,-236.14 300.83,-237.38 303.9,-243.67"/>
</g>
<!-- BDDGiven&#45;&gt;BDDGiven -->
<g id="BDDGiven&#45;given&#45;BDDGiven" class="edge">
<title>BDDGiven:given&#45;&gt;BDDGiven</title>
<path fill="none" stroke="black" d="M505.01,-283.4C534.73,-258.52 554,-263.37 554,-313 554,-325.78 550.18,-335.59 543.88,-342.69"/>
<polygon fill="black" stroke="black" points="541.44,-340.17 536.13,-349.34 546,-345.48 541.44,-340.17"/>
</g>
<!-- BDDGiven&#45;&gt;BDDAnd -->
<g id="BDDGiven&#45;and&#45;BDDAnd" class="edge">
<title>BDDGiven:and&#45;&gt;BDDAnd</title>
<path fill="none" stroke="black" d="M535,-353.5C620.48,-353.5 592.04,-258.07 486,-143 463.7,-118.8 432.38,-101.85 402.44,-90.17"/>
<polygon fill="black" stroke="black" points="403.38,-86.78 392.79,-86.56 400.93,-93.34 403.38,-86.78"/>
</g>
<!-- BDDGiven&#45;&gt;BDDBut -->
<g id="BDDGiven&#45;but&#45;BDDBut" class="edge">
<title>BDDGiven:but&#45;&gt;BDDBut</title>
<path fill="none" stroke="black" d="M535,-332.5C557.45,-332.5 545.56,-301.25 534,-282 525.63,-268.05 497.79,-250.9 467.98,-235.55"/>
<polygon fill="black" stroke="black" points="469.19,-232.24 458.68,-230.85 466.03,-238.49 469.19,-232.24"/>
</g>
<!-- BDDThen&#45;&gt;BDDThen -->
<g id="BDDThen&#45;but&#45;BDDThen" class="edge">
<title>BDDThen:but&#45;&gt;BDDThen</title>
<path fill="none" stroke="black" d="M215.41,-184.44C243.8,-161.86 263,-164.93 263,-194 263,-201.24 259.62,-206.87 253.99,-210.89"/>
<polygon fill="black" stroke="black" points="252.41,-207.77 245.03,-215.38 255.54,-214.03 252.41,-207.77"/>
</g>
<!-- BDDThen&#45;&gt;BDDThen -->
<g id="BDDThen&#45;then&#45;BDDThen" class="edge">
<title>BDDThen:then&#45;&gt;BDDThen</title>
<path fill="none" stroke="black" d="M215.41,-144.47C243.8,-122.08 263,-127.04 263,-174 263,-186.5 259.15,-196.02 252.81,-202.85"/>
<polygon fill="black" stroke="black" points="250.56,-200.17 245.03,-209.21 254.99,-205.59 250.56,-200.17"/>
</g>
<!-- BDDThen&#45;&gt;BDDAnd -->
<g id="BDDThen&#45;and&#45;BDDAnd" class="edge">
<title>BDDThen:and&#45;&gt;BDDAnd</title>
<path fill="none" stroke="black" d="M244,-214.5C265.97,-214.5 286.32,-159.97 298.93,-117.11"/>
<polygon fill="black" stroke="black" points="302.34,-117.91 301.73,-107.33 295.61,-115.98 302.34,-117.91"/>
</g>
<!-- BDDAnd&#45;&gt;BDDAnd -->
<g id="BDDAnd&#45;and&#45;BDDAnd" class="edge">
<title>BDDAnd:and&#45;&gt;BDDAnd</title>
<path fill="none" stroke="black" d="M363.1,-84.55C390.76,-107.09 410.5,-103.6 410.5,-70.5 410.5,-62.15 407.16,-55.69 401.61,-51.05"/>
<polygon fill="black" stroke="black" points="403.16,-47.91 392.77,-45.85 399.61,-53.94 403.16,-47.91"/>
</g>
<!-- BDDAnd&#45;&gt;BDDAnd -->
<g id="BDDAnd&#45;but&#45;BDDAnd" class="edge">
<title>BDDAnd:but&#45;&gt;BDDAnd</title>
<path fill="none" stroke="black" d="M363.1,-45.45C390.76,-22.92 410.5,-26.46 410.5,-60 410.5,-68.46 407.16,-75.01 401.61,-79.72"/>
<polygon fill="black" stroke="black" points="399.56,-76.86 392.77,-85 403.15,-82.87 399.56,-76.86"/>
</g>
<!-- BDDBut&#45;&gt;BDDAnd -->
<g id="BDDBut&#45;and&#45;BDDAnd" class="edge">
<title>BDDBut:and&#45;&gt;BDDAnd</title>
<path fill="none" stroke="black" d="M458,-204.5C480.89,-204.5 468.5,-172.8 457,-153 444.2,-130.96 423.36,-113.91 401.43,-101.01"/>
<polygon fill="black" stroke="black" points="403.09,-97.92 392.65,-96.09 399.66,-104.03 403.09,-97.92"/>
</g>
<!-- BDDBut&#45;&gt;BDDBut -->
<g id="BDDBut&#45;but&#45;BDDBut" class="edge">
<title>BDDBut:but&#45;&gt;BDDBut</title>
<path fill="none" stroke="black" d="M429.01,-174.45C456.5,-151.92 476.5,-155.46 476.5,-189 476.5,-197.56 473.11,-204.17 467.5,-208.88"/>
<polygon fill="black" stroke="black" points="465.4,-206.06 458.57,-214.15 468.96,-212.08 465.4,-206.06"/>
</g>
<!-- BDDScenario&#45;&gt;BDDSteps -->
<g id="BDDScenario&#45;steps&#45;BDDSteps" class="edge">
<title>BDDScenario:steps&#45;&gt;BDDSteps</title>
<path fill="none" stroke="black" d="M270,-580.5C270,-545.78 241.95,-523.1 209.49,-508.48"/>
<polygon fill="black" stroke="black" points="210.81,-505.23 200.24,-504.56 208.08,-511.68 210.81,-505.23"/>
</g>
<!-- BDDRule&#45;&gt;BDDScenario -->
<g id="BDDRule&#45;scenarios&#45;BDDScenario" class="edge">
<title>BDDRule:scenarios&#45;&gt;BDDScenario</title>
<path fill="none" stroke="black" d="M477,-659.5C477,-655.38 397.57,-638.68 325.68,-624.42"/>
<polygon fill="black" stroke="black" points="326.08,-620.93 315.59,-622.42 324.73,-627.8 326.08,-620.93"/>
</g>
<!-- BDDScenarioTemplate&#45;&gt;BDDSteps -->
<g id="BDDScenarioTemplate&#45;steps&#45;BDDSteps" class="edge">
<title>BDDScenarioTemplate:steps&#45;&gt;BDDSteps</title>
<path fill="none" stroke="black" d="M252,-659.5C252,-590.02 143.01,-677.56 100,-623 84.86,-603.79 83.47,-578.12 87.37,-554.05"/>
<polygon fill="black" stroke="black" points="90.81,-554.69 89.26,-544.21 83.94,-553.37 90.81,-554.69"/>
</g>
</g>
</svg>
