<?xml version="1.0" encoding="UTF-8" standalone="no"?>
<!DOCTYPE svg PUBLIC "-//W3C//DTD SVG 1.1//EN"
 "http://www.w3.org/Graphics/SVG/1.1/DTD/svg11.dtd">
<!-- Generated by graphviz version 2.43.0 (0)
 -->
<!-- Title: datadesign Pages: 1 -->
<svg width="1286pt" height="1238pt"
 viewBox="0.00 0.00 1285.50 1238.00" xmlns="http://www.w3.org/2000/svg" xmlns:xlink="http://www.w3.org/1999/xlink">
<g id="graph0" class="graph" transform="scale(1 1) rotate(0) translate(4 1234)">
<title>datadesign</title>
<polygon fill="white" stroke="transparent" points="-4,4 -4,-1234 1281.5,-1234 1281.5,4 -4,4"/>
<!-- thing -->
<g id="node1" class="node">
<title>thing</title>
<text text-anchor="start" x="734" y="-1191.3" font-family="Times,serif" font-weight="bold" font-size="14.00">owl:Thing &#160;</text>
<polygon fill="none" stroke="aquamarine" stroke-width="3" points="729.5,-1182.5 729.5,-1206.5 826.5,-1206.5 826.5,-1182.5 729.5,-1182.5"/>
</g>
<!-- common -->
<g id="node2" class="node">
<title>common</title>
<text text-anchor="start" x="703" y="-1101.3" font-family="Times,serif" font-weight="bold" font-size="14.00">CommonEntity &#160;&#160;&#160;&#160;&#160;&#160;</text>
<text text-anchor="start" x="703" y="-1081.3" font-family="Times,serif" font-weight="bold" font-size="14.00" fill="red">@type</text>
<text text-anchor="start" x="703" y="-1061.3" font-family="Times,serif" font-weight="bold" font-size="14.00" fill="red">name</text>
<text text-anchor="start" x="703" y="-1040.3" font-family="Times,serif" font-size="14.00">value</text>
<text text-anchor="start" x="703" y="-1020.3" font-family="Times,serif" font-size="14.00">number</text>
<text text-anchor="start" x="703" y="-1000.3" font-family="Times,serif" font-size="14.00">@context</text>
<text text-anchor="start" x="703" y="-980.3" font-family="Times,serif" font-size="14.00">@id</text>
<text text-anchor="start" x="703" y="-960.3" font-family="Times,serif" font-size="14.00">description</text>
<text text-anchor="start" x="703" y="-940.3" font-family="Times,serif" font-size="14.00">notation</text>
<polygon fill="none" stroke="aquamarine" stroke-width="3" points="698.5,-932.5 698.5,-1116.5 857.5,-1116.5 857.5,-932.5 698.5,-932.5"/>
</g>
<!-- thing&#45;&gt;common -->
<g id="edge1" class="edge">
<title>thing&#45;&gt;common</title>
<path fill="none" stroke="aquamarine" stroke-dasharray="5,2" d="M778,-1176.47C778,-1165.24 778,-1149.48 778,-1132.36"/>
<polygon fill="aquamarine" stroke="aquamarine" points="781.5,-1132.14 778,-1122.14 774.5,-1132.14 781.5,-1132.14"/>
</g>
<!-- label -->
<g id="node3" class="node">
<title>label</title>
<text text-anchor="start" x="725" y="-856.3" font-family="Times,serif" font-weight="bold" font-size="14.00">Label &#160;</text>
<text text-anchor="start" x="725" y="-835.3" font-family="Times,serif" font-size="14.00">labelOf</text>
<polygon fill="none" stroke="aquamarine" stroke-width="2" points="721,-828 721,-871 781,-871 781,-828 721,-828"/>
</g>
<!-- common&#45;&gt;label -->
<g id="edge3" class="edge">
<title>common&#45;&gt;label</title>
<path fill="none" stroke="aquamarine" stroke-dasharray="5,2" d="M762.92,-926.88C760.66,-912.4 758.46,-898.29 756.58,-886.23"/>
<polygon fill="aquamarine" stroke="aquamarine" points="760.01,-885.54 755.01,-876.2 753.09,-886.62 760.01,-885.54"/>
</g>
<!-- absEntity -->
<g id="node4" class="node">
<title>absEntity</title>
<text text-anchor="start" x="818" y="-846.3" font-family="Times,serif" font-weight="bold" font-size="14.00">AbstractEntity &#160;</text>
<polygon fill="none" stroke="aquamarine" stroke-width="3" points="813.5,-837.5 813.5,-861.5 946.5,-861.5 946.5,-837.5 813.5,-837.5"/>
</g>
<!-- common&#45;&gt;absEntity -->
<g id="edge2" class="edge">
<title>common&#45;&gt;absEntity</title>
<path fill="none" stroke="aquamarine" stroke-dasharray="5,2" d="M834.96,-926.88C845.94,-908.27 856.54,-890.29 864.7,-876.45"/>
<polygon fill="aquamarine" stroke="aquamarine" points="867.87,-877.97 869.93,-867.58 861.84,-874.42 867.87,-877.97"/>
</g>
<!-- label&#45;&gt;common -->
<g id="edge4" class="edge">
<title>label:labelOf&#45;&gt;common</title>
<path fill="none" stroke="black" d="M780,-838.5C789.22,-838.5 789.77,-875.69 787.57,-916.73"/>
<polygon fill="black" stroke="black" points="784.06,-916.75 786.97,-926.94 791.05,-917.16 784.06,-916.75"/>
<text text-anchor="middle" x="815" y="-897.8" font-family="Times,serif" font-size="14.00">labelOf</text>
</g>
<!-- physEntity -->
<g id="node5" class="node">
<title>physEntity</title>
<text text-anchor="start" x="528" y="-725.3" font-family="Times,serif" font-weight="bold" font-size="14.00">PhysicalEntity </text>
<polygon fill="none" stroke="#1e8449" stroke-width="3" points="523.5,-716.5 523.5,-740.5 650.5,-740.5 650.5,-716.5 523.5,-716.5"/>
</g>
<!-- absEntity&#45;&gt;physEntity -->
<g id="edge5" class="edge">
<title>absEntity&#45;&gt;physEntity</title>
<path fill="none" stroke="aquamarine" stroke-dasharray="5,2" d="M825.13,-831.47C815.76,-828.61 806.11,-825.69 797,-823 739.4,-805.96 721.19,-811.92 667,-786 648.66,-777.23 630.01,-764.33 615.33,-753.07"/>
<polygon fill="aquamarine" stroke="aquamarine" points="617.21,-750.1 607.18,-746.67 612.88,-755.6 617.21,-750.1"/>
</g>
<!-- sampledEntity -->
<g id="node6" class="node">
<title>sampledEntity</title>
<text text-anchor="start" x="818" y="-632.3" font-family="Times,serif" font-weight="bold" font-size="14.00">SampledEntity &#160;</text>
<text text-anchor="start" x="818" y="-611.3" font-family="Times,serif" font-size="14.00">timeStamp</text>
<text text-anchor="start" x="818" y="-591.3" font-family="Times,serif" font-size="14.00">sampleIndex</text>
<polygon fill="none" stroke="skyblue" stroke-width="3" points="813,-583.5 813,-647.5 947,-647.5 947,-583.5 813,-583.5"/>
</g>
<!-- absEntity&#45;&gt;sampledEntity -->
<g id="edge6" class="edge">
<title>absEntity&#45;&gt;sampledEntity</title>
<path fill="none" stroke="aquamarine" stroke-dasharray="5,2" d="M880,-831.44C880,-796.49 880,-715.67 880,-663.7"/>
<polygon fill="aquamarine" stroke="aquamarine" points="883.5,-663.4 880,-653.4 876.5,-663.4 883.5,-663.4"/>
</g>
<!-- temporalEntity -->
<g id="node7" class="node">
<title>temporalEntity</title>
<text text-anchor="start" x="998" y="-765.3" font-family="Times,serif" font-weight="bold" font-size="14.00">TemporalEntity &#160;</text>
<text text-anchor="start" x="998" y="-744.3" font-family="Times,serif" font-size="14.00">first</text>
<text text-anchor="start" x="998" y="-724.3" font-family="Times,serif" font-size="14.00">last</text>
<text text-anchor="start" x="998" y="-704.3" font-family="Times,serif" font-size="14.00">count</text>
<text text-anchor="start" x="998" y="-684.3" font-family="Times,serif" font-size="14.00">processes</text>
<polygon fill="none" stroke="skyblue" stroke-width="3" points="993,-676.5 993,-780.5 1133,-780.5 1133,-676.5 993,-676.5"/>
</g>
<!-- absEntity&#45;&gt;temporalEntity -->
<g id="edge7" class="edge">
<title>absEntity&#45;&gt;temporalEntity</title>
<path fill="none" stroke="aquamarine" stroke-dasharray="5,2" d="M906.22,-831.45C924.42,-819.61 949.82,-803.1 974.87,-786.81"/>
<polygon fill="aquamarine" stroke="aquamarine" points="976.87,-789.68 983.35,-781.3 973.06,-783.81 976.87,-789.68"/>
</g>
<!-- event -->
<g id="node34" class="node">
<title>event</title>
<text text-anchor="start" x="817" y="-339.3" font-family="Times,serif" font-weight="bold" font-size="14.00">Event &#160;</text>
<text text-anchor="start" x="817" y="-318.3" font-family="Times,serif" font-size="14.00">message</text>
<polygon fill="none" stroke="black" stroke-dasharray="5,2" points="812.5,-311 812.5,-354 883.5,-354 883.5,-311 812.5,-311"/>
</g>
<!-- sampledEntity&#45;&gt;event -->
<g id="edge28" class="edge">
<title>sampledEntity&#45;&gt;event</title>
<path fill="none" stroke="skyblue" stroke-dasharray="5,2" d="M905.46,-577.61C933.21,-532.39 969.59,-454.58 937,-396 929.63,-382.74 920.55,-386.53 908,-378 901.51,-373.59 894.74,-368.78 888.19,-364.01"/>
<polygon fill="skyblue" stroke="skyblue" points="890.16,-361.12 880.03,-358.02 886.02,-366.76 890.16,-361.12"/>
</g>
<!-- processedEntity -->
<g id="node8" class="node">
<title>processedEntity</title>
<text text-anchor="start" x="1129" y="-531.3" font-family="Times,serif" font-weight="bold" font-size="14.00">ProcessedEntity &#160;</text>
<text text-anchor="start" x="1129" y="-510.3" font-family="Times,serif" font-size="14.00">processStep</text>
<text text-anchor="start" x="1129" y="-490.3" font-family="Times,serif" font-size="14.00">count</text>
<text text-anchor="start" x="1129" y="-470.3" font-family="Times,serif" font-size="14.00">timeIn</text>
<text text-anchor="start" x="1129" y="-450.3" font-family="Times,serif" font-size="14.00">timeOut</text>
<polygon fill="none" stroke="black" points="1124.5,-443 1124.5,-546 1269.5,-546 1269.5,-443 1124.5,-443"/>
</g>
<!-- temporalEntity&#45;&gt;processedEntity -->
<g id="edge8" class="edge">
<title>temporalEntity:processes&#45;&gt;processedEntity</title>
<path fill="none" stroke="black" d="M1132,-687.5C1187,-687.5 1199.07,-615.95 1200.13,-560.21"/>
<polygon fill="black" stroke="black" points="1203.63,-560.03 1200.21,-550.01 1196.63,-559.98 1203.63,-560.03"/>
<text text-anchor="middle" x="1234.5" y="-611.8" font-family="Times,serif" font-size="14.00">processes</text>
</g>
<!-- span -->
<g id="node29" class="node">
<title>span</title>
<text text-anchor="start" x="787" y="-541.3" font-family="Times,serif" font-weight="bold" font-size="14.00">Span &#160;</text>
<text text-anchor="start" x="787" y="-520.3" font-family="Times,serif" font-size="14.00">parent</text>
<text text-anchor="start" x="787" y="-500.3" font-family="Times,serif" font-size="14.00">context</text>
<text text-anchor="start" x="787" y="-480.3" font-family="Times,serif" font-size="14.00">attributes</text>
<text text-anchor="start" x="787" y="-460.3" font-family="Times,serif" font-size="14.00">events</text>
<text text-anchor="start" x="787" y="-440.3" font-family="Times,serif" font-size="14.00">kind</text>
<polygon fill="none" stroke="black" points="783,-433 783,-556 863,-556 863,-433 783,-433"/>
</g>
<!-- temporalEntity&#45;&gt;span -->
<g id="edge26" class="edge">
<title>temporalEntity&#45;&gt;span</title>
<path fill="none" stroke="skyblue" stroke-dasharray="5,2" d="M1033.76,-670.77C1016.34,-640.72 992.16,-604.63 964,-578 939.57,-554.89 907.51,-535.48 880.14,-521.31"/>
<polygon fill="skyblue" stroke="skyblue" points="881.56,-518.11 871.05,-516.71 878.39,-524.35 881.56,-518.11"/>
</g>
<!-- trace -->
<g id="node31" class="node">
<title>trace</title>
<text text-anchor="start" x="799" y="-217.3" font-family="Times,serif" font-weight="bold" font-size="14.00">Trace &#160;</text>
<text text-anchor="start" x="799" y="-196.3" font-family="Times,serif" font-size="14.00">trace_id</text>
<polygon fill="none" stroke="black" points="795,-189 795,-232 861,-232 861,-189 795,-189"/>
</g>
<!-- temporalEntity&#45;&gt;trace -->
<g id="edge27" class="edge">
<title>temporalEntity&#45;&gt;trace</title>
<path fill="none" stroke="skyblue" stroke-dasharray="5,2" d="M1079.26,-670.85C1102.31,-577.13 1131.46,-389.99 1032,-287 991.39,-244.95 925.31,-226.15 879.4,-217.85"/>
<polygon fill="skyblue" stroke="skyblue" points="879.8,-214.37 869.35,-216.15 878.62,-221.27 879.8,-214.37"/>
</g>
<!-- otlpEntity -->
<g id="node9" class="node">
<title>otlpEntity</title>
<text text-anchor="start" x="688" y="-735.3" font-family="Times,serif" font-weight="bold" font-size="14.00">OTLPEntity &#160;</text>
<text text-anchor="start" x="688" y="-714.3" font-family="Times,serif" font-size="14.00">name</text>
<polygon fill="none" stroke="#9f60bc" stroke-width="3" points="683.5,-706.5 683.5,-750.5 792.5,-750.5 792.5,-706.5 683.5,-706.5"/>
</g>
<!-- otlpAttribute -->
<g id="node10" class="node">
<title>otlpAttribute</title>
<text text-anchor="start" x="441" y="-329.3" font-family="Times,serif" font-weight="bold" font-size="14.00">OTLPAttribute &#160;</text>
<polygon fill="none" stroke="#9f60bc" stroke-width="3" points="436.5,-320.5 436.5,-344.5 569.5,-344.5 569.5,-320.5 436.5,-320.5"/>
</g>
<!-- otlpEntity&#45;&gt;otlpAttribute -->
<g id="edge9" class="edge">
<title>otlpEntity&#45;&gt;otlpAttribute</title>
<path fill="none" stroke="#9f60bc" stroke-dasharray="5,2" d="M710.62,-700.99C698.18,-690.25 682.74,-678.62 667,-671 635.37,-655.68 615.3,-677.4 590,-653 507.05,-573 500.66,-422.38 501.8,-360.79"/>
<polygon fill="#9f60bc" stroke="#9f60bc" points="505.3,-360.78 502.07,-350.69 498.3,-360.6 505.3,-360.78"/>
</g>
<!-- otlpEntity&#45;&gt;span -->
<g id="edge25" class="edge">
<title>otlpEntity&#45;&gt;span</title>
<path fill="none" stroke="#9f60bc" stroke-dasharray="5,2" d="M747.75,-700.89C759.39,-669.11 779.36,-614.62 795.8,-569.74"/>
<polygon fill="#9f60bc" stroke="#9f60bc" points="799.09,-570.92 799.25,-560.33 792.52,-568.51 799.09,-570.92"/>
</g>
<!-- spancontext -->
<g id="node30" class="node">
<title>spancontext</title>
<text text-anchor="start" x="668" y="-359.3" font-family="Times,serif" font-weight="bold" font-size="14.00">SpanContext &#160;</text>
<text text-anchor="start" x="668" y="-338.3" font-family="Times,serif" font-size="14.00">trace</text>
<text text-anchor="start" x="668" y="-318.3" font-family="Times,serif" font-size="14.00">trace_id</text>
<text text-anchor="start" x="668" y="-298.3" font-family="Times,serif" font-size="14.00">span_id</text>
<polygon fill="none" stroke="black" points="664,-291 664,-374 782,-374 782,-291 664,-291"/>
</g>
<!-- otlpEntity&#45;&gt;spancontext -->
<g id="edge35" class="edge">
<title>otlpEntity&#45;&gt;spancontext</title>
<path fill="none" stroke="#9f60bc" stroke-dasharray="5,2" d="M726.42,-700.66C703.93,-646.92 655.08,-521.77 638,-411 636.98,-404.41 634.99,-401.95 638,-396 640.88,-390.32 644.54,-385.02 648.72,-380.12"/>
<polygon fill="#9f60bc" stroke="#9f60bc" points="651.37,-382.41 655.69,-372.73 646.28,-377.61 651.37,-382.41"/>
</g>
<!-- otlpEntity&#45;&gt;trace -->
<g id="edge38" class="edge">
<title>otlpEntity&#45;&gt;trace</title>
<path fill="none" stroke="#9f60bc" stroke-dasharray="5,2" d="M714.04,-700.81C702.52,-687.14 689.06,-669.86 679,-653 655.94,-614.36 648.81,-603.91 639,-560 612.52,-441.51 573.9,-382.4 649,-287 685.51,-240.61 718.88,-259.16 777.69,-236.23"/>
<polygon fill="#9f60bc" stroke="#9f60bc" points="779.08,-239.44 786.96,-232.36 776.38,-232.99 779.08,-239.44"/>
</g>
<!-- spankind -->
<g id="node32" class="node">
<title>spankind</title>
<text text-anchor="start" x="927" y="-329.3" font-family="Times,serif" font-weight="bold" font-size="14.00">SpanKind &#160;</text>
<polygon fill="none" stroke="black" stroke-dasharray="1,5" points="923,-321 923,-344 1017,-344 1017,-321 923,-321"/>
</g>
<!-- otlpEntity&#45;&gt;spankind -->
<g id="edge37" class="edge">
<title>otlpEntity&#45;&gt;spankind</title>
<path fill="none" stroke="#9f60bc" stroke-dasharray="5,2" d="M802.09,-724.61C853.21,-718.55 922.01,-701.24 958,-653 992.1,-607.28 979.19,-429.07 972.76,-360.55"/>
<polygon fill="#9f60bc" stroke="#9f60bc" points="976.24,-360.15 971.8,-350.53 969.27,-360.82 976.24,-360.15"/>
</g>
<!-- otlpEntity&#45;&gt;event -->
<g id="edge39" class="edge">
<title>otlpEntity&#45;&gt;event</title>
<path fill="none" stroke="#9f60bc" stroke-dasharray="5,2" d="M729.98,-700.76C713.52,-640.07 682.85,-489.94 750,-396 763.01,-377.8 777.83,-389.53 797,-378 803.37,-374.17 809.7,-369.51 815.63,-364.68"/>
<polygon fill="#9f60bc" stroke="#9f60bc" points="818.09,-367.18 823.43,-358.03 813.55,-361.85 818.09,-367.18"/>
</g>
<!-- generalAttribute -->
<g id="node11" class="node">
<title>generalAttribute</title>
<text text-anchor="start" x="614" y="-207.3" font-family="Times,serif" font-weight="bold" font-size="14.00">GeneralAttribute &#160;</text>
<polygon fill="none" stroke="#9f60bc" stroke-width="3" points="609,-198.5 609,-222.5 763,-222.5 763,-198.5 609,-198.5"/>
</g>
<!-- otlpAttribute&#45;&gt;generalAttribute -->
<g id="edge10" class="edge">
<title>otlpAttribute&#45;&gt;generalAttribute</title>
<path fill="none" stroke="#9f60bc" stroke-dasharray="5,2" d="M519.05,-314.37C535.61,-297.42 562.79,-271.53 590,-254 602.45,-245.98 616.67,-238.77 630.28,-232.66"/>
<polygon fill="#9f60bc" stroke="#9f60bc" points="631.8,-235.82 639.57,-228.62 629.01,-229.4 631.8,-235.82"/>
</g>
<!-- otlpEvent -->
<g id="node24" class="node">
<title>otlpEvent</title>
<text text-anchor="start" x="68" y="-207.3" font-family="Times,serif" font-weight="bold" font-size="14.00">OTLPEvent </text>
<polygon fill="none" stroke="#9f60bc" stroke-width="3" points="63,-198.5 63,-222.5 165,-222.5 165,-198.5 63,-198.5"/>
</g>
<!-- otlpAttribute&#45;&gt;otlpEvent -->
<g id="edge21" class="edge">
<title>otlpAttribute&#45;&gt;otlpEvent</title>
<path fill="none" stroke="#9f60bc" stroke-dasharray="5,2" d="M442.04,-314.48C377.23,-296.12 271.9,-265.54 182,-236 178.04,-234.7 173.97,-233.33 169.88,-231.92"/>
<polygon fill="#9f60bc" stroke="#9f60bc" points="170.93,-228.58 160.33,-228.59 168.62,-235.19 170.93,-228.58"/>
</g>
<!-- otlpLog -->
<g id="node25" class="node">
<title>otlpLog</title>
<text text-anchor="start" x="203" y="-207.3" font-family="Times,serif" font-weight="bold" font-size="14.00">OTLPLog </text>
<polygon fill="none" stroke="#9f60bc" stroke-width="3" points="198.5,-198.5 198.5,-222.5 283.5,-222.5 283.5,-198.5 198.5,-198.5"/>
</g>
<!-- otlpAttribute&#45;&gt;otlpLog -->
<g id="edge22" class="edge">
<title>otlpAttribute&#45;&gt;otlpLog</title>
<path fill="none" stroke="#9f60bc" stroke-dasharray="5,2" d="M465.74,-314.43C418.79,-292.93 338.11,-255.98 287.26,-232.69"/>
<polygon fill="#9f60bc" stroke="#9f60bc" points="288.68,-229.49 278.13,-228.51 285.77,-235.85 288.68,-229.49"/>
</g>
<!-- otlpMetric -->
<g id="node26" class="node">
<title>otlpMetric</title>
<text text-anchor="start" x="321" y="-207.3" font-family="Times,serif" font-weight="bold" font-size="14.00">OTLPMetric </text>
<polygon fill="none" stroke="#9f60bc" stroke-width="3" points="316.5,-198.5 316.5,-222.5 425.5,-222.5 425.5,-198.5 316.5,-198.5"/>
</g>
<!-- otlpAttribute&#45;&gt;otlpMetric -->
<g id="edge23" class="edge">
<title>otlpAttribute&#45;&gt;otlpMetric</title>
<path fill="none" stroke="#9f60bc" stroke-dasharray="5,2" d="M484.09,-314.31C461.35,-293.63 423.04,-258.81 397.4,-235.5"/>
<polygon fill="#9f60bc" stroke="#9f60bc" points="399.63,-232.8 389.88,-228.66 394.92,-237.98 399.63,-232.8"/>
</g>
<!-- otlpSession -->
<g id="node27" class="node">
<title>otlpSession</title>
<text text-anchor="start" x="463" y="-207.3" font-family="Times,serif" font-weight="bold" font-size="14.00">OTLPSession </text>
<polygon fill="none" stroke="#9f60bc" stroke-width="3" points="458.5,-198.5 458.5,-222.5 575.5,-222.5 575.5,-198.5 458.5,-198.5"/>
</g>
<!-- otlpAttribute&#45;&gt;otlpSession -->
<g id="edge24" class="edge">
<title>otlpAttribute&#45;&gt;otlpSession</title>
<path fill="none" stroke="#9f60bc" stroke-dasharray="5,2" d="M505.01,-314.31C507.3,-294.61 511.1,-262.08 513.8,-238.89"/>
<polygon fill="#9f60bc" stroke="#9f60bc" points="517.32,-239 515,-228.66 510.36,-238.19 517.32,-239"/>
</g>
<!-- otlpEndpoint -->
<g id="node12" class="node">
<title>otlpEndpoint</title>
<text text-anchor="start" x="315" y="-127.3" font-family="Times,serif" font-weight="bold" font-size="14.00">OTLPEndpoint &#160;</text>
<text text-anchor="start" x="315" y="-106.3" font-family="Times,serif" font-size="14.00">host</text>
<text text-anchor="start" x="315" y="-86.3" font-family="Times,serif" font-size="14.00">port</text>
<polygon fill="none" stroke="#9f60bc" stroke-width="3" points="310.5,-78.5 310.5,-142.5 443.5,-142.5 443.5,-78.5 310.5,-78.5"/>
</g>
<!-- generalAttribute&#45;&gt;otlpEndpoint -->
<g id="edge11" class="edge">
<title>generalAttribute&#45;&gt;otlpEndpoint</title>
<path fill="none" stroke="#9f60bc" stroke-dasharray="5,2" d="M621.53,-192.48C567.25,-178.07 494.32,-158.52 463.07,-148.77"/>
<polygon fill="#9f60bc" stroke="#9f60bc" points="463.85,-145.34 453.26,-145.55 461.67,-151.99 463.85,-145.34"/>
</g>
<!-- otlpNetwork -->
<g id="node19" class="node">
<title>otlpNetwork</title>
<text text-anchor="start" x="482" y="-107.3" font-family="Times,serif" font-weight="bold" font-size="14.00">OTLPNetwork &#160;</text>
<polygon fill="none" stroke="#9f60bc" stroke-width="3" points="477,-98.5 477,-122.5 605,-122.5 605,-98.5 477,-98.5"/>
</g>
<!-- generalAttribute&#45;&gt;otlpNetwork -->
<g id="edge17" class="edge">
<title>generalAttribute&#45;&gt;otlpNetwork</title>
<path fill="none" stroke="#9f60bc" stroke-dasharray="5,2" d="M660.74,-192.43C636.98,-176.37 601.22,-152.2 574.96,-134.45"/>
<polygon fill="#9f60bc" stroke="#9f60bc" points="576.7,-131.4 566.45,-128.7 572.78,-137.2 576.7,-131.4"/>
</g>
<!-- otlpCode -->
<g id="node20" class="node">
<title>otlpCode</title>
<text text-anchor="start" x="643" y="-107.3" font-family="Times,serif" font-weight="bold" font-size="14.00">OTLPCode </text>
<polygon fill="none" stroke="#9f60bc" stroke-width="3" points="638,-98.5 638,-122.5 734,-122.5 734,-98.5 638,-98.5"/>
</g>
<!-- generalAttribute&#45;&gt;otlpCode -->
<g id="edge19" class="edge">
<title>generalAttribute&#45;&gt;otlpCode</title>
<path fill="none" stroke="#9f60bc" stroke-dasharray="5,2" d="M686,-192.43C686,-177.62 686,-155.93 686,-138.73"/>
<polygon fill="#9f60bc" stroke="#9f60bc" points="689.5,-138.7 686,-128.7 682.5,-138.7 689.5,-138.7"/>
</g>
<!-- otlpThread -->
<g id="node21" class="node">
<title>otlpThread</title>
<text text-anchor="start" x="772" y="-107.3" font-family="Times,serif" font-weight="bold" font-size="14.00">OTLPThread </text>
<polygon fill="none" stroke="#9f60bc" stroke-width="3" points="767.5,-98.5 767.5,-122.5 880.5,-122.5 880.5,-98.5 767.5,-98.5"/>
</g>
<!-- generalAttribute&#45;&gt;otlpThread -->
<g id="edge18" class="edge">
<title>generalAttribute&#45;&gt;otlpThread</title>
<path fill="none" stroke="#9f60bc" stroke-dasharray="5,2" d="M710.04,-192.43C732.56,-176.44 766.39,-152.41 791.35,-134.69"/>
<polygon fill="#9f60bc" stroke="#9f60bc" points="793.65,-137.35 799.77,-128.7 789.59,-131.64 793.65,-137.35"/>
</g>
<!-- otlpEndUser -->
<g id="node22" class="node">
<title>otlpEndUser</title>
<text text-anchor="start" x="919" y="-107.3" font-family="Times,serif" font-weight="bold" font-size="14.00">OTLPEndUser </text>
<polygon fill="none" stroke="#9f60bc" stroke-width="3" points="914,-98.5 914,-122.5 1038,-122.5 1038,-98.5 914,-98.5"/>
</g>
<!-- generalAttribute&#45;&gt;otlpEndUser -->
<g id="edge20" class="edge">
<title>generalAttribute&#45;&gt;otlpEndUser</title>
<path fill="none" stroke="#9f60bc" stroke-dasharray="5,2" d="M748.22,-192.47C800.09,-178.07 869.75,-158.2 897,-148 908.72,-143.61 921.12,-138.25 932.54,-132.99"/>
<polygon fill="#9f60bc" stroke="#9f60bc" points="934.29,-136.03 941.86,-128.63 931.32,-129.69 934.29,-136.03"/>
</g>
<!-- otlpClient -->
<g id="node14" class="node">
<title>otlpClient</title>
<text text-anchor="start" x="14" y="-14.8" font-family="Times,serif" font-weight="bold" font-size="14.00">OTLPClient &#160;</text>
<polygon fill="none" stroke="#9f60bc" stroke-width="3" points="9.5,-6 9.5,-30 118.5,-30 118.5,-6 9.5,-6"/>
</g>
<!-- otlpEndpoint&#45;&gt;otlpClient -->
<g id="edge12" class="edge">
<title>otlpEndpoint&#45;&gt;otlpClient</title>
<path fill="none" stroke="#9f60bc" stroke-dasharray="5,2" d="M300.83,-87.48C249.6,-72.66 182.61,-53.29 132.95,-38.94"/>
<polygon fill="#9f60bc" stroke="#9f60bc" points="133.84,-35.55 123.26,-36.13 131.9,-42.27 133.84,-35.55"/>
</g>
<!-- otlpSource -->
<g id="node15" class="node">
<title>otlpSource</title>
<text text-anchor="start" x="156" y="-14.8" font-family="Times,serif" font-weight="bold" font-size="14.00">OTLPSource &#160;</text>
<polygon fill="none" stroke="#9f60bc" stroke-width="3" points="151.5,-6 151.5,-30 266.5,-30 266.5,-6 151.5,-6"/>
</g>
<!-- otlpEndpoint&#45;&gt;otlpSource -->
<g id="edge13" class="edge">
<title>otlpEndpoint&#45;&gt;otlpSource</title>
<path fill="none" stroke="#9f60bc" stroke-dasharray="5,2" d="M309.15,-72.95C288.99,-62.09 267.54,-50.53 249.68,-40.91"/>
<polygon fill="#9f60bc" stroke="#9f60bc" points="251.16,-37.74 240.7,-36.07 247.84,-43.9 251.16,-37.74"/>
</g>
<!-- otlpDestination -->
<g id="node16" class="node">
<title>otlpDestination</title>
<text text-anchor="start" x="305" y="-14.8" font-family="Times,serif" font-weight="bold" font-size="14.00">OTLPDestination &#160;</text>
<polygon fill="none" stroke="#9f60bc" stroke-width="3" points="300,-6 300,-30 454,-30 454,-6 300,-6"/>
</g>
<!-- otlpEndpoint&#45;&gt;otlpDestination -->
<g id="edge14" class="edge">
<title>otlpEndpoint&#45;&gt;otlpDestination</title>
<path fill="none" stroke="#9f60bc" stroke-dasharray="5,2" d="M377,-72.95C377,-63.98 377,-54.54 377,-46.11"/>
<polygon fill="#9f60bc" stroke="#9f60bc" points="380.5,-46.07 377,-36.07 373.5,-46.07 380.5,-46.07"/>
</g>
<!-- otlpLocalNetwork -->
<g id="node17" class="node">
<title>otlpLocalNetwork</title>
<text text-anchor="start" x="492" y="-14.8" font-family="Times,serif" font-weight="bold" font-size="14.00">OTLPLocalNetwork &#160;</text>
<polygon fill="none" stroke="#9f60bc" stroke-width="3" points="487.5,-6 487.5,-30 656.5,-30 656.5,-6 487.5,-6"/>
</g>
<!-- otlpEndpoint&#45;&gt;otlpLocalNetwork -->
<g id="edge15" class="edge">
<title>otlpEndpoint&#45;&gt;otlpLocalNetwork</title>
<path fill="none" stroke="#9f60bc" stroke-dasharray="5,2" d="M453.23,-74.12C477.8,-62.72 504.25,-50.44 525.95,-40.37"/>
<polygon fill="#9f60bc" stroke="#9f60bc" points="527.65,-43.44 535.25,-36.06 524.7,-37.09 527.65,-43.44"/>
</g>
<!-- otlpPeerNetwork -->
<g id="node18" class="node">
<title>otlpPeerNetwork</title>
<text text-anchor="start" x="695" y="-14.8" font-family="Times,serif" font-weight="bold" font-size="14.00">OTLPPeerNetwork &#160;</text>
<polygon fill="none" stroke="#9f60bc" stroke-width="3" points="690,-6 690,-30 854,-30 854,-6 690,-6"/>
</g>
<!-- otlpEndpoint&#45;&gt;otlpPeerNetwork -->
<g id="edge16" class="edge">
<title>otlpEndpoint&#45;&gt;otlpPeerNetwork</title>
<path fill="none" stroke="#9f60bc" stroke-dasharray="5,2" d="M453.17,-75.17C455.46,-74.41 457.74,-73.68 460,-73 461.3,-72.61 579.59,-52.17 670.12,-36.56"/>
<polygon fill="#9f60bc" stroke="#9f60bc" points="670.92,-39.97 680.18,-34.82 669.73,-33.07 670.92,-39.97"/>
</g>
<!-- otlpServer -->
<g id="node13" class="node">
<title>otlpServer</title>
<text text-anchor="start" x="865" y="-1191.3" font-family="Times,serif" font-weight="bold" font-size="14.00">OTLPServer &#160;</text>
<polygon fill="none" stroke="#9f60bc" stroke-width="3" points="860,-1182.5 860,-1206.5 972,-1206.5 972,-1182.5 860,-1182.5"/>
</g>
<!-- otlpPeer -->
<g id="node23" class="node">
<title>otlpPeer</title>
<text text-anchor="start" x="1010" y="-1191.3" font-family="Times,serif" font-weight="bold" font-size="14.00">OTLPPeer </text>
<polygon fill="none" stroke="#9f60bc" stroke-width="3" points="1005.5,-1182.5 1005.5,-1206.5 1098.5,-1206.5 1098.5,-1182.5 1005.5,-1182.5"/>
</g>
<!-- attribute -->
<g id="node28" class="node">
<title>attribute</title>
<text text-anchor="start" x="1134" y="-1211.3" font-family="Times,serif" font-weight="bold" font-size="14.00">Attribute &#160;</text>
<text text-anchor="start" x="1134" y="-1190.3" font-family="Times,serif" font-size="14.00">name</text>
<text text-anchor="start" x="1134" y="-1170.3" font-family="Times,serif" font-size="14.00">value</text>
<polygon fill="none" stroke="black" stroke-dasharray="5,2" points="1130,-1163 1130,-1226 1220,-1226 1220,-1163 1130,-1163"/>
</g>
<!-- span&#45;&gt;otlpAttribute -->
<g id="edge32" class="edge">
<title>span:attributes&#45;&gt;otlpAttribute</title>
<path fill="none" stroke="black" d="M784,-483.5C678.4,-483.5 573.99,-400.04 527.75,-357.63"/>
<polygon fill="black" stroke="black" points="530.03,-354.96 520.32,-350.71 525.25,-360.09 530.03,-354.96"/>
<text text-anchor="middle" x="627" y="-399.8" font-family="Times,serif" font-size="14.00">attributes</text>
</g>
<!-- span&#45;&gt;span -->
<g id="edge29" class="edge">
<title>span:parent&#45;&gt;span</title>
<path fill="none" stroke="black" d="M824.58,-533.67C829.95,-568.2 829.43,-605 823,-605 819.84,-605 818.11,-589.98 817.8,-570.12"/>
<polygon fill="black" stroke="black" points="821.3,-570.01 817.76,-560.02 814.3,-570.03 821.3,-570.01"/>
<text text-anchor="middle" x="823" y="-608.8" font-family="Times,serif" font-size="14.00">parent</text>
</g>
<!-- span&#45;&gt;spancontext -->
<g id="edge30" class="edge">
<title>span:context&#45;&gt;spancontext</title>
<path fill="none" stroke="black" d="M784,-504.5C758.93,-504.5 741.47,-438.5 731.84,-388.51"/>
<polygon fill="black" stroke="black" points="735.23,-387.62 729.96,-378.43 728.35,-388.9 735.23,-387.62"/>
<text text-anchor="middle" x="764" y="-399.8" font-family="Times,serif" font-size="14.00">context</text>
</g>
<!-- span&#45;&gt;spankind -->
<g id="edge34" class="edge">
<title>span:kind&#45;&gt;spankind</title>
<path fill="none" stroke="black" d="M862,-443.5C885.59,-443.5 927.89,-391.36 951.95,-358.87"/>
<polygon fill="black" stroke="black" points="954.86,-360.83 957.94,-350.69 949.21,-356.69 954.86,-360.83"/>
<text text-anchor="middle" x="936.5" y="-399.8" font-family="Times,serif" font-size="14.00">kind</text>
</g>
<!-- span&#45;&gt;event -->
<g id="edge33" class="edge">
<title>span:events&#45;&gt;event</title>
<path fill="none" stroke="black" d="M862,-463.5C877.34,-463.5 867.61,-442.84 861,-429 855.7,-417.91 845.14,-422.17 840,-411 833.96,-397.88 834.36,-382.22 836.86,-368.42"/>
<polygon fill="black" stroke="black" points="840.36,-368.83 839.12,-358.31 833.53,-367.3 840.36,-368.83"/>
<text text-anchor="middle" x="864" y="-399.8" font-family="Times,serif" font-size="14.00">events</text>
</g>
<!-- spancontext&#45;&gt;trace -->
<g id="edge31" class="edge">
<title>spancontext:trace&#45;&gt;trace</title>
<path fill="none" stroke="black" d="M781,-342.5C806.67,-342.5 788.56,-311.24 797,-287 801.79,-273.24 807.73,-258.36 813.13,-245.48"/>
<polygon fill="black" stroke="black" points="816.44,-246.64 817.12,-236.06 809.99,-243.9 816.44,-246.64"/>
<text text-anchor="middle" x="827.5" y="-257.8" font-family="Times,serif" font-size="14.00">trace</text>
</g>
<!-- enum -->
<g id="node33" class="node">
<title>enum</title>
<text text-anchor="start" x="1004" y="-491.3" font-family="Times,serif" font-weight="bold" font-size="14.00">Enum &#160;</text>
<polygon fill="none" stroke="black" points="1000,-483 1000,-506 1064,-506 1064,-483 1000,-483"/>
</g>
<!-- enum&#45;&gt;spankind -->
<g id="edge36" class="edge">
<title>enum&#45;&gt;spankind</title>
<path fill="none" stroke="black" stroke-dasharray="5,2" d="M1025.36,-476.38C1014.61,-448.61 993.27,-393.56 980.46,-360.49"/>
<polygon fill="black" stroke="black" points="983.65,-359.04 976.78,-350.98 977.13,-361.57 983.65,-359.04"/>
</g>
</g>
</svg>
