<?xml version="1.0" encoding="UTF-8" standalone="no"?>
<!DOCTYPE svg PUBLIC "-//W3C//DTD SVG 1.1//EN"
 "http://www.w3.org/Graphics/SVG/1.1/DTD/svg11.dtd">
<!-- Generated by graphviz version 2.43.0 (0)
 -->
<!-- Title: %3 Pages: 1 -->
<svg width="1574pt" height="847pt"
 viewBox="0.00 0.00 1574.00 847.00" xmlns="http://www.w3.org/2000/svg" xmlns:xlink="http://www.w3.org/1999/xlink">
<g id="graph0" class="graph" transform="scale(1 1) rotate(0) translate(4 843)">
<title>%3</title>
<polygon fill="white" stroke="transparent" points="-4,4 -4,-843 1570,-843 1570,4 -4,4"/>
<g id="clust1" class="cluster">
<title>cluster0</title>
<polygon fill="none" stroke="black" points="8,-8 8,-831 1558,-831 1558,-8 8,-8"/>
<text text-anchor="middle" x="83" y="-815.8" font-family="Times,serif" font-size="14.00">Schema: fera&#45;v001</text>
</g>
<!-- NamedType -->
<g id="node1" class="node">
<title>NamedType</title>
<polygon fill="white" stroke="transparent" points="595,-777.5 595,-796.5 694,-796.5 694,-777.5 595,-777.5"/>
<text text-anchor="start" x="597" y="-783.3" font-family="Times,serif" font-size="14.00"> NamedType </text>
<polygon fill="none" stroke="cyan" stroke-width="2" points="592.5,-776 592.5,-799 695.5,-799 695.5,-776 592.5,-776"/>
</g>
<!-- UsdStage -->
<g id="node2" class="node">
<title>UsdStage</title>
<polygon fill="white" stroke="transparent" points="453,-397.5 453,-416.5 560,-416.5 560,-397.5 453,-397.5"/>
<text text-anchor="start" x="464.5" y="-403.3" font-family="Times,serif" font-size="14.00"> &#160;UsdStage </text>
<text text-anchor="start" x="455" y="-383.3" font-family="Times,serif" font-size="14.00">usdaHeader: </text>
<text text-anchor="start" x="563" y="-383.3" font-family="Times,serif" font-size="14.00">xsd:string</text>
<text text-anchor="start" x="455" y="-363.3" font-family="Times,serif" font-size="14.00">usdaFilePath: </text>
<text text-anchor="start" x="563" y="-363.3" font-family="Times,serif" font-size="14.00">xsd:string</text>
<text text-anchor="start" x="455" y="-343.3" font-family="Times,serif" font-size="14.00">defaultPrim: </text>
<text text-anchor="start" x="563" y="-343.3" font-family="Times,serif" font-size="14.00">xsd:string</text>
<polygon fill="none" stroke="black" points="450.5,-336 450.5,-419 639.5,-419 639.5,-336 450.5,-336"/>
</g>
<!-- NamedType&#45;&gt;UsdStage -->
<g id="NamedType&#45;UsdStage" class="edge">
<title>NamedType&#45;&gt;UsdStage</title>
<path fill="none" stroke="cyan" stroke-dasharray="5,2" d="M627.44,-774.74C616.64,-766.13 603.26,-753.46 596,-739 545.22,-637.93 540.51,-502.01 542.28,-429.34"/>
<polygon fill="cyan" stroke="cyan" points="545.78,-429.19 542.58,-419.1 538.79,-428.99 545.78,-429.19"/>
</g>
<!-- UsdDictionary -->
<g id="node6" class="node">
<title>UsdDictionary</title>
<polygon fill="white" stroke="transparent" points="608,-716.5 608,-735.5 754,-735.5 754,-716.5 608,-716.5"/>
<text text-anchor="start" x="622.5" y="-722.3" font-family="Times,serif" font-size="14.00"> &#160;UsdDictionary </text>
<text text-anchor="start" x="610" y="-702.3" font-family="Times,serif" font-size="14.00">dictionaryIsEmpty: </text>
<text text-anchor="start" x="757" y="-702.3" font-family="Times,serif" font-size="14.00">xsd:boolean</text>
<polygon fill="none" stroke="cyan" stroke-width="2" points="606,-695 606,-738 846,-738 846,-695 606,-695"/>
</g>
<!-- NamedType&#45;&gt;UsdDictionary -->
<g id="NamedType&#45;UsdDictionary" class="edge">
<title>NamedType&#45;&gt;UsdDictionary</title>
<path fill="none" stroke="cyan" stroke-dasharray="5,2" d="M657.91,-774.8C667.43,-766.78 680.48,-755.8 692.61,-745.6"/>
<polygon fill="cyan" stroke="cyan" points="695,-748.16 700.4,-739.04 690.49,-742.8 695,-748.16"/>
</g>
<!-- StringPair -->
<g id="node11" class="node">
<title>StringPair</title>
<polygon fill="white" stroke="transparent" points="1378,-158.5 1378,-177.5 1470,-177.5 1470,-158.5 1378,-158.5"/>
<text text-anchor="start" x="1380" y="-164.3" font-family="Times,serif" font-size="14.00"> &#160;StringPair </text>
<text text-anchor="start" x="1380" y="-144.3" font-family="Times,serif" font-size="14.00">value: </text>
<text text-anchor="start" x="1473" y="-144.3" font-family="Times,serif" font-size="14.00">xsd:string</text>
<polygon fill="none" stroke="black" points="1376,-137 1376,-180 1550,-180 1550,-137 1376,-137"/>
</g>
<!-- NamedType&#45;&gt;StringPair -->
<g id="NamedType&#45;StringPair" class="edge">
<title>NamedType&#45;&gt;StringPair</title>
<path fill="none" stroke="cyan" stroke-dasharray="5,2" d="M696.65,-776.29C739.78,-767.54 802.23,-754.01 856,-739 1070.55,-679.08 1156.47,-672.64 1296,-499 1376.68,-398.6 1431.74,-252.82 1453.1,-190.09"/>
<polygon fill="cyan" stroke="cyan" points="1456.48,-191 1456.35,-180.4 1449.85,-188.77 1456.48,-191"/>
</g>
<!-- UsdTyped -->
<g id="node17" class="node">
<title>UsdTyped</title>
<polygon fill="white" stroke="transparent" points="173,-586.5 173,-605.5 263,-605.5 263,-586.5 173,-586.5"/>
<text text-anchor="start" x="175" y="-592.3" font-family="Times,serif" font-size="14.00"> &#160;UsdTyped </text>
<polygon fill="none" stroke="black" points="171,-585 171,-608 265,-608 265,-585 171,-585"/>
</g>
<!-- NamedType&#45;&gt;UsdTyped -->
<g id="NamedType&#45;UsdTyped" class="edge">
<title>NamedType&#45;&gt;UsdTyped</title>
<path fill="none" stroke="cyan" stroke-dasharray="5,2" d="M591.38,-787.24C496.5,-787.45 302.03,-782.4 253,-739 218.4,-708.37 215.35,-649.46 216.45,-618.18"/>
<polygon fill="cyan" stroke="cyan" points="219.95,-618.19 216.99,-608.02 212.96,-617.82 219.95,-618.19"/>
</g>
<!-- UsdPrim -->
<g id="node3" class="node">
<title>UsdPrim</title>
<polygon fill="white" stroke="transparent" points="660,-477.5 660,-496.5 793,-496.5 793,-477.5 660,-477.5"/>
<text text-anchor="start" x="688" y="-483.3" font-family="Times,serif" font-size="14.00"> &#160;UsdPrim </text>
<text text-anchor="start" x="662" y="-463.3" font-family="Times,serif" font-size="14.00">typeName: </text>
<text text-anchor="start" x="824" y="-463.3" font-family="Times,serif" font-size="14.00">xsd:string</text>
<text text-anchor="start" x="662" y="-443.3" font-family="Times,serif" font-size="14.00">apiSchemas: </text>
<text text-anchor="start" x="819" y="-443.3" font-family="Times,serif" font-size="14.00">[xsd:string]</text>
<text text-anchor="start" x="662" y="-423.3" font-family="Times,serif" font-size="14.00">specializesName: </text>
<text text-anchor="start" x="824" y="-423.3" font-family="Times,serif" font-size="14.00">xsd:string</text>
<text text-anchor="start" x="662" y="-403.3" font-family="Times,serif" font-size="14.00">specifier: </text>
<text text-anchor="start" x="814.5" y="-403.3" font-family="Times,serif" font-size="14.00">UsdSpecifier</text>
<text text-anchor="start" x="662" y="-383.3" font-family="Times,serif" font-size="14.00">active: </text>
<text text-anchor="start" x="818" y="-383.3" font-family="Times,serif" font-size="14.00">xsd:boolean</text>
<text text-anchor="start" x="662" y="-363.3" font-family="Times,serif" font-size="14.00">kind: </text>
<text text-anchor="start" x="829.5" y="-363.3" font-family="Times,serif" font-size="14.00">UsdKind</text>
<text text-anchor="start" x="662" y="-343.3" font-family="Times,serif" font-size="14.00">referenceNames: </text>
<text text-anchor="start" x="819" y="-343.3" font-family="Times,serif" font-size="14.00">[xsd:string]</text>
<text text-anchor="start" x="662" y="-323.3" font-family="Times,serif" font-size="14.00">relationships: </text>
<text text-anchor="start" x="796" y="-323.3" font-family="Times,serif" font-size="14.00">[UsdRelationship]</text>
<text text-anchor="start" x="662" y="-303.3" font-family="Times,serif" font-size="14.00">variants: </text>
<text text-anchor="start" x="818" y="-303.3" font-family="Times,serif" font-size="14.00">[StringPair]</text>
<text text-anchor="start" x="662" y="-283.3" font-family="Times,serif" font-size="14.00">variantSet: </text>
<text text-anchor="start" x="823.5" y="-283.3" font-family="Times,serif" font-size="14.00">[UsdPrim]</text>
<text text-anchor="start" x="662" y="-263.3" font-family="Times,serif" font-size="14.00">variability: </text>
<text text-anchor="start" x="809" y="-263.3" font-family="Times,serif" font-size="14.00">UsdVariability</text>
<polygon fill="none" stroke="black" points="657.5,-256 657.5,-499 928.5,-499 928.5,-256 657.5,-256"/>
</g>
<!-- UsdPrim&#45;&gt;UsdPrim -->
<g id="UsdPrim&#45;variantSet&#45;UsdPrim" class="edge">
<title>UsdPrim:variantSet&#45;&gt;UsdPrim</title>
<path fill="none" stroke="black" d="M869.82,-277.49C916.07,-232.34 946.5,-237.86 946.5,-332 946.5,-352.75 942.1,-369.19 934.66,-381.73"/>
<polygon fill="black" stroke="black" points="931.61,-379.99 928.72,-390.18 937.34,-384.01 931.61,-379.99"/>
</g>
<!-- UsdKind -->
<g id="node10" class="node">
<title>UsdKind</title>
<polygon fill="white" stroke="transparent" points="594,-198.5 594,-217.5 720,-217.5 720,-198.5 594,-198.5"/>
<text text-anchor="start" x="596" y="-204.3" font-family="Times,serif" font-size="14.00"> &#160;Enum:UsdKind </text>
<text text-anchor="start" x="669" y="-184.3" font-family="Times,serif" font-size="14.00">model </text>
<text text-anchor="start" x="671" y="-164.3" font-family="Times,serif" font-size="14.00">group </text>
<text text-anchor="start" x="646" y="-144.3" font-family="Times,serif" font-size="14.00">assembly </text>
<text text-anchor="start" x="634" y="-124.3" font-family="Times,serif" font-size="14.00">component </text>
<text text-anchor="start" x="609" y="-104.3" font-family="Times,serif" font-size="14.00">subcomponent </text>
<polygon fill="none" stroke="black" points="592,-97 592,-220 722,-220 722,-97 592,-97"/>
</g>
<!-- UsdPrim&#45;&gt;UsdKind -->
<g id="UsdPrim&#45;kind&#45;UsdKind" class="edge">
<title>UsdPrim:kind&#45;&gt;UsdKind</title>
<path fill="none" stroke="black" d="M928,-366.5C952.56,-366.5 942.8,-274.8 927,-256 870,-188.21 811.38,-257.2 731,-220 730.91,-219.96 730.81,-219.91 730.72,-219.87"/>
<polygon fill="black" stroke="black" points="732.53,-216.86 722.04,-215.4 729.32,-223.09 732.53,-216.86"/>
</g>
<!-- UsdPrim&#45;&gt;StringPair -->
<g id="UsdPrim&#45;variants&#45;StringPair" class="edge">
<title>UsdPrim:variants&#45;&gt;StringPair</title>
<path fill="none" stroke="black" d="M928,-306.5C953.66,-306.5 934.48,-269.98 956,-256 1032.89,-206.07 1280.11,-249.26 1367,-220 1389.46,-212.44 1412.02,-198.62 1429.61,-186.1"/>
<polygon fill="black" stroke="black" points="1431.82,-188.81 1437.83,-180.09 1427.69,-183.16 1431.82,-188.81"/>
</g>
<!-- UsdSpecifier -->
<g id="node12" class="node">
<title>UsdSpecifier</title>
<polygon fill="white" stroke="transparent" points="742,-178.5 742,-197.5 898,-197.5 898,-178.5 742,-178.5"/>
<text text-anchor="start" x="744" y="-184.3" font-family="Times,serif" font-size="14.00"> &#160;Enum:UsdSpecifier </text>
<text text-anchor="start" x="803" y="-164.3" font-family="Times,serif" font-size="14.00">SpecifierDef </text>
<text text-anchor="start" x="793" y="-144.3" font-family="Times,serif" font-size="14.00">SpecifierOver </text>
<text text-anchor="start" x="790" y="-124.3" font-family="Times,serif" font-size="14.00">SpecifierClass </text>
<polygon fill="none" stroke="black" points="740,-117 740,-200 900,-200 900,-117 740,-117"/>
</g>
<!-- UsdPrim&#45;&gt;UsdSpecifier -->
<g id="UsdPrim&#45;specifier&#45;UsdSpecifier" class="edge">
<title>UsdPrim:specifier&#45;&gt;UsdSpecifier</title>
<path fill="none" stroke="black" d="M928,-407.5C961.67,-407.5 940.78,-286.72 927,-256 918.6,-237.27 904.58,-220.63 889.42,-206.67"/>
<polygon fill="black" stroke="black" points="891.72,-204.03 881.91,-200.03 887.08,-209.27 891.72,-204.03"/>
</g>
<!-- UsdVariability -->
<g id="node14" class="node">
<title>UsdVariability</title>
<polygon fill="white" stroke="transparent" points="405,-168.5 405,-187.5 572,-187.5 572,-168.5 405,-168.5"/>
<text text-anchor="start" x="407" y="-174.3" font-family="Times,serif" font-size="14.00"> &#160;Enum:UsdVariability </text>
<text text-anchor="start" x="509" y="-154.3" font-family="Times,serif" font-size="14.00">uniform </text>
<text text-anchor="start" x="511" y="-134.3" font-family="Times,serif" font-size="14.00">varying </text>
<polygon fill="none" stroke="black" points="402.5,-127 402.5,-190 573.5,-190 573.5,-127 402.5,-127"/>
</g>
<!-- UsdPrim&#45;&gt;UsdVariability -->
<g id="UsdPrim&#45;variability&#45;UsdVariability" class="edge">
<title>UsdPrim:variability&#45;&gt;UsdVariability</title>
<path fill="none" stroke="black" d="M861,-256.5C861,-194.19 641.56,-241.3 583,-220 566.87,-214.13 550.63,-205.18 536.26,-195.94"/>
<polygon fill="black" stroke="black" points="537.83,-192.78 527.56,-190.18 533.96,-198.62 537.83,-192.78"/>
</g>
<!-- UsdRelationship -->
<g id="node15" class="node">
<title>UsdRelationship</title>
<polygon fill="white" stroke="transparent" points="920,-158.5 920,-177.5 1056,-177.5 1056,-158.5 920,-158.5"/>
<text text-anchor="start" x="922" y="-164.3" font-family="Times,serif" font-size="14.00"> &#160;UsdRelationship </text>
<text text-anchor="start" x="922" y="-144.3" font-family="Times,serif" font-size="14.00">primObjectPath: </text>
<text text-anchor="start" x="1059" y="-144.3" font-family="Times,serif" font-size="14.00">xsd:string</text>
<polygon fill="none" stroke="black" points="918,-137 918,-180 1136,-180 1136,-137 918,-137"/>
</g>
<!-- UsdPrim&#45;&gt;UsdRelationship -->
<g id="UsdPrim&#45;relationships&#45;UsdRelationship" class="edge">
<title>UsdPrim:relationships&#45;&gt;UsdRelationship</title>
<path fill="none" stroke="black" d="M928,-326.5C961.71,-326.5 939.65,-285.49 956,-256 969.44,-231.76 988.13,-206.6 1002.96,-188.05"/>
<polygon fill="black" stroke="black" points="1005.68,-190.25 1009.26,-180.28 1000.25,-185.84 1005.68,-190.25"/>
</g>
<!-- UsdAttribute -->
<g id="node4" class="node">
<title>UsdAttribute</title>
<polygon fill="white" stroke="transparent" points="1156,-168.5 1156,-187.5 1278,-187.5 1278,-168.5 1156,-168.5"/>
<text text-anchor="start" x="1163" y="-174.3" font-family="Times,serif" font-size="14.00"> &#160;UsdAttribute </text>
<text text-anchor="start" x="1158" y="-154.3" font-family="Times,serif" font-size="14.00">appliedSchema: </text>
<text text-anchor="start" x="1281" y="-154.3" font-family="Times,serif" font-size="14.00">xsd:string</text>
<text text-anchor="start" x="1158" y="-134.3" font-family="Times,serif" font-size="14.00">roleName: </text>
<text text-anchor="start" x="1281" y="-134.3" font-family="Times,serif" font-size="14.00">xsd:string</text>
<polygon fill="none" stroke="black" points="1154,-127 1154,-190 1358,-190 1358,-127 1154,-127"/>
</g>
<!-- UsdObject -->
<g id="node5" class="node">
<title>UsdObject</title>
<polygon fill="white" stroke="transparent" points="604,-636.5 604,-655.5 724,-655.5 724,-636.5 604,-636.5"/>
<text text-anchor="start" x="619.5" y="-642.3" font-family="Times,serif" font-size="14.00"> &#160;UsdObject </text>
<text text-anchor="start" x="606" y="-622.3" font-family="Times,serif" font-size="14.00">definedIn: </text>
<text text-anchor="start" x="727" y="-622.3" font-family="Times,serif" font-size="14.00">DefinitionSource</text>
<text text-anchor="start" x="606" y="-602.3" font-family="Times,serif" font-size="14.00">parentObject: </text>
<text text-anchor="start" x="749" y="-602.3" font-family="Times,serif" font-size="14.00">UsdObject</text>
<text text-anchor="start" x="606" y="-582.3" font-family="Times,serif" font-size="14.00">displayName: </text>
<text text-anchor="start" x="750.5" y="-582.3" font-family="Times,serif" font-size="14.00">xsd:string</text>
<text text-anchor="start" x="606" y="-562.3" font-family="Times,serif" font-size="14.00">doc: </text>
<text text-anchor="start" x="750.5" y="-562.3" font-family="Times,serif" font-size="14.00">xsd:string</text>
<text text-anchor="start" x="606" y="-542.3" font-family="Times,serif" font-size="14.00">documentation: </text>
<text text-anchor="start" x="750.5" y="-542.3" font-family="Times,serif" font-size="14.00">xsd:string</text>
<polygon fill="none" stroke="black" points="601.5,-535 601.5,-658 850.5,-658 850.5,-535 601.5,-535"/>
</g>
<!-- UsdObject&#45;&gt;UsdStage -->
<g id="UsdObject&#45;UsdStage" class="edge">
<title>UsdObject&#45;&gt;UsdStage</title>
<path fill="none" stroke="black" stroke-dasharray="5,2" d="M675.34,-534.76C647,-500.78 612.14,-458.99 585.6,-427.18"/>
<polygon fill="black" stroke="black" points="588.14,-424.75 579.04,-419.32 582.76,-429.24 588.14,-424.75"/>
</g>
<!-- UsdObject&#45;&gt;UsdPrim -->
<g id="UsdObject&#45;UsdPrim" class="edge">
<title>UsdObject&#45;&gt;UsdPrim</title>
<path fill="none" stroke="black" stroke-dasharray="5,2" d="M744.75,-534.76C747.28,-526.57 749.95,-517.92 752.69,-509.07"/>
<polygon fill="black" stroke="black" points="756.07,-509.98 755.67,-499.39 749.38,-507.91 756.07,-509.98"/>
</g>
<!-- UsdObject&#45;&gt;UsdObject -->
<g id="UsdObject&#45;parentObject&#45;UsdObject" class="edge">
<title>UsdObject:parentObject&#45;&gt;UsdObject</title>
<path fill="none" stroke="black" d="M802.59,-615.53C841.77,-636.05 868.5,-632.54 868.5,-601.5 868.5,-595.01 865.24,-589.73 859.62,-585.62"/>
<polygon fill="black" stroke="black" points="861.05,-582.41 850.59,-580.73 857.72,-588.57 861.05,-582.41"/>
</g>
<!-- DefinitionSource -->
<g id="node9" class="node">
<title>DefinitionSource</title>
<text text-anchor="start" x="1103" y="-403.3" font-family="Times,serif" font-size="14.00"> &#160;Enum:DefinitionSource </text>
<text text-anchor="start" x="1252" y="-383.3" font-family="Times,serif" font-size="14.00">usd </text>
<text text-anchor="start" x="1257" y="-363.3" font-family="Times,serif" font-size="14.00">rdf </text>
<text text-anchor="start" x="1204" y="-343.3" font-family="Times,serif" font-size="14.00">omniverse </text>
<polygon fill="none" stroke="black" points="1099,-336 1099,-419 1287,-419 1287,-336 1099,-336"/>
</g>
<!-- UsdObject&#45;&gt;DefinitionSource -->
<g id="UsdObject&#45;definedIn&#45;DefinitionSource" class="edge">
<title>UsdObject:definedIn&#45;&gt;DefinitionSource</title>
<path fill="none" stroke="black" d="M850,-626.5C892.53,-626.5 846.06,-563.08 878,-535 949.79,-471.91 1006.87,-546.14 1090,-499 1119.9,-482.05 1145.14,-452.96 1163.15,-427.61"/>
<polygon fill="black" stroke="black" points="1166.17,-429.39 1168.97,-419.18 1160.41,-425.41 1166.17,-429.39"/>
</g>
<!-- UsdProperty -->
<g id="node13" class="node">
<title>UsdProperty</title>
<polygon fill="white" stroke="transparent" points="968,-367.5 968,-386.5 1078,-386.5 1078,-367.5 968,-367.5"/>
<text text-anchor="start" x="970" y="-373.3" font-family="Times,serif" font-size="14.00"> &#160;UsdProperty </text>
<polygon fill="none" stroke="cyan" stroke-width="2" points="966,-366 966,-389 1080,-389 1080,-366 966,-366"/>
</g>
<!-- UsdObject&#45;&gt;UsdProperty -->
<g id="UsdObject&#45;UsdProperty" class="edge">
<title>UsdObject&#45;&gt;UsdProperty</title>
<path fill="none" stroke="black" stroke-dasharray="5,2" d="M850.63,-545.19C902.21,-524.01 951.25,-503.25 956,-499 986.85,-471.37 1006.61,-426.04 1016.17,-399.56"/>
<polygon fill="black" stroke="black" points="1019.48,-400.69 1019.44,-390.1 1012.87,-398.4 1019.48,-400.69"/>
</g>
<!-- UsdAPISchemaBase -->
<g id="node18" class="node">
<title>UsdAPISchemaBase</title>
<polygon fill="white" stroke="transparent" points="267,-367.5 267,-386.5 429,-386.5 429,-367.5 267,-367.5"/>
<text text-anchor="start" x="269" y="-373.3" font-family="Times,serif" font-size="14.00"> &#160;UsdAPISchemaBase </text>
<polygon fill="none" stroke="lightblue" stroke-width="2" points="265,-366 265,-389 431,-389 431,-366 265,-366"/>
</g>
<!-- UsdObject&#45;&gt;UsdAPISchemaBase -->
<g id="UsdObject&#45;UsdAPISchemaBase" class="edge">
<title>UsdObject&#45;&gt;UsdAPISchemaBase</title>
<path fill="none" stroke="black" stroke-dasharray="5,2" d="M601.22,-569.92C548.76,-555.08 489.11,-532.49 442,-499 404.25,-472.17 374.27,-425.9 359.02,-399.18"/>
<polygon fill="black" stroke="black" points="362,-397.33 354.09,-390.29 355.88,-400.73 362,-397.33"/>
</g>
<!-- UsdDictionary&#45;&gt;UsdObject -->
<g id="UsdDictionary&#45;UsdObject" class="edge">
<title>UsdDictionary&#45;&gt;UsdObject</title>
<path fill="none" stroke="cyan" stroke-dasharray="5,2" d="M726,-693.86C726,-686.38 726,-677.55 726,-668.31"/>
<polygon fill="cyan" stroke="cyan" points="729.5,-668.17 726,-658.17 722.5,-668.17 729.5,-668.17"/>
</g>
<!-- UsdSegment -->
<g id="node7" class="node">
<title>UsdSegment</title>
<polygon fill="white" stroke="transparent" points="890,-606.5 890,-625.5 1007,-625.5 1007,-606.5 890,-606.5"/>
<text text-anchor="start" x="895.5" y="-612.3" font-family="Times,serif" font-size="14.00"> &#160;UsdSegment </text>
<text text-anchor="start" x="892" y="-592.3" font-family="Times,serif" font-size="14.00">segmentName: </text>
<text text-anchor="start" x="1010" y="-592.3" font-family="Times,serif" font-size="14.00">xsd:string</text>
<text text-anchor="start" x="892" y="-572.3" font-family="Times,serif" font-size="14.00">path: </text>
<text text-anchor="start" x="1010" y="-572.3" font-family="Times,serif" font-size="14.00">xsd:string</text>
<polygon fill="none" stroke="cyan" stroke-width="2" points="887.5,-565 887.5,-628 1086.5,-628 1086.5,-565 887.5,-565"/>
</g>
<!-- UsdDictionary&#45;&gt;UsdSegment -->
<g id="UsdDictionary&#45;UsdSegment" class="edge">
<title>UsdDictionary&#45;&gt;UsdSegment</title>
<path fill="none" stroke="cyan" stroke-dasharray="5,2" d="M789.34,-693.87C816.95,-683.85 849.46,-671.23 878,-658 893.51,-650.81 909.83,-642.29 924.98,-633.96"/>
<polygon fill="cyan" stroke="cyan" points="926.71,-637 933.75,-629.08 923.31,-630.88 926.71,-637"/>
</g>
<!-- UsdSegment&#45;&gt;UsdPrim -->
<g id="UsdSegment&#45;UsdPrim" class="edge">
<title>UsdSegment&#45;&gt;UsdPrim</title>
<path fill="none" stroke="cyan" stroke-dasharray="5,2" d="M958.79,-563.95C944.69,-548.17 926.59,-527.93 907.56,-506.65"/>
<polygon fill="cyan" stroke="cyan" points="910.07,-504.2 900.8,-499.08 904.85,-508.87 910.07,-504.2"/>
</g>
<!-- UsdSegment&#45;&gt;UsdProperty -->
<g id="UsdSegment&#45;UsdProperty" class="edge">
<title>UsdSegment&#45;&gt;UsdProperty</title>
<path fill="none" stroke="cyan" stroke-dasharray="5,2" d="M992.23,-563.95C999.62,-519.44 1012.91,-439.34 1019.33,-400.64"/>
<polygon fill="cyan" stroke="cyan" points="1022.83,-400.89 1021.02,-390.46 1015.93,-399.75 1022.83,-400.89"/>
</g>
<!-- UsdObjectValue -->
<g id="node8" class="node">
<title>UsdObjectValue</title>
<polygon fill="white" stroke="transparent" points="192,-38.5 192,-57.5 324,-57.5 324,-38.5 192,-38.5"/>
<text text-anchor="start" x="194" y="-44.3" font-family="Times,serif" font-size="14.00"> &#160;UsdObjectValue </text>
<text text-anchor="start" x="194" y="-24.3" font-family="Times,serif" font-size="14.00">valueTypeToken: </text>
<text text-anchor="start" x="327" y="-24.3" font-family="Times,serif" font-size="14.00">xsd:string</text>
<polygon fill="none" stroke="green" stroke-width="2" points="190,-17 190,-60 404,-60 404,-17 190,-17"/>
</g>
<!-- UsdProperty&#45;&gt;UsdAttribute -->
<g id="UsdProperty&#45;UsdAttribute" class="edge">
<title>UsdProperty&#45;&gt;UsdAttribute</title>
<path fill="none" stroke="cyan" stroke-dasharray="5,2" d="M1027.03,-364.91C1035.55,-341.79 1057.31,-289.32 1090,-256 1098.27,-247.57 1148.27,-218.89 1191.25,-194.97"/>
<polygon fill="cyan" stroke="cyan" points="1192.98,-198.02 1200.02,-190.11 1189.58,-191.9 1192.98,-198.02"/>
</g>
<!-- UsdProperty&#45;&gt;UsdRelationship -->
<g id="UsdProperty&#45;UsdRelationship" class="edge">
<title>UsdProperty&#45;&gt;UsdRelationship</title>
<path fill="none" stroke="cyan" stroke-dasharray="5,2" d="M1023.22,-364.83C1023.82,-332.26 1025.52,-239.53 1026.43,-190.6"/>
<polygon fill="cyan" stroke="cyan" points="1029.93,-190.36 1026.62,-180.29 1022.93,-190.23 1029.93,-190.36"/>
</g>
<!-- UsdSchemaBase -->
<g id="node16" class="node">
<title>UsdSchemaBase</title>
<polygon fill="white" stroke="transparent" points="265,-706.5 265,-725.5 402,-725.5 402,-706.5 265,-706.5"/>
<text text-anchor="start" x="267" y="-712.3" font-family="Times,serif" font-size="14.00"> &#160;UsdSchemaBase </text>
<polygon fill="none" stroke="lightblue" stroke-width="2" points="262.5,-705 262.5,-728 403.5,-728 403.5,-705 262.5,-705"/>
</g>
<!-- UsdSchemaBase&#45;&gt;UsdTyped -->
<g id="UsdSchemaBase&#45;UsdTyped" class="edge">
<title>UsdSchemaBase&#45;&gt;UsdTyped</title>
<path fill="none" stroke="lightblue" stroke-dasharray="5,2" d="M321.55,-703.75C301.35,-683.03 259.28,-639.85 235.44,-615.4"/>
<polygon fill="lightblue" stroke="lightblue" points="237.88,-612.89 228.4,-608.17 232.87,-617.77 237.88,-612.89"/>
</g>
<!-- UsdSchemaBase&#45;&gt;UsdAPISchemaBase -->
<g id="UsdSchemaBase&#45;UsdAPISchemaBase" class="edge">
<title>UsdSchemaBase&#45;&gt;UsdAPISchemaBase</title>
<path fill="none" stroke="lightblue" stroke-dasharray="5,2" d="M333.52,-703.9C335.69,-654.99 344.14,-465.11 347.03,-400.31"/>
<polygon fill="lightblue" stroke="lightblue" points="350.54,-400.2 347.49,-390.05 343.54,-399.89 350.54,-400.2"/>
</g>
<!-- UsdTyped&#45;&gt;UsdPrim -->
<g id="UsdTyped&#45;UsdPrim" class="edge">
<title>UsdTyped&#45;&gt;UsdPrim</title>
<path fill="none" stroke="black" stroke-dasharray="5,2" d="M265.06,-592.25C345.13,-585.22 511.69,-563.96 647.96,-499.23"/>
<polygon fill="black" stroke="black" points="649.83,-502.21 657.3,-494.7 646.78,-495.92 649.83,-502.21"/>
</g>
<!-- XForm -->
<g id="node21" class="node">
<title>XForm</title>
<polygon fill="white" stroke="transparent" points="23,-367.5 23,-386.5 88,-386.5 88,-367.5 23,-367.5"/>
<text text-anchor="start" x="25" y="-373.3" font-family="Times,serif" font-size="14.00"> &#160;XForm </text>
<polygon fill="none" stroke="black" points="20.5,-366 20.5,-389 89.5,-389 89.5,-366 20.5,-366"/>
</g>
<!-- UsdTyped&#45;&gt;XForm -->
<g id="UsdTyped&#45;XForm" class="edge">
<title>UsdTyped&#45;&gt;XForm</title>
<path fill="none" stroke="black" stroke-dasharray="5,2" d="M199.25,-584.82C173.29,-569.14 126.5,-537.54 99,-499 76.8,-467.89 64.59,-424.34 58.96,-399.01"/>
<polygon fill="black" stroke="black" points="62.35,-398.13 56.87,-389.06 55.5,-399.57 62.35,-398.13"/>
</g>
<!-- Cube -->
<g id="node22" class="node">
<title>Cube</title>
<polygon fill="white" stroke="transparent" points="110,-367.5 110,-386.5 165,-386.5 165,-367.5 110,-367.5"/>
<text text-anchor="start" x="112" y="-373.3" font-family="Times,serif" font-size="14.00"> &#160;Cube </text>
<polygon fill="none" stroke="black" points="107.5,-366 107.5,-389 166.5,-389 166.5,-366 107.5,-366"/>
</g>
<!-- UsdTyped&#45;&gt;Cube -->
<g id="UsdTyped&#45;Cube" class="edge">
<title>UsdTyped&#45;&gt;Cube</title>
<path fill="none" stroke="black" stroke-dasharray="5,2" d="M212.99,-584.93C204.75,-567.32 188.03,-530.79 176,-499 162.91,-464.4 150.18,-423.24 142.99,-399.08"/>
<polygon fill="black" stroke="black" points="146.28,-397.86 140.1,-389.26 139.57,-399.84 146.28,-397.86"/>
</g>
<!-- Mesh -->
<g id="node23" class="node">
<title>Mesh</title>
<polygon fill="white" stroke="transparent" points="187,-367.5 187,-386.5 244,-386.5 244,-367.5 187,-367.5"/>
<text text-anchor="start" x="189" y="-373.3" font-family="Times,serif" font-size="14.00"> &#160;Mesh </text>
<polygon fill="none" stroke="black" points="184.5,-366 184.5,-389 245.5,-389 245.5,-366 184.5,-366"/>
</g>
<!-- UsdTyped&#45;&gt;Mesh -->
<g id="UsdTyped&#45;Mesh" class="edge">
<title>UsdTyped&#45;&gt;Mesh</title>
<path fill="none" stroke="black" stroke-dasharray="5,2" d="M217.85,-584.74C217.38,-550.68 215.92,-444.83 215.29,-399.47"/>
<polygon fill="black" stroke="black" points="218.79,-399.28 215.15,-389.33 211.79,-399.37 218.79,-399.28"/>
</g>
<!-- UsdSingleAppliedAPI -->
<g id="node19" class="node">
<title>UsdSingleAppliedAPI</title>
<polygon fill="white" stroke="transparent" points="19,-148.5 19,-167.5 189,-167.5 189,-148.5 19,-148.5"/>
<text text-anchor="start" x="21" y="-154.3" font-family="Times,serif" font-size="14.00"> &#160;UsdSingleAppliedAPI </text>
<polygon fill="none" stroke="lightblue" stroke-width="2" points="17,-147 17,-170 191,-170 191,-147 17,-147"/>
</g>
<!-- UsdAPISchemaBase&#45;&gt;UsdSingleAppliedAPI -->
<g id="UsdAPISchemaBase&#45;UsdSingleAppliedAPI" class="edge">
<title>UsdAPISchemaBase&#45;&gt;UsdSingleAppliedAPI</title>
<path fill="none" stroke="lightblue" stroke-dasharray="5,2" d="M340.93,-364.81C326.73,-341.96 292.82,-290.61 255,-256 249.69,-251.14 173.26,-202.95 131.22,-176.56"/>
<polygon fill="lightblue" stroke="lightblue" points="132.9,-173.48 122.57,-171.13 129.18,-179.41 132.9,-173.48"/>
</g>
<!-- UsdMultiAppliedAPI -->
<g id="node20" class="node">
<title>UsdMultiAppliedAPI</title>
<polygon fill="white" stroke="transparent" points="215,-148.5 215,-167.5 379,-167.5 379,-148.5 215,-148.5"/>
<text text-anchor="start" x="217" y="-154.3" font-family="Times,serif" font-size="14.00"> &#160;UsdMultiAppliedAPI </text>
<polygon fill="none" stroke="blue" stroke-width="4" points="212,-146 212,-171 382,-171 382,-146 212,-146"/>
</g>
<!-- UsdAPISchemaBase&#45;&gt;UsdMultiAppliedAPI -->
<g id="UsdAPISchemaBase&#45;UsdMultiAppliedAPI" class="edge">
<title>UsdAPISchemaBase&#45;&gt;UsdMultiAppliedAPI</title>
<path fill="none" stroke="lightblue" stroke-dasharray="5,2" d="M345.26,-364.83C337.19,-330.52 313.44,-229.46 302.56,-183.16"/>
<polygon fill="lightblue" stroke="lightblue" points="305.9,-182.08 300.21,-173.14 299.09,-183.68 305.9,-182.08"/>
</g>
<!-- UsdMultiAppliedAPI&#45;&gt;UsdObjectValue -->
<g id="UsdMultiAppliedAPI&#45;UsdObjectValue" class="edge">
<title>UsdMultiAppliedAPI&#45;&gt;UsdObjectValue</title>
<path fill="none" stroke="blue" stroke-dasharray="5,2" d="M297,-143.96C297,-126.43 297,-95.3 297,-71.57"/>
<polygon fill="blue" stroke="blue" points="300.5,-71.27 297,-61.27 293.5,-71.27 300.5,-71.27"/>
</g>
</g>
</svg>
