<?xml version="1.0" encoding="UTF-8" standalone="no"?>
<!DOCTYPE svg PUBLIC "-//W3C//DTD SVG 1.1//EN"
 "http://www.w3.org/Graphics/SVG/1.1/DTD/svg11.dtd">
<!-- Generated by graphviz version 2.43.0 (0)
 -->
<!-- Title: %3 Pages: 1 -->
<svg width="1096pt" height="684pt"
 viewBox="0.00 0.00 1096.00 684.00" xmlns="http://www.w3.org/2000/svg" xmlns:xlink="http://www.w3.org/1999/xlink">
<g id="graph0" class="graph" transform="scale(1 1) rotate(0) translate(4 680)">
<title>%3</title>
<polygon fill="white" stroke="transparent" points="-4,4 -4,-680 1092,-680 1092,4 -4,4"/>
<g id="clust1" class="cluster">
<title>cluster0</title>
<polygon fill="none" stroke="black" points="8,-8 8,-668 1080,-668 1080,-8 8,-8"/>
<text text-anchor="middle" x="97.5" y="-652.8" font-family="Times,serif" font-size="14.00">Schema: digitech&#45;v022</text>
</g>
<!-- AGV -->
<g id="node1" class="node">
<title>AGV</title>
<polygon fill="white" stroke="transparent" points="635,-265.5 635,-284.5 679,-284.5 679,-265.5 635,-265.5"/>
<text text-anchor="start" x="637" y="-271.3" font-family="Times,serif" font-size="14.00"> AGV </text>
<polygon fill="none" stroke="black" points="633,-264 633,-287 681,-287 681,-264 633,-264"/>
</g>
<!-- MiR -->
<g id="node24" class="node">
<title>MiR</title>
<polygon fill="white" stroke="transparent" points="531,-165.5 531,-184.5 578,-184.5 578,-165.5 531,-165.5"/>
<text text-anchor="start" x="533" y="-171.3" font-family="Times,serif" font-size="14.00"> &#160;MiR </text>
<polygon fill="none" stroke="black" points="528.5,-164 528.5,-187 579.5,-187 579.5,-164 528.5,-164"/>
</g>
<!-- AGV&#45;&gt;MiR -->
<g id="AGV&#45;MiR" class="edge">
<title>AGV&#45;&gt;MiR</title>
<path fill="none" stroke="black" stroke-dasharray="5,2" d="M645.58,-263.64C627.93,-246.85 593.85,-214.42 572.61,-194.2"/>
<polygon fill="black" stroke="black" points="574.81,-191.47 565.15,-187.11 569.99,-196.54 574.81,-191.47"/>
</g>
<!-- AssetGroup -->
<g id="node2" class="node">
<title>AssetGroup</title>
<polygon fill="white" stroke="transparent" points="384,-265.5 384,-284.5 481,-284.5 481,-265.5 384,-265.5"/>
<text text-anchor="start" x="386" y="-271.3" font-family="Times,serif" font-size="14.00"> AssetGroup </text>
<polygon fill="none" stroke="#1e8449" stroke-width="2" points="381.5,-264 381.5,-287 482.5,-287 482.5,-264 381.5,-264"/>
</g>
<!-- WorkStation -->
<g id="node25" class="node">
<title>WorkStation</title>
<polygon fill="white" stroke="transparent" points="381,-165.5 381,-184.5 488,-184.5 488,-165.5 381,-165.5"/>
<text text-anchor="start" x="383" y="-171.3" font-family="Times,serif" font-size="14.00"> &#160;WorkStation </text>
<polygon fill="none" stroke="black" points="378.5,-164 378.5,-187 489.5,-187 489.5,-164 378.5,-164"/>
</g>
<!-- AssetGroup&#45;&gt;WorkStation -->
<g id="AssetGroup&#45;WorkStation" class="edge">
<title>AssetGroup&#45;&gt;WorkStation</title>
<path fill="none" stroke="#1e8449" stroke-dasharray="5,2" d="M432.24,-262.87C432.57,-246.78 433.16,-217.44 433.57,-197.46"/>
<polygon fill="#1e8449" stroke="#1e8449" points="437.08,-197.28 433.78,-187.21 430.08,-197.14 437.08,-197.28"/>
</g>
<!-- Person -->
<g id="node3" class="node">
<title>Person</title>
<polygon fill="white" stroke="transparent" points="728,-265.5 728,-284.5 790,-284.5 790,-265.5 728,-265.5"/>
<text text-anchor="start" x="730" y="-271.3" font-family="Times,serif" font-size="14.00"> Person </text>
<polygon fill="none" stroke="black" points="726,-264 726,-287 792,-287 792,-264 726,-264"/>
</g>
<!-- DTPerson -->
<g id="node11" class="node">
<title>DTPerson</title>
<polygon fill="white" stroke="transparent" points="799,-165.5 799,-184.5 886,-184.5 886,-165.5 799,-165.5"/>
<text text-anchor="start" x="801" y="-171.3" font-family="Times,serif" font-size="14.00"> &#160;DTPerson </text>
<polygon fill="none" stroke="black" points="796.5,-164 796.5,-187 887.5,-187 887.5,-164 796.5,-164"/>
</g>
<!-- Person&#45;&gt;DTPerson -->
<g id="Person&#45;DTPerson" class="edge">
<title>Person&#45;&gt;DTPerson</title>
<path fill="none" stroke="black" stroke-dasharray="5,2" d="M768.2,-263.64C782.23,-247.07 809.16,-215.27 826.32,-195.01"/>
<polygon fill="black" stroke="black" points="829.22,-197.01 833.01,-187.11 823.88,-192.48 829.22,-197.01"/>
</g>
<!-- TemporalEntity -->
<g id="node4" class="node">
<title>TemporalEntity</title>
<polygon fill="white" stroke="transparent" points="580,-614.5 580,-633.5 705,-633.5 705,-614.5 580,-614.5"/>
<text text-anchor="start" x="582" y="-620.3" font-family="Times,serif" font-size="14.00"> TemporalEntity </text>
<polygon fill="none" stroke="cornflowerblue" stroke-width="2" points="577.5,-613 577.5,-636 706.5,-636 706.5,-613 577.5,-613"/>
</g>
<!-- Observation -->
<g id="node12" class="node">
<title>Observation</title>
<polygon fill="white" stroke="transparent" points="532,-554.5 532,-573.5 686,-573.5 686,-554.5 532,-554.5"/>
<text text-anchor="start" x="558.5" y="-560.3" font-family="Times,serif" font-size="14.00"> &#160;Observation </text>
<text text-anchor="start" x="534" y="-540.3" font-family="Times,serif" font-size="14.00">observedBy: </text>
<text text-anchor="start" x="689" y="-540.3" font-family="Times,serif" font-size="14.00">[Sensor]</text>
<text text-anchor="start" x="534" y="-520.3" font-family="Times,serif" font-size="14.00">observationContext: </text>
<text text-anchor="start" x="692.5" y="-520.3" font-family="Times,serif" font-size="14.00">DTTask</text>
<polygon fill="none" stroke="black" points="530,-513 530,-576 754,-576 754,-513 530,-513"/>
</g>
<!-- TemporalEntity&#45;&gt;Observation -->
<g id="TemporalEntity&#45;Observation" class="edge">
<title>TemporalEntity&#45;&gt;Observation</title>
<path fill="none" stroke="cornflowerblue" stroke-dasharray="5,2" d="M642,-611.99C642,-605.08 642,-595.83 642,-586.43"/>
<polygon fill="cornflowerblue" stroke="cornflowerblue" points="645.5,-586.28 642,-576.28 638.5,-586.28 645.5,-586.28"/>
</g>
<!-- CyberPhysicalActor -->
<g id="node5" class="node">
<title>CyberPhysicalActor</title>
<polygon fill="white" stroke="transparent" points="183,-165.5 183,-184.5 337,-184.5 337,-165.5 183,-165.5"/>
<text text-anchor="start" x="185" y="-171.3" font-family="Times,serif" font-size="14.00"> CyberPhysicalActor </text>
<polygon fill="none" stroke="purple" stroke-width="2" points="181,-164 181,-187 339,-187 339,-164 181,-164"/>
</g>
<!-- ProductionOperation -->
<g id="node6" class="node">
<title>ProductionOperation</title>
<polygon fill="white" stroke="transparent" points="85,-614.5 85,-633.5 248,-633.5 248,-614.5 85,-614.5"/>
<text text-anchor="start" x="87" y="-620.3" font-family="Times,serif" font-size="14.00"> ProductionOperation </text>
<polygon fill="none" stroke="red" stroke-width="2" points="82.5,-613 82.5,-636 249.5,-636 249.5,-613 82.5,-613"/>
</g>
<!-- DTMission -->
<g id="node16" class="node">
<title>DTMission</title>
<polygon fill="white" stroke="transparent" points="85,-544.5 85,-563.5 179,-563.5 179,-544.5 85,-544.5"/>
<text text-anchor="start" x="87" y="-550.3" font-family="Times,serif" font-size="14.00"> &#160;DTMission </text>
<text text-anchor="start" x="87" y="-530.3" font-family="Times,serif" font-size="14.00">tasks: </text>
<text text-anchor="start" x="182" y="-530.3" font-family="Times,serif" font-size="14.00">[DTTask]</text>
<polygon fill="none" stroke="black" points="82.5,-523 82.5,-566 249.5,-566 249.5,-523 82.5,-523"/>
</g>
<!-- ProductionOperation&#45;&gt;DTMission -->
<g id="ProductionOperation&#45;DTMission" class="edge">
<title>ProductionOperation&#45;&gt;DTMission</title>
<path fill="none" stroke="red" stroke-dasharray="5,2" d="M166,-611.99C166,-602.59 166,-588.85 166,-576.3"/>
<polygon fill="red" stroke="red" points="169.5,-576.15 166,-566.15 162.5,-576.15 169.5,-576.15"/>
</g>
<!-- DTTask -->
<g id="node17" class="node">
<title>DTTask</title>
<polygon fill="white" stroke="transparent" points="111,-455.5 111,-474.5 221,-474.5 221,-455.5 111,-455.5"/>
<text text-anchor="start" x="132.5" y="-461.3" font-family="Times,serif" font-size="14.00"> &#160;DTTask </text>
<text text-anchor="start" x="113" y="-441.3" font-family="Times,serif" font-size="14.00">operation: </text>
<text text-anchor="start" x="224" y="-441.3" font-family="Times,serif" font-size="14.00">DTOperation</text>
<text text-anchor="start" x="113" y="-421.3" font-family="Times,serif" font-size="14.00">start: </text>
<text text-anchor="start" x="233.5" y="-421.3" font-family="Times,serif" font-size="14.00">xsd:string</text>
<text text-anchor="start" x="113" y="-401.3" font-family="Times,serif" font-size="14.00">completion: </text>
<text text-anchor="start" x="233.5" y="-401.3" font-family="Times,serif" font-size="14.00">xsd:string</text>
<text text-anchor="start" x="113" y="-381.3" font-family="Times,serif" font-size="14.00">operationInfo: </text>
<text text-anchor="start" x="233.5" y="-381.3" font-family="Times,serif" font-size="14.00">xsd:string</text>
<text text-anchor="start" x="113" y="-361.3" font-family="Times,serif" font-size="14.00">execute: </text>
<text text-anchor="start" x="227.5" y="-361.3" font-family="Times,serif" font-size="14.00">xsd:boolean</text>
<polygon fill="none" stroke="black" points="108.5,-354 108.5,-477 319.5,-477 319.5,-354 108.5,-354"/>
</g>
<!-- ProductionOperation&#45;&gt;DTTask -->
<g id="ProductionOperation&#45;DTTask" class="edge">
<title>ProductionOperation&#45;&gt;DTTask</title>
<path fill="none" stroke="red" stroke-dasharray="5,2" d="M210.62,-611.95C228.93,-604.78 248.3,-593.47 259,-576 275.54,-548.99 269.53,-515.71 257.31,-486.55"/>
<polygon fill="red" stroke="red" points="260.42,-484.94 253.14,-477.25 254.03,-487.8 260.42,-484.94"/>
</g>
<!-- DTOperation -->
<g id="node18" class="node">
<title>DTOperation</title>
<polygon fill="white" stroke="transparent" points="47,-295.5 47,-314.5 157,-314.5 157,-295.5 47,-295.5"/>
<text text-anchor="start" x="49" y="-301.3" font-family="Times,serif" font-size="14.00"> &#160;DTOperation </text>
<text text-anchor="start" x="49" y="-281.3" font-family="Times,serif" font-size="14.00">operation: </text>
<text text-anchor="start" x="194" y="-281.3" font-family="Times,serif" font-size="14.00">xsd:string</text>
<text text-anchor="start" x="49" y="-261.3" font-family="Times,serif" font-size="14.00">param: </text>
<text text-anchor="start" x="194" y="-261.3" font-family="Times,serif" font-size="14.00">xsd:string</text>
<text text-anchor="start" x="49" y="-241.3" font-family="Times,serif" font-size="14.00">actor: </text>
<text text-anchor="start" x="160" y="-241.3" font-family="Times,serif" font-size="14.00">CyberPhysicalActor</text>
<polygon fill="none" stroke="black" points="45,-234 45,-317 305,-317 305,-234 45,-234"/>
</g>
<!-- ProductionOperation&#45;&gt;DTOperation -->
<g id="ProductionOperation&#45;DTOperation" class="edge">
<title>ProductionOperation&#45;&gt;DTOperation</title>
<path fill="none" stroke="red" stroke-dasharray="5,2" d="M121.84,-611.83C103.73,-604.64 84.57,-593.35 74,-576 59.43,-552.09 71.73,-540.91 74,-513 79.8,-441.63 67.86,-417.98 100,-354 105.25,-343.54 112.41,-333.57 120.23,-324.47"/>
<polygon fill="red" stroke="red" points="122.83,-326.82 126.93,-317.05 117.63,-322.13 122.83,-326.82"/>
</g>
<!-- Polygon -->
<g id="node7" class="node">
<title>Polygon</title>
<polygon fill="white" stroke="transparent" points="504,-265.5 504,-284.5 574,-284.5 574,-265.5 504,-265.5"/>
<text text-anchor="start" x="506" y="-271.3" font-family="Times,serif" font-size="14.00"> Polygon </text>
<polygon fill="none" stroke="black" points="502,-264 502,-287 576,-287 576,-264 502,-264"/>
</g>
<!-- FieldOfView -->
<g id="node13" class="node">
<title>FieldOfView</title>
<polygon fill="white" stroke="transparent" points="600,-175.5 600,-194.5 705,-194.5 705,-175.5 600,-175.5"/>
<text text-anchor="start" x="602" y="-181.3" font-family="Times,serif" font-size="14.00"> &#160;FieldOfView </text>
<text text-anchor="start" x="602" y="-161.3" font-family="Times,serif" font-size="14.00">zones: </text>
<text text-anchor="start" x="708" y="-161.3" font-family="Times,serif" font-size="14.00">[DTZone]</text>
<polygon fill="none" stroke="black" points="597.5,-154 597.5,-197 778.5,-197 778.5,-154 597.5,-154"/>
</g>
<!-- Polygon&#45;&gt;FieldOfView -->
<g id="Polygon&#45;FieldOfView" class="edge">
<title>Polygon&#45;&gt;FieldOfView</title>
<path fill="none" stroke="black" stroke-dasharray="5,2" d="M555.23,-263.83C577.33,-249.29 617.63,-222.78 648.06,-202.77"/>
<polygon fill="black" stroke="black" points="650.32,-205.47 656.75,-197.05 646.47,-199.62 650.32,-205.47"/>
</g>
<!-- DTZone -->
<g id="node20" class="node">
<title>DTZone</title>
<polygon fill="white" stroke="transparent" points="472,-96.5 472,-115.5 546,-115.5 546,-96.5 472,-96.5"/>
<text text-anchor="start" x="474" y="-102.3" font-family="Times,serif" font-size="14.00"> &#160;DTZone </text>
<polygon fill="none" stroke="black" points="470,-95 470,-118 548,-118 548,-95 470,-95"/>
</g>
<!-- Polygon&#45;&gt;DTZone -->
<g id="Polygon&#45;DTZone" class="edge">
<title>Polygon&#45;&gt;DTZone</title>
<path fill="none" stroke="black" stroke-dasharray="5,2" d="M535.88,-263.55C531.73,-248.62 524.4,-220.98 520,-197 515.7,-173.54 512.62,-146.3 510.83,-128.09"/>
<polygon fill="black" stroke="black" points="514.31,-127.66 509.89,-118.03 507.34,-128.32 514.31,-127.66"/>
</g>
<!-- Polygon&#45;&gt;WorkStation -->
<g id="Polygon&#45;WorkStation" class="edge">
<title>Polygon&#45;&gt;WorkStation</title>
<path fill="none" stroke="black" stroke-dasharray="5,2" d="M527.36,-263.64C509.29,-246.77 474.32,-214.13 452.68,-193.94"/>
<polygon fill="black" stroke="black" points="455.07,-191.38 445.37,-187.11 450.29,-196.49 455.07,-191.38"/>
</g>
<!-- Cartesian -->
<g id="node8" class="node">
<title>Cartesian</title>
<polygon fill="white" stroke="transparent" points="396,-534.5 396,-553.5 479,-553.5 479,-534.5 396,-534.5"/>
<text text-anchor="start" x="398" y="-540.3" font-family="Times,serif" font-size="14.00"> Cartesian </text>
<polygon fill="none" stroke="cyan" stroke-width="2" points="393.5,-533 393.5,-556 480.5,-556 480.5,-533 393.5,-533"/>
</g>
<!-- UbiLocation -->
<g id="node15" class="node">
<title>UbiLocation</title>
<polygon fill="white" stroke="transparent" points="340,-435.5 340,-454.5 444,-454.5 444,-435.5 340,-435.5"/>
<text text-anchor="start" x="342" y="-441.3" font-family="Times,serif" font-size="14.00"> &#160;UbiLocation </text>
<text text-anchor="start" x="342" y="-421.3" font-family="Times,serif" font-size="14.00">variance: </text>
<text text-anchor="start" x="447" y="-421.3" font-family="Times,serif" font-size="14.00">xsd:decimal</text>
<text text-anchor="start" x="342" y="-401.3" font-family="Times,serif" font-size="14.00">threshold: </text>
<text text-anchor="start" x="447" y="-401.3" font-family="Times,serif" font-size="14.00">xsd:decimal</text>
<text text-anchor="start" x="342" y="-381.3" font-family="Times,serif" font-size="14.00">method: </text>
<text text-anchor="start" x="453" y="-381.3" font-family="Times,serif" font-size="14.00">xsd:string</text>
<polygon fill="none" stroke="black" points="338,-374 338,-457 536,-457 536,-374 338,-374"/>
</g>
<!-- Cartesian&#45;&gt;UbiLocation -->
<g id="Cartesian&#45;UbiLocation" class="edge">
<title>Cartesian&#45;&gt;UbiLocation</title>
<path fill="none" stroke="cyan" stroke-dasharray="5,2" d="M437,-531.78C437,-517.12 437,-491.08 437,-467.45"/>
<polygon fill="cyan" stroke="cyan" points="440.5,-467.16 437,-457.16 433.5,-467.16 440.5,-467.16"/>
</g>
<!-- Sensor -->
<g id="node9" class="node">
<title>Sensor</title>
<polygon fill="white" stroke="transparent" points="842,-405.5 842,-424.5 905,-424.5 905,-405.5 842,-405.5"/>
<text text-anchor="start" x="844" y="-411.3" font-family="Times,serif" font-size="14.00"> Sensor </text>
<polygon fill="none" stroke="black" points="839.5,-404 839.5,-427 906.5,-427 906.5,-404 839.5,-404"/>
</g>
<!-- RoomSensor -->
<g id="node10" class="node">
<title>RoomSensor</title>
<polygon fill="white" stroke="transparent" points="838,-295.5 838,-314.5 946,-314.5 946,-295.5 838,-295.5"/>
<text text-anchor="start" x="840" y="-301.3" font-family="Times,serif" font-size="14.00"> &#160;RoomSensor </text>
<text text-anchor="start" x="840" y="-281.3" font-family="Times,serif" font-size="14.00">fieldOfView: </text>
<text text-anchor="start" x="949" y="-281.3" font-family="Times,serif" font-size="14.00">FieldOfView</text>
<text text-anchor="start" x="840" y="-261.3" font-family="Times,serif" font-size="14.00">threshold: </text>
<text text-anchor="start" x="950.5" y="-261.3" font-family="Times,serif" font-size="14.00">xsd:decimal</text>
<text text-anchor="start" x="840" y="-241.3" font-family="Times,serif" font-size="14.00">enabled: </text>
<text text-anchor="start" x="950.5" y="-241.3" font-family="Times,serif" font-size="14.00">xsd:boolean</text>
<polygon fill="none" stroke="green" stroke-width="2" points="835.5,-234 835.5,-317 1040.5,-317 1040.5,-234 835.5,-234"/>
</g>
<!-- Sensor&#45;&gt;RoomSensor -->
<g id="Sensor&#45;RoomSensor" class="edge">
<title>Sensor&#45;&gt;RoomSensor</title>
<path fill="none" stroke="black" stroke-dasharray="5,2" d="M878.1,-403.67C885.82,-387.29 900.95,-355.15 914.08,-327.29"/>
<polygon fill="black" stroke="black" points="917.35,-328.57 918.44,-318.03 911.01,-325.58 917.35,-328.57"/>
</g>
<!-- RoomSensor&#45;&gt;FieldOfView -->
<g id="RoomSensor&#45;fieldOfView&#45;FieldOfView" class="edge">
<title>RoomSensor:fieldOfView&#45;&gt;FieldOfView</title>
<path fill="none" stroke="green" d="M1040,-285.5C1063.34,-285.5 1054.45,-250.49 1039,-233 1003.51,-192.84 858.67,-205.25 788.84,-196.81"/>
<polygon fill="green" stroke="green" points="789.11,-193.32 778.71,-195.34 788.1,-200.24 789.11,-193.32"/>
</g>
<!-- Ubisense -->
<g id="node22" class="node">
<title>Ubisense</title>
<polygon fill="white" stroke="transparent" points="908,-165.5 908,-184.5 992,-184.5 992,-165.5 908,-165.5"/>
<text text-anchor="start" x="910" y="-171.3" font-family="Times,serif" font-size="14.00"> &#160;Ubisense </text>
<polygon fill="none" stroke="black" points="906,-164 906,-187 994,-187 994,-164 906,-164"/>
</g>
<!-- RoomSensor&#45;&gt;Ubisense -->
<g id="RoomSensor&#45;Ubisense" class="edge">
<title>RoomSensor&#45;&gt;Ubisense</title>
<path fill="none" stroke="green" stroke-dasharray="5,2" d="M943.09,-232.94C944.59,-220.68 946.17,-207.78 947.44,-197.42"/>
<polygon fill="green" stroke="green" points="950.93,-197.67 948.68,-187.32 943.99,-196.82 950.93,-197.67"/>
</g>
<!-- Xovis -->
<g id="node23" class="node">
<title>Xovis</title>
<polygon fill="white" stroke="transparent" points="1014,-165.5 1014,-184.5 1070,-184.5 1070,-165.5 1014,-165.5"/>
<text text-anchor="start" x="1016" y="-171.3" font-family="Times,serif" font-size="14.00"> &#160;Xovis </text>
<polygon fill="none" stroke="black" points="1012,-164 1012,-187 1072,-187 1072,-164 1012,-164"/>
</g>
<!-- RoomSensor&#45;&gt;Xovis -->
<g id="RoomSensor&#45;Xovis" class="edge">
<title>RoomSensor&#45;&gt;Xovis</title>
<path fill="none" stroke="green" stroke-dasharray="5,2" d="M982.11,-232.94C996.5,-219.38 1011.72,-205.03 1023.22,-194.2"/>
<polygon fill="green" stroke="green" points="1025.65,-196.72 1030.52,-187.32 1020.84,-191.63 1025.65,-196.72"/>
</g>
<!-- Observation&#45;&gt;Sensor -->
<g id="Observation&#45;observedBy&#45;Sensor" class="edge">
<title>Observation:observedBy&#45;&gt;Sensor</title>
<path fill="none" stroke="black" d="M753,-543.5C810.98,-543.5 849.27,-472.71 864.96,-436.83"/>
<polygon fill="black" stroke="black" points="868.3,-437.9 868.94,-427.33 861.85,-435.2 868.3,-437.9"/>
</g>
<!-- SensedOccupancy -->
<g id="node14" class="node">
<title>SensedOccupancy</title>
<polygon fill="white" stroke="transparent" points="556,-455.5 556,-474.5 703,-474.5 703,-455.5 556,-455.5"/>
<text text-anchor="start" x="558" y="-461.3" font-family="Times,serif" font-size="14.00"> &#160;SensedOccupancy </text>
<text text-anchor="start" x="558" y="-441.3" font-family="Times,serif" font-size="14.00">persons: </text>
<text text-anchor="start" x="717" y="-441.3" font-family="Times,serif" font-size="14.00">[Person]</text>
<text text-anchor="start" x="558" y="-421.3" font-family="Times,serif" font-size="14.00">agvs: </text>
<text text-anchor="start" x="726" y="-421.3" font-family="Times,serif" font-size="14.00">[AGV]</text>
<text text-anchor="start" x="558" y="-401.3" font-family="Times,serif" font-size="14.00">zone: </text>
<text text-anchor="start" x="719" y="-401.3" font-family="Times,serif" font-size="14.00">DTZone</text>
<text text-anchor="start" x="558" y="-381.3" font-family="Times,serif" font-size="14.00">zoneIndex: </text>
<text text-anchor="start" x="706" y="-381.3" font-family="Times,serif" font-size="14.00">xsd:integer</text>
<text text-anchor="start" x="558" y="-361.3" font-family="Times,serif" font-size="14.00">personCount: </text>
<text text-anchor="start" x="706" y="-361.3" font-family="Times,serif" font-size="14.00">xsd:integer</text>
<polygon fill="none" stroke="black" points="554,-354 554,-477 792,-477 792,-354 554,-354"/>
</g>
<!-- Observation&#45;&gt;SensedOccupancy -->
<g id="Observation&#45;SensedOccupancy" class="edge">
<title>Observation&#45;&gt;SensedOccupancy</title>
<path fill="none" stroke="black" stroke-dasharray="5,2" d="M649.5,-512.76C651.44,-504.83 653.6,-495.97 655.81,-486.92"/>
<polygon fill="black" stroke="black" points="659.25,-487.6 658.22,-477.06 652.45,-485.94 659.25,-487.6"/>
</g>
<!-- Observation&#45;&gt;UbiLocation -->
<g id="Observation&#45;UbiLocation" class="edge">
<title>Observation&#45;&gt;UbiLocation</title>
<path fill="none" stroke="black" stroke-dasharray="5,2" d="M592.64,-512.92C568.26,-497.82 538.35,-479.29 511.28,-462.52"/>
<polygon fill="black" stroke="black" points="512.95,-459.43 502.6,-457.14 509.26,-465.38 512.95,-459.43"/>
</g>
<!-- Observation&#45;&gt;DTTask -->
<g id="Observation&#45;observationContext&#45;DTTask" class="edge">
<title>Observation:observationContext&#45;&gt;DTTask</title>
<path fill="none" stroke="black" d="M720,-513.5C720,-472.08 405.39,-487.6 329.59,-476.05"/>
<polygon fill="black" stroke="black" points="330.07,-472.58 319.56,-473.95 328.63,-479.43 330.07,-472.58"/>
</g>
<!-- FieldOfView&#45;&gt;DTZone -->
<g id="FieldOfView&#45;zones&#45;DTZone" class="edge">
<title>FieldOfView:zones&#45;&gt;DTZone</title>
<path fill="none" stroke="black" d="M742,-154.5C742,-117.36 626.8,-109.21 558.4,-107.65"/>
<polygon fill="black" stroke="black" points="558.33,-104.15 548.26,-107.46 558.19,-111.14 558.33,-104.15"/>
</g>
<!-- SensedOccupancy&#45;&gt;AGV -->
<g id="SensedOccupancy&#45;agvs&#45;AGV" class="edge">
<title>SensedOccupancy:agvs&#45;&gt;AGV</title>
<path fill="none" stroke="black" d="M791,-425.5C822.78,-425.5 806.97,-380.87 790,-354 770.68,-323.41 748.18,-336.34 717,-318 704.25,-310.5 690.65,-301.21 679.62,-293.32"/>
<polygon fill="black" stroke="black" points="681.55,-290.39 671.4,-287.35 677.44,-296.06 681.55,-290.39"/>
</g>
<!-- SensedOccupancy&#45;&gt;Person -->
<g id="SensedOccupancy&#45;persons&#45;Person" class="edge">
<title>SensedOccupancy:persons&#45;&gt;Person</title>
<path fill="none" stroke="black" d="M791,-445.5C851.37,-445.5 796.43,-340.1 770.66,-295.78"/>
<polygon fill="black" stroke="black" points="773.61,-293.9 765.51,-287.07 767.59,-297.46 773.61,-293.9"/>
</g>
<!-- SensedOccupancy&#45;&gt;DTZone -->
<g id="SensedOccupancy&#45;zone&#45;DTZone" class="edge">
<title>SensedOccupancy:zone&#45;&gt;DTZone</title>
<path fill="none" stroke="black" d="M791,-404.5C813.45,-404.5 805.34,-370.39 790,-354 726.29,-285.93 435.6,-386.17 372,-318 347.14,-291.35 348.7,-183.58 370,-154 390.24,-125.89 428.25,-114.53 459.41,-110.05"/>
<polygon fill="black" stroke="black" points="460.19,-113.48 469.68,-108.78 459.33,-106.53 460.19,-113.48"/>
</g>
<!-- DTMission&#45;&gt;DTTask -->
<g id="DTMission&#45;tasks&#45;DTTask" class="edge">
<title>DTMission:tasks&#45;&gt;DTTask</title>
<path fill="none" stroke="black" d="M214,-523.5C214,-511.74 214,-499.26 214,-487.13"/>
<polygon fill="black" stroke="black" points="217.5,-487.05 214,-477.05 210.5,-487.05 217.5,-487.05"/>
</g>
<!-- DTTask&#45;&gt;DTOperation -->
<g id="DTTask&#45;operation&#45;DTOperation" class="edge">
<title>DTTask:operation&#45;&gt;DTOperation</title>
<path fill="none" stroke="black" d="M319,-445.5C329.17,-445.5 323.25,-362.71 318,-354 310.84,-342.13 301.17,-331.96 290.22,-323.28"/>
<polygon fill="black" stroke="black" points="292.15,-320.36 282.03,-317.22 287.99,-325.98 292.15,-320.36"/>
</g>
<!-- DTOperation&#45;&gt;CyberPhysicalActor -->
<g id="DTOperation&#45;actor&#45;CyberPhysicalActor" class="edge">
<title>DTOperation:actor&#45;&gt;CyberPhysicalActor</title>
<path fill="none" stroke="black" d="M231,-234.5C231,-220.92 237.44,-207.25 244.25,-196.6"/>
<polygon fill="black" stroke="black" points="247.34,-198.3 250.18,-188.1 241.59,-194.3 247.34,-198.3"/>
</g>
<!-- HumanOperation -->
<g id="node19" class="node">
<title>HumanOperation</title>
<polygon fill="white" stroke="transparent" points="19,-165.5 19,-184.5 160,-184.5 160,-165.5 19,-165.5"/>
<text text-anchor="start" x="21" y="-171.3" font-family="Times,serif" font-size="14.00"> &#160;HumanOperation </text>
<polygon fill="none" stroke="black" points="16.5,-164 16.5,-187 161.5,-187 161.5,-164 16.5,-164"/>
</g>
<!-- DTOperation&#45;&gt;HumanOperation -->
<g id="DTOperation&#45;HumanOperation" class="edge">
<title>DTOperation&#45;&gt;HumanOperation</title>
<path fill="none" stroke="black" stroke-dasharray="5,2" d="M139.28,-233.79C127.36,-220.21 114.68,-205.76 105.03,-194.77"/>
<polygon fill="black" stroke="black" points="107.54,-192.32 98.31,-187.11 102.27,-196.93 107.54,-192.32"/>
</g>
<!-- DTLab -->
<g id="node21" class="node">
<title>DTLab</title>
<polygon fill="white" stroke="transparent" points="424,-37.5 424,-56.5 489,-56.5 489,-37.5 424,-37.5"/>
<text text-anchor="start" x="426" y="-43.3" font-family="Times,serif" font-size="14.00"> &#160;DTLab </text>
<text text-anchor="start" x="426" y="-23.3" font-family="Times,serif" font-size="14.00">zones: </text>
<text text-anchor="start" x="492" y="-23.3" font-family="Times,serif" font-size="14.00">[DTZone]</text>
<polygon fill="none" stroke="black" points="421.5,-16 421.5,-59 562.5,-59 562.5,-16 421.5,-16"/>
</g>
<!-- DTZone&#45;&gt;DTLab -->
<g id="DTZone&#45;DTLab" class="edge">
<title>DTZone&#45;&gt;DTLab</title>
<path fill="none" stroke="black" stroke-dasharray="5,2" d="M506.27,-94.74C504.49,-87.73 502.07,-78.2 499.74,-68.99"/>
<polygon fill="black" stroke="black" points="503.11,-68.07 497.26,-59.24 496.33,-69.8 503.11,-68.07"/>
</g>
<!-- DTLab&#45;&gt;DTZone -->
<g id="DTLab&#45;zones&#45;DTZone" class="edge">
<title>DTLab:zones&#45;&gt;DTZone</title>
<path fill="none" stroke="black" d="M526,-16.5C526,-0.27 551.18,-5.87 562.5,-17.5 575.36,-30.72 570.15,-42.22 562.5,-59 556.96,-71.16 546.49,-81.37 536.27,-89.1"/>
<polygon fill="black" stroke="black" points="534.04,-86.39 527.86,-94.99 538.06,-92.12 534.04,-86.39"/>
</g>
</g>
</svg>
