<?xml version="1.0" encoding="UTF-8" standalone="no"?>
<!DOCTYPE svg PUBLIC "-//W3C//DTD SVG 1.1//EN"
 "http://www.w3.org/Graphics/SVG/1.1/DTD/svg11.dtd">
<!-- Generated by graphviz version 2.43.0 (0)
 -->
<!-- Title: %3 Pages: 1 -->
<svg width="1595pt" height="616pt"
 viewBox="0.00 0.00 1595.06 616.00" xmlns="http://www.w3.org/2000/svg" xmlns:xlink="http://www.w3.org/1999/xlink">
<g id="graph0" class="graph" transform="scale(1 1) rotate(0) translate(4 612)">
<title>%3</title>
<polygon fill="white" stroke="transparent" points="-4,4 -4,-612 1591.06,-612 1591.06,4 -4,4"/>
<g id="clust1" class="cluster">
<title>cluster0</title>
<polygon fill="none" stroke="black" points="30.06,-8 30.06,-600 1579.06,-600 1579.06,-8 30.06,-8"/>
<text text-anchor="middle" x="119.56" y="-584.8" font-family="Times,serif" font-size="14.00">Schema: digitech&#45;v022</text>
</g>
<g id="clust2" class="cluster">
<title>cluster1</title>
<polygon fill="none" stroke="black" points="965.06,-505 965.06,-569 1151.06,-569 1151.06,-505 965.06,-505"/>
<text text-anchor="middle" x="1022.56" y="-553.8" font-family="Times,serif" font-size="14.00">Cluster: plant</text>
</g>
<g id="clust3" class="cluster">
<title>cluster2</title>
<polygon fill="none" stroke="black" points="1161.06,-124 1161.06,-188 1571.06,-188 1571.06,-124 1161.06,-124"/>
<text text-anchor="middle" x="1215.56" y="-172.8" font-family="Times,serif" font-size="14.00">Cluster: core</text>
</g>
<g id="clust4" class="cluster">
<title>cluster3</title>
<polygon fill="none" stroke="black" points="38.06,-505 38.06,-569 222.06,-569 222.06,-505 38.06,-505"/>
<text text-anchor="middle" x="84.06" y="-553.8" font-family="Times,serif" font-size="14.00">Cluster: i4</text>
</g>
<g id="clust5" class="cluster">
<title>cluster4</title>
<polygon fill="none" stroke="black" points="230.06,-505 230.06,-569 427.06,-569 427.06,-505 230.06,-505"/>
<text text-anchor="middle" x="280.56" y="-553.8" font-family="Times,serif" font-size="14.00">Cluster: ros</text>
</g>
<g id="clust10" class="cluster">
<title>cluster9</title>
<polygon fill="none" stroke="black" points="593.06,-506 593.06,-568 701.06,-568 701.06,-506 593.06,-506"/>
<text text-anchor="middle" x="647.06" y="-552.8" font-family="Times,serif" font-size="14.00">Cluster: urdf</text>
</g>
<g id="clust11" class="cluster">
<title>cluster10</title>
<polygon fill="none" stroke="black" points="70.06,-16 70.06,-497 1153.06,-497 1153.06,-16 70.06,-16"/>
<text text-anchor="middle" x="138.06" y="-481.8" font-family="Times,serif" font-size="14.00">Cluster: digitech</text>
</g>
<!-- AGV -->
<g id="node1" class="node">
<title>AGV</title>
<polygon fill="white" stroke="transparent" points="1097.06,-515.5 1097.06,-534.5 1141.06,-534.5 1141.06,-515.5 1097.06,-515.5"/>
<text text-anchor="start" x="1099.06" y="-521.3" font-family="Times,serif" font-size="14.00"> AGV </text>
<polygon fill="none" stroke="black" points="1095.06,-514 1095.06,-537 1143.06,-537 1143.06,-514 1095.06,-514"/>
</g>
<!-- MiR -->
<g id="node24" class="node">
<title>MiR</title>
<polygon fill="white" stroke="transparent" points="1096.06,-413.5 1096.06,-432.5 1143.06,-432.5 1143.06,-413.5 1096.06,-413.5"/>
<text text-anchor="start" x="1098.06" y="-419.3" font-family="Times,serif" font-size="14.00"> &#160;MiR </text>
<polygon fill="none" stroke="black" points="1093.56,-412 1093.56,-435 1144.56,-435 1144.56,-412 1093.56,-412"/>
</g>
<!-- AGV&#45;&gt;MiR -->
<g id="AGV&#45;MiR" class="edge">
<title>AGV&#45;&gt;MiR</title>
<path fill="none" stroke="black" stroke-dasharray="5,2" d="M1119.06,-513.8C1119.06,-497.48 1119.06,-466.09 1119.06,-445.21"/>
<polygon fill="black" stroke="black" points="1122.56,-445.12 1119.06,-435.12 1115.56,-445.12 1122.56,-445.12"/>
</g>
<!-- AssetGroup -->
<g id="node2" class="node">
<title>AssetGroup</title>
<polygon fill="white" stroke="transparent" points="977.06,-515.5 977.06,-534.5 1074.06,-534.5 1074.06,-515.5 977.06,-515.5"/>
<text text-anchor="start" x="979.06" y="-521.3" font-family="Times,serif" font-size="14.00"> AssetGroup </text>
<polygon fill="none" stroke="#1e8449" stroke-width="2" points="974.56,-514 974.56,-537 1075.56,-537 1075.56,-514 974.56,-514"/>
</g>
<!-- WorkStation -->
<g id="node25" class="node">
<title>WorkStation</title>
<polygon fill="white" stroke="transparent" points="858.06,-413.5 858.06,-432.5 965.06,-432.5 965.06,-413.5 858.06,-413.5"/>
<text text-anchor="start" x="860.06" y="-419.3" font-family="Times,serif" font-size="14.00"> &#160;WorkStation </text>
<polygon fill="none" stroke="black" points="855.56,-412 855.56,-435 966.56,-435 966.56,-412 855.56,-412"/>
</g>
<!-- AssetGroup&#45;&gt;WorkStation -->
<g id="AssetGroup&#45;WorkStation" class="edge">
<title>AssetGroup&#45;&gt;WorkStation</title>
<path fill="none" stroke="#1e8449" stroke-dasharray="5,2" d="M1000.62,-512.84C992.44,-508.41 983.52,-502.98 976.06,-497 956.32,-481.18 937.45,-459.08 925.17,-443.45"/>
<polygon fill="#1e8449" stroke="#1e8449" points="927.62,-440.89 918.75,-435.1 922.07,-445.16 927.62,-440.89"/>
</g>
<!-- Person -->
<g id="node3" class="node">
<title>Person</title>
<polygon fill="white" stroke="transparent" points="1349.06,-134.5 1349.06,-153.5 1411.06,-153.5 1411.06,-134.5 1349.06,-134.5"/>
<text text-anchor="start" x="1351.06" y="-140.3" font-family="Times,serif" font-size="14.00"> Person </text>
<polygon fill="none" stroke="black" points="1347.06,-133 1347.06,-156 1413.06,-156 1413.06,-133 1347.06,-133"/>
</g>
<!-- DTPerson -->
<g id="node11" class="node">
<title>DTPerson</title>
<polygon fill="white" stroke="transparent" points="987.06,-413.5 987.06,-432.5 1074.06,-432.5 1074.06,-413.5 987.06,-413.5"/>
<text text-anchor="start" x="989.06" y="-419.3" font-family="Times,serif" font-size="14.00"> &#160;DTPerson </text>
<polygon fill="none" stroke="black" points="984.56,-412 984.56,-435 1075.56,-435 1075.56,-412 984.56,-412"/>
</g>
<!-- Person&#45;&gt;DTPerson -->
<g id="Person&#45;DTPerson" class="edge">
<title>Person&#45;&gt;DTPerson</title>
<path fill="none" stroke="black" stroke-dasharray="5,2" d="M1369.94,-156.23C1361.58,-164.98 1349.3,-177.55 1338.06,-188 1259.31,-261.19 1243.16,-284.87 1154.06,-345 1125.38,-364.35 1114.29,-362.52 1085.06,-381 1073.21,-388.49 1060.68,-397.82 1050.58,-405.73"/>
<polygon fill="black" stroke="black" points="1048.38,-403.01 1042.73,-411.98 1052.74,-408.49 1048.38,-403.01"/>
</g>
<!-- TemporalEntity -->
<g id="node4" class="node">
<title>TemporalEntity</title>
<polygon fill="white" stroke="transparent" points="1435.06,-134.5 1435.06,-153.5 1560.06,-153.5 1560.06,-134.5 1435.06,-134.5"/>
<text text-anchor="start" x="1437.06" y="-140.3" font-family="Times,serif" font-size="14.00"> TemporalEntity </text>
<polygon fill="none" stroke="cornflowerblue" stroke-width="2" points="1432.56,-133 1432.56,-156 1561.56,-156 1561.56,-133 1432.56,-133"/>
</g>
<!-- Observation -->
<g id="node12" class="node">
<title>Observation</title>
<polygon fill="white" stroke="transparent" points="615.06,-433.5 615.06,-452.5 769.06,-452.5 769.06,-433.5 615.06,-433.5"/>
<text text-anchor="start" x="641.56" y="-439.3" font-family="Times,serif" font-size="14.00"> &#160;Observation </text>
<text text-anchor="start" x="617.06" y="-419.3" font-family="Times,serif" font-size="14.00">observedBy: </text>
<text text-anchor="start" x="772.06" y="-419.3" font-family="Times,serif" font-size="14.00">[Sensor]</text>
<text text-anchor="start" x="617.06" y="-399.3" font-family="Times,serif" font-size="14.00">observationContext: </text>
<text text-anchor="start" x="775.56" y="-399.3" font-family="Times,serif" font-size="14.00">DTTask</text>
<polygon fill="none" stroke="black" points="613.06,-392 613.06,-455 837.06,-455 837.06,-392 613.06,-392"/>
</g>
<!-- TemporalEntity&#45;&gt;Observation -->
<g id="TemporalEntity&#45;Observation" class="edge">
<title>TemporalEntity&#45;&gt;Observation</title>
<path fill="none" stroke="cornflowerblue" stroke-dasharray="5,2" d="M1482.42,-157.06C1436.91,-192.31 1292.6,-298.81 1154.06,-345 1023.73,-388.45 981.05,-350.71 847.06,-381 837.13,-383.24 826.89,-386 816.75,-389.01"/>
<polygon fill="cornflowerblue" stroke="cornflowerblue" points="815.61,-385.7 807.07,-391.98 817.65,-392.4 815.61,-385.7"/>
</g>
<!-- CyberPhysicalActor -->
<g id="node5" class="node">
<title>CyberPhysicalActor</title>
<polygon fill="white" stroke="transparent" points="1172.06,-134.5 1172.06,-153.5 1326.06,-153.5 1326.06,-134.5 1172.06,-134.5"/>
<text text-anchor="start" x="1174.06" y="-140.3" font-family="Times,serif" font-size="14.00"> CyberPhysicalActor </text>
<polygon fill="none" stroke="purple" stroke-width="2" points="1170.06,-133 1170.06,-156 1328.06,-156 1328.06,-133 1170.06,-133"/>
</g>
<!-- ProductionOperation -->
<g id="node6" class="node">
<title>ProductionOperation</title>
<polygon fill="white" stroke="transparent" points="49.06,-515.5 49.06,-534.5 212.06,-534.5 212.06,-515.5 49.06,-515.5"/>
<text text-anchor="start" x="51.06" y="-521.3" font-family="Times,serif" font-size="14.00"> ProductionOperation </text>
<polygon fill="none" stroke="red" stroke-width="2" points="46.56,-514 46.56,-537 213.56,-537 213.56,-514 46.56,-514"/>
</g>
<!-- DTMission -->
<g id="node16" class="node">
<title>DTMission</title>
<polygon fill="white" stroke="transparent" points="205.06,-423.5 205.06,-442.5 299.06,-442.5 299.06,-423.5 205.06,-423.5"/>
<text text-anchor="start" x="207.06" y="-429.3" font-family="Times,serif" font-size="14.00"> &#160;DTMission </text>
<text text-anchor="start" x="207.06" y="-409.3" font-family="Times,serif" font-size="14.00">tasks: </text>
<text text-anchor="start" x="302.06" y="-409.3" font-family="Times,serif" font-size="14.00">[DTTask]</text>
<polygon fill="none" stroke="black" points="202.56,-402 202.56,-445 369.56,-445 369.56,-402 202.56,-402"/>
</g>
<!-- ProductionOperation&#45;&gt;DTMission -->
<g id="ProductionOperation&#45;DTMission" class="edge">
<title>ProductionOperation&#45;&gt;DTMission</title>
<path fill="none" stroke="red" stroke-dasharray="5,2" d="M148.26,-512.83C171.91,-497.67 213.91,-470.75 245.34,-450.6"/>
<polygon fill="red" stroke="red" points="247.37,-453.45 253.9,-445.11 243.59,-447.56 247.37,-453.45"/>
</g>
<!-- DTTask -->
<g id="node17" class="node">
<title>DTTask</title>
<polygon fill="white" stroke="transparent" points="280.06,-323.5 280.06,-342.5 390.06,-342.5 390.06,-323.5 280.06,-323.5"/>
<text text-anchor="start" x="301.56" y="-329.3" font-family="Times,serif" font-size="14.00"> &#160;DTTask </text>
<text text-anchor="start" x="282.06" y="-309.3" font-family="Times,serif" font-size="14.00">operation: </text>
<text text-anchor="start" x="393.06" y="-309.3" font-family="Times,serif" font-size="14.00">DTOperation</text>
<text text-anchor="start" x="282.06" y="-289.3" font-family="Times,serif" font-size="14.00">start: </text>
<text text-anchor="start" x="402.56" y="-289.3" font-family="Times,serif" font-size="14.00">xsd:string</text>
<text text-anchor="start" x="282.06" y="-269.3" font-family="Times,serif" font-size="14.00">completion: </text>
<text text-anchor="start" x="402.56" y="-269.3" font-family="Times,serif" font-size="14.00">xsd:string</text>
<text text-anchor="start" x="282.06" y="-249.3" font-family="Times,serif" font-size="14.00">operationInfo: </text>
<text text-anchor="start" x="402.56" y="-249.3" font-family="Times,serif" font-size="14.00">xsd:string</text>
<text text-anchor="start" x="282.06" y="-229.3" font-family="Times,serif" font-size="14.00">execute: </text>
<text text-anchor="start" x="396.56" y="-229.3" font-family="Times,serif" font-size="14.00">xsd:boolean</text>
<polygon fill="none" stroke="black" points="277.56,-222 277.56,-345 488.56,-345 488.56,-222 277.56,-222"/>
</g>
<!-- ProductionOperation&#45;&gt;DTTask -->
<g id="ProductionOperation&#45;DTTask" class="edge">
<title>ProductionOperation&#45;&gt;DTTask</title>
<path fill="none" stroke="red" stroke-dasharray="5,2" d="M130.82,-512.79C133.19,-485.95 142.61,-419.37 179.06,-381 206.7,-351.9 227.03,-361.51 268,-345.14"/>
<polygon fill="red" stroke="red" points="269.57,-348.27 277.36,-341.09 266.79,-341.84 269.57,-348.27"/>
</g>
<!-- DTOperation -->
<g id="node18" class="node">
<title>DTOperation</title>
<polygon fill="white" stroke="transparent" points="195.06,-164.5 195.06,-183.5 305.06,-183.5 305.06,-164.5 195.06,-164.5"/>
<text text-anchor="start" x="197.06" y="-170.3" font-family="Times,serif" font-size="14.00"> &#160;DTOperation </text>
<text text-anchor="start" x="197.06" y="-150.3" font-family="Times,serif" font-size="14.00">operation: </text>
<text text-anchor="start" x="342.06" y="-150.3" font-family="Times,serif" font-size="14.00">xsd:string</text>
<text text-anchor="start" x="197.06" y="-130.3" font-family="Times,serif" font-size="14.00">param: </text>
<text text-anchor="start" x="342.06" y="-130.3" font-family="Times,serif" font-size="14.00">xsd:string</text>
<text text-anchor="start" x="197.06" y="-110.3" font-family="Times,serif" font-size="14.00">actor: </text>
<text text-anchor="start" x="308.06" y="-110.3" font-family="Times,serif" font-size="14.00">CyberPhysicalActor</text>
<polygon fill="none" stroke="black" points="193.06,-103 193.06,-186 453.06,-186 453.06,-103 193.06,-103"/>
</g>
<!-- ProductionOperation&#45;&gt;DTOperation -->
<g id="ProductionOperation&#45;DTOperation" class="edge">
<title>ProductionOperation&#45;&gt;DTOperation</title>
<path fill="none" stroke="red" stroke-dasharray="5,2" d="M73.13,-512.94C65.63,-509.06 58.89,-503.89 54.06,-497 -16.14,-396.95 -19.61,-319.53 54.06,-222 70.86,-199.75 126.73,-182.07 183.24,-169.33"/>
<polygon fill="red" stroke="red" points="184.03,-172.74 193.04,-167.17 182.52,-165.9 184.03,-172.74"/>
</g>
<!-- Polygon -->
<g id="node7" class="node">
<title>Polygon</title>
<polygon fill="white" stroke="transparent" points="240.06,-515.5 240.06,-534.5 310.06,-534.5 310.06,-515.5 240.06,-515.5"/>
<text text-anchor="start" x="242.06" y="-521.3" font-family="Times,serif" font-size="14.00"> Polygon </text>
<polygon fill="none" stroke="black" points="238.06,-514 238.06,-537 312.06,-537 312.06,-514 238.06,-514"/>
</g>
<!-- FieldOfView -->
<g id="node13" class="node">
<title>FieldOfView</title>
<polygon fill="white" stroke="transparent" points="81.06,-283.5 81.06,-302.5 186.06,-302.5 186.06,-283.5 81.06,-283.5"/>
<text text-anchor="start" x="83.06" y="-289.3" font-family="Times,serif" font-size="14.00"> &#160;FieldOfView </text>
<text text-anchor="start" x="83.06" y="-269.3" font-family="Times,serif" font-size="14.00">zones: </text>
<text text-anchor="start" x="189.06" y="-269.3" font-family="Times,serif" font-size="14.00">[DTZone]</text>
<polygon fill="none" stroke="black" points="78.56,-262 78.56,-305 259.56,-305 259.56,-262 78.56,-262"/>
</g>
<!-- Polygon&#45;&gt;FieldOfView -->
<g id="Polygon&#45;FieldOfView" class="edge">
<title>Polygon&#45;&gt;FieldOfView</title>
<path fill="none" stroke="black" stroke-dasharray="5,2" d="M251.48,-513.95C243.52,-510.71 234.52,-507.38 226.06,-505 215.86,-502.14 186.08,-504.93 179.06,-497 134.54,-446.72 148.22,-360.65 159.88,-315.01"/>
<polygon fill="black" stroke="black" points="163.32,-315.68 162.54,-305.12 156.56,-313.86 163.32,-315.68"/>
</g>
<!-- DTZone -->
<g id="node20" class="node">
<title>DTZone</title>
<polygon fill="white" stroke="transparent" points="473.06,-134.5 473.06,-153.5 547.06,-153.5 547.06,-134.5 473.06,-134.5"/>
<text text-anchor="start" x="475.06" y="-140.3" font-family="Times,serif" font-size="14.00"> &#160;DTZone </text>
<polygon fill="none" stroke="black" points="471.06,-133 471.06,-156 549.06,-156 549.06,-133 471.06,-133"/>
</g>
<!-- Polygon&#45;&gt;DTZone -->
<g id="Polygon&#45;DTZone" class="edge">
<title>Polygon&#45;&gt;DTZone</title>
<path fill="none" stroke="black" stroke-dasharray="5,2" d="M252.06,-513.8C244,-510.47 234.78,-507.12 226.06,-505 208.26,-500.68 159.12,-507.41 144.06,-497 91.95,-460.98 26.24,-268.68 69.06,-222 128.31,-157.4 381.5,-222.58 462.06,-188 474.55,-182.63 486.06,-172.71 494.67,-163.8"/>
<polygon fill="black" stroke="black" points="497.29,-166.11 501.44,-156.37 492.12,-161.4 497.29,-166.11"/>
</g>
<!-- Polygon&#45;&gt;WorkStation -->
<g id="Polygon&#45;WorkStation" class="edge">
<title>Polygon&#45;&gt;WorkStation</title>
<path fill="none" stroke="black" stroke-dasharray="5,2" d="M296.04,-513.8C303.98,-510.29 313.23,-506.83 322.06,-505 350.56,-499.09 819.56,-509.07 846.06,-497 870.07,-486.06 888.96,-461.51 900.05,-444.01"/>
<polygon fill="black" stroke="black" points="903.23,-445.52 905.4,-435.14 897.24,-441.9 903.23,-445.52"/>
</g>
<!-- Cartesian -->
<g id="node8" class="node">
<title>Cartesian</title>
<polygon fill="white" stroke="transparent" points="334.06,-515.5 334.06,-534.5 417.06,-534.5 417.06,-515.5 334.06,-515.5"/>
<text text-anchor="start" x="336.06" y="-521.3" font-family="Times,serif" font-size="14.00"> Cartesian </text>
<polygon fill="none" stroke="cyan" stroke-width="2" points="331.56,-514 331.56,-537 418.56,-537 418.56,-514 331.56,-514"/>
</g>
<!-- UbiLocation -->
<g id="node15" class="node">
<title>UbiLocation</title>
<polygon fill="white" stroke="transparent" points="693.06,-303.5 693.06,-322.5 797.06,-322.5 797.06,-303.5 693.06,-303.5"/>
<text text-anchor="start" x="695.06" y="-309.3" font-family="Times,serif" font-size="14.00"> &#160;UbiLocation </text>
<text text-anchor="start" x="695.06" y="-289.3" font-family="Times,serif" font-size="14.00">variance: </text>
<text text-anchor="start" x="800.06" y="-289.3" font-family="Times,serif" font-size="14.00">xsd:decimal</text>
<text text-anchor="start" x="695.06" y="-269.3" font-family="Times,serif" font-size="14.00">threshold: </text>
<text text-anchor="start" x="800.06" y="-269.3" font-family="Times,serif" font-size="14.00">xsd:decimal</text>
<text text-anchor="start" x="695.06" y="-249.3" font-family="Times,serif" font-size="14.00">method: </text>
<text text-anchor="start" x="806.06" y="-249.3" font-family="Times,serif" font-size="14.00">xsd:string</text>
<polygon fill="none" stroke="black" points="691.06,-242 691.06,-325 889.06,-325 889.06,-242 691.06,-242"/>
</g>
<!-- Cartesian&#45;&gt;UbiLocation -->
<g id="Cartesian&#45;UbiLocation" class="edge">
<title>Cartesian&#45;&gt;UbiLocation</title>
<path fill="none" stroke="cyan" stroke-dasharray="5,2" d="M347.74,-512.94C339.33,-509.84 329.94,-506.84 321.06,-505 307.21,-502.13 203.73,-507.31 194.06,-497 158.76,-459.42 158.97,-418.77 194.06,-381 231.06,-341.17 629.99,-360.66 682.06,-345 694.6,-341.23 707.3,-335.82 719.36,-329.77"/>
<polygon fill="cyan" stroke="cyan" points="721.19,-332.76 728.45,-325.04 717.96,-326.55 721.19,-332.76"/>
</g>
<!-- Sensor -->
<g id="node9" class="node">
<title>Sensor</title>
<polygon fill="white" stroke="transparent" points="616.06,-515.5 616.06,-534.5 679.06,-534.5 679.06,-515.5 616.06,-515.5"/>
<text text-anchor="start" x="618.06" y="-521.3" font-family="Times,serif" font-size="14.00"> Sensor </text>
<polygon fill="none" stroke="black" points="613.56,-514 613.56,-537 680.56,-537 680.56,-514 613.56,-514"/>
</g>
<!-- RoomSensor -->
<g id="node10" class="node">
<title>RoomSensor</title>
<polygon fill="white" stroke="transparent" points="391.06,-443.5 391.06,-462.5 499.06,-462.5 499.06,-443.5 391.06,-443.5"/>
<text text-anchor="start" x="393.06" y="-449.3" font-family="Times,serif" font-size="14.00"> &#160;RoomSensor </text>
<text text-anchor="start" x="393.06" y="-429.3" font-family="Times,serif" font-size="14.00">fieldOfView: </text>
<text text-anchor="start" x="502.06" y="-429.3" font-family="Times,serif" font-size="14.00">FieldOfView</text>
<text text-anchor="start" x="393.06" y="-409.3" font-family="Times,serif" font-size="14.00">threshold: </text>
<text text-anchor="start" x="503.56" y="-409.3" font-family="Times,serif" font-size="14.00">xsd:decimal</text>
<text text-anchor="start" x="393.06" y="-389.3" font-family="Times,serif" font-size="14.00">enabled: </text>
<text text-anchor="start" x="503.56" y="-389.3" font-family="Times,serif" font-size="14.00">xsd:boolean</text>
<polygon fill="none" stroke="green" stroke-width="2" points="388.56,-382 388.56,-465 593.56,-465 593.56,-382 388.56,-382"/>
</g>
<!-- Sensor&#45;&gt;RoomSensor -->
<g id="Sensor&#45;RoomSensor" class="edge">
<title>Sensor&#45;&gt;RoomSensor</title>
<path fill="none" stroke="black" stroke-dasharray="5,2" d="M630.31,-513.8C622.35,-508.71 612.71,-502.54 604.06,-497 591.26,-488.8 577.64,-480.07 564.46,-471.62"/>
<polygon fill="black" stroke="black" points="566.19,-468.57 555.88,-466.11 562.41,-474.46 566.19,-468.57"/>
</g>
<!-- RoomSensor&#45;&gt;FieldOfView -->
<g id="RoomSensor&#45;fieldOfView&#45;FieldOfView" class="edge">
<title>RoomSensor:fieldOfView&#45;&gt;FieldOfView</title>
<path fill="none" stroke="green" d="M593.06,-433.5C604.72,-433.5 599.92,-389.62 592.06,-381 543.39,-327.64 337.44,-368.24 269.06,-345 246.11,-337.2 222.8,-323.51 204.47,-311.12"/>
<polygon fill="green" stroke="green" points="206.1,-308 195.89,-305.17 202.12,-313.75 206.1,-308"/>
</g>
<!-- Ubisense -->
<g id="node22" class="node">
<title>Ubisense</title>
<polygon fill="white" stroke="transparent" points="587.06,-273.5 587.06,-292.5 671.06,-292.5 671.06,-273.5 587.06,-273.5"/>
<text text-anchor="start" x="589.06" y="-279.3" font-family="Times,serif" font-size="14.00"> &#160;Ubisense </text>
<polygon fill="none" stroke="black" points="585.06,-272 585.06,-295 673.06,-295 673.06,-272 585.06,-272"/>
</g>
<!-- RoomSensor&#45;&gt;Ubisense -->
<g id="RoomSensor&#45;Ubisense" class="edge">
<title>RoomSensor&#45;&gt;Ubisense</title>
<path fill="none" stroke="green" stroke-dasharray="5,2" d="M538.7,-380.78C551.12,-369.44 564.31,-356.98 576.06,-345 589.4,-331.39 603.58,-315.09 613.91,-302.84"/>
<polygon fill="green" stroke="green" points="616.66,-305.01 620.39,-295.09 611.29,-300.52 616.66,-305.01"/>
</g>
<!-- Xovis -->
<g id="node23" class="node">
<title>Xovis</title>
<polygon fill="white" stroke="transparent" points="509.06,-273.5 509.06,-292.5 565.06,-292.5 565.06,-273.5 509.06,-273.5"/>
<text text-anchor="start" x="511.06" y="-279.3" font-family="Times,serif" font-size="14.00"> &#160;Xovis </text>
<polygon fill="none" stroke="black" points="507.06,-272 507.06,-295 567.06,-295 567.06,-272 507.06,-272"/>
</g>
<!-- RoomSensor&#45;&gt;Xovis -->
<g id="RoomSensor&#45;Xovis" class="edge">
<title>RoomSensor&#45;&gt;Xovis</title>
<path fill="none" stroke="green" stroke-dasharray="5,2" d="M504.98,-380.72C513.37,-355.57 523.66,-324.68 530.29,-304.79"/>
<polygon fill="green" stroke="green" points="533.63,-305.83 533.48,-295.24 526.99,-303.62 533.63,-305.83"/>
</g>
<!-- Observation&#45;&gt;Sensor -->
<g id="Observation&#45;observedBy&#45;Sensor" class="edge">
<title>Observation:observedBy&#45;&gt;Sensor</title>
<path fill="none" stroke="black" d="M836.06,-422.5C850.51,-422.5 843.5,-443.27 835.06,-455 802.06,-500.86 735.3,-516.5 690.88,-521.81"/>
<polygon fill="black" stroke="black" points="690.5,-518.33 680.93,-522.88 691.24,-525.29 690.5,-518.33"/>
</g>
<!-- SensedOccupancy -->
<g id="node14" class="node">
<title>SensedOccupancy</title>
<polygon fill="white" stroke="transparent" points="909.06,-323.5 909.06,-342.5 1056.06,-342.5 1056.06,-323.5 909.06,-323.5"/>
<text text-anchor="start" x="911.06" y="-329.3" font-family="Times,serif" font-size="14.00"> &#160;SensedOccupancy </text>
<text text-anchor="start" x="911.06" y="-309.3" font-family="Times,serif" font-size="14.00">persons: </text>
<text text-anchor="start" x="1070.06" y="-309.3" font-family="Times,serif" font-size="14.00">[Person]</text>
<text text-anchor="start" x="911.06" y="-289.3" font-family="Times,serif" font-size="14.00">agvs: </text>
<text text-anchor="start" x="1079.06" y="-289.3" font-family="Times,serif" font-size="14.00">[AGV]</text>
<text text-anchor="start" x="911.06" y="-269.3" font-family="Times,serif" font-size="14.00">zone: </text>
<text text-anchor="start" x="1072.06" y="-269.3" font-family="Times,serif" font-size="14.00">DTZone</text>
<text text-anchor="start" x="911.06" y="-249.3" font-family="Times,serif" font-size="14.00">zoneIndex: </text>
<text text-anchor="start" x="1059.06" y="-249.3" font-family="Times,serif" font-size="14.00">xsd:integer</text>
<text text-anchor="start" x="911.06" y="-229.3" font-family="Times,serif" font-size="14.00">personCount: </text>
<text text-anchor="start" x="1059.06" y="-229.3" font-family="Times,serif" font-size="14.00">xsd:integer</text>
<polygon fill="none" stroke="black" points="907.06,-222 907.06,-345 1145.06,-345 1145.06,-222 907.06,-222"/>
</g>
<!-- Observation&#45;&gt;SensedOccupancy -->
<g id="Observation&#45;SensedOccupancy" class="edge">
<title>Observation&#45;&gt;SensedOccupancy</title>
<path fill="none" stroke="black" stroke-dasharray="5,2" d="M794.23,-391.9C823.59,-378.82 858.36,-363.21 897.39,-345.29"/>
<polygon fill="black" stroke="black" points="899.23,-348.29 906.86,-340.94 896.31,-341.93 899.23,-348.29"/>
</g>
<!-- Observation&#45;&gt;UbiLocation -->
<g id="Observation&#45;UbiLocation" class="edge">
<title>Observation&#45;&gt;UbiLocation</title>
<path fill="none" stroke="black" stroke-dasharray="5,2" d="M739.48,-391.87C747.42,-375.02 757.47,-353.68 766.51,-334.48"/>
<polygon fill="black" stroke="black" points="769.76,-335.79 770.86,-325.25 763.43,-332.81 769.76,-335.79"/>
</g>
<!-- Observation&#45;&gt;DTTask -->
<g id="Observation&#45;observationContext&#45;DTTask" class="edge">
<title>Observation:observationContext&#45;&gt;DTTask</title>
<path fill="none" stroke="black" d="M803.06,-392.5C803.06,-326.65 582.01,-363.3 498.41,-344.37"/>
<polygon fill="black" stroke="black" points="499.27,-340.97 488.7,-341.7 497.41,-347.72 499.27,-340.97"/>
</g>
<!-- FieldOfView&#45;&gt;DTZone -->
<g id="FieldOfView&#45;zones&#45;DTZone" class="edge">
<title>FieldOfView:zones&#45;&gt;DTZone</title>
<path fill="none" stroke="black" d="M259.06,-272.5C281.94,-272.5 252.71,-238.01 269.06,-222 331.29,-161.07 383.61,-225.85 462.06,-188 474.18,-182.15 485.57,-172.34 494.2,-163.62"/>
<polygon fill="black" stroke="black" points="497.01,-165.74 501.3,-156.06 491.9,-160.95 497.01,-165.74"/>
</g>
<!-- SensedOccupancy&#45;&gt;AGV -->
<g id="SensedOccupancy&#45;agvs&#45;AGV" class="edge">
<title>SensedOccupancy:agvs&#45;&gt;AGV</title>
<path fill="none" stroke="black" d="M1144.06,-293.5C1234.61,-293.5 1193.64,-415.56 1154.06,-497 1152.25,-500.72 1149.66,-504.1 1146.7,-507.1"/>
<polygon fill="black" stroke="black" points="1144.17,-504.65 1138.81,-513.79 1148.7,-509.99 1144.17,-504.65"/>
</g>
<!-- SensedOccupancy&#45;&gt;Person -->
<g id="SensedOccupancy&#45;persons&#45;Person" class="edge">
<title>SensedOccupancy:persons&#45;&gt;Person</title>
<path fill="none" stroke="black" d="M1144.06,-313.5C1212.19,-313.5 1208.73,-257.21 1267.06,-222 1297.01,-203.92 1309.56,-208.3 1338.06,-188 1347.69,-181.14 1357.07,-171.96 1364.51,-163.89"/>
<polygon fill="black" stroke="black" points="1367.22,-166.11 1371.25,-156.31 1361.99,-161.46 1367.22,-166.11"/>
</g>
<!-- SensedOccupancy&#45;&gt;DTZone -->
<g id="SensedOccupancy&#45;zone&#45;DTZone" class="edge">
<title>SensedOccupancy:zone&#45;&gt;DTZone</title>
<path fill="none" stroke="black" d="M1144.06,-272.5C1166.5,-272.5 1158.11,-238.65 1143.06,-222 1103.99,-178.8 701.25,-154.92 559.27,-147.8"/>
<polygon fill="black" stroke="black" points="559.27,-144.29 549.11,-147.29 558.92,-151.29 559.27,-144.29"/>
</g>
<!-- DTMission&#45;&gt;DTTask -->
<g id="DTMission&#45;tasks&#45;DTTask" class="edge">
<title>DTMission:tasks&#45;&gt;DTTask</title>
<path fill="none" stroke="black" d="M334.06,-402.5C334.06,-386.33 338.03,-369.81 343.71,-354.44"/>
<polygon fill="black" stroke="black" points="347,-355.62 347.45,-345.04 340.5,-353.04 347,-355.62"/>
</g>
<!-- DTTask&#45;&gt;DTOperation -->
<g id="DTTask&#45;operation&#45;DTOperation" class="edge">
<title>DTTask:operation&#45;&gt;DTOperation</title>
<path fill="none" stroke="black" d="M488.06,-313.5C498.22,-313.5 492.56,-230.55 487.06,-222 479.52,-210.31 469.69,-200.38 458.58,-191.95"/>
<polygon fill="black" stroke="black" points="460.47,-188.99 450.28,-186.06 456.42,-194.7 460.47,-188.99"/>
</g>
<!-- DTOperation&#45;&gt;CyberPhysicalActor -->
<g id="DTOperation&#45;actor&#45;CyberPhysicalActor" class="edge">
<title>DTOperation:actor&#45;&gt;CyberPhysicalActor</title>
<path fill="none" stroke="black" d="M452.06,-113.5C468.76,-113.5 456.96,-172.09 462.06,-188 464.66,-196.14 463.73,-200.59 471.06,-205 503.28,-224.4 1111.81,-215.03 1148.06,-205 1177.23,-196.93 1206.45,-177.95 1225.9,-163.39"/>
<polygon fill="black" stroke="black" points="1228.07,-166.13 1233.86,-157.26 1223.8,-160.59 1228.07,-166.13"/>
</g>
<!-- HumanOperation -->
<g id="node19" class="node">
<title>HumanOperation</title>
<polygon fill="white" stroke="transparent" points="253.06,-35.5 253.06,-54.5 394.06,-54.5 394.06,-35.5 253.06,-35.5"/>
<text text-anchor="start" x="255.06" y="-41.3" font-family="Times,serif" font-size="14.00"> &#160;HumanOperation </text>
<polygon fill="none" stroke="black" points="250.56,-34 250.56,-57 395.56,-57 395.56,-34 250.56,-34"/>
</g>
<!-- DTOperation&#45;&gt;HumanOperation -->
<g id="DTOperation&#45;HumanOperation" class="edge">
<title>DTOperation&#45;&gt;HumanOperation</title>
<path fill="none" stroke="black" stroke-dasharray="5,2" d="M323.06,-102.93C323.06,-90.73 323.06,-77.84 323.06,-67.46"/>
<polygon fill="black" stroke="black" points="326.56,-67.34 323.06,-57.34 319.56,-67.34 326.56,-67.34"/>
</g>
<!-- DTLab -->
<g id="node21" class="node">
<title>DTLab</title>
<polygon fill="white" stroke="transparent" points="429.06,-45.5 429.06,-64.5 494.06,-64.5 494.06,-45.5 429.06,-45.5"/>
<text text-anchor="start" x="431.06" y="-51.3" font-family="Times,serif" font-size="14.00"> &#160;DTLab </text>
<text text-anchor="start" x="431.06" y="-31.3" font-family="Times,serif" font-size="14.00">zones: </text>
<text text-anchor="start" x="497.06" y="-31.3" font-family="Times,serif" font-size="14.00">[DTZone]</text>
<polygon fill="none" stroke="black" points="426.56,-24 426.56,-67 567.56,-67 567.56,-24 426.56,-24"/>
</g>
<!-- DTZone&#45;&gt;DTLab -->
<g id="DTZone&#45;DTLab" class="edge">
<title>DTZone&#45;&gt;DTLab</title>
<path fill="none" stroke="black" stroke-dasharray="5,2" d="M508.61,-132.75C506.83,-119.43 503.71,-96.17 501.17,-77.16"/>
<polygon fill="black" stroke="black" points="504.62,-76.58 499.82,-67.13 497.68,-77.51 504.62,-76.58"/>
</g>
<!-- DTLab&#45;&gt;DTZone -->
<g id="DTLab&#45;zones&#45;DTZone" class="edge">
<title>DTLab:zones&#45;&gt;DTZone</title>
<path fill="none" stroke="black" d="M531.06,-24.5C531.06,10.46 586.62,-9.9 567.56,-67 559.92,-89.87 542.46,-111.4 528.77,-125.75"/>
<polygon fill="black" stroke="black" points="526.19,-123.38 521.64,-132.95 531.17,-128.31 526.19,-123.38"/>
</g>
</g>
</svg>
