<?xml version="1.0" encoding="UTF-8" standalone="no"?>
<!DOCTYPE svg PUBLIC "-//W3C//DTD SVG 1.1//EN"
 "http://www.w3.org/Graphics/SVG/1.1/DTD/svg11.dtd">
<!-- Generated by graphviz version 2.43.0 (0)
 -->
<!-- Title: %3 Pages: 1 -->
<svg width="1261pt" height="1161pt"
 viewBox="0.00 0.00 1260.98 1161.00" xmlns="http://www.w3.org/2000/svg" xmlns:xlink="http://www.w3.org/1999/xlink">
<g id="graph0" class="graph" transform="scale(1 1) rotate(0) translate(4 1157)">
<title>%3</title>
<polygon fill="white" stroke="transparent" points="-4,4 -4,-1157 1256.98,-1157 1256.98,4 -4,4"/>
<g id="clust1" class="cluster">
<title>cluster0</title>
<polygon fill="none" stroke="black" points="8,-8 8,-1145 1207,-1145 1207,-8 8,-8"/>
<text text-anchor="middle" x="97.5" y="-1129.8" font-family="Times,serif" font-size="14.00">Schema: digitech&#45;v022</text>
</g>
<!-- Vector3 -->
<g id="node1" class="node">
<title>Vector3</title>
<polygon fill="white" stroke="transparent" points="858,-156.5 858,-175.5 926,-175.5 926,-156.5 858,-156.5"/>
<text text-anchor="start" x="860" y="-162.3" font-family="Times,serif" font-size="14.00"> Vector3 </text>
<polygon fill="none" stroke="black" points="856,-155 856,-178 928,-178 928,-155 856,-155"/>
</g>
<!-- Geometry -->
<g id="node2" class="node">
<title>Geometry</title>
<polygon fill="white" stroke="transparent" points="1070,-156.5 1070,-175.5 1154,-175.5 1154,-156.5 1070,-156.5"/>
<text text-anchor="start" x="1072" y="-162.3" font-family="Times,serif" font-size="14.00"> Geometry </text>
<polygon fill="none" stroke="cyan" stroke-width="2" points="1068,-155 1068,-178 1156,-178 1156,-155 1068,-155"/>
</g>
<!-- Box -->
<g id="node19" class="node">
<title>Box</title>
<polygon fill="white" stroke="transparent" points="796,-47.5 796,-66.5 841,-66.5 841,-47.5 796,-47.5"/>
<text text-anchor="start" x="798" y="-53.3" font-family="Times,serif" font-size="14.00"> &#160;Box </text>
<text text-anchor="start" x="798" y="-33.3" font-family="Times,serif" font-size="14.00">size: </text>
<text text-anchor="start" x="844" y="-33.3" font-family="Times,serif" font-size="14.00">xsd:decimal</text>
<polygon fill="none" stroke="black" points="793.5,-26 793.5,-69 932.5,-69 932.5,-26 793.5,-26"/>
</g>
<!-- Geometry&#45;&gt;Box -->
<g id="Geometry&#45;Box" class="edge">
<title>Geometry&#45;&gt;Box</title>
<path fill="none" stroke="cyan" stroke-dasharray="5,2" d="M1087.21,-153.85C1047.53,-135.21 968.83,-98.23 916.04,-73.42"/>
<polygon fill="cyan" stroke="cyan" points="917.37,-70.18 906.83,-69.09 914.39,-76.51 917.37,-70.18"/>
</g>
<!-- Cylinder -->
<g id="node20" class="node">
<title>Cylinder</title>
<polygon fill="white" stroke="transparent" points="1028,-57.5 1028,-76.5 1107,-76.5 1107,-57.5 1028,-57.5"/>
<text text-anchor="start" x="1030" y="-63.3" font-family="Times,serif" font-size="14.00"> &#160;Cylinder </text>
<text text-anchor="start" x="1030" y="-43.3" font-family="Times,serif" font-size="14.00">radius: </text>
<text text-anchor="start" x="1110" y="-43.3" font-family="Times,serif" font-size="14.00">xsd:decimal</text>
<text text-anchor="start" x="1030" y="-23.3" font-family="Times,serif" font-size="14.00">length: </text>
<text text-anchor="start" x="1110" y="-23.3" font-family="Times,serif" font-size="14.00">xsd:decimal</text>
<polygon fill="none" stroke="black" points="1025.5,-16 1025.5,-79 1198.5,-79 1198.5,-16 1025.5,-16"/>
</g>
<!-- Geometry&#45;&gt;Cylinder -->
<g id="Geometry&#45;Cylinder" class="edge">
<title>Geometry&#45;&gt;Cylinder</title>
<path fill="none" stroke="cyan" stroke-dasharray="5,2" d="M1112,-153.85C1112,-138.92 1112,-112.22 1112,-89.44"/>
<polygon fill="cyan" stroke="cyan" points="1115.5,-89.3 1112,-79.3 1108.5,-89.3 1115.5,-89.3"/>
</g>
<!-- PhysicalEntity -->
<g id="node3" class="node">
<title>PhysicalEntity</title>
<polygon fill="white" stroke="transparent" points="959,-1052.5 959,-1071.5 1076,-1071.5 1076,-1052.5 959,-1052.5"/>
<text text-anchor="start" x="961" y="-1058.3" font-family="Times,serif" font-size="14.00"> PhysicalEntity </text>
<polygon fill="none" stroke="#1e8449" stroke-width="2" points="956.5,-1051 956.5,-1074 1077.5,-1074 1077.5,-1051 956.5,-1051"/>
</g>
<!-- KinematicNode -->
<g id="node5" class="node">
<title>KinematicNode</title>
<polygon fill="white" stroke="transparent" points="928,-952.5 928,-971.5 1056,-971.5 1056,-952.5 928,-952.5"/>
<text text-anchor="start" x="930" y="-958.3" font-family="Times,serif" font-size="14.00"> &#160;KinematicNode </text>
<text text-anchor="start" x="930" y="-938.3" font-family="Times,serif" font-size="14.00">origin: </text>
<text text-anchor="start" x="1059" y="-938.3" font-family="Times,serif" font-size="14.00">Origin</text>
<text text-anchor="start" x="930" y="-918.3" font-family="Times,serif" font-size="14.00">parentLink: </text>
<text text-anchor="start" x="1066.5" y="-918.3" font-family="Times,serif" font-size="14.00">Link</text>
<polygon fill="none" stroke="brown" stroke-width="2" points="925.5,-911 925.5,-974 1108.5,-974 1108.5,-911 925.5,-911"/>
</g>
<!-- PhysicalEntity&#45;&gt;KinematicNode -->
<g id="PhysicalEntity&#45;KinematicNode" class="edge">
<title>PhysicalEntity&#45;&gt;KinematicNode</title>
<path fill="none" stroke="#1e8449" stroke-dasharray="5,2" d="M1017,-1049.75C1017,-1034.79 1017,-1008.12 1017,-985.25"/>
<polygon fill="#1e8449" stroke="#1e8449" points="1020.5,-985.06 1017,-975.06 1013.5,-985.06 1020.5,-985.06"/>
</g>
<!-- AbstractEntity -->
<g id="node4" class="node">
<title>AbstractEntity</title>
<polygon fill="white" stroke="transparent" points="20,-633.5 20,-652.5 139,-652.5 139,-633.5 20,-633.5"/>
<text text-anchor="start" x="22" y="-639.3" font-family="Times,serif" font-size="14.00"> AbstractEntity </text>
<polygon fill="none" stroke="aquamarine" stroke-width="2" points="17.5,-632 17.5,-655 140.5,-655 140.5,-632 17.5,-632"/>
</g>
<!-- Visual -->
<g id="node15" class="node">
<title>Visual</title>
<polygon fill="white" stroke="transparent" points="672,-534.5 672,-553.5 754,-553.5 754,-534.5 672,-534.5"/>
<text text-anchor="start" x="684" y="-540.3" font-family="Times,serif" font-size="14.00"> &#160;Visual </text>
<text text-anchor="start" x="674" y="-520.3" font-family="Times,serif" font-size="14.00">origin: </text>
<text text-anchor="start" x="764.5" y="-520.3" font-family="Times,serif" font-size="14.00">Origin</text>
<text text-anchor="start" x="674" y="-500.3" font-family="Times,serif" font-size="14.00">geometry: </text>
<text text-anchor="start" x="773.5" y="-500.3" font-family="Times,serif" font-size="14.00">Box</text>
<text text-anchor="start" x="674" y="-480.3" font-family="Times,serif" font-size="14.00">material: </text>
<text text-anchor="start" x="757" y="-480.3" font-family="Times,serif" font-size="14.00">Material</text>
<polygon fill="none" stroke="black" points="670,-473 670,-556 822,-556 822,-473 670,-473"/>
</g>
<!-- AbstractEntity&#45;&gt;Visual -->
<g id="AbstractEntity&#45;Visual" class="edge">
<title>AbstractEntity&#45;&gt;Visual</title>
<path fill="none" stroke="aquamarine" stroke-dasharray="5,2" d="M91.67,-630.69C105.23,-618.79 127.94,-600.94 151,-592 241.92,-556.76 518.18,-532.14 660,-521.46"/>
<polygon fill="aquamarine" stroke="aquamarine" points="660.26,-524.95 669.97,-520.72 659.74,-517.97 660.26,-524.95"/>
</g>
<!-- Collision -->
<g id="node16" class="node">
<title>Collision</title>
<polygon fill="white" stroke="transparent" points="1029,-524.5 1029,-543.5 1111,-543.5 1111,-524.5 1029,-524.5"/>
<text text-anchor="start" x="1032" y="-530.3" font-family="Times,serif" font-size="14.00"> &#160;Collision </text>
<text text-anchor="start" x="1031" y="-510.3" font-family="Times,serif" font-size="14.00">origin: </text>
<text text-anchor="start" x="1121.5" y="-510.3" font-family="Times,serif" font-size="14.00">Origin</text>
<text text-anchor="start" x="1031" y="-490.3" font-family="Times,serif" font-size="14.00">geometry: </text>
<text text-anchor="start" x="1114" y="-490.3" font-family="Times,serif" font-size="14.00">Cylinder</text>
<polygon fill="none" stroke="black" points="1027,-483 1027,-546 1179,-546 1179,-483 1027,-483"/>
</g>
<!-- AbstractEntity&#45;&gt;Collision -->
<g id="AbstractEntity&#45;Collision" class="edge">
<title>AbstractEntity&#45;&gt;Collision</title>
<path fill="none" stroke="aquamarine" stroke-dasharray="5,2" d="M91.02,-630.73C104.41,-618.5 127.28,-600.03 151,-592 333.64,-530.14 830.84,-602.41 1018,-556 1024.5,-554.39 1031.1,-552.25 1037.6,-549.81"/>
<polygon fill="aquamarine" stroke="aquamarine" points="1039.05,-553 1047.02,-546.02 1036.44,-546.5 1039.05,-553"/>
</g>
<!-- Material -->
<g id="node17" class="node">
<title>Material</title>
<polygon fill="white" stroke="transparent" points="284,-345.5 284,-364.5 363,-364.5 363,-345.5 284,-345.5"/>
<text text-anchor="start" x="286" y="-351.3" font-family="Times,serif" font-size="14.00"> &#160;Material </text>
<text text-anchor="start" x="286" y="-331.3" font-family="Times,serif" font-size="14.00">color: </text>
<text text-anchor="start" x="366" y="-331.3" font-family="Times,serif" font-size="14.00">ColorRGBA</text>
<polygon fill="none" stroke="black" points="281.5,-324 281.5,-367 450.5,-367 450.5,-324 281.5,-324"/>
</g>
<!-- AbstractEntity&#45;&gt;Material -->
<g id="AbstractEntity&#45;Material" class="edge">
<title>AbstractEntity&#45;&gt;Material</title>
<path fill="none" stroke="aquamarine" stroke-dasharray="5,2" d="M90.25,-630.9C131.88,-587.96 277.91,-437.36 338.9,-374.44"/>
<polygon fill="aquamarine" stroke="aquamarine" points="341.46,-376.84 345.91,-367.22 336.44,-371.96 341.46,-376.84"/>
</g>
<!-- Joint -->
<g id="node6" class="node">
<title>Joint</title>
<polygon fill="white" stroke="transparent" points="564,-852.5 564,-871.5 694,-871.5 694,-852.5 564,-852.5"/>
<text text-anchor="start" x="605.5" y="-858.3" font-family="Times,serif" font-size="14.00"> &#160;Joint </text>
<text text-anchor="start" x="566" y="-838.3" font-family="Times,serif" font-size="14.00">childLink: </text>
<text text-anchor="start" x="741" y="-838.3" font-family="Times,serif" font-size="14.00">Link</text>
<text text-anchor="start" x="566" y="-818.3" font-family="Times,serif" font-size="14.00">axis: </text>
<text text-anchor="start" x="729" y="-818.3" font-family="Times,serif" font-size="14.00">Vector3</text>
<text text-anchor="start" x="566" y="-798.3" font-family="Times,serif" font-size="14.00">calibration: </text>
<text text-anchor="start" x="716.5" y="-798.3" font-family="Times,serif" font-size="14.00">Calibration</text>
<text text-anchor="start" x="566" y="-778.3" font-family="Times,serif" font-size="14.00">dynamics: </text>
<text text-anchor="start" x="721.5" y="-778.3" font-family="Times,serif" font-size="14.00">Dynamics</text>
<text text-anchor="start" x="566" y="-758.3" font-family="Times,serif" font-size="14.00">mimic: </text>
<text text-anchor="start" x="734" y="-758.3" font-family="Times,serif" font-size="14.00">Mimic</text>
<text text-anchor="start" x="566" y="-738.3" font-family="Times,serif" font-size="14.00">safetyController: </text>
<text text-anchor="start" x="697" y="-738.3" font-family="Times,serif" font-size="14.00">SafetyController</text>
<polygon fill="none" stroke="black" points="562,-731 562,-874 820,-874 820,-731 562,-731"/>
</g>
<!-- KinematicNode&#45;&gt;Joint -->
<g id="KinematicNode&#45;Joint" class="edge">
<title>KinematicNode&#45;&gt;Joint</title>
<path fill="none" stroke="brown" stroke-dasharray="5,2" d="M942.21,-909.84C908.71,-895.66 868.09,-878.47 829.38,-862.08"/>
<polygon fill="brown" stroke="brown" points="830.68,-858.83 820.11,-858.15 827.95,-865.27 830.68,-858.83"/>
</g>
<!-- Sensor -->
<g id="node7" class="node">
<title>Sensor</title>
<polygon fill="white" stroke="transparent" points="900,-802.5 900,-821.5 996,-821.5 996,-802.5 900,-802.5"/>
<text text-anchor="start" x="916" y="-808.3" font-family="Times,serif" font-size="14.00"> &#160;Sensor </text>
<text text-anchor="start" x="902" y="-788.3" font-family="Times,serif" font-size="14.00">updateRate: </text>
<text text-anchor="start" x="999" y="-788.3" font-family="Times,serif" font-size="14.00">xsd:decimal</text>
<polygon fill="none" stroke="black" points="898,-781 898,-824 1088,-824 1088,-781 898,-781"/>
</g>
<!-- KinematicNode&#45;&gt;Sensor -->
<g id="KinematicNode&#45;Sensor" class="edge">
<title>KinematicNode&#45;&gt;Sensor</title>
<path fill="none" stroke="brown" stroke-dasharray="5,2" d="M1011.49,-909.84C1007.55,-887.17 1002.27,-856.81 998.36,-834.33"/>
<polygon fill="brown" stroke="brown" points="1001.78,-833.56 996.62,-824.3 994.88,-834.76 1001.78,-833.56"/>
</g>
<!-- Link -->
<g id="node12" class="node">
<title>Link</title>
<polygon fill="white" stroke="transparent" points="1038,-663.5 1038,-682.5 1110,-682.5 1110,-663.5 1038,-663.5"/>
<text text-anchor="start" x="1051.5" y="-669.3" font-family="Times,serif" font-size="14.00"> &#160;Link </text>
<text text-anchor="start" x="1040" y="-649.3" font-family="Times,serif" font-size="14.00">inertial: </text>
<text text-anchor="start" x="1117.5" y="-649.3" font-family="Times,serif" font-size="14.00">Inertial</text>
<text text-anchor="start" x="1040" y="-629.3" font-family="Times,serif" font-size="14.00">visual: </text>
<text text-anchor="start" x="1122" y="-629.3" font-family="Times,serif" font-size="14.00">Visual</text>
<text text-anchor="start" x="1040" y="-609.3" font-family="Times,serif" font-size="14.00">collision: </text>
<text text-anchor="start" x="1113" y="-609.3" font-family="Times,serif" font-size="14.00">Collision</text>
<polygon fill="none" stroke="black" points="1035.5,-602 1035.5,-685 1178.5,-685 1178.5,-602 1035.5,-602"/>
</g>
<!-- KinematicNode&#45;&gt;Link -->
<g id="KinematicNode&#45;parentLink&#45;Link" class="edge">
<title>KinematicNode:parentLink&#45;&gt;Link</title>
<path fill="none" stroke="brown" d="M1082,-911.5C1082,-893.55 1093.22,-891.55 1097,-874 1109.99,-813.65 1110.93,-742.37 1109.64,-695.45"/>
<polygon fill="brown" stroke="brown" points="1113.13,-695.12 1109.31,-685.24 1106.13,-695.34 1113.13,-695.12"/>
</g>
<!-- Origin -->
<g id="node21" class="node">
<title>Origin</title>
<polygon fill="white" stroke="transparent" points="1007,-365.5 1007,-384.5 1076,-384.5 1076,-365.5 1007,-365.5"/>
<text text-anchor="start" x="1012" y="-371.3" font-family="Times,serif" font-size="14.00"> &#160;Origin </text>
<text text-anchor="start" x="1009" y="-351.3" font-family="Times,serif" font-size="14.00">inherits: </text>
<text text-anchor="start" x="1091.5" y="-351.3" font-family="Times,serif" font-size="14.00">Geometry</text>
<text text-anchor="start" x="1009" y="-331.3" font-family="Times,serif" font-size="14.00">xyz: </text>
<text text-anchor="start" x="1079" y="-331.3" font-family="Times,serif" font-size="14.00">[xsd:decimal]</text>
<text text-anchor="start" x="1009" y="-311.3" font-family="Times,serif" font-size="14.00">rpy: </text>
<text text-anchor="start" x="1079" y="-311.3" font-family="Times,serif" font-size="14.00">[xsd:decimal]</text>
<polygon fill="none" stroke="black" points="1005,-304 1005,-387 1179,-387 1179,-304 1005,-304"/>
</g>
<!-- KinematicNode&#45;&gt;Origin -->
<g id="KinematicNode&#45;origin&#45;Origin" class="edge">
<title>KinematicNode:origin&#45;&gt;Origin</title>
<path fill="none" stroke="brown" d="M1108,-941.5C1319.24,-941.5 1255.37,-673.21 1188,-473 1178.33,-444.26 1159.25,-416.86 1140.62,-394.96"/>
<polygon fill="brown" stroke="brown" points="1143.02,-392.38 1133.8,-387.15 1137.74,-396.98 1143.02,-392.38"/>
</g>
<!-- Joint&#45;&gt;Vector3 -->
<g id="Joint&#45;axis&#45;Vector3" class="edge">
<title>Joint:axis&#45;&gt;Vector3</title>
<path fill="none" stroke="black" d="M819,-822.5C870.2,-822.5 846.98,-760.25 889,-731 933.65,-699.92 973.68,-738.76 1006,-695 1033.2,-658.18 1033.89,-628.3 1006,-592 968.17,-542.76 918.25,-596.3 871,-556 859.99,-546.61 821.01,-451.16 818,-437 809.54,-397.22 803.91,-292.15 818,-254 828.45,-225.71 852.74,-200.4 870.66,-184.58"/>
<polygon fill="black" stroke="black" points="873.03,-187.16 878.37,-178 868.49,-181.83 873.03,-187.16"/>
</g>
<!-- Calibration -->
<g id="node8" class="node">
<title>Calibration</title>
<polygon fill="white" stroke="transparent" points="807,-653.5 807,-672.5 905,-672.5 905,-653.5 807,-653.5"/>
<text text-anchor="start" x="809" y="-659.3" font-family="Times,serif" font-size="14.00"> &#160;Calibration </text>
<text text-anchor="start" x="809" y="-639.3" font-family="Times,serif" font-size="14.00">rising: </text>
<text text-anchor="start" x="908" y="-639.3" font-family="Times,serif" font-size="14.00">xsd:decimal</text>
<text text-anchor="start" x="809" y="-619.3" font-family="Times,serif" font-size="14.00">falling: </text>
<text text-anchor="start" x="908" y="-619.3" font-family="Times,serif" font-size="14.00">xsd:decimal</text>
<polygon fill="none" stroke="black" points="805,-612 805,-675 997,-675 997,-612 805,-612"/>
</g>
<!-- Joint&#45;&gt;Calibration -->
<g id="Joint&#45;calibration&#45;Calibration" class="edge">
<title>Joint:calibration&#45;&gt;Calibration</title>
<path fill="none" stroke="black" d="M819,-801.5C871.46,-801.5 890.42,-731.78 897.23,-685.26"/>
<polygon fill="black" stroke="black" points="900.72,-685.52 898.57,-675.14 893.78,-684.59 900.72,-685.52"/>
</g>
<!-- Dynamics -->
<g id="node9" class="node">
<title>Dynamics</title>
<polygon fill="white" stroke="transparent" points="607,-653.5 607,-672.5 695,-672.5 695,-653.5 607,-653.5"/>
<text text-anchor="start" x="609" y="-659.3" font-family="Times,serif" font-size="14.00"> &#160;Dynamics </text>
<text text-anchor="start" x="609" y="-639.3" font-family="Times,serif" font-size="14.00">damping: </text>
<text text-anchor="start" x="698" y="-639.3" font-family="Times,serif" font-size="14.00">xsd:decimal</text>
<text text-anchor="start" x="609" y="-619.3" font-family="Times,serif" font-size="14.00">friction: </text>
<text text-anchor="start" x="698" y="-619.3" font-family="Times,serif" font-size="14.00">xsd:decimal</text>
<polygon fill="none" stroke="black" points="605,-612 605,-675 787,-675 787,-612 605,-612"/>
</g>
<!-- Joint&#45;&gt;Dynamics -->
<g id="Joint&#45;dynamics&#45;Dynamics" class="edge">
<title>Joint:dynamics&#45;&gt;Dynamics</title>
<path fill="none" stroke="black" d="M819,-781.5C841.45,-781.5 828.5,-750.84 818,-731 807.15,-710.51 789.03,-693.79 770.03,-680.71"/>
<polygon fill="black" stroke="black" points="771.83,-677.7 761.56,-675.13 767.99,-683.55 771.83,-677.7"/>
</g>
<!-- Mimic -->
<g id="node10" class="node">
<title>Mimic</title>
<polygon fill="white" stroke="transparent" points="162,-663.5 162,-682.5 246,-682.5 246,-663.5 162,-663.5"/>
<text text-anchor="start" x="175" y="-669.3" font-family="Times,serif" font-size="14.00"> &#160;Mimic </text>
<text text-anchor="start" x="164" y="-649.3" font-family="Times,serif" font-size="14.00">joint: </text>
<text text-anchor="start" x="274.5" y="-649.3" font-family="Times,serif" font-size="14.00">Joint</text>
<text text-anchor="start" x="164" y="-629.3" font-family="Times,serif" font-size="14.00">multiplier: </text>
<text text-anchor="start" x="249" y="-629.3" font-family="Times,serif" font-size="14.00">xsd:decimal</text>
<text text-anchor="start" x="164" y="-609.3" font-family="Times,serif" font-size="14.00">offset: </text>
<text text-anchor="start" x="249" y="-609.3" font-family="Times,serif" font-size="14.00">xsd:decimal</text>
<polygon fill="none" stroke="black" points="160,-602 160,-685 338,-685 338,-602 160,-602"/>
</g>
<!-- Joint&#45;&gt;Mimic -->
<g id="Joint&#45;mimic&#45;Mimic" class="edge">
<title>Joint:mimic&#45;&gt;Mimic</title>
<path fill="none" stroke="black" d="M819,-761.5C832.56,-761.5 827.38,-740.8 818,-731 781.7,-693.09 397.5,-709.31 347,-695 341.02,-693.31 334.98,-691.23 328.99,-688.89"/>
<polygon fill="black" stroke="black" points="330.21,-685.61 319.63,-685.03 327.54,-692.08 330.21,-685.61"/>
</g>
<!-- SafetyController -->
<g id="node11" class="node">
<title>SafetyController</title>
<polygon fill="white" stroke="transparent" points="358,-673.5 358,-692.5 495,-692.5 495,-673.5 358,-673.5"/>
<text text-anchor="start" x="360" y="-679.3" font-family="Times,serif" font-size="14.00"> &#160;SafetyController </text>
<text text-anchor="start" x="360" y="-659.3" font-family="Times,serif" font-size="14.00">kVelocity: </text>
<text text-anchor="start" x="498" y="-659.3" font-family="Times,serif" font-size="14.00">xsd:decimal</text>
<text text-anchor="start" x="360" y="-639.3" font-family="Times,serif" font-size="14.00">kPosition: </text>
<text text-anchor="start" x="498" y="-639.3" font-family="Times,serif" font-size="14.00">xsd:decimal</text>
<text text-anchor="start" x="360" y="-619.3" font-family="Times,serif" font-size="14.00">softLowerLimit: </text>
<text text-anchor="start" x="498" y="-619.3" font-family="Times,serif" font-size="14.00">xsd:decimal</text>
<text text-anchor="start" x="360" y="-599.3" font-family="Times,serif" font-size="14.00">softUpperLimit: </text>
<text text-anchor="start" x="498" y="-599.3" font-family="Times,serif" font-size="14.00">xsd:decimal</text>
<polygon fill="none" stroke="black" points="355.5,-592 355.5,-695 586.5,-695 586.5,-592 355.5,-592"/>
</g>
<!-- Joint&#45;&gt;SafetyController -->
<g id="Joint&#45;safetyController&#45;SafetyController" class="edge">
<title>Joint:safetyController&#45;&gt;SafetyController</title>
<path fill="none" stroke="black" d="M757,-731.5C757,-697.25 647.19,-704.69 596.41,-694.42"/>
<polygon fill="black" stroke="black" points="597.09,-690.98 586.54,-691.94 595.38,-697.77 597.09,-690.98"/>
</g>
<!-- Joint&#45;&gt;Link -->
<g id="Joint&#45;childLink&#45;Link" class="edge">
<title>Joint:childLink&#45;&gt;Link</title>
<path fill="none" stroke="black" d="M819,-842.5C877.51,-842.5 842.01,-765.86 889,-731 937.84,-694.77 964.96,-718.6 1021,-695 1024.86,-693.37 1028.76,-691.61 1032.65,-689.73"/>
<polygon fill="black" stroke="black" points="1034.34,-692.81 1041.71,-685.2 1031.2,-686.54 1034.34,-692.81"/>
</g>
<!-- Mimic&#45;&gt;Joint -->
<g id="Mimic&#45;joint&#45;Joint" class="edge">
<title>Mimic:joint&#45;&gt;Joint</title>
<path fill="none" stroke="black" d="M337,-653.5C355.97,-653.5 334.02,-681.16 347,-695 399.7,-751.17 481.35,-777.95 551.88,-790.61"/>
<polygon fill="black" stroke="black" points="551.31,-794.06 561.76,-792.3 552.49,-787.16 551.31,-794.06"/>
</g>
<!-- Inertial -->
<g id="node13" class="node">
<title>Inertial</title>
<polygon fill="white" stroke="transparent" points="882,-524.5 882,-543.5 953,-543.5 953,-524.5 882,-524.5"/>
<text text-anchor="start" x="884" y="-530.3" font-family="Times,serif" font-size="14.00"> &#160;Inertial </text>
<text text-anchor="start" x="884" y="-510.3" font-family="Times,serif" font-size="14.00">origin: </text>
<text text-anchor="start" x="957.5" y="-510.3" font-family="Times,serif" font-size="14.00">Origin</text>
<text text-anchor="start" x="884" y="-490.3" font-family="Times,serif" font-size="14.00">inertia: </text>
<text text-anchor="start" x="956" y="-490.3" font-family="Times,serif" font-size="14.00">Inertia</text>
<polygon fill="none" stroke="black" points="879.5,-483 879.5,-546 1008.5,-546 1008.5,-483 879.5,-483"/>
</g>
<!-- Link&#45;&gt;Inertial -->
<g id="Link&#45;inertial&#45;Inertial" class="edge">
<title>Link:inertial&#45;&gt;Inertial</title>
<path fill="none" stroke="black" d="M1178,-653.5C1200.89,-653.5 1190.93,-620.17 1177,-602 1132.23,-543.63 1086.01,-584.05 1018,-556 1013.93,-554.32 1009.8,-552.48 1005.67,-550.53"/>
<polygon fill="black" stroke="black" points="1007.19,-547.38 996.67,-546.13 1004.12,-553.67 1007.19,-547.38"/>
</g>
<!-- Link&#45;&gt;Visual -->
<g id="Link&#45;visual&#45;Visual" class="edge">
<title>Link:visual&#45;&gt;Visual</title>
<path fill="none" stroke="black" d="M1178,-632.5C1191.56,-632.5 1186.02,-612.13 1177,-602 1131.29,-550.63 937.93,-571.76 871,-556 858.26,-553 844.95,-549.31 831.97,-545.39"/>
<polygon fill="black" stroke="black" points="832.71,-541.96 822.12,-542.36 830.65,-548.65 832.71,-541.96"/>
</g>
<!-- Link&#45;&gt;Collision -->
<g id="Link&#45;collision&#45;Collision" class="edge">
<title>Link:collision&#45;&gt;Collision</title>
<path fill="none" stroke="black" d="M1144,-602.5C1144,-586.06 1137.94,-569.4 1130.48,-555.12"/>
<polygon fill="black" stroke="black" points="1133.36,-553.12 1125.42,-546.11 1127.26,-556.54 1133.36,-553.12"/>
</g>
<!-- Inertia -->
<g id="node14" class="node">
<title>Inertia</title>
<polygon fill="white" stroke="transparent" points="829,-415.5 829,-434.5 895,-434.5 895,-415.5 829,-415.5"/>
<text text-anchor="start" x="831" y="-421.3" font-family="Times,serif" font-size="14.00"> &#160;Inertia </text>
<text text-anchor="start" x="831" y="-401.3" font-family="Times,serif" font-size="14.00">m: </text>
<text text-anchor="start" x="898" y="-401.3" font-family="Times,serif" font-size="14.00">xsd:decimal</text>
<text text-anchor="start" x="831" y="-381.3" font-family="Times,serif" font-size="14.00">com: </text>
<text text-anchor="start" x="913" y="-381.3" font-family="Times,serif" font-size="14.00">Vector3</text>
<text text-anchor="start" x="831" y="-361.3" font-family="Times,serif" font-size="14.00">ixx: </text>
<text text-anchor="start" x="898" y="-361.3" font-family="Times,serif" font-size="14.00">xsd:decimal</text>
<text text-anchor="start" x="831" y="-341.3" font-family="Times,serif" font-size="14.00">ixy: </text>
<text text-anchor="start" x="898" y="-341.3" font-family="Times,serif" font-size="14.00">xsd:decimal</text>
<text text-anchor="start" x="831" y="-321.3" font-family="Times,serif" font-size="14.00">ixz: </text>
<text text-anchor="start" x="898" y="-321.3" font-family="Times,serif" font-size="14.00">xsd:decimal</text>
<text text-anchor="start" x="831" y="-301.3" font-family="Times,serif" font-size="14.00">iyy: </text>
<text text-anchor="start" x="898" y="-301.3" font-family="Times,serif" font-size="14.00">xsd:decimal</text>
<text text-anchor="start" x="831" y="-281.3" font-family="Times,serif" font-size="14.00">iyz: </text>
<text text-anchor="start" x="898" y="-281.3" font-family="Times,serif" font-size="14.00">xsd:decimal</text>
<text text-anchor="start" x="831" y="-261.3" font-family="Times,serif" font-size="14.00">izz: </text>
<text text-anchor="start" x="898" y="-261.3" font-family="Times,serif" font-size="14.00">xsd:decimal</text>
<polygon fill="none" stroke="black" points="827,-254 827,-437 987,-437 987,-254 827,-254"/>
</g>
<!-- Inertial&#45;&gt;Inertia -->
<g id="Inertial&#45;inertia&#45;Inertia" class="edge">
<title>Inertial:inertia&#45;&gt;Inertia</title>
<path fill="none" stroke="black" d="M981,-483.5C981,-471.02 978.59,-458.59 974.65,-446.59"/>
<polygon fill="black" stroke="black" points="977.89,-445.26 971.17,-437.07 971.32,-447.66 977.89,-445.26"/>
</g>
<!-- Inertial&#45;&gt;Origin -->
<g id="Inertial&#45;origin&#45;Origin" class="edge">
<title>Inertial:origin&#45;&gt;Origin</title>
<path fill="none" stroke="black" d="M1008,-513.5C1026.54,-513.5 1011.03,-490.18 1018,-473 1028.86,-446.24 1044.64,-418.35 1058.84,-395.58"/>
<polygon fill="black" stroke="black" points="1061.8,-397.44 1064.19,-387.12 1055.89,-393.7 1061.8,-397.44"/>
</g>
<!-- Inertia&#45;&gt;Vector3 -->
<g id="Inertia&#45;com&#45;Vector3" class="edge">
<title>Inertia:com&#45;&gt;Vector3</title>
<path fill="none" stroke="black" d="M986,-385.5C1000.61,-385.5 990.89,-267.37 985,-254 971.51,-223.35 941.31,-198.63 918.96,-183.59"/>
<polygon fill="black" stroke="black" points="920.83,-180.63 910.53,-178.12 917.01,-186.5 920.83,-180.63"/>
</g>
<!-- Visual&#45;&gt;Material -->
<g id="Visual&#45;material&#45;Material" class="edge">
<title>Visual:material&#45;&gt;Material</title>
<path fill="none" stroke="black" d="M788,-473.5C788,-405.64 585.38,-370.85 460.94,-355.88"/>
<polygon fill="black" stroke="black" points="460.98,-352.36 450.64,-354.66 460.16,-359.31 460.98,-352.36"/>
</g>
<!-- Visual&#45;&gt;Box -->
<g id="Visual&#45;geometry&#45;Box" class="edge">
<title>Visual:geometry&#45;&gt;Box</title>
<path fill="none" stroke="black" d="M821,-503.5C843.63,-503.5 806.56,-452.86 803,-437 785.2,-357.64 791.49,-334.51 803,-254 812.15,-190.03 836.55,-118.16 851.26,-78.63"/>
<polygon fill="black" stroke="black" points="854.61,-79.66 854.87,-69.07 848.06,-77.19 854.61,-79.66"/>
</g>
<!-- Visual&#45;&gt;Origin -->
<g id="Visual&#45;origin&#45;Origin" class="edge">
<title>Visual:origin&#45;&gt;Origin</title>
<path fill="none" stroke="black" d="M821,-524.5C852.9,-524.5 843.64,-489.41 871,-473 920.58,-443.26 945.78,-465.63 996,-437 1015.49,-425.89 1034.13,-410.02 1049.7,-394.68"/>
<polygon fill="black" stroke="black" points="1052.55,-396.78 1057.09,-387.21 1047.57,-391.85 1052.55,-396.78"/>
</g>
<!-- Collision&#45;&gt;Cylinder -->
<g id="Collision&#45;geometry&#45;Cylinder" class="edge">
<title>Collision:geometry&#45;&gt;Cylinder</title>
<path fill="none" stroke="black" d="M1145,-483.5C1145,-455.35 1177.74,-463.21 1188,-437 1217.65,-361.26 1194.38,-335.08 1188,-254 1183.1,-191.65 1191.48,-172.12 1166,-115 1161.64,-105.22 1155.46,-95.68 1148.83,-87.02"/>
<polygon fill="black" stroke="black" points="1151.38,-84.61 1142.38,-79.01 1145.93,-89 1151.38,-84.61"/>
</g>
<!-- Collision&#45;&gt;Origin -->
<g id="Collision&#45;origin&#45;Origin" class="edge">
<title>Collision:origin&#45;&gt;Origin</title>
<path fill="none" stroke="black" d="M1178,-513.5C1204.74,-513.5 1161.92,-444.95 1127.69,-395.69"/>
<polygon fill="black" stroke="black" points="1130.46,-393.54 1121.85,-387.35 1124.72,-397.55 1130.46,-393.54"/>
</g>
<!-- ColorRGBA -->
<g id="node18" class="node">
<title>ColorRGBA</title>
<polygon fill="white" stroke="transparent" points="313,-196.5 313,-215.5 411,-215.5 411,-196.5 313,-196.5"/>
<text text-anchor="start" x="315" y="-202.3" font-family="Times,serif" font-size="14.00"> &#160;ColorRGBA </text>
<text text-anchor="start" x="315" y="-182.3" font-family="Times,serif" font-size="14.00">r: </text>
<text text-anchor="start" x="414" y="-182.3" font-family="Times,serif" font-size="14.00">xsd:decimal</text>
<text text-anchor="start" x="315" y="-162.3" font-family="Times,serif" font-size="14.00">g: </text>
<text text-anchor="start" x="414" y="-162.3" font-family="Times,serif" font-size="14.00">xsd:decimal</text>
<text text-anchor="start" x="315" y="-142.3" font-family="Times,serif" font-size="14.00">b: </text>
<text text-anchor="start" x="414" y="-142.3" font-family="Times,serif" font-size="14.00">xsd:decimal</text>
<text text-anchor="start" x="315" y="-122.3" font-family="Times,serif" font-size="14.00">a: </text>
<text text-anchor="start" x="414" y="-122.3" font-family="Times,serif" font-size="14.00">xsd:decimal</text>
<polygon fill="none" stroke="black" points="311,-115 311,-218 503,-218 503,-115 311,-115"/>
</g>
<!-- Material&#45;&gt;ColorRGBA -->
<g id="Material&#45;color&#45;ColorRGBA" class="edge">
<title>Material:color&#45;&gt;ColorRGBA</title>
<path fill="none" stroke="black" d="M407,-324.5C407,-292.68 407,-257.24 407,-228.09"/>
<polygon fill="black" stroke="black" points="410.5,-228.05 407,-218.05 403.5,-228.05 410.5,-228.05"/>
</g>
<!-- Origin&#45;&gt;Geometry -->
<g id="Origin&#45;inherits&#45;Geometry" class="edge">
<title>Origin:inherits&#45;&gt;Geometry</title>
<path fill="none" stroke="black" d="M1178,-355.5C1213.19,-355.5 1150.77,-236.78 1123.65,-188.02"/>
<polygon fill="black" stroke="black" points="1126.69,-186.27 1118.74,-179.26 1120.58,-189.69 1126.69,-186.27"/>
</g>
<!-- JointLimit -->
<g id="node22" class="node">
<title>JointLimit</title>
<polygon fill="white" stroke="transparent" points="400,-1092.5 400,-1111.5 489,-1111.5 489,-1092.5 400,-1092.5"/>
<text text-anchor="start" x="402" y="-1098.3" font-family="Times,serif" font-size="14.00"> &#160;JointLimit </text>
<text text-anchor="start" x="402" y="-1078.3" font-family="Times,serif" font-size="14.00">lower: </text>
<text text-anchor="start" x="492" y="-1078.3" font-family="Times,serif" font-size="14.00">xsd:decimal</text>
<text text-anchor="start" x="402" y="-1058.3" font-family="Times,serif" font-size="14.00">upper: </text>
<text text-anchor="start" x="492" y="-1058.3" font-family="Times,serif" font-size="14.00">xsd:decimal</text>
<text text-anchor="start" x="402" y="-1038.3" font-family="Times,serif" font-size="14.00">effort: </text>
<text text-anchor="start" x="492" y="-1038.3" font-family="Times,serif" font-size="14.00">xsd:decimal</text>
<text text-anchor="start" x="402" y="-1018.3" font-family="Times,serif" font-size="14.00">velocity: </text>
<text text-anchor="start" x="492" y="-1018.3" font-family="Times,serif" font-size="14.00">xsd:decimal</text>
<polygon fill="none" stroke="black" points="397.5,-1011 397.5,-1114 580.5,-1114 580.5,-1011 397.5,-1011"/>
</g>
</g>
</svg>
