<?xml version="1.0" encoding="UTF-8" standalone="no"?>
<!DOCTYPE svg PUBLIC "-//W3C//DTD SVG 1.1//EN"
 "http://www.w3.org/Graphics/SVG/1.1/DTD/svg11.dtd">
<!-- Generated by graphviz version 2.43.0 (0)
 -->
<!-- Title: %3 Pages: 1 -->
<svg width="1168pt" height="434pt"
 viewBox="0.00 0.00 1168.00 433.82" xmlns="http://www.w3.org/2000/svg" xmlns:xlink="http://www.w3.org/1999/xlink">
<g id="graph0" class="graph" transform="scale(1 1) rotate(0) translate(4 429.82)">
<title>%3</title>
<polygon fill="white" stroke="transparent" points="-4,4 -4,-429.82 1164,-429.82 1164,4 -4,4"/>
<g id="clust1" class="cluster">
<title>cluster0</title>
<polygon fill="none" stroke="black" points="8,-8 8,-390 1152,-390 1152,-8 8,-8"/>
<text text-anchor="middle" x="77.5" y="-374.8" font-family="Times,serif" font-size="14.00">Schema: all&#45;v022</text>
</g>
<g id="clust2" class="cluster">
<title>cluster1</title>
<polygon fill="none" stroke="black" points="533,-225 533,-289 1144,-289 1144,-225 533,-225"/>
<text text-anchor="middle" x="587.5" y="-273.8" font-family="Times,serif" font-size="14.00">Cluster: core</text>
</g>
<g id="clust6" class="cluster">
<title>cluster5</title>
<polygon fill="none" stroke="black" points="16,-16 16,-359 525,-359 525,-16 16,-16"/>
<text text-anchor="middle" x="73" y="-343.8" font-family="Times,serif" font-size="14.00">Cluster: state</text>
</g>
<!-- TemporalEntity -->
<g id="node1" class="node">
<title>TemporalEntity</title>
<polygon fill="white" stroke="transparent" points="1008,-235.5 1008,-254.5 1133,-254.5 1133,-235.5 1008,-235.5"/>
<text text-anchor="start" x="1010" y="-241.3" font-family="Times,serif" font-size="14.00"> TemporalEntity </text>
<polygon fill="none" stroke="cornflowerblue" stroke-width="2" points="1005.5,-234 1005.5,-257 1134.5,-257 1134.5,-234 1005.5,-234"/>
</g>
<!-- EntityState -->
<g id="node5" class="node">
<title>EntityState</title>
<polygon fill="white" stroke="transparent" points="27,-245.5 27,-264.5 143,-264.5 143,-245.5 27,-245.5"/>
<text text-anchor="start" x="36.5" y="-251.3" font-family="Times,serif" font-size="14.00"> &#160;EntityState </text>
<text text-anchor="start" x="29" y="-231.3" font-family="Times,serif" font-size="14.00">physicalEntity: </text>
<text text-anchor="start" x="146" y="-231.3" font-family="Times,serif" font-size="14.00">PhysicalEntity</text>
<polygon fill="none" stroke="brown" stroke-width="2" points="24.5,-224 24.5,-267 253.5,-267 253.5,-224 24.5,-224"/>
</g>
<!-- TemporalEntity&#45;&gt;EntityState -->
<g id="TemporalEntity&#45;EntityState" class="edge">
<title>TemporalEntity&#45;&gt;EntityState</title>
<path fill="none" stroke="cornflowerblue" stroke-dasharray="5,2" d="M1068.02,-258.24C1062.29,-290.29 1042.39,-374.1 987,-408 953.17,-428.71 308.88,-424.92 273,-408 215.98,-381.11 174.99,-316.75 154.3,-277.57"/>
<polygon fill="cornflowerblue" stroke="cornflowerblue" points="157.16,-275.49 149.48,-268.2 150.94,-278.69 157.16,-275.49"/>
</g>
<!-- State -->
<g id="node6" class="node">
<title>State</title>
<polygon fill="white" stroke="transparent" points="276,-305.5 276,-324.5 368,-324.5 368,-305.5 276,-305.5"/>
<text text-anchor="start" x="296" y="-311.3" font-family="Times,serif" font-size="14.00"> &#160;State </text>
<text text-anchor="start" x="278" y="-291.3" font-family="Times,serif" font-size="14.00">actor: </text>
<text text-anchor="start" x="371" y="-291.3" font-family="Times,serif" font-size="14.00">CyberPhysicalActor</text>
<text text-anchor="start" x="278" y="-271.3" font-family="Times,serif" font-size="14.00">subSystem: </text>
<text text-anchor="start" x="405" y="-271.3" font-family="Times,serif" font-size="14.00">xsd:string</text>
<text text-anchor="start" x="278" y="-251.3" font-family="Times,serif" font-size="14.00">state: </text>
<text text-anchor="start" x="405" y="-251.3" font-family="Times,serif" font-size="14.00">xsd:string</text>
<text text-anchor="start" x="278" y="-231.3" font-family="Times,serif" font-size="14.00">message: </text>
<text text-anchor="start" x="405" y="-231.3" font-family="Times,serif" font-size="14.00">xsd:string</text>
<text text-anchor="start" x="278" y="-211.3" font-family="Times,serif" font-size="14.00">progress: </text>
<text text-anchor="start" x="399" y="-211.3" font-family="Times,serif" font-size="14.00">xsd:decimal</text>
<text text-anchor="start" x="278" y="-191.3" font-family="Times,serif" font-size="14.00">workItem: </text>
<text text-anchor="start" x="389.5" y="-191.3" font-family="Times,serif" font-size="14.00">PhysicalEntity</text>
<text text-anchor="start" x="278" y="-171.3" font-family="Times,serif" font-size="14.00">error: </text>
<text text-anchor="start" x="421.5" y="-171.3" font-family="Times,serif" font-size="14.00">Error</text>
<polygon fill="none" stroke="brown" stroke-width="2" points="274,-164 274,-327 516,-327 516,-164 274,-164"/>
</g>
<!-- TemporalEntity&#45;&gt;State -->
<g id="TemporalEntity&#45;State" class="edge">
<title>TemporalEntity&#45;&gt;State</title>
<path fill="none" stroke="cornflowerblue" stroke-dasharray="5,2" d="M1068.02,-258.24C1062.29,-290.29 1042.39,-374.1 987,-408 944.45,-434.05 583.46,-428.55 538,-408 503.88,-392.58 474.66,-364.54 451.69,-336.05"/>
<polygon fill="cornflowerblue" stroke="cornflowerblue" points="454.31,-333.72 445.38,-328.02 448.8,-338.04 454.31,-333.72"/>
</g>
<!-- PhysicalEntity -->
<g id="node2" class="node">
<title>PhysicalEntity</title>
<polygon fill="white" stroke="transparent" points="867,-235.5 867,-254.5 984,-254.5 984,-235.5 867,-235.5"/>
<text text-anchor="start" x="869" y="-241.3" font-family="Times,serif" font-size="14.00"> PhysicalEntity </text>
<polygon fill="none" stroke="#1e8449" stroke-width="2" points="864.5,-234 864.5,-257 985.5,-257 985.5,-234 864.5,-234"/>
</g>
<!-- CyberPhysicalActor -->
<g id="node3" class="node">
<title>CyberPhysicalActor</title>
<polygon fill="white" stroke="transparent" points="688,-235.5 688,-254.5 842,-254.5 842,-235.5 688,-235.5"/>
<text text-anchor="start" x="690" y="-241.3" font-family="Times,serif" font-size="14.00"> CyberPhysicalActor </text>
<polygon fill="none" stroke="purple" stroke-width="2" points="686,-234 686,-257 844,-257 844,-234 686,-234"/>
</g>
<!-- AbstractEntity -->
<g id="node4" class="node">
<title>AbstractEntity</title>
<polygon fill="white" stroke="transparent" points="545,-235.5 545,-254.5 664,-254.5 664,-235.5 545,-235.5"/>
<text text-anchor="start" x="547" y="-241.3" font-family="Times,serif" font-size="14.00"> AbstractEntity </text>
<polygon fill="none" stroke="aquamarine" stroke-width="2" points="542.5,-234 542.5,-257 665.5,-257 665.5,-234 542.5,-234"/>
</g>
<!-- Error -->
<g id="node7" class="node">
<title>Error</title>
<polygon fill="white" stroke="transparent" points="335,-105.5 335,-124.5 426,-124.5 426,-105.5 335,-105.5"/>
<text text-anchor="start" x="354" y="-111.3" font-family="Times,serif" font-size="14.00"> &#160;Error </text>
<text text-anchor="start" x="337" y="-91.3" font-family="Times,serif" font-size="14.00">health: </text>
<text text-anchor="start" x="435" y="-91.3" font-family="Times,serif" font-size="14.00">xsd:string</text>
<text text-anchor="start" x="337" y="-71.3" font-family="Times,serif" font-size="14.00">message: </text>
<text text-anchor="start" x="435" y="-71.3" font-family="Times,serif" font-size="14.00">xsd:string</text>
<text text-anchor="start" x="337" y="-51.3" font-family="Times,serif" font-size="14.00">stackTrace: </text>
<text text-anchor="start" x="435" y="-51.3" font-family="Times,serif" font-size="14.00">xsd:string</text>
<text text-anchor="start" x="337" y="-31.3" font-family="Times,serif" font-size="14.00">isBlocking: </text>
<text text-anchor="start" x="429" y="-31.3" font-family="Times,serif" font-size="14.00">xsd:boolean</text>
<polygon fill="none" stroke="black" points="332.5,-24 332.5,-127 517.5,-127 517.5,-24 332.5,-24"/>
</g>
<!-- AbstractEntity&#45;&gt;Error -->
<g id="AbstractEntity&#45;Error" class="edge">
<title>AbstractEntity&#45;&gt;Error</title>
<path fill="none" stroke="aquamarine" stroke-dasharray="5,2" d="M594.26,-232.98C580.37,-216.78 553.8,-186.59 529,-163 518.7,-153.2 507.46,-143.2 496.29,-133.64"/>
<polygon fill="aquamarine" stroke="aquamarine" points="498.47,-130.91 488.59,-127.1 493.94,-136.24 498.47,-130.91"/>
</g>
<!-- EntityState&#45;&gt;PhysicalEntity -->
<g id="EntityState&#45;physicalEntity&#45;PhysicalEntity" class="edge">
<title>EntityState:physicalEntity&#45;&gt;PhysicalEntity</title>
<path fill="none" stroke="brown" d="M253,-234.5C270.32,-234.5 259.43,-373.29 264,-390 266.36,-398.63 265.39,-403.3 273,-408 300.03,-424.71 817.97,-424.71 845,-408 894.69,-377.29 914.39,-305.57 921.46,-268.54"/>
<polygon fill="brown" stroke="brown" points="924.99,-268.7 923.27,-258.24 918.09,-267.49 924.99,-268.7"/>
</g>
<!-- ServiceState -->
<g id="node8" class="node">
<title>ServiceState</title>
<polygon fill="white" stroke="transparent" points="40,-65.5 40,-84.5 150,-84.5 150,-65.5 40,-65.5"/>
<text text-anchor="start" x="42" y="-71.3" font-family="Times,serif" font-size="14.00"> &#160;ServiceState </text>
<polygon fill="none" stroke="brown" stroke-width="2" points="38,-64 38,-87 152,-87 152,-64 38,-64"/>
</g>
<!-- EntityState&#45;&gt;ServiceState -->
<g id="EntityState&#45;ServiceState" class="edge">
<title>EntityState&#45;&gt;ServiceState</title>
<path fill="none" stroke="brown" stroke-dasharray="5,2" d="M133.34,-222.88C124.87,-190.55 109.01,-129.99 100.59,-97.83"/>
<polygon fill="brown" stroke="brown" points="103.96,-96.88 98.04,-88.1 97.19,-98.66 103.96,-96.88"/>
</g>
<!-- State&#45;&gt;PhysicalEntity -->
<g id="State&#45;workItem&#45;PhysicalEntity" class="edge">
<title>State:workItem&#45;&gt;PhysicalEntity</title>
<path fill="none" stroke="brown" d="M515,-194.5C536.78,-194.5 523.24,-369 529,-390 531.36,-398.63 530.39,-403.3 538,-408 567.02,-425.93 815.98,-425.93 845,-408 894.69,-377.29 914.39,-305.57 921.46,-268.54"/>
<polygon fill="brown" stroke="brown" points="924.99,-268.7 923.27,-258.24 918.09,-267.49 924.99,-268.7"/>
</g>
<!-- State&#45;&gt;CyberPhysicalActor -->
<g id="State&#45;actor&#45;CyberPhysicalActor" class="edge">
<title>State:actor&#45;&gt;CyberPhysicalActor</title>
<path fill="none" stroke="brown" d="M515,-295.5C536.23,-295.5 522.62,-369.75 529,-390 531.69,-398.53 530.39,-403.3 538,-408 562.39,-423.07 642.04,-422.1 667,-408 720.53,-377.77 748.09,-305.29 759.1,-268.2"/>
<polygon fill="brown" stroke="brown" points="762.54,-268.9 761.88,-258.32 755.8,-267 762.54,-268.9"/>
</g>
<!-- State&#45;&gt;Error -->
<g id="State&#45;error&#45;Error" class="edge">
<title>State:error&#45;&gt;Error</title>
<path fill="none" stroke="brown" d="M442,-164.5C442,-155.68 441.17,-146.46 439.87,-137.43"/>
<polygon fill="brown" stroke="brown" points="443.29,-136.67 438.23,-127.37 436.38,-137.8 443.29,-136.67"/>
</g>
<!-- SubSystemState -->
<g id="node9" class="node">
<title>SubSystemState</title>
<polygon fill="white" stroke="transparent" points="175,-65.5 175,-84.5 312,-84.5 312,-65.5 175,-65.5"/>
<text text-anchor="start" x="177" y="-71.3" font-family="Times,serif" font-size="14.00"> &#160;SubSystemState </text>
<polygon fill="none" stroke="brown" stroke-width="2" points="172.5,-64 172.5,-87 313.5,-87 313.5,-64 172.5,-64"/>
</g>
<!-- State&#45;&gt;SubSystemState -->
<g id="State&#45;SubSystemState" class="edge">
<title>State&#45;&gt;SubSystemState</title>
<path fill="none" stroke="brown" stroke-dasharray="5,2" d="M321.23,-162.96C298.48,-137.81 275.46,-112.37 260.34,-95.66"/>
<polygon fill="brown" stroke="brown" points="262.89,-93.27 253.59,-88.2 257.7,-97.97 262.89,-93.27"/>
</g>
</g>
</svg>
