<?xml version="1.0" encoding="UTF-8" standalone="no"?>
<!DOCTYPE svg PUBLIC "-//W3C//DTD SVG 1.1//EN"
 "http://www.w3.org/Graphics/SVG/1.1/DTD/svg11.dtd">
<!-- Generated by graphviz version 2.43.0 (0)
 -->
<!-- Title: %3 Pages: 1 -->
<svg width="282pt" height="209pt"
 viewBox="0.00 0.00 282.00 209.00" xmlns="http://www.w3.org/2000/svg" xmlns:xlink="http://www.w3.org/1999/xlink">
<g id="graph0" class="graph" transform="scale(1 1) rotate(0) translate(4 205)">
<title>%3</title>
<polygon fill="white" stroke="transparent" points="-4,4 -4,-205 278,-205 278,4 -4,4"/>
<g id="clust1" class="cluster">
<title>cluster0</title>
<polygon fill="none" stroke="black" points="8,-8 8,-193 266,-193 266,-8 8,-8"/>
<text text-anchor="middle" x="97.5" y="-177.8" font-family="Times,serif" font-size="14.00">Schema: digitech&#45;v022</text>
</g>
<!-- AbstractEntity -->
<g id="node1" class="node">
<title>AbstractEntity</title>
<polygon fill="white" stroke="transparent" points="78,-139.5 78,-158.5 197,-158.5 197,-139.5 78,-139.5"/>
<text text-anchor="start" x="80" y="-145.3" font-family="Times,serif" font-size="14.00"> AbstractEntity </text>
<polygon fill="none" stroke="aquamarine" stroke-width="2" points="75.5,-138 75.5,-161 198.5,-161 198.5,-138 75.5,-138"/>
</g>
<!-- ProductInformation -->
<g id="node2" class="node">
<title>ProductInformation</title>
<polygon fill="white" stroke="transparent" points="19,-78.5 19,-97.5 177,-97.5 177,-78.5 19,-78.5"/>
<text text-anchor="start" x="21" y="-84.3" font-family="Times,serif" font-size="14.00"> &#160;ProductInformation </text>
<text text-anchor="start" x="21" y="-64.3" font-family="Times,serif" font-size="14.00">make: </text>
<text text-anchor="start" x="180" y="-64.3" font-family="Times,serif" font-size="14.00">xsd:string</text>
<text text-anchor="start" x="21" y="-44.3" font-family="Times,serif" font-size="14.00">model: </text>
<text text-anchor="start" x="180" y="-44.3" font-family="Times,serif" font-size="14.00">xsd:string</text>
<text text-anchor="start" x="21" y="-24.3" font-family="Times,serif" font-size="14.00">version: </text>
<text text-anchor="start" x="180" y="-24.3" font-family="Times,serif" font-size="14.00">xsd:string</text>
<polygon fill="none" stroke="#1e8449" stroke-width="2" points="17,-17 17,-100 257,-100 257,-17 17,-17"/>
</g>
<!-- AbstractEntity&#45;&gt;ProductInformation -->
<g id="AbstractEntity&#45;ProductInformation" class="edge">
<title>AbstractEntity&#45;&gt;ProductInformation</title>
<path fill="none" stroke="aquamarine" stroke-dasharray="5,2" d="M137,-136.86C137,-130.08 137,-120.99 137,-111.44"/>
<polygon fill="aquamarine" stroke="aquamarine" points="140.5,-111.38 137,-101.38 133.5,-111.38 140.5,-111.38"/>
</g>
</g>
</svg>
