<?xml version="1.0" encoding="UTF-8" standalone="no"?>
<!DOCTYPE svg PUBLIC "-//W3C//DTD SVG 1.1//EN"
 "http://www.w3.org/Graphics/SVG/1.1/DTD/svg11.dtd">
<!-- Generated by graphviz version 2.43.0 (0)
 -->
<!-- Title: %3 Pages: 1 -->
<svg width="800pt" height="587pt"
 viewBox="0.00 0.00 800.00 587.00" xmlns="http://www.w3.org/2000/svg" xmlns:xlink="http://www.w3.org/1999/xlink">
<g id="graph0" class="graph" transform="scale(1 1) rotate(0) translate(4 583)">
<title>%3</title>
<polygon fill="white" stroke="transparent" points="-4,4 -4,-583 796,-583 796,4 -4,4"/>
<g id="clust1" class="cluster">
<title>cluster0</title>
<polygon fill="none" stroke="black" points="8,-8 8,-571 784,-571 784,-8 8,-8"/>
<text text-anchor="middle" x="114" y="-555.8" font-family="Times,serif" font-size="14.00">Schema: facilityCobot&#45;v022</text>
</g>
<!-- AbstractEntity -->
<g id="node1" class="node">
<title>AbstractEntity</title>
<polygon fill="white" stroke="transparent" points="389,-517.5 389,-536.5 508,-536.5 508,-517.5 389,-517.5"/>
<text text-anchor="start" x="391" y="-523.3" font-family="Times,serif" font-size="14.00"> AbstractEntity </text>
<polygon fill="none" stroke="aquamarine" stroke-width="2" points="386.5,-516 386.5,-539 509.5,-539 509.5,-516 386.5,-516"/>
</g>
<!-- Geometry -->
<g id="node3" class="node">
<title>Geometry</title>
<polygon fill="white" stroke="transparent" points="404,-456.5 404,-475.5 493,-475.5 493,-456.5 404,-456.5"/>
<text text-anchor="start" x="406" y="-462.3" font-family="Times,serif" font-size="14.00"> &#160;Geometry </text>
<polygon fill="none" stroke="cyan" stroke-width="2" points="401.5,-455 401.5,-478 494.5,-478 494.5,-455 401.5,-455"/>
</g>
<!-- AbstractEntity&#45;&gt;Geometry -->
<g id="AbstractEntity&#45;Geometry" class="edge">
<title>AbstractEntity&#45;&gt;Geometry</title>
<path fill="none" stroke="aquamarine" stroke-dasharray="5,2" d="M448,-514.84C448,-507.57 448,-497.98 448,-489.33"/>
<polygon fill="aquamarine" stroke="aquamarine" points="451.5,-489.13 448,-479.13 444.5,-489.13 451.5,-489.13"/>
</g>
<!-- PhysicalEntity -->
<g id="node2" class="node">
<title>PhysicalEntity</title>
<polygon fill="white" stroke="transparent" points="656,-285.5 656,-304.5 773,-304.5 773,-285.5 656,-285.5"/>
<text text-anchor="start" x="658" y="-291.3" font-family="Times,serif" font-size="14.00"> PhysicalEntity </text>
<polygon fill="none" stroke="#1e8449" stroke-width="2" points="653.5,-284 653.5,-307 774.5,-307 774.5,-284 653.5,-284"/>
</g>
<!-- Polygon -->
<g id="node4" class="node">
<title>Polygon</title>
<polygon fill="white" stroke="transparent" points="485,-295.5 485,-314.5 559,-314.5 559,-295.5 485,-295.5"/>
<text text-anchor="start" x="487" y="-301.3" font-family="Times,serif" font-size="14.00"> &#160;Polygon </text>
<text text-anchor="start" x="487" y="-281.3" font-family="Times,serif" font-size="14.00">points: </text>
<text text-anchor="start" x="562" y="-281.3" font-family="Times,serif" font-size="14.00">[Point]</text>
<polygon fill="none" stroke="black" points="482.5,-274 482.5,-317 613.5,-317 613.5,-274 482.5,-274"/>
</g>
<!-- Geometry&#45;&gt;Polygon -->
<g id="Geometry&#45;Polygon" class="edge">
<title>Geometry&#45;&gt;Polygon</title>
<path fill="none" stroke="cyan" stroke-dasharray="5,2" d="M446.02,-453.94C442.94,-432.33 439.26,-385.1 459,-353 466.63,-340.59 478.13,-330.43 490.34,-322.32"/>
<polygon fill="cyan" stroke="cyan" points="492.22,-325.28 498.88,-317.04 488.53,-319.33 492.22,-325.28"/>
</g>
<!-- Orientation -->
<g id="node5" class="node">
<title>Orientation</title>
<polygon fill="white" stroke="transparent" points="189,-385.5 189,-404.5 289,-404.5 289,-385.5 189,-385.5"/>
<text text-anchor="start" x="191" y="-391.3" font-family="Times,serif" font-size="14.00"> &#160;Orientation </text>
<text text-anchor="start" x="191" y="-371.3" font-family="Times,serif" font-size="14.00">orientation: </text>
<text text-anchor="start" x="292" y="-371.3" font-family="Times,serif" font-size="14.00">Quaternion</text>
<polygon fill="none" stroke="black" points="187,-364 187,-407 377,-407 377,-364 187,-364"/>
</g>
<!-- Geometry&#45;&gt;Orientation -->
<g id="Geometry&#45;Orientation" class="edge">
<title>Geometry&#45;&gt;Orientation</title>
<path fill="none" stroke="cyan" stroke-dasharray="5,2" d="M423.51,-453.84C400.13,-442.72 364.16,-425.6 334.33,-411.41"/>
<polygon fill="cyan" stroke="cyan" points="335.83,-408.24 325.3,-407.1 332.82,-414.56 335.83,-408.24"/>
</g>
<!-- Location -->
<g id="node8" class="node">
<title>Location</title>
<polygon fill="white" stroke="transparent" points="471,-395.5 471,-414.5 557,-414.5 557,-395.5 471,-395.5"/>
<text text-anchor="start" x="476.5" y="-401.3" font-family="Times,serif" font-size="14.00"> &#160;Location </text>
<text text-anchor="start" x="473" y="-381.3" font-family="Times,serif" font-size="14.00">locationOf: </text>
<text text-anchor="start" x="560" y="-381.3" font-family="Times,serif" font-size="14.00">PhysicalEntity</text>
<text text-anchor="start" x="473" y="-361.3" font-family="Times,serif" font-size="14.00">locationIn: </text>
<text text-anchor="start" x="583.5" y="-361.3" font-family="Times,serif" font-size="14.00">Polygon</text>
<polygon fill="none" stroke="cyan" stroke-width="2" points="468.5,-354 468.5,-417 667.5,-417 667.5,-354 468.5,-354"/>
</g>
<!-- Geometry&#45;&gt;Location -->
<g id="Geometry&#45;Location" class="edge">
<title>Geometry&#45;&gt;Location</title>
<path fill="none" stroke="cyan" stroke-dasharray="5,2" d="M465.71,-453.84C477.92,-445.8 494.89,-434.63 511.5,-423.69"/>
<polygon fill="cyan" stroke="cyan" points="513.7,-426.44 520.13,-418.01 509.85,-420.59 513.7,-426.44"/>
</g>
<!-- Point -->
<g id="node13" class="node">
<title>Point</title>
<polygon fill="white" stroke="transparent" points="549,-87.5 549,-106.5 604,-106.5 604,-87.5 549,-87.5"/>
<text text-anchor="start" x="551" y="-93.3" font-family="Times,serif" font-size="14.00"> &#160;Point </text>
<text text-anchor="start" x="551" y="-73.3" font-family="Times,serif" font-size="14.00">x: </text>
<text text-anchor="start" x="607" y="-73.3" font-family="Times,serif" font-size="14.00">xsd:decimal</text>
<text text-anchor="start" x="551" y="-53.3" font-family="Times,serif" font-size="14.00">y: </text>
<text text-anchor="start" x="607" y="-53.3" font-family="Times,serif" font-size="14.00">xsd:decimal</text>
<text text-anchor="start" x="551" y="-33.3" font-family="Times,serif" font-size="14.00">z: </text>
<text text-anchor="start" x="607" y="-33.3" font-family="Times,serif" font-size="14.00">xsd:decimal</text>
<polygon fill="none" stroke="black" points="546.5,-26 546.5,-109 695.5,-109 695.5,-26 546.5,-26"/>
</g>
<!-- Polygon&#45;&gt;Point -->
<g id="Polygon&#45;points&#45;Point" class="edge">
<title>Polygon:points&#45;&gt;Point</title>
<path fill="none" stroke="black" d="M586,-274.5C586,-254.84 604.63,-256.6 611,-238 624.1,-199.71 626.03,-153.73 625,-119.33"/>
<polygon fill="black" stroke="black" points="628.48,-118.9 624.59,-109.05 621.49,-119.18 628.48,-118.9"/>
</g>
<!-- Quaternion -->
<g id="node9" class="node">
<title>Quaternion</title>
<polygon fill="white" stroke="transparent" points="231,-97.5 231,-116.5 329,-116.5 329,-97.5 231,-97.5"/>
<text text-anchor="start" x="233" y="-103.3" font-family="Times,serif" font-size="14.00"> &#160;Quaternion </text>
<text text-anchor="start" x="233" y="-83.3" font-family="Times,serif" font-size="14.00">x: </text>
<text text-anchor="start" x="332" y="-83.3" font-family="Times,serif" font-size="14.00">xsd:decimal</text>
<text text-anchor="start" x="233" y="-63.3" font-family="Times,serif" font-size="14.00">y: </text>
<text text-anchor="start" x="332" y="-63.3" font-family="Times,serif" font-size="14.00">xsd:decimal</text>
<text text-anchor="start" x="233" y="-43.3" font-family="Times,serif" font-size="14.00">z: </text>
<text text-anchor="start" x="332" y="-43.3" font-family="Times,serif" font-size="14.00">xsd:decimal</text>
<text text-anchor="start" x="233" y="-23.3" font-family="Times,serif" font-size="14.00">w: </text>
<text text-anchor="start" x="332" y="-23.3" font-family="Times,serif" font-size="14.00">xsd:decimal</text>
<polygon fill="none" stroke="black" points="229,-16 229,-119 421,-119 421,-16 229,-16"/>
</g>
<!-- Orientation&#45;&gt;Quaternion -->
<g id="Orientation&#45;orientation&#45;Quaternion" class="edge">
<title>Orientation:orientation&#45;&gt;Quaternion</title>
<path fill="none" stroke="black" d="M333,-364.5C333,-291.15 252.06,-306.94 227,-238 214.4,-203.33 211.83,-188.63 227,-155 231.62,-144.76 238.12,-135.25 245.59,-126.56"/>
<polygon fill="black" stroke="black" points="248.21,-128.88 252.39,-119.14 243.05,-124.15 248.21,-128.88"/>
</g>
<!-- Pose -->
<g id="node6" class="node">
<title>Pose</title>
<polygon fill="white" stroke="transparent" points="411,-285.5 411,-304.5 462,-304.5 462,-285.5 411,-285.5"/>
<text text-anchor="start" x="413" y="-291.3" font-family="Times,serif" font-size="14.00"> &#160;Pose </text>
<polygon fill="none" stroke="cyan" stroke-width="2" points="408.5,-284 408.5,-307 463.5,-307 463.5,-284 408.5,-284"/>
</g>
<!-- Pose3D -->
<g id="node7" class="node">
<title>Pose3D</title>
<polygon fill="white" stroke="transparent" points="238,-206.5 238,-225.5 330,-225.5 330,-206.5 238,-206.5"/>
<text text-anchor="start" x="250.5" y="-212.3" font-family="Times,serif" font-size="14.00"> &#160;Pose3D </text>
<text text-anchor="start" x="240" y="-192.3" font-family="Times,serif" font-size="14.00">position: </text>
<text text-anchor="start" x="355" y="-192.3" font-family="Times,serif" font-size="14.00">Point</text>
<text text-anchor="start" x="240" y="-172.3" font-family="Times,serif" font-size="14.00">orientation: </text>
<text text-anchor="start" x="333" y="-172.3" font-family="Times,serif" font-size="14.00">Quaternion</text>
<polygon fill="none" stroke="black" points="236,-165 236,-228 418,-228 418,-165 236,-165"/>
</g>
<!-- Pose&#45;&gt;Pose3D -->
<g id="Pose&#45;Pose3D" class="edge">
<title>Pose&#45;&gt;Pose3D</title>
<path fill="none" stroke="cyan" stroke-dasharray="5,2" d="M423.07,-282.99C409.73,-271.12 388.2,-251.96 368.9,-234.79"/>
<polygon fill="cyan" stroke="cyan" points="371.16,-232.11 361.36,-228.08 366.51,-237.34 371.16,-232.11"/>
</g>
<!-- Pose2D -->
<g id="node11" class="node">
<title>Pose2D</title>
<polygon fill="white" stroke="transparent" points="439,-216.5 439,-235.5 510,-235.5 510,-216.5 439,-216.5"/>
<text text-anchor="start" x="441" y="-222.3" font-family="Times,serif" font-size="14.00"> &#160;Pose2D </text>
<text text-anchor="start" x="441" y="-202.3" font-family="Times,serif" font-size="14.00">x: </text>
<text text-anchor="start" x="513" y="-202.3" font-family="Times,serif" font-size="14.00">xsd:decimal</text>
<text text-anchor="start" x="441" y="-182.3" font-family="Times,serif" font-size="14.00">y: </text>
<text text-anchor="start" x="513" y="-182.3" font-family="Times,serif" font-size="14.00">xsd:decimal</text>
<text text-anchor="start" x="441" y="-162.3" font-family="Times,serif" font-size="14.00">theta: </text>
<text text-anchor="start" x="513" y="-162.3" font-family="Times,serif" font-size="14.00">xsd:decimal</text>
<polygon fill="none" stroke="black" points="436.5,-155 436.5,-238 601.5,-238 601.5,-155 436.5,-155"/>
</g>
<!-- Pose&#45;&gt;Pose2D -->
<g id="Pose&#45;Pose2D" class="edge">
<title>Pose&#45;&gt;Pose2D</title>
<path fill="none" stroke="cyan" stroke-dasharray="5,2" d="M445.85,-282.99C453.82,-273.68 465.62,-259.88 477.44,-246.07"/>
<polygon fill="cyan" stroke="cyan" points="480.14,-248.3 483.98,-238.43 474.82,-243.75 480.14,-248.3"/>
</g>
<!-- Pose3D&#45;&gt;Quaternion -->
<g id="Pose3D&#45;orientation&#45;Quaternion" class="edge">
<title>Pose3D:orientation&#45;&gt;Quaternion</title>
<path fill="none" stroke="black" d="M374,-165.5C374,-152.85 370.64,-140.16 365.67,-128.34"/>
<polygon fill="black" stroke="black" points="368.75,-126.66 361.38,-119.05 362.4,-129.6 368.75,-126.66"/>
</g>
<!-- Pose3D&#45;&gt;Point -->
<g id="Pose3D&#45;position&#45;Point" class="edge">
<title>Pose3D:position&#45;&gt;Point</title>
<path fill="none" stroke="black" d="M417,-195.5C435.65,-195.5 415.88,-169.18 428,-155 455.93,-122.32 498.69,-101.44 536.86,-88.4"/>
<polygon fill="black" stroke="black" points="538.04,-91.7 546.45,-85.26 535.86,-85.05 538.04,-91.7"/>
</g>
<!-- Location&#45;&gt;PhysicalEntity -->
<g id="Location&#45;locationOf&#45;PhysicalEntity" class="edge">
<title>Location:locationOf&#45;&gt;PhysicalEntity</title>
<path fill="none" stroke="cyan" d="M667,-384.5C697.01,-384.5 707.93,-344.2 711.85,-318.14"/>
<polygon fill="cyan" stroke="cyan" points="715.35,-318.37 713.14,-308 708.4,-317.48 715.35,-318.37"/>
</g>
<!-- Location&#45;&gt;Polygon -->
<g id="Location&#45;locationIn&#45;Polygon" class="edge">
<title>Location:locationIn&#45;&gt;Polygon</title>
<path fill="none" stroke="cyan" d="M612,-354.5C612,-342.32 605.55,-332.02 596.75,-323.65"/>
<polygon fill="cyan" stroke="cyan" points="598.81,-320.81 588.89,-317.07 594.31,-326.17 598.81,-320.81"/>
</g>
<!-- Location&#45;&gt;Pose -->
<g id="Location&#45;Pose" class="edge">
<title>Location&#45;&gt;Pose</title>
<path fill="none" stroke="cyan" stroke-dasharray="5,2" d="M520.72,-352.98C500.99,-339.83 478.84,-325.06 462.13,-313.92"/>
<polygon fill="cyan" stroke="cyan" points="463.72,-310.78 453.46,-308.14 459.84,-316.6 463.72,-310.78"/>
</g>
<!-- Cartesian -->
<g id="node14" class="node">
<title>Cartesian</title>
<polygon fill="white" stroke="transparent" points="644,-196.5 644,-215.5 731,-215.5 731,-196.5 644,-196.5"/>
<text text-anchor="start" x="646" y="-202.3" font-family="Times,serif" font-size="14.00"> &#160;Cartesian </text>
<text text-anchor="start" x="646" y="-182.3" font-family="Times,serif" font-size="14.00">point: </text>
<text text-anchor="start" x="734" y="-182.3" font-family="Times,serif" font-size="14.00">Point</text>
<polygon fill="none" stroke="cyan" stroke-width="2" points="641.5,-175 641.5,-218 774.5,-218 774.5,-175 641.5,-175"/>
</g>
<!-- Location&#45;&gt;Cartesian -->
<g id="Location&#45;Cartesian" class="edge">
<title>Location&#45;&gt;Cartesian</title>
<path fill="none" stroke="cyan" stroke-dasharray="5,2" d="M596.43,-352.68C605.49,-341.77 615.18,-329.23 623,-317 634.46,-299.08 632.42,-291.84 644,-274 654.71,-257.48 668.53,-240.55 680.59,-226.83"/>
<polygon fill="cyan" stroke="cyan" points="683.4,-228.94 687.44,-219.15 678.17,-224.28 683.4,-228.94"/>
</g>
<!-- Transform -->
<g id="node10" class="node">
<title>Transform</title>
<polygon fill="white" stroke="transparent" points="18,-206.5 18,-225.5 110,-225.5 110,-206.5 18,-206.5"/>
<text text-anchor="start" x="20" y="-212.3" font-family="Times,serif" font-size="14.00"> &#160;Transform </text>
<text text-anchor="start" x="20" y="-192.3" font-family="Times,serif" font-size="14.00">translation: </text>
<text text-anchor="start" x="126" y="-192.3" font-family="Times,serif" font-size="14.00">Vector3</text>
<text text-anchor="start" x="20" y="-172.3" font-family="Times,serif" font-size="14.00">rotation: </text>
<text text-anchor="start" x="113" y="-172.3" font-family="Times,serif" font-size="14.00">Quaternion</text>
<polygon fill="none" stroke="black" points="16,-165 16,-228 198,-228 198,-165 16,-165"/>
</g>
<!-- Transform&#45;&gt;Quaternion -->
<g id="Transform&#45;rotation&#45;Quaternion" class="edge">
<title>Transform:rotation&#45;&gt;Quaternion</title>
<path fill="none" stroke="black" d="M197,-175.5C208.29,-175.5 204.1,-163.07 212,-155 221.97,-144.81 233.18,-134.83 244.57,-125.46"/>
<polygon fill="black" stroke="black" points="246.89,-128.09 252.48,-119.09 242.5,-122.64 246.89,-128.09"/>
</g>
<!-- Vector3 -->
<g id="node12" class="node">
<title>Vector3</title>
<polygon fill="white" stroke="transparent" points="46,-87.5 46,-106.5 119,-106.5 119,-87.5 46,-87.5"/>
<text text-anchor="start" x="48" y="-93.3" font-family="Times,serif" font-size="14.00"> &#160;Vector3 </text>
<text text-anchor="start" x="48" y="-73.3" font-family="Times,serif" font-size="14.00">x: </text>
<text text-anchor="start" x="122" y="-73.3" font-family="Times,serif" font-size="14.00">xsd:decimal</text>
<text text-anchor="start" x="48" y="-53.3" font-family="Times,serif" font-size="14.00">y: </text>
<text text-anchor="start" x="122" y="-53.3" font-family="Times,serif" font-size="14.00">xsd:decimal</text>
<text text-anchor="start" x="48" y="-33.3" font-family="Times,serif" font-size="14.00">z: </text>
<text text-anchor="start" x="122" y="-33.3" font-family="Times,serif" font-size="14.00">xsd:decimal</text>
<polygon fill="none" stroke="black" points="43.5,-26 43.5,-109 210.5,-109 210.5,-26 43.5,-26"/>
</g>
<!-- Transform&#45;&gt;Vector3 -->
<g id="Transform&#45;translation&#45;Vector3" class="edge">
<title>Transform:translation&#45;&gt;Vector3</title>
<path fill="none" stroke="black" d="M197,-195.5C210.56,-195.5 200.35,-177.85 196,-165 190.31,-148.21 180.64,-131.79 170.31,-117.4"/>
<polygon fill="black" stroke="black" points="172.96,-115.1 164.18,-109.18 167.35,-119.29 172.96,-115.1"/>
</g>
<!-- Cartesian&#45;&gt;Point -->
<g id="Cartesian&#45;point&#45;Point" class="edge">
<title>Cartesian:point&#45;&gt;Point</title>
<path fill="none" stroke="cyan" d="M753,-175.5C753,-144.49 730.74,-120.9 704.51,-103.87"/>
<polygon fill="cyan" stroke="cyan" points="706.22,-100.82 695.87,-98.58 702.56,-106.79 706.22,-100.82"/>
</g>
</g>
</svg>
