<?xml version="1.0" encoding="UTF-8" standalone="no"?>
<!DOCTYPE svg PUBLIC "-//W3C//DTD SVG 1.1//EN"
 "http://www.w3.org/Graphics/SVG/1.1/DTD/svg11.dtd">
<!-- Generated by graphviz version 2.43.0 (0)
 -->
<!-- Title: %3 Pages: 1 -->
<svg width="835pt" height="1294pt"
 viewBox="0.00 0.00 835.33 1294.00" xmlns="http://www.w3.org/2000/svg" xmlns:xlink="http://www.w3.org/1999/xlink">
<g id="graph0" class="graph" transform="scale(1 1) rotate(0) translate(4 1290)">
<title>%3</title>
<polygon fill="white" stroke="transparent" points="-4,4 -4,-1290 831.33,-1290 831.33,4 -4,4"/>
<g id="clust1" class="cluster">
<title>cluster0</title>
<polygon fill="none" stroke="black" points="8,-8 8,-1278 804,-1278 804,-8 8,-8"/>
<text text-anchor="middle" x="83" y="-1262.8" font-family="Times,serif" font-size="14.00">Schema: fera&#45;v001</text>
</g>
<g id="clust2" class="cluster">
<title>cluster1</title>
<polygon fill="none" stroke="black" points="107,-1179 107,-1247 291,-1247 291,-1179 107,-1179"/>
<text text-anchor="middle" x="159" y="-1231.8" font-family="Times,serif" font-size="14.00">Cluster: usd</text>
</g>
<g id="clust3" class="cluster">
<title>cluster2</title>
<polygon fill="none" stroke="black" points="16,-16 16,-1171 796,-1171 796,-16 16,-16"/>
<text text-anchor="middle" x="66.5" y="-1155.8" font-family="Times,serif" font-size="14.00">Cluster: dul</text>
</g>
<!-- UsdMultiAppliedAPI -->
<g id="node1" class="node">
<title>UsdMultiAppliedAPI</title>
<polygon fill="white" stroke="transparent" points="120,-1191.5 120,-1210.5 279,-1210.5 279,-1191.5 120,-1191.5"/>
<text text-anchor="start" x="122" y="-1197.3" font-family="Times,serif" font-size="14.00"> UsdMultiAppliedAPI </text>
<polygon fill="none" stroke="blue" stroke-width="4" points="116.5,-1189 116.5,-1214 281.5,-1214 281.5,-1189 116.5,-1189"/>
</g>
<!-- Entity -->
<g id="node2" class="node">
<title>Entity</title>
<polygon fill="white" stroke="transparent" points="129,-1117.5 129,-1136.5 191,-1136.5 191,-1117.5 129,-1117.5"/>
<text text-anchor="start" x="131" y="-1123.3" font-family="Times,serif" font-size="14.00"> &#160;Entity </text>
<text text-anchor="start" x="131" y="-1103.3" font-family="Times,serif" font-size="14.00">name: </text>
<text text-anchor="start" x="194" y="-1103.3" font-family="Times,serif" font-size="14.00">xsd:string</text>
<polygon fill="none" stroke="pink" stroke-width="2" points="127,-1096 127,-1139 271,-1139 271,-1096 127,-1096"/>
</g>
<!-- UsdMultiAppliedAPI&#45;&gt;Entity -->
<g id="UsdMultiAppliedAPI&#45;Entity" class="edge">
<title>UsdMultiAppliedAPI&#45;&gt;Entity</title>
<path fill="none" stroke="blue" stroke-dasharray="5,2" d="M199,-1186.96C199,-1177.01 199,-1163.06 199,-1150.36"/>
<polygon fill="blue" stroke="blue" points="202.5,-1150.08 199,-1140.08 195.5,-1150.08 202.5,-1150.08"/>
</g>
<!-- Abstract -->
<g id="node3" class="node">
<title>Abstract</title>
<polygon fill="white" stroke="transparent" points="216,-996.5 216,-1015.5 295,-1015.5 295,-996.5 216,-996.5"/>
<text text-anchor="start" x="218" y="-1002.3" font-family="Times,serif" font-size="14.00"> &#160;Abstract </text>
<polygon fill="none" stroke="pink" stroke-width="2" points="213.5,-995 213.5,-1018 296.5,-1018 296.5,-995 213.5,-995"/>
</g>
<!-- Entity&#45;&gt;Abstract -->
<g id="Entity&#45;Abstract" class="edge">
<title>Entity&#45;&gt;Abstract</title>
<path fill="none" stroke="pink" stroke-dasharray="5,2" d="M210.06,-1094.97C220,-1075.63 234.49,-1047.42 244.31,-1028.31"/>
<polygon fill="pink" stroke="pink" points="247.51,-1029.74 248.97,-1019.24 241.28,-1026.54 247.51,-1029.74"/>
</g>
<!-- Quality -->
<g id="node4" class="node">
<title>Quality</title>
<polygon fill="white" stroke="transparent" points="109,-996.5 109,-1015.5 179,-1015.5 179,-996.5 109,-996.5"/>
<text text-anchor="start" x="111" y="-1002.3" font-family="Times,serif" font-size="14.00"> &#160;Quality </text>
<polygon fill="none" stroke="pink" stroke-width="2" points="107,-995 107,-1018 181,-1018 181,-995 107,-995"/>
</g>
<!-- Entity&#45;&gt;Quality -->
<g id="Entity&#45;Quality" class="edge">
<title>Entity&#45;&gt;Quality</title>
<path fill="none" stroke="pink" stroke-dasharray="5,2" d="M188.13,-1094.97C178.38,-1075.63 164.14,-1047.42 154.5,-1028.31"/>
<polygon fill="pink" stroke="pink" points="157.55,-1026.59 149.92,-1019.24 151.3,-1029.75 157.55,-1026.59"/>
</g>
<!-- Event -->
<g id="node12" class="node">
<title>Event</title>
<polygon fill="white" stroke="transparent" points="397,-1036.5 397,-1055.5 527,-1055.5 527,-1036.5 397,-1036.5"/>
<text text-anchor="start" x="434" y="-1042.3" font-family="Times,serif" font-size="14.00"> &#160;Event </text>
<text text-anchor="start" x="399" y="-1022.3" font-family="Times,serif" font-size="14.00">isOccuranceOf: </text>
<text text-anchor="start" x="537.5" y="-1022.3" font-family="Times,serif" font-size="14.00">EventType</text>
<text text-anchor="start" x="399" y="-1002.3" font-family="Times,serif" font-size="14.00">hasPhase: </text>
<text text-anchor="start" x="554.5" y="-1002.3" font-family="Times,serif" font-size="14.00">Event</text>
<text text-anchor="start" x="399" y="-982.3" font-family="Times,serif" font-size="14.00">hasParticipant: </text>
<text text-anchor="start" x="552.5" y="-982.3" font-family="Times,serif" font-size="14.00">Object</text>
<text text-anchor="start" x="399" y="-962.3" font-family="Times,serif" font-size="14.00">hasTimeInterval: </text>
<text text-anchor="start" x="530" y="-962.3" font-family="Times,serif" font-size="14.00">TimeInterval</text>
<polygon fill="none" stroke="cornflowerblue" stroke-width="2" points="394.5,-955 394.5,-1058 625.5,-1058 625.5,-955 394.5,-955"/>
</g>
<!-- Entity&#45;&gt;Event -->
<g id="Entity&#45;Event" class="edge">
<title>Entity&#45;&gt;Event</title>
<path fill="none" stroke="pink" stroke-dasharray="5,2" d="M270.32,-1094.9C303.52,-1084.54 343.46,-1071.65 379,-1059 380.62,-1058.42 382.25,-1057.84 383.9,-1057.25"/>
<polygon fill="pink" stroke="pink" points="385.17,-1060.51 393.37,-1053.8 382.77,-1053.93 385.17,-1060.51"/>
</g>
<!-- Object -->
<g id="node14" class="node">
<title>Object</title>
<polygon fill="white" stroke="transparent" points="448,-392.5 448,-411.5 513,-411.5 513,-392.5 448,-392.5"/>
<text text-anchor="start" x="450" y="-398.3" font-family="Times,serif" font-size="14.00"> &#160;Object </text>
<polygon fill="none" stroke="pink" stroke-width="2" points="445.5,-391 445.5,-414 514.5,-414 514.5,-391 445.5,-391"/>
</g>
<!-- Entity&#45;&gt;Object -->
<g id="Entity&#45;Object" class="edge">
<title>Entity&#45;&gt;Object</title>
<path fill="none" stroke="pink" stroke-dasharray="5,2" d="M257.71,-1094.95C275.47,-1086.07 293.76,-1074.23 307,-1059 389.56,-964.03 318.55,-885.38 404,-793 430.2,-764.67 462.13,-789.45 483,-757 500.85,-729.26 486.6,-498.78 481.58,-425.66"/>
<polygon fill="pink" stroke="pink" points="485.05,-425.07 480.86,-415.34 478.06,-425.56 485.05,-425.07"/>
</g>
<!-- Situation -->
<g id="node29" class="node">
<title>Situation</title>
<polygon fill="white" stroke="transparent" points="27,-412.5 27,-431.5 129,-431.5 129,-412.5 27,-412.5"/>
<text text-anchor="start" x="38.5" y="-418.3" font-family="Times,serif" font-size="14.00"> &#160;Situation </text>
<text text-anchor="start" x="29" y="-398.3" font-family="Times,serif" font-size="14.00">isSettingFor: </text>
<text text-anchor="start" x="151" y="-398.3" font-family="Times,serif" font-size="14.00">Entity</text>
<text text-anchor="start" x="29" y="-378.3" font-family="Times,serif" font-size="14.00">satisfies: </text>
<text text-anchor="start" x="132" y="-378.3" font-family="Times,serif" font-size="14.00">Description</text>
<polygon fill="none" stroke="magenta" stroke-width="2" points="25,-371 25,-434 219,-434 219,-371 25,-371"/>
</g>
<!-- Entity&#45;&gt;Situation -->
<g id="Entity&#45;Situation" class="edge">
<title>Entity&#45;&gt;Situation</title>
<path fill="none" stroke="pink" stroke-dasharray="5,2" d="M125.99,-1107.86C94.56,-1100.23 60.4,-1085.9 40,-1059 -14.53,-987.09 25,-946.75 25,-856.5 25,-856.5 25,-856.5 25,-693.5 25,-594.39 -5.3,-559.15 40,-471 45.53,-460.24 53.61,-450.56 62.58,-442.11"/>
<polygon fill="pink" stroke="pink" points="65.1,-444.55 70.28,-435.31 60.47,-439.31 65.1,-444.55"/>
</g>
<!-- Region -->
<g id="node8" class="node">
<title>Region</title>
<polygon fill="white" stroke="transparent" points="221,-845.5 221,-864.5 289,-864.5 289,-845.5 221,-845.5"/>
<text text-anchor="start" x="223" y="-851.3" font-family="Times,serif" font-size="14.00"> &#160;Region </text>
<polygon fill="none" stroke="pink" stroke-width="2" points="219,-844 219,-867 291,-867 291,-844 219,-844"/>
</g>
<!-- Abstract&#45;&gt;Region -->
<g id="Abstract&#45;Region" class="edge">
<title>Abstract&#45;&gt;Region</title>
<path fill="none" stroke="pink" stroke-dasharray="5,2" d="M255,-993.81C255,-968.89 255,-910.24 255,-878.24"/>
<polygon fill="pink" stroke="pink" points="258.5,-878.14 255,-868.14 251.5,-878.14 258.5,-878.14"/>
</g>
<!-- SpaceRegion -->
<g id="node9" class="node">
<title>SpaceRegion</title>
<polygon fill="white" stroke="transparent" points="575,-523.5 575,-542.5 685,-542.5 685,-523.5 575,-523.5"/>
<text text-anchor="start" x="577" y="-529.3" font-family="Times,serif" font-size="14.00"> &#160;SpaceRegion </text>
<polygon fill="none" stroke="lightgreen" stroke-width="2" points="573,-522 573,-545 687,-545 687,-522 573,-522"/>
</g>
<!-- Abstract&#45;&gt;SpaceRegion -->
<g id="Abstract&#45;SpaceRegion" class="edge">
<title>Abstract&#45;&gt;SpaceRegion</title>
<path fill="none" stroke="pink" stroke-dasharray="5,2" d="M260.3,-993.99C276.82,-959.22 330.71,-853.91 404,-793 433.67,-768.34 453.67,-782.07 483,-757 552.07,-697.96 601.64,-598.67 621.01,-555.55"/>
<polygon fill="pink" stroke="pink" points="624.25,-556.87 625.08,-546.31 617.84,-554.05 624.25,-556.87"/>
</g>
<!-- PhysicalQuality -->
<g id="node5" class="node">
<title>PhysicalQuality</title>
<polygon fill="white" stroke="transparent" points="68,-845.5 68,-864.5 197,-864.5 197,-845.5 68,-845.5"/>
<text text-anchor="start" x="70" y="-851.3" font-family="Times,serif" font-size="14.00"> &#160;PhysicalQuality </text>
<polygon fill="none" stroke="lightgreen" stroke-width="2" points="65.5,-844 65.5,-867 198.5,-867 198.5,-844 65.5,-844"/>
</g>
<!-- Quality&#45;&gt;PhysicalQuality -->
<g id="Quality&#45;PhysicalQuality" class="edge">
<title>Quality&#45;&gt;PhysicalQuality</title>
<path fill="none" stroke="pink" stroke-dasharray="5,2" d="M143.06,-993.81C141.05,-968.89 136.33,-910.24 133.75,-878.24"/>
<polygon fill="pink" stroke="pink" points="137.23,-877.82 132.94,-868.14 130.25,-878.39 137.23,-877.82"/>
</g>
<!-- Extrinsic -->
<g id="node6" class="node">
<title>Extrinsic</title>
<polygon fill="white" stroke="transparent" points="301,-392.5 301,-411.5 384,-411.5 384,-392.5 301,-392.5"/>
<text text-anchor="start" x="303" y="-398.3" font-family="Times,serif" font-size="14.00"> &#160;Extrinsic </text>
<polygon fill="none" stroke="lightgreen" stroke-width="2" points="298.5,-391 298.5,-414 385.5,-414 385.5,-391 298.5,-391"/>
</g>
<!-- PhysicalQuality&#45;&gt;Extrinsic -->
<g id="PhysicalQuality&#45;Extrinsic" class="edge">
<title>PhysicalQuality&#45;&gt;Extrinsic</title>
<path fill="none" stroke="lightgreen" stroke-dasharray="5,2" d="M124.05,-842.71C100.78,-806.56 37.64,-695.93 91,-632 148.31,-563.33 225.2,-658.69 289,-596 329.41,-556.29 297.51,-525.2 314,-471 318.88,-454.94 326.2,-437.46 332.12,-424.31"/>
<polygon fill="lightgreen" stroke="lightgreen" points="335.32,-425.74 336.32,-415.19 328.96,-422.81 335.32,-425.74"/>
</g>
<!-- Localization -->
<g id="node7" class="node">
<title>Localization</title>
<polygon fill="white" stroke="transparent" points="514,-99.5 514,-118.5 618,-118.5 618,-99.5 514,-99.5"/>
<text text-anchor="start" x="516" y="-105.3" font-family="Times,serif" font-size="14.00"> &#160;Localization </text>
<polygon fill="none" stroke="lightgreen" stroke-width="2" points="512,-98 512,-121 620,-121 620,-98 512,-98"/>
</g>
<!-- Extrinsic&#45;&gt;Localization -->
<g id="Extrinsic&#45;Localization" class="edge">
<title>Extrinsic&#45;&gt;Localization</title>
<path fill="none" stroke="lightgreen" stroke-dasharray="5,2" d="M314.02,-389.9C275.05,-373.48 208.46,-344.28 202,-334 186.64,-309.54 184.65,-292.1 202,-269 236.46,-223.11 284.82,-272.97 326,-233 347.79,-211.86 324.94,-188.86 347,-168 352.97,-162.35 444.67,-139.53 507.5,-124.39"/>
<polygon fill="lightgreen" stroke="lightgreen" points="508.41,-127.77 517.31,-122.03 506.77,-120.97 508.41,-127.77"/>
</g>
<!-- TimeInterval -->
<g id="node11" class="node">
<title>TimeInterval</title>
<polygon fill="white" stroke="transparent" points="103,-684.5 103,-703.5 213,-703.5 213,-684.5 103,-684.5"/>
<text text-anchor="start" x="105" y="-690.3" font-family="Times,serif" font-size="14.00"> &#160;TimeInterval </text>
<polygon fill="none" stroke="cornflowerblue" stroke-width="2" points="101,-683 101,-706 215,-706 215,-683 101,-683"/>
</g>
<!-- Region&#45;&gt;TimeInterval -->
<g id="Region&#45;TimeInterval" class="edge">
<title>Region&#45;&gt;TimeInterval</title>
<path fill="none" stroke="pink" stroke-dasharray="5,2" d="M247.87,-842.81C231.47,-815.93 190.93,-749.48 170.37,-715.78"/>
<polygon fill="pink" stroke="pink" points="173.34,-713.92 165.14,-707.21 167.36,-717.57 173.34,-713.92"/>
</g>
<!-- Location -->
<g id="node10" class="node">
<title>Location</title>
<polygon fill="white" stroke="transparent" points="666,-190.5 666,-209.5 745,-209.5 745,-190.5 666,-190.5"/>
<text text-anchor="start" x="668" y="-196.3" font-family="Times,serif" font-size="14.00"> &#160;Location </text>
<polygon fill="none" stroke="lightgreen" stroke-width="2" points="663.5,-189 663.5,-212 746.5,-212 746.5,-189 663.5,-189"/>
</g>
<!-- SpaceRegion&#45;&gt;Location -->
<g id="SpaceRegion&#45;Location" class="edge">
<title>SpaceRegion&#45;&gt;Location</title>
<path fill="none" stroke="lightgreen" stroke-dasharray="5,2" d="M635.22,-520.72C648.34,-490.45 682.7,-407.18 697,-334 704.5,-295.61 705.57,-249.87 705.44,-223.41"/>
<polygon fill="lightgreen" stroke="lightgreen" points="708.94,-223.29 705.33,-213.33 701.94,-223.37 708.94,-223.29"/>
</g>
<!-- Location&#45;&gt;Localization -->
<g id="Location&#45;Localization" class="edge">
<title>Location&#45;&gt;Localization</title>
<path fill="none" stroke="lightgreen" stroke-dasharray="5,2" d="M686.83,-187.86C662.89,-172.54 620.61,-145.47 592.95,-127.76"/>
<polygon fill="lightgreen" stroke="lightgreen" points="594.49,-124.58 584.18,-122.14 590.71,-130.48 594.49,-124.58"/>
</g>
<!-- Event&#45;&gt;TimeInterval -->
<g id="Event&#45;hasTimeInterval&#45;TimeInterval" class="edge">
<title>Event:hasTimeInterval&#45;&gt;TimeInterval</title>
<path fill="none" stroke="cornflowerblue" d="M576,-955.5C576,-928.08 541.51,-941.27 527,-918 497.03,-869.92 543.39,-831.68 502,-793 411.62,-708.54 338.32,-808.85 226,-757 205.22,-747.41 186.33,-729.19 173.77,-715.06"/>
<polygon fill="cornflowerblue" stroke="cornflowerblue" points="176.29,-712.63 167.13,-707.31 170.98,-717.19 176.29,-712.63"/>
</g>
<!-- Event&#45;&gt;Event -->
<g id="Event&#45;hasPhase&#45;Event" class="edge">
<title>Event:hasPhase&#45;&gt;Event</title>
<path fill="none" stroke="cornflowerblue" d="M591.82,-996.48C626.38,-978.44 644.5,-981.5 644.5,-1006 644.5,-1011.22 641.39,-1015.46 636.03,-1018.74"/>
<polygon fill="cornflowerblue" stroke="cornflowerblue" points="634.43,-1015.62 626.68,-1022.85 637.24,-1022.03 634.43,-1015.62"/>
</g>
<!-- Action -->
<g id="node13" class="node">
<title>Action</title>
<polygon fill="white" stroke="transparent" points="555,-895.5 555,-914.5 676,-914.5 676,-895.5 555,-895.5"/>
<text text-anchor="start" x="586" y="-901.3" font-family="Times,serif" font-size="14.00"> &#160;Action </text>
<text text-anchor="start" x="557" y="-881.3" font-family="Times,serif" font-size="14.00">isExecutedBy: </text>
<text text-anchor="start" x="688" y="-881.3" font-family="Times,serif" font-size="14.00">Agent</text>
<text text-anchor="start" x="557" y="-861.3" font-family="Times,serif" font-size="14.00">hasParticipant: </text>
<text text-anchor="start" x="688" y="-861.3" font-family="Times,serif" font-size="14.00">Agent</text>
<text text-anchor="start" x="557" y="-841.3" font-family="Times,serif" font-size="14.00">executesTask: </text>
<text text-anchor="start" x="693" y="-841.3" font-family="Times,serif" font-size="14.00">Task</text>
<text text-anchor="start" x="557" y="-821.3" font-family="Times,serif" font-size="14.00">hasOrigin: </text>
<text text-anchor="start" x="679" y="-821.3" font-family="Times,serif" font-size="14.00">Location</text>
<text text-anchor="start" x="557" y="-801.3" font-family="Times,serif" font-size="14.00">hasDestination: </text>
<text text-anchor="start" x="679" y="-801.3" font-family="Times,serif" font-size="14.00">Location</text>
<polygon fill="none" stroke="cyan" stroke-width="2" points="552.5,-794 552.5,-917 743.5,-917 743.5,-794 552.5,-794"/>
</g>
<!-- Event&#45;&gt;Action -->
<g id="Event&#45;Action" class="edge">
<title>Event&#45;&gt;Action</title>
<path fill="none" stroke="cornflowerblue" stroke-dasharray="5,2" d="M557.88,-953.81C566.29,-944.72 575.17,-935.13 583.95,-925.66"/>
<polygon fill="cornflowerblue" stroke="cornflowerblue" points="586.72,-927.82 590.95,-918.1 581.58,-923.06 586.72,-927.82"/>
</g>
<!-- Event&#45;&gt;Object -->
<g id="Event&#45;hasParticipant&#45;Object" class="edge">
<title>Event:hasParticipant&#45;&gt;Object</title>
<path fill="none" stroke="cornflowerblue" d="M625,-985.5C639.01,-985.5 631.82,-965.62 624,-954 602.01,-921.31 566.1,-949.91 543,-918 513.73,-877.56 506.96,-520.11 498,-471 495.18,-455.53 490.59,-438.41 486.76,-425.28"/>
<polygon fill="cornflowerblue" stroke="cornflowerblue" points="490,-423.89 483.77,-415.32 483.29,-425.9 490,-423.89"/>
</g>
<!-- EventType -->
<g id="node19" class="node">
<title>EventType</title>
<polygon fill="white" stroke="transparent" points="643,-109.5 643,-128.5 738,-128.5 738,-109.5 643,-109.5"/>
<text text-anchor="start" x="645" y="-115.3" font-family="Times,serif" font-size="14.00"> &#160;EventType </text>
<text text-anchor="start" x="645" y="-95.3" font-family="Times,serif" font-size="14.00">classifies: </text>
<text text-anchor="start" x="741" y="-95.3" font-family="Times,serif" font-size="14.00">Event</text>
<polygon fill="none" stroke="cornflowerblue" stroke-width="2" points="640.5,-88 640.5,-131 787.5,-131 787.5,-88 640.5,-88"/>
</g>
<!-- Event&#45;&gt;EventType -->
<g id="Event&#45;isOccuranceOf&#45;EventType" class="edge">
<title>Event:isOccuranceOf&#45;&gt;EventType</title>
<path fill="none" stroke="cornflowerblue" d="M625,-1026.5C908.99,-1026.5 767,-687.49 767,-403.5 767,-403.5 767,-403.5 767,-300.5 767,-241.44 777.73,-223.3 757,-168 753.32,-158.2 747.43,-148.63 741.17,-140.21"/>
<polygon fill="cornflowerblue" stroke="cornflowerblue" points="743.8,-137.89 734.86,-132.2 738.3,-142.22 743.8,-137.89"/>
</g>
<!-- Process -->
<g id="node21" class="node">
<title>Process</title>
<polygon fill="white" stroke="transparent" points="416,-845.5 416,-864.5 490,-864.5 490,-845.5 416,-845.5"/>
<text text-anchor="start" x="418" y="-851.3" font-family="Times,serif" font-size="14.00"> &#160;Process </text>
<polygon fill="none" stroke="cornflowerblue" stroke-width="2" points="414,-844 414,-867 492,-867 492,-844 414,-844"/>
</g>
<!-- Event&#45;&gt;Process -->
<g id="Event&#45;Process" class="edge">
<title>Event&#45;&gt;Process</title>
<path fill="none" stroke="cornflowerblue" stroke-dasharray="5,2" d="M490.22,-953.81C480.25,-927.73 468.69,-897.53 461.14,-877.77"/>
<polygon fill="cornflowerblue" stroke="cornflowerblue" points="464.33,-876.31 457.48,-868.22 457.79,-878.81 464.33,-876.31"/>
</g>
<!-- Action&#45;&gt;Location -->
<g id="Action&#45;hasOrigin&#45;Location" class="edge">
<title>Action:hasOrigin&#45;&gt;Location</title>
<path fill="none" stroke="cyan" d="M743,-824.5C775.23,-824.5 747,-566.73 747,-534.5 747,-534.5 747,-534.5 747,-401.5 747,-342.23 746.47,-326.47 732,-269 727.92,-252.81 720.85,-235.33 714.97,-222.21"/>
<polygon fill="cyan" stroke="cyan" points="718.14,-220.74 710.77,-213.13 711.79,-223.67 718.14,-220.74"/>
</g>
<!-- Action&#45;&gt;Location -->
<g id="Action&#45;hasDestination&#45;Location" class="edge">
<title>Action:hasDestination&#45;&gt;Location</title>
<path fill="none" stroke="cyan" d="M710,-794.5C710,-777.55 715.06,-773.84 717,-757 728.33,-658.66 727,-633.49 727,-534.5 727,-534.5 727,-534.5 727,-401.5 727,-336.29 715.3,-259.83 708.96,-223.2"/>
<polygon fill="cyan" stroke="cyan" points="712.38,-222.41 707.19,-213.17 705.49,-223.63 712.38,-222.41"/>
</g>
<!-- Agent -->
<g id="node17" class="node">
<title>Agent</title>
<polygon fill="white" stroke="transparent" points="625,-291.5 625,-310.5 685,-310.5 685,-291.5 625,-291.5"/>
<text text-anchor="start" x="627" y="-297.3" font-family="Times,serif" font-size="14.00"> &#160;Agent </text>
<polygon fill="none" stroke="red" stroke-width="2" points="623,-290 623,-313 687,-313 687,-290 623,-290"/>
</g>
<!-- Action&#45;&gt;Agent -->
<g id="Action&#45;isExecutedBy&#45;Agent" class="edge">
<title>Action:isExecutedBy&#45;&gt;Agent</title>
<path fill="none" stroke="cyan" d="M743,-885.5C763.56,-885.5 747.26,-812.87 742,-793 737.31,-775.31 727.36,-774.5 722,-757 684.64,-635 718.05,-596.85 697,-471 688.06,-417.54 670.96,-356.05 661.57,-324.19"/>
<polygon fill="cyan" stroke="cyan" points="664.81,-322.8 658.6,-314.21 658.1,-324.8 664.81,-322.8"/>
</g>
<!-- Action&#45;&gt;Agent -->
<g id="Action&#45;hasParticipant&#45;Agent" class="edge">
<title>Action:hasParticipant&#45;&gt;Agent</title>
<path fill="none" stroke="cyan" d="M743,-865.5C775.23,-865.5 755.84,-822.1 742,-793 731.3,-770.49 716.66,-774.59 699,-757 632.62,-690.91 595.18,-683.97 563,-596 543.91,-543.83 549.26,-524.83 563,-471 577.86,-412.76 617.44,-352.95 639.54,-322.69"/>
<polygon fill="cyan" stroke="cyan" points="642.63,-324.4 645.79,-314.28 637.01,-320.22 642.63,-324.4"/>
</g>
<!-- Task -->
<g id="node25" class="node">
<title>Task</title>
<polygon fill="white" stroke="transparent" points="238,-734.5 238,-753.5 365,-753.5 365,-734.5 238,-734.5"/>
<text text-anchor="start" x="278.5" y="-740.3" font-family="Times,serif" font-size="14.00"> &#160;Task </text>
<text text-anchor="start" x="240" y="-720.3" font-family="Times,serif" font-size="14.00">isExecutedIn: </text>
<text text-anchor="start" x="386.5" y="-720.3" font-family="Times,serif" font-size="14.00">Action</text>
<text text-anchor="start" x="240" y="-700.3" font-family="Times,serif" font-size="14.00">isTaskDefinedIn: </text>
<text text-anchor="start" x="368" y="-700.3" font-family="Times,serif" font-size="14.00">Description</text>
<text text-anchor="start" x="240" y="-680.3" font-family="Times,serif" font-size="14.00">isTaskOf: </text>
<text text-anchor="start" x="393.5" y="-680.3" font-family="Times,serif" font-size="14.00">Role</text>
<text text-anchor="start" x="240" y="-660.3" font-family="Times,serif" font-size="14.00">isSubTaskOf: </text>
<text text-anchor="start" x="393" y="-660.3" font-family="Times,serif" font-size="14.00">Task</text>
<text text-anchor="start" x="240" y="-640.3" font-family="Times,serif" font-size="14.00">followsPlan: </text>
<text text-anchor="start" x="393.5" y="-640.3" font-family="Times,serif" font-size="14.00">Plan</text>
<polygon fill="none" stroke="cyan" stroke-width="2" points="235.5,-633 235.5,-756 454.5,-756 454.5,-633 235.5,-633"/>
</g>
<!-- Action&#45;&gt;Task -->
<g id="Action&#45;executesTask&#45;Task" class="edge">
<title>Action:executesTask&#45;&gt;Task</title>
<path fill="none" stroke="cyan" d="M743,-844.5C765.89,-844.5 756.81,-810.46 742,-793 685.28,-726.12 633.21,-777.74 548,-757 521.07,-750.44 492.43,-742.43 465.42,-734.38"/>
<polygon fill="cyan" stroke="cyan" points="466.13,-730.94 455.54,-731.41 464.11,-737.64 466.13,-730.94"/>
</g>
<!-- PhysicalObject -->
<g id="node15" class="node">
<title>PhysicalObject</title>
<polygon fill="white" stroke="transparent" points="366,-311.5 366,-330.5 490,-330.5 490,-311.5 366,-311.5"/>
<text text-anchor="start" x="368" y="-317.3" font-family="Times,serif" font-size="14.00"> &#160;PhysicalObject </text>
<text text-anchor="start" x="368" y="-297.3" font-family="Times,serif" font-size="14.00">hasLocation: </text>
<text text-anchor="start" x="505.5" y="-297.3" font-family="Times,serif" font-size="14.00">Location</text>
<text text-anchor="start" x="368" y="-277.3" font-family="Times,serif" font-size="14.00">hasLocalization: </text>
<text text-anchor="start" x="493" y="-277.3" font-family="Times,serif" font-size="14.00">Localization</text>
<polygon fill="none" stroke="green" stroke-width="2" points="363.5,-270 363.5,-333 582.5,-333 582.5,-270 363.5,-270"/>
</g>
<!-- Object&#45;&gt;PhysicalObject -->
<g id="Object&#45;PhysicalObject" class="edge">
<title>Object&#45;&gt;PhysicalObject</title>
<path fill="none" stroke="pink" stroke-dasharray="5,2" d="M479.17,-389.75C478.37,-378.47 477.12,-360.75 475.95,-344.21"/>
<polygon fill="pink" stroke="pink" points="479.43,-343.87 475.24,-334.14 472.45,-344.36 479.43,-343.87"/>
</g>
<!-- SocialObject -->
<g id="node16" class="node">
<title>SocialObject</title>
<polygon fill="white" stroke="transparent" points="214,-291.5 214,-310.5 321,-310.5 321,-291.5 214,-291.5"/>
<text text-anchor="start" x="216" y="-297.3" font-family="Times,serif" font-size="14.00"> &#160;SocialObject </text>
<polygon fill="none" stroke="pink" stroke-width="2" points="211.5,-290 211.5,-313 322.5,-313 322.5,-290 211.5,-290"/>
</g>
<!-- Object&#45;&gt;SocialObject -->
<g id="Object&#45;SocialObject" class="edge">
<title>Object&#45;&gt;SocialObject</title>
<path fill="none" stroke="pink" stroke-dasharray="5,2" d="M455.15,-389.95C417.09,-372.26 344.28,-338.42 301.25,-318.42"/>
<polygon fill="pink" stroke="pink" points="302.57,-315.17 292.02,-314.13 299.61,-321.52 302.57,-315.17"/>
</g>
<!-- Object&#45;&gt;Agent -->
<g id="Object&#45;Agent" class="edge">
<title>Object&#45;&gt;Agent</title>
<path fill="none" stroke="pink" stroke-dasharray="5,2" d="M500.42,-389.95C531.29,-372.49 590,-339.27 625.51,-319.18"/>
<polygon fill="pink" stroke="pink" points="627.46,-322.1 634.44,-314.13 624.02,-316.01 627.46,-322.1"/>
</g>
<!-- PhysicalObject&#45;&gt;Localization -->
<g id="PhysicalObject&#45;hasLocalization&#45;Localization" class="edge">
<title>PhysicalObject:hasLocalization&#45;&gt;Localization</title>
<path fill="none" stroke="green" d="M582,-280.5C611.5,-280.5 585.46,-177.73 572.4,-132"/>
<polygon fill="green" stroke="green" points="575.7,-130.81 569.55,-122.18 568.98,-132.76 575.7,-130.81"/>
</g>
<!-- PhysicalObject&#45;&gt;Location -->
<g id="PhysicalObject&#45;hasLocation&#45;Location" class="edge">
<title>PhysicalObject:hasLocation&#45;&gt;Location</title>
<path fill="none" stroke="green" d="M582,-300.5C601.64,-300.5 598.14,-281.85 613,-269 634.21,-250.65 660.1,-231.95 679,-218.9"/>
<polygon fill="green" stroke="green" points="681.14,-221.69 687.41,-213.15 677.18,-215.91 681.14,-221.69"/>
</g>
<!-- Concept -->
<g id="node18" class="node">
<title>Concept</title>
<polygon fill="white" stroke="transparent" points="359,-210.5 359,-229.5 454,-229.5 454,-210.5 359,-210.5"/>
<text text-anchor="start" x="370" y="-216.3" font-family="Times,serif" font-size="14.00"> &#160;Concept </text>
<text text-anchor="start" x="361" y="-196.3" font-family="Times,serif" font-size="14.00">isDefinedIn: </text>
<text text-anchor="start" x="457" y="-196.3" font-family="Times,serif" font-size="14.00">Description</text>
<text text-anchor="start" x="361" y="-176.3" font-family="Times,serif" font-size="14.00">hasPart: </text>
<text text-anchor="start" x="469" y="-176.3" font-family="Times,serif" font-size="14.00">Concept</text>
<polygon fill="none" stroke="pink" stroke-width="2" points="356.5,-169 356.5,-232 543.5,-232 543.5,-169 356.5,-169"/>
</g>
<!-- SocialObject&#45;&gt;Concept -->
<g id="SocialObject&#45;Concept" class="edge">
<title>SocialObject&#45;&gt;Concept</title>
<path fill="none" stroke="pink" stroke-dasharray="5,2" d="M288.35,-288.95C311.46,-276.45 349.49,-255.88 382.85,-237.82"/>
<polygon fill="pink" stroke="pink" points="384.54,-240.89 391.67,-233.05 381.21,-234.73 384.54,-240.89"/>
</g>
<!-- Collection -->
<g id="node22" class="node">
<title>Collection</title>
<polygon fill="white" stroke="transparent" points="225,-190.5 225,-209.5 314,-209.5 314,-190.5 225,-190.5"/>
<text text-anchor="start" x="227" y="-196.3" font-family="Times,serif" font-size="14.00"> &#160;Collection </text>
<polygon fill="none" stroke="pink" stroke-width="2" points="222.5,-189 222.5,-212 315.5,-212 315.5,-189 222.5,-189"/>
</g>
<!-- SocialObject&#45;&gt;Collection -->
<g id="SocialObject&#45;Collection" class="edge">
<title>SocialObject&#45;&gt;Collection</title>
<path fill="none" stroke="pink" stroke-dasharray="5,2" d="M267.24,-288.75C267.56,-272.68 268.15,-243.52 268.56,-223.36"/>
<polygon fill="pink" stroke="pink" points="272.06,-223.3 268.76,-213.23 265.06,-223.16 272.06,-223.3"/>
</g>
<!-- Description -->
<g id="node26" class="node">
<title>Description</title>
<polygon fill="white" stroke="transparent" points="142,-109.5 142,-128.5 243,-128.5 243,-109.5 142,-109.5"/>
<text text-anchor="start" x="144" y="-115.3" font-family="Times,serif" font-size="14.00"> &#160;Description </text>
<text text-anchor="start" x="144" y="-95.3" font-family="Times,serif" font-size="14.00">description: </text>
<text text-anchor="start" x="246" y="-95.3" font-family="Times,serif" font-size="14.00">xsd:string</text>
<polygon fill="none" stroke="brown" stroke-width="2" points="139.5,-88 139.5,-131 322.5,-131 322.5,-88 139.5,-88"/>
</g>
<!-- SocialObject&#45;&gt;Description -->
<g id="SocialObject&#45;Description" class="edge">
<title>SocialObject&#45;&gt;Description</title>
<path fill="none" stroke="pink" stroke-dasharray="5,2" d="M253.27,-288.7C240.05,-276.36 220.95,-255.66 213,-233 202.56,-203.23 210.01,-167.33 218.26,-142.11"/>
<polygon fill="pink" stroke="pink" points="221.68,-142.94 221.68,-132.34 215.07,-140.63 221.68,-142.94"/>
</g>
<!-- Concept&#45;&gt;Concept -->
<g id="Concept&#45;hasPart&#45;Concept" class="edge">
<title>Concept:hasPart&#45;&gt;Concept</title>
<path fill="none" stroke="pink" d="M516.07,-170.46C544.16,-157.85 562.5,-162.29 562.5,-190 562.5,-196.91 559.21,-202.38 553.66,-206.49"/>
<polygon fill="pink" stroke="pink" points="551.94,-203.44 544.79,-211.27 555.26,-209.61 551.94,-203.44"/>
</g>
<!-- Concept&#45;&gt;EventType -->
<g id="Concept&#45;EventType" class="edge">
<title>Concept&#45;&gt;EventType</title>
<path fill="none" stroke="pink" stroke-dasharray="5,2" d="M543.45,-168C575.3,-157.26 610.44,-145.41 640.5,-135.28"/>
<polygon fill="pink" stroke="pink" points="641.72,-138.56 650.08,-132.05 639.48,-131.93 641.72,-138.56"/>
</g>
<!-- Role -->
<g id="node20" class="node">
<title>Role</title>
<polygon fill="white" stroke="transparent" points="341,-543.5 341,-562.5 419,-562.5 419,-543.5 341,-543.5"/>
<text text-anchor="start" x="357" y="-549.3" font-family="Times,serif" font-size="14.00"> &#160;Role </text>
<text text-anchor="start" x="343" y="-529.3" font-family="Times,serif" font-size="14.00">isRoleOf: </text>
<text text-anchor="start" x="422" y="-529.3" font-family="Times,serif" font-size="14.00">Object</text>
<text text-anchor="start" x="343" y="-509.3" font-family="Times,serif" font-size="14.00">classifies: </text>
<text text-anchor="start" x="422" y="-509.3" font-family="Times,serif" font-size="14.00">Object</text>
<polygon fill="none" stroke="orange" stroke-width="2" points="339,-502 339,-565 473,-565 473,-502 339,-502"/>
</g>
<!-- Concept&#45;&gt;Role -->
<g id="Concept&#45;Role" class="edge">
<title>Concept&#45;&gt;Role</title>
<path fill="none" stroke="pink" stroke-dasharray="5,2" d="M386.42,-233.2C373.4,-242.82 361.42,-254.72 354,-269 340.69,-294.64 340.16,-308.64 354,-334 368.18,-359.97 395.82,-344.03 410,-370 430.31,-407.2 425.41,-456.67 417.9,-491.22"/>
<polygon fill="pink" stroke="pink" points="414.48,-490.46 415.62,-500.99 421.3,-492.05 414.48,-490.46"/>
</g>
<!-- Concept&#45;&gt;Description -->
<g id="Concept&#45;isDefinedIn&#45;Description" class="edge">
<title>Concept:isDefinedIn&#45;&gt;Description</title>
<path fill="none" stroke="pink" d="M543,-199.5C557.01,-199.5 551.19,-178.57 542,-168 512.82,-134.46 393.89,-140.05 333.71,-131.81"/>
<polygon fill="pink" stroke="pink" points="333.97,-128.3 323.54,-130.16 332.85,-135.21 333.97,-128.3"/>
</g>
<!-- EventType&#45;&gt;Event -->
<g id="EventType&#45;classifies&#45;Event" class="edge">
<title>EventType:classifies&#45;&gt;Event</title>
<path fill="none" stroke="cornflowerblue" d="M787,-98.5C876.78,-98.5 787,-210.72 787,-300.5 787,-403.5 787,-403.5 787,-403.5 787,-632.64 891.8,-734.93 754,-918 725.89,-955.35 680.41,-976.79 636.3,-989.09"/>
<polygon fill="cornflowerblue" stroke="cornflowerblue" points="635.39,-985.71 626.61,-991.66 637.18,-992.48 635.39,-985.71"/>
</g>
<!-- EventType&#45;&gt;Task -->
<g id="EventType&#45;Task" class="edge">
<title>EventType&#45;&gt;Task</title>
<path fill="none" stroke="cornflowerblue" stroke-dasharray="5,2" d="M686.71,-132.19C675.47,-142.18 662.99,-154.75 654,-168 626.8,-208.09 629.25,-223.36 613,-269 602.86,-297.47 605.14,-306.32 593,-334 585.56,-350.96 580.08,-353.33 572,-370 524.89,-467.13 549.65,-511.08 483,-596 474.77,-606.49 465.1,-616.33 454.78,-625.42"/>
<polygon fill="cornflowerblue" stroke="cornflowerblue" points="452.51,-622.76 447.16,-631.91 457.04,-628.09 452.51,-622.76"/>
</g>
<!-- Role&#45;&gt;Object -->
<g id="Role&#45;isRoleOf&#45;Object" class="edge">
<title>Role:isRoleOf&#45;&gt;Object</title>
<path fill="none" stroke="orange" d="M472,-532.5C493.15,-532.5 487.49,-462.56 483.04,-425.68"/>
<polygon fill="orange" stroke="orange" points="486.46,-424.88 481.72,-415.4 479.52,-425.77 486.46,-424.88"/>
</g>
<!-- Role&#45;&gt;Object -->
<g id="Role&#45;classifies&#45;Object" class="edge">
<title>Role:classifies&#45;&gt;Object</title>
<path fill="none" stroke="orange" d="M446,-502.5C446,-474.21 458.58,-443.71 468.43,-424.15"/>
<polygon fill="orange" stroke="orange" points="471.56,-425.72 473.12,-415.24 465.37,-422.46 471.56,-425.72"/>
</g>
<!-- Configuration -->
<g id="node23" class="node">
<title>Configuration</title>
<polygon fill="white" stroke="transparent" points="345,-99.5 345,-118.5 461,-118.5 461,-99.5 345,-99.5"/>
<text text-anchor="start" x="347" y="-105.3" font-family="Times,serif" font-size="14.00"> &#160;Configuration </text>
<polygon fill="none" stroke="#c27e79" stroke-width="2" points="343,-98 343,-121 463,-121 463,-98 343,-98"/>
</g>
<!-- Collection&#45;&gt;Configuration -->
<g id="Collection&#45;Configuration" class="edge">
<title>Collection&#45;&gt;Configuration</title>
<path fill="none" stroke="pink" stroke-dasharray="5,2" d="M286.52,-187.86C309.59,-172.54 350.35,-145.47 377.02,-127.76"/>
<polygon fill="pink" stroke="pink" points="379.08,-130.59 385.48,-122.14 375.21,-124.76 379.08,-130.59"/>
</g>
<!-- State -->
<g id="node24" class="node">
<title>State</title>
<polygon fill="white" stroke="transparent" points="375,-27.5 375,-46.5 431,-46.5 431,-27.5 375,-27.5"/>
<text text-anchor="start" x="377" y="-33.3" font-family="Times,serif" font-size="14.00"> &#160;State </text>
<polygon fill="none" stroke="brown" stroke-width="2" points="373,-26 373,-49 433,-49 433,-26 373,-26"/>
</g>
<!-- Configuration&#45;&gt;State -->
<g id="Configuration&#45;State" class="edge">
<title>Configuration&#45;&gt;State</title>
<path fill="none" stroke="#c27e79" stroke-dasharray="5,2" d="M403,-96.94C403,-87.07 403,-72.6 403,-60.52"/>
<polygon fill="#c27e79" stroke="#c27e79" points="406.5,-60.31 403,-50.31 399.5,-60.31 406.5,-60.31"/>
</g>
<!-- Task&#45;&gt;Action -->
<g id="Task&#45;isExecutedIn&#45;Action" class="edge">
<title>Task:isExecutedIn&#45;&gt;Action</title>
<path fill="none" stroke="cyan" d="M454,-724.5C479.18,-724.5 525.6,-755.11 566.72,-786.62"/>
<polygon fill="cyan" stroke="cyan" points="564.82,-789.57 574.87,-792.93 569.1,-784.04 564.82,-789.57"/>
</g>
<!-- Task&#45;&gt;Role -->
<g id="Task&#45;isTaskOf&#45;Role" class="edge">
<title>Task:isTaskOf&#45;&gt;Role</title>
<path fill="none" stroke="cyan" d="M454,-683.5C499.86,-683.5 464.4,-618.76 434.91,-574.63"/>
<polygon fill="cyan" stroke="cyan" points="437.63,-572.4 429.11,-566.1 431.84,-576.34 437.63,-572.4"/>
</g>
<!-- Task&#45;&gt;Task -->
<g id="Task&#45;isSubTaskOf&#45;Task" class="edge">
<title>Task:isSubTaskOf&#45;&gt;Task</title>
<path fill="none" stroke="cyan" d="M420.09,-654.47C456.08,-623.87 473.5,-628.05 473.5,-679 473.5,-690.62 469.74,-699.81 463.41,-706.71"/>
<polygon fill="cyan" stroke="cyan" points="460.98,-704.18 455.58,-713.3 465.49,-709.54 460.98,-704.18"/>
</g>
<!-- Task&#45;&gt;Description -->
<g id="Task&#45;isTaskDefinedIn&#45;Description" class="edge">
<title>Task:isTaskDefinedIn&#45;&gt;Description</title>
<path fill="none" stroke="cyan" d="M454,-704.5C486.23,-704.5 472.53,-657.63 453,-632 418.22,-586.35 363.46,-641.89 329,-596 312.32,-573.79 314.75,-494.84 329,-471 346.35,-441.99 378.65,-464.01 396,-435 410.82,-410.21 414.47,-392.21 396,-370 339.93,-302.57 258.07,-401.43 202,-334 156.25,-278.97 190.67,-188.49 214.06,-141.3"/>
<polygon fill="cyan" stroke="cyan" points="217.29,-142.69 218.71,-132.19 211.05,-139.51 217.29,-142.69"/>
</g>
<!-- Plan -->
<g id="node28" class="node">
<title>Plan</title>
<polygon fill="white" stroke="transparent" points="68,-573.5 68,-592.5 188,-592.5 188,-573.5 68,-573.5"/>
<text text-anchor="start" x="105" y="-579.3" font-family="Times,serif" font-size="14.00"> &#160;Plan </text>
<text text-anchor="start" x="70" y="-559.3" font-family="Times,serif" font-size="14.00">hasComponent: </text>
<text text-anchor="start" x="208" y="-559.3" font-family="Times,serif" font-size="14.00">Plan</text>
<text text-anchor="start" x="70" y="-539.3" font-family="Times,serif" font-size="14.00">definesTask: </text>
<text text-anchor="start" x="207.5" y="-539.3" font-family="Times,serif" font-size="14.00">Task</text>
<text text-anchor="start" x="70" y="-519.3" font-family="Times,serif" font-size="14.00">hasParticipant: </text>
<text text-anchor="start" x="202.5" y="-519.3" font-family="Times,serif" font-size="14.00">Agent</text>
<text text-anchor="start" x="70" y="-499.3" font-family="Times,serif" font-size="14.00">hasSetting: </text>
<text text-anchor="start" x="191" y="-499.3" font-family="Times,serif" font-size="14.00">Situation</text>
<text text-anchor="start" x="70" y="-479.3" font-family="Times,serif" font-size="14.00">hasMainGoal: </text>
<text text-anchor="start" x="207.5" y="-479.3" font-family="Times,serif" font-size="14.00">Goal</text>
<polygon fill="none" stroke="orange" stroke-width="2" points="65.5,-472 65.5,-595 260.5,-595 260.5,-472 65.5,-472"/>
</g>
<!-- Task&#45;&gt;Plan -->
<g id="Task&#45;followsPlan&#45;Plan" class="edge">
<title>Task:followsPlan&#45;&gt;Plan</title>
<path fill="none" stroke="cyan" d="M410,-633.5C410,-587.69 356.55,-612.97 314,-596 300.09,-590.45 285.48,-584.57 271.05,-578.73"/>
<polygon fill="cyan" stroke="cyan" points="272.19,-575.41 261.61,-574.9 269.56,-581.9 272.19,-575.41"/>
</g>
<!-- Goal -->
<g id="node27" class="node">
<title>Goal</title>
<polygon fill="white" stroke="transparent" points="150,-27.5 150,-46.5 200,-46.5 200,-27.5 150,-27.5"/>
<text text-anchor="start" x="152" y="-33.3" font-family="Times,serif" font-size="14.00"> &#160;Goal </text>
<polygon fill="none" stroke="purple" stroke-width="3" points="147.5,-25.5 147.5,-49.5 202.5,-49.5 202.5,-25.5 147.5,-25.5"/>
</g>
<!-- Description&#45;&gt;Goal -->
<g id="Description&#45;Goal" class="edge">
<title>Description&#45;&gt;Goal</title>
<path fill="none" stroke="brown" stroke-dasharray="5,2" d="M213.59,-86.74C206.48,-77.85 198.31,-67.64 191.32,-58.9"/>
<polygon fill="brown" stroke="brown" points="194.04,-56.69 185.06,-51.07 188.57,-61.07 194.04,-56.69"/>
</g>
<!-- Description&#45;&gt;Plan -->
<g id="Description&#45;Plan" class="edge">
<title>Description&#45;&gt;Plan</title>
<path fill="none" stroke="brown" stroke-dasharray="5,2" d="M203.18,-132.15C192.91,-141.87 182.44,-154.25 177,-168 166.36,-194.86 175.86,-204.13 177,-233 178.78,-277.99 164.12,-294.1 185,-334 196.71,-356.39 218.18,-347.17 229,-370 241.37,-396.11 237.47,-407.38 229,-435 226.2,-444.14 222.22,-453.19 217.58,-461.88"/>
<polygon fill="brown" stroke="brown" points="214.42,-460.37 212.54,-470.8 220.51,-463.82 214.42,-460.37"/>
</g>
<!-- Plan&#45;&gt;Agent -->
<g id="Plan&#45;hasParticipant&#45;Agent" class="edge">
<title>Plan:hasParticipant&#45;&gt;Agent</title>
<path fill="none" stroke="orange" d="M260,-522.5C328.99,-522.5 238.54,-417.05 289,-370 338.76,-323.61 527.89,-353.71 593,-334 604.77,-330.44 616.98,-324.73 627.43,-319.14"/>
<polygon fill="orange" stroke="orange" points="629.43,-322.03 636.46,-314.11 626.02,-315.91 629.43,-322.03"/>
</g>
<!-- Plan&#45;&gt;Task -->
<g id="Plan&#45;definesTask&#45;Task" class="edge">
<title>Plan:definesTask&#45;&gt;Task</title>
<path fill="none" stroke="orange" d="M260,-543.5C279.81,-543.5 301.87,-583.61 318.54,-622.35"/>
<polygon fill="orange" stroke="orange" points="315.34,-623.77 322.45,-631.62 321.79,-621.05 315.34,-623.77"/>
</g>
<!-- Plan&#45;&gt;Goal -->
<g id="Plan&#45;hasMainGoal&#45;Goal" class="edge">
<title>Plan:hasMainGoal&#45;&gt;Goal</title>
<path fill="none" stroke="orange" d="M224,-472.5C224,-454.86 234.07,-452.39 237,-435 241.8,-406.51 250.41,-395.59 237,-370 223.95,-345.1 201.23,-356.95 185,-334 131.28,-258.03 142.33,-224.23 130,-132 127.35,-112.18 122.69,-105.62 130,-87 134.31,-76.03 142.39,-66.06 150.53,-58.06"/>
<polygon fill="orange" stroke="orange" points="152.91,-60.62 157.91,-51.28 148.18,-55.46 152.91,-60.62"/>
</g>
<!-- Plan&#45;&gt;Plan -->
<g id="Plan&#45;hasComponent&#45;Plan" class="edge">
<title>Plan:hasComponent&#45;&gt;Plan</title>
<path fill="none" stroke="orange" d="M235.55,-572.68C266.16,-595.47 279.5,-590.99 279.5,-548.5 279.5,-538.23 275.87,-530.18 269.79,-524.2"/>
<polygon fill="orange" stroke="orange" points="271.71,-521.27 261.59,-518.12 267.54,-526.89 271.71,-521.27"/>
</g>
<!-- Plan&#45;&gt;Situation -->
<g id="Plan&#45;hasSetting&#45;Situation" class="edge">
<title>Plan:hasSetting&#45;&gt;Situation</title>
<path fill="none" stroke="orange" d="M260,-502.5C274.01,-502.5 266.59,-482.77 259,-471 251.18,-458.87 240.49,-448.84 228.51,-440.58"/>
<polygon fill="orange" stroke="orange" points="230.33,-437.59 220.03,-435.13 226.55,-443.48 230.33,-437.59"/>
</g>
<!-- Situation&#45;&gt;Entity -->
<g id="Situation&#45;isSettingFor&#45;Entity" class="edge">
<title>Situation:isSettingFor&#45;&gt;Entity</title>
<path fill="none" stroke="magenta" d="M218,-401.5C225.45,-401.5 221.74,-429.26 217,-435 170.31,-491.53 103.24,-414.92 56,-471 24.1,-508.86 45,-644 45,-693.5 45,-856.5 45,-856.5 45,-856.5 45,-949.42 39.28,-986.18 97,-1059 106.89,-1071.48 120.28,-1081.71 134.1,-1089.89"/>
<polygon fill="magenta" stroke="magenta" points="132.78,-1093.16 143.21,-1094.98 136.19,-1087.05 132.78,-1093.16"/>
</g>
<!-- Situation&#45;&gt;Description -->
<g id="Situation&#45;satisfies&#45;Description" class="edge">
<title>Situation:satisfies&#45;&gt;Description</title>
<path fill="none" stroke="magenta" d="M174,-371.5C174,-344.43 137.87,-358.33 126,-334 93.66,-267.69 88.39,-231.47 126,-168 133.53,-155.29 144.98,-145.2 157.58,-137.26"/>
<polygon fill="magenta" stroke="magenta" points="159.57,-140.16 166.46,-132.11 156.06,-134.1 159.57,-140.16"/>
</g>
</g>
</svg>
