<?xml version="1.0" encoding="UTF-8" standalone="no"?>
<!DOCTYPE svg PUBLIC "-//W3C//DTD SVG 1.1//EN"
 "http://www.w3.org/Graphics/SVG/1.1/DTD/svg11.dtd">
<!-- Generated by graphviz version 2.43.0 (0)
 -->
<!-- Title: %3 Pages: 1 -->
<svg width="2036pt" height="866pt"
 viewBox="0.00 0.00 2036.35 866.00" xmlns="http://www.w3.org/2000/svg" xmlns:xlink="http://www.w3.org/1999/xlink">
<g id="graph0" class="graph" transform="scale(1 1) rotate(0) translate(4 862)">
<title>%3</title>
<polygon fill="white" stroke="transparent" points="-4,4 -4,-862 2032.35,-862 2032.35,4 -4,4"/>
<g id="clust1" class="cluster">
<title>cluster0</title>
<polygon fill="none" stroke="black" points="25.35,-8 25.35,-850 2020.35,-850 2020.35,-8 25.35,-8"/>
<text text-anchor="middle" x="94.85" y="-834.8" font-family="Times,serif" font-size="14.00">Schema: all&#45;v022</text>
</g>
<g id="clust2" class="cluster">
<title>cluster1</title>
<polygon fill="none" stroke="black" points="1742.35,-224 1742.35,-288 2012.35,-288 2012.35,-224 1742.35,-224"/>
<text text-anchor="middle" x="1792.85" y="-272.8" font-family="Times,serif" font-size="14.00">Cluster: ros</text>
</g>
<g id="clust5" class="cluster">
<title>cluster4</title>
<polygon fill="none" stroke="black" points="1742.35,-443 1742.35,-507 1882.35,-507 1882.35,-443 1742.35,-443"/>
<text text-anchor="middle" x="1796.85" y="-491.8" font-family="Times,serif" font-size="14.00">Cluster: core</text>
</g>
<g id="clust6" class="cluster">
<title>cluster5</title>
<polygon fill="none" stroke="black" points="895.35,-755 895.35,-819 1013.35,-819 1013.35,-755 895.35,-755"/>
<text text-anchor="middle" x="952.35" y="-803.8" font-family="Times,serif" font-size="14.00">Cluster: state</text>
</g>
<g id="clust7" class="cluster">
<title>cluster6</title>
<polygon fill="none" stroke="black" points="276.35,-16 276.35,-78 410.35,-78 410.35,-16 276.35,-16"/>
<text text-anchor="middle" x="330.35" y="-62.8" font-family="Times,serif" font-size="14.00">Cluster: urdf</text>
</g>
<g id="clust9" class="cluster">
<title>cluster8</title>
<polygon fill="none" stroke="black" points="33.35,-86 33.35,-747 1734.35,-747 1734.35,-86 33.35,-86"/>
<text text-anchor="middle" x="86.85" y="-731.8" font-family="Times,serif" font-size="14.00">Cluster: srdf</text>
</g>
<!-- Pose -->
<g id="node1" class="node">
<title>Pose</title>
<polygon fill="white" stroke="transparent" points="1954.35,-234.5 1954.35,-253.5 2001.35,-253.5 2001.35,-234.5 1954.35,-234.5"/>
<text text-anchor="start" x="1956.35" y="-240.3" font-family="Times,serif" font-size="14.00"> Pose </text>
<polygon fill="none" stroke="cyan" stroke-width="2" points="1951.85,-233 1951.85,-256 2002.85,-256 2002.85,-233 1951.85,-233"/>
</g>
<!-- Vector3 -->
<g id="node2" class="node">
<title>Vector3</title>
<polygon fill="white" stroke="transparent" points="1862.35,-234.5 1862.35,-253.5 1930.35,-253.5 1930.35,-234.5 1862.35,-234.5"/>
<text text-anchor="start" x="1864.35" y="-240.3" font-family="Times,serif" font-size="14.00"> Vector3 </text>
<polygon fill="none" stroke="black" points="1860.35,-233 1860.35,-256 1932.35,-256 1932.35,-233 1860.35,-233"/>
</g>
<!-- Transform -->
<g id="node3" class="node">
<title>Transform</title>
<polygon fill="white" stroke="transparent" points="1752.35,-234.5 1752.35,-253.5 1840.35,-253.5 1840.35,-234.5 1752.35,-234.5"/>
<text text-anchor="start" x="1754.35" y="-240.3" font-family="Times,serif" font-size="14.00"> Transform </text>
<polygon fill="none" stroke="black" points="1750.35,-233 1750.35,-256 1842.35,-256 1842.35,-233 1750.35,-233"/>
</g>
<!-- PhysicalEntity -->
<g id="node4" class="node">
<title>PhysicalEntity</title>
<polygon fill="white" stroke="transparent" points="1754.35,-453.5 1754.35,-472.5 1871.35,-472.5 1871.35,-453.5 1754.35,-453.5"/>
<text text-anchor="start" x="1756.35" y="-459.3" font-family="Times,serif" font-size="14.00"> PhysicalEntity </text>
<polygon fill="none" stroke="#1e8449" stroke-width="2" points="1751.85,-452 1751.85,-475 1872.85,-475 1872.85,-452 1751.85,-452"/>
</g>
<!-- EntityState -->
<g id="node5" class="node">
<title>EntityState</title>
<polygon fill="white" stroke="transparent" points="906.35,-765.5 906.35,-784.5 1002.35,-784.5 1002.35,-765.5 906.35,-765.5"/>
<text text-anchor="start" x="908.35" y="-771.3" font-family="Times,serif" font-size="14.00"> EntityState </text>
<polygon fill="none" stroke="brown" stroke-width="2" points="904.35,-764 904.35,-787 1004.35,-787 1004.35,-764 904.35,-764"/>
</g>
<!-- AssetState -->
<g id="node11" class="node">
<title>AssetState</title>
<polygon fill="white" stroke="transparent" points="842.35,-683.5 842.35,-702.5 958.35,-702.5 958.35,-683.5 842.35,-683.5"/>
<text text-anchor="start" x="854.85" y="-689.3" font-family="Times,serif" font-size="14.00"> &#160;AssetState </text>
<text text-anchor="start" x="844.35" y="-669.3" font-family="Times,serif" font-size="14.00">groupState: </text>
<text text-anchor="start" x="971.85" y="-669.3" font-family="Times,serif" font-size="14.00">GroupState</text>
<text text-anchor="start" x="844.35" y="-649.3" font-family="Times,serif" font-size="14.00">physicalEntity: </text>
<text text-anchor="start" x="961.35" y="-649.3" font-family="Times,serif" font-size="14.00">PhysicalEntity</text>
<polygon fill="none" stroke="brown" stroke-width="2" points="839.85,-642 839.85,-705 1068.85,-705 1068.85,-642 839.85,-642"/>
</g>
<!-- EntityState&#45;&gt;AssetState -->
<g id="EntityState&#45;AssetState" class="edge">
<title>EntityState&#45;&gt;AssetState</title>
<path fill="none" stroke="brown" stroke-dasharray="5,2" d="M954.35,-762.64C954.35,-751.15 954.35,-733.07 954.35,-716.26"/>
<polygon fill="brown" stroke="brown" points="957.85,-716.02 954.35,-706.02 950.85,-716.02 957.85,-716.02"/>
</g>
<!-- Link -->
<g id="node6" class="node">
<title>Link</title>
<polygon fill="white" stroke="transparent" points="286.35,-25.5 286.35,-44.5 330.35,-44.5 330.35,-25.5 286.35,-25.5"/>
<text text-anchor="start" x="288.35" y="-31.3" font-family="Times,serif" font-size="14.00"> Link </text>
<polygon fill="none" stroke="black" points="284.35,-24 284.35,-47 332.35,-47 332.35,-24 284.35,-24"/>
</g>
<!-- Joint -->
<g id="node7" class="node">
<title>Joint</title>
<polygon fill="white" stroke="transparent" points="353.35,-25.5 353.35,-44.5 400.35,-44.5 400.35,-25.5 353.35,-25.5"/>
<text text-anchor="start" x="355.35" y="-31.3" font-family="Times,serif" font-size="14.00"> Joint </text>
<polygon fill="none" stroke="black" points="350.85,-24 350.85,-47 401.85,-47 401.85,-24 350.85,-24"/>
</g>
<!-- Robot -->
<g id="node8" class="node">
<title>Robot</title>
<polygon fill="white" stroke="transparent" points="44.35,-693.5 44.35,-712.5 185.35,-712.5 185.35,-693.5 44.35,-693.5"/>
<text text-anchor="start" x="86.85" y="-699.3" font-family="Times,serif" font-size="14.00"> &#160;Robot </text>
<text text-anchor="start" x="46.35" y="-679.3" font-family="Times,serif" font-size="14.00">jointGroup: </text>
<text text-anchor="start" x="214.35" y="-679.3" font-family="Times,serif" font-size="14.00">JointGroup</text>
<text text-anchor="start" x="46.35" y="-659.3" font-family="Times,serif" font-size="14.00">endEffectorGroup: </text>
<text text-anchor="start" x="188.35" y="-659.3" font-family="Times,serif" font-size="14.00">EndEffectorGroup</text>
<text text-anchor="start" x="46.35" y="-639.3" font-family="Times,serif" font-size="14.00">groupState: </text>
<text text-anchor="start" x="211.85" y="-639.3" font-family="Times,serif" font-size="14.00">GroupState</text>
<polygon fill="none" stroke="brown" stroke-width="2" points="42.35,-632 42.35,-715 322.35,-715 322.35,-632 42.35,-632"/>
</g>
<!-- JointGroup -->
<g id="node9" class="node">
<title>JointGroup</title>
<polygon fill="white" stroke="transparent" points="132.35,-274.5 132.35,-293.5 257.35,-293.5 257.35,-274.5 132.35,-274.5"/>
<text text-anchor="start" x="149.35" y="-280.3" font-family="Times,serif" font-size="14.00"> &#160;JointGroup </text>
<text text-anchor="start" x="134.35" y="-260.3" font-family="Times,serif" font-size="14.00">links: </text>
<text text-anchor="start" x="296.35" y="-260.3" font-family="Times,serif" font-size="14.00">[Link]</text>
<text text-anchor="start" x="134.35" y="-240.3" font-family="Times,serif" font-size="14.00">joints: </text>
<text text-anchor="start" x="295.35" y="-240.3" font-family="Times,serif" font-size="14.00">[Joint]</text>
<text text-anchor="start" x="134.35" y="-220.3" font-family="Times,serif" font-size="14.00">kinematicChain: </text>
<text text-anchor="start" x="260.35" y="-220.3" font-family="Times,serif" font-size="14.00">KinematicChain</text>
<text text-anchor="start" x="134.35" y="-200.3" font-family="Times,serif" font-size="14.00">jointGroup: </text>
<text text-anchor="start" x="278.35" y="-200.3" font-family="Times,serif" font-size="14.00">JointGroup</text>
<polygon fill="none" stroke="black" points="130.35,-193 130.35,-296 378.35,-296 378.35,-193 130.35,-193"/>
</g>
<!-- Robot&#45;&gt;JointGroup -->
<g id="Robot&#45;jointGroup&#45;JointGroup" class="edge">
<title>Robot:jointGroup&#45;&gt;JointGroup</title>
<path fill="none" stroke="brown" d="M321.35,-683.5C344.69,-683.5 335.87,-648.42 320.35,-631 240.68,-541.61 132.16,-685.15 53.35,-595 -23.59,-507 -10.93,-429.63 53.35,-332 69.54,-307.41 94.34,-289.78 121.06,-277.15"/>
<polygon fill="brown" stroke="brown" points="122.5,-280.35 130.19,-273.06 119.63,-273.96 122.5,-280.35"/>
</g>
<!-- EndEffectorGroup -->
<g id="node10" class="node">
<title>EndEffectorGroup</title>
<polygon fill="white" stroke="transparent" points="64.35,-483.5 64.35,-502.5 212.35,-502.5 212.35,-483.5 64.35,-483.5"/>
<text text-anchor="start" x="66.35" y="-489.3" font-family="Times,serif" font-size="14.00"> &#160;EndEffectorGroup </text>
<text text-anchor="start" x="66.35" y="-469.3" font-family="Times,serif" font-size="14.00">jointGroup: </text>
<text text-anchor="start" x="215.35" y="-469.3" font-family="Times,serif" font-size="14.00">JointGroup</text>
<text text-anchor="start" x="66.35" y="-449.3" font-family="Times,serif" font-size="14.00">parentLink: </text>
<text text-anchor="start" x="238.85" y="-449.3" font-family="Times,serif" font-size="14.00">Link</text>
<text text-anchor="start" x="66.35" y="-429.3" font-family="Times,serif" font-size="14.00">parentJointGroup: </text>
<text text-anchor="start" x="215.35" y="-429.3" font-family="Times,serif" font-size="14.00">JointGroup</text>
<polygon fill="none" stroke="black" points="61.85,-422 61.85,-505 296.85,-505 296.85,-422 61.85,-422"/>
</g>
<!-- Robot&#45;&gt;EndEffectorGroup -->
<g id="Robot&#45;endEffectorGroup&#45;EndEffectorGroup" class="edge">
<title>Robot:endEffectorGroup&#45;&gt;EndEffectorGroup</title>
<path fill="none" stroke="brown" d="M321.35,-662.5C358.16,-662.5 279.27,-570.97 225,-512.37"/>
<polygon fill="brown" stroke="brown" points="227.55,-509.98 218.18,-505.05 222.43,-514.75 227.55,-509.98"/>
</g>
<!-- GroupState -->
<g id="node12" class="node">
<title>GroupState</title>
<polygon fill="white" stroke="transparent" points="317.35,-463.5 317.35,-482.5 418.35,-482.5 418.35,-463.5 317.35,-463.5"/>
<text text-anchor="start" x="319.35" y="-469.3" font-family="Times,serif" font-size="14.00"> &#160;GroupState </text>
<text text-anchor="start" x="319.35" y="-449.3" font-family="Times,serif" font-size="14.00">jointGroup: </text>
<text text-anchor="start" x="421.35" y="-449.3" font-family="Times,serif" font-size="14.00">JointGroup</text>
<polygon fill="none" stroke="black" points="315.35,-442 315.35,-485 503.35,-485 503.35,-442 315.35,-442"/>
</g>
<!-- Robot&#45;&gt;GroupState -->
<g id="Robot&#45;groupState&#45;GroupState" class="edge">
<title>Robot:groupState&#45;&gt;GroupState</title>
<path fill="none" stroke="brown" d="M321.35,-642.5C386.2,-642.5 403.26,-546.38 407.75,-495.41"/>
<polygon fill="brown" stroke="brown" points="411.25,-495.51 408.53,-485.27 404.27,-494.97 411.25,-495.51"/>
</g>
<!-- JointGroup&#45;&gt;Link -->
<g id="JointGroup&#45;links&#45;Link" class="edge">
<title>JointGroup:links&#45;&gt;Link</title>
<path fill="none" stroke="black" d="M377.35,-264.5C409.13,-264.5 382.22,-224.23 376.35,-193 371.66,-168.05 347.07,-109.01 336.35,-86 331.63,-75.88 325.62,-65.04 320.37,-56.09"/>
<polygon fill="black" stroke="black" points="323.22,-54.03 315.08,-47.25 317.21,-57.63 323.22,-54.03"/>
</g>
<!-- JointGroup&#45;&gt;Joint -->
<g id="JointGroup&#45;joints&#45;Joint" class="edge">
<title>JointGroup:joints&#45;&gt;Joint</title>
<path fill="none" stroke="black" d="M377.35,-243.5C451.65,-243.5 405.28,-108.48 384.69,-56.53"/>
<polygon fill="black" stroke="black" points="387.85,-55 380.85,-47.05 381.36,-57.63 387.85,-55"/>
</g>
<!-- JointGroup&#45;&gt;JointGroup -->
<g id="JointGroup&#45;jointGroup&#45;JointGroup" class="edge">
<title>JointGroup:jointGroup&#45;&gt;JointGroup</title>
<path fill="none" stroke="black" d="M333.32,-194.38C371.67,-174.69 396.35,-179.86 396.35,-224 396.35,-233.69 392.8,-241.5 386.72,-247.58"/>
<polygon fill="black" stroke="black" points="384.27,-245.05 378.5,-253.93 388.55,-250.59 384.27,-245.05"/>
</g>
<!-- KinematicChain -->
<g id="node18" class="node">
<title>KinematicChain</title>
<polygon fill="white" stroke="transparent" points="158.35,-135.5 158.35,-154.5 289.35,-154.5 289.35,-135.5 158.35,-135.5"/>
<text text-anchor="start" x="160.35" y="-141.3" font-family="Times,serif" font-size="14.00"> &#160;KinematicChain </text>
<text text-anchor="start" x="160.35" y="-121.3" font-family="Times,serif" font-size="14.00">baseLink: </text>
<text text-anchor="start" x="292.35" y="-121.3" font-family="Times,serif" font-size="14.00">Link</text>
<text text-anchor="start" x="160.35" y="-101.3" font-family="Times,serif" font-size="14.00">tipLink: </text>
<text text-anchor="start" x="292.35" y="-101.3" font-family="Times,serif" font-size="14.00">Link</text>
<polygon fill="none" stroke="black" points="155.85,-94 155.85,-157 326.85,-157 326.85,-94 155.85,-94"/>
</g>
<!-- JointGroup&#45;&gt;KinematicChain -->
<g id="JointGroup&#45;kinematicChain&#45;KinematicChain" class="edge">
<title>JointGroup:kinematicChain&#45;&gt;KinematicChain</title>
<path fill="none" stroke="black" d="M377.35,-223.5C390.91,-223.5 383.7,-204.4 376.35,-193 366.43,-177.62 351.83,-165.69 335.86,-156.45"/>
<polygon fill="black" stroke="black" points="337.33,-153.27 326.87,-151.6 334.01,-159.43 337.33,-153.27"/>
</g>
<!-- EndEffectorGroup&#45;&gt;Link -->
<g id="EndEffectorGroup&#45;parentLink&#45;Link" class="edge">
<title>EndEffectorGroup:parentLink&#45;&gt;Link</title>
<path fill="none" stroke="black" d="M296.35,-452.5C309.78,-452.5 298.19,-342.68 306.35,-332 334.77,-294.8 378.49,-334.35 405.35,-296 431.61,-258.5 415.27,-237.69 405.35,-193 393.97,-141.76 390.28,-125.18 355.35,-86 350.83,-80.94 347.46,-82.46 342.35,-78 334.79,-71.39 327.56,-62.99 321.73,-55.48"/>
<polygon fill="black" stroke="black" points="324.37,-53.16 315.6,-47.23 318.76,-57.34 324.37,-53.16"/>
</g>
<!-- EndEffectorGroup&#45;&gt;JointGroup -->
<g id="EndEffectorGroup&#45;jointGroup&#45;JointGroup" class="edge">
<title>EndEffectorGroup:jointGroup&#45;&gt;JointGroup</title>
<path fill="none" stroke="black" d="M296.35,-473.5C313.42,-473.5 289.42,-373.36 271.28,-305.81"/>
<polygon fill="black" stroke="black" points="274.65,-304.84 268.66,-296.1 267.89,-306.67 274.65,-304.84"/>
</g>
<!-- EndEffectorGroup&#45;&gt;JointGroup -->
<g id="EndEffectorGroup&#45;parentJointGroup&#45;JointGroup" class="edge">
<title>EndEffectorGroup:parentJointGroup&#45;&gt;JointGroup</title>
<path fill="none" stroke="black" d="M254.35,-422.5C254.35,-383.93 254.35,-340.63 254.35,-306.52"/>
<polygon fill="black" stroke="black" points="257.85,-306.24 254.35,-296.24 250.85,-306.24 257.85,-306.24"/>
</g>
<!-- AssetState&#45;&gt;PhysicalEntity -->
<g id="AssetState&#45;physicalEntity&#45;PhysicalEntity" class="edge">
<title>AssetState:physicalEntity&#45;&gt;PhysicalEntity</title>
<path fill="none" stroke="brown" d="M1068.35,-652.5C1143.07,-652.5 1675.45,-635.34 1738.35,-595 1777.59,-569.83 1798.14,-516.05 1806.94,-485.98"/>
<polygon fill="brown" stroke="brown" points="1810.39,-486.64 1809.67,-476.07 1803.64,-484.78 1810.39,-486.64"/>
</g>
<!-- AssetState&#45;&gt;GroupState -->
<g id="AssetState&#45;GroupState" class="edge">
<title>AssetState&#45;&gt;GroupState</title>
<path fill="none" stroke="brown" stroke-dasharray="5,2" d="M838.68,-661.52C726.96,-649.27 567.03,-626.88 513.35,-595 472.72,-570.87 441.64,-524.5 424.44,-494.04"/>
<polygon fill="brown" stroke="brown" points="427.43,-492.22 419.55,-485.13 421.29,-495.58 427.43,-492.22"/>
</g>
<!-- AssetState&#45;&gt;GroupState -->
<g id="AssetState&#45;groupState&#45;GroupState" class="edge">
<title>AssetState:groupState&#45;&gt;GroupState</title>
<path fill="none" stroke="brown" d="M1068.35,-672.5C1082.35,-672.5 1077,-651.15 1067.35,-641 982.26,-551.44 622.32,-653.18 513.35,-595 471.43,-572.62 440.53,-525.34 423.74,-494.26"/>
<polygon fill="brown" stroke="brown" points="426.72,-492.42 418.99,-485.18 420.52,-495.66 426.72,-492.42"/>
</g>
<!-- JointState -->
<g id="node13" class="node">
<title>JointState</title>
<polygon fill="white" stroke="transparent" points="524.35,-473.5 524.35,-492.5 613.35,-492.5 613.35,-473.5 524.35,-473.5"/>
<text text-anchor="start" x="526.35" y="-479.3" font-family="Times,serif" font-size="14.00"> &#160;JointState </text>
<text text-anchor="start" x="526.35" y="-459.3" font-family="Times,serif" font-size="14.00">position: </text>
<text text-anchor="start" x="616.35" y="-459.3" font-family="Times,serif" font-size="14.00">xsd:decimal</text>
<text text-anchor="start" x="526.35" y="-439.3" font-family="Times,serif" font-size="14.00">velocity: </text>
<text text-anchor="start" x="616.35" y="-439.3" font-family="Times,serif" font-size="14.00">xsd:decimal</text>
<polygon fill="none" stroke="black" points="521.85,-432 521.85,-495 704.85,-495 704.85,-432 521.85,-432"/>
</g>
<!-- AssetState&#45;&gt;JointState -->
<g id="AssetState&#45;JointState" class="edge">
<title>AssetState&#45;&gt;JointState</title>
<path fill="none" stroke="brown" stroke-dasharray="5,2" d="M838.58,-650.14C796.87,-638.36 751.08,-620.79 714.35,-595 680.56,-571.28 652.81,-532.91 635.01,-503.91"/>
<polygon fill="brown" stroke="brown" points="637.95,-502.01 629.8,-495.23 631.95,-505.61 637.95,-502.01"/>
</g>
<!-- MotorState -->
<g id="node14" class="node">
<title>MotorState</title>
<polygon fill="white" stroke="transparent" points="725.35,-493.5 725.35,-512.5 860.35,-512.5 860.35,-493.5 725.35,-493.5"/>
<text text-anchor="start" x="744.85" y="-499.3" font-family="Times,serif" font-size="14.00"> &#160;MotorState </text>
<text text-anchor="start" x="727.35" y="-479.3" font-family="Times,serif" font-size="14.00">motorPosition: </text>
<text text-anchor="start" x="863.35" y="-479.3" font-family="Times,serif" font-size="14.00">xsd:decimal</text>
<text text-anchor="start" x="727.35" y="-459.3" font-family="Times,serif" font-size="14.00">motorVelocity: </text>
<text text-anchor="start" x="863.35" y="-459.3" font-family="Times,serif" font-size="14.00">xsd:decimal</text>
<text text-anchor="start" x="727.35" y="-439.3" font-family="Times,serif" font-size="14.00">torque: </text>
<text text-anchor="start" x="863.35" y="-439.3" font-family="Times,serif" font-size="14.00">xsd:decimal</text>
<text text-anchor="start" x="727.35" y="-419.3" font-family="Times,serif" font-size="14.00">torqueDerivative: </text>
<text text-anchor="start" x="863.35" y="-419.3" font-family="Times,serif" font-size="14.00">xsd:decimal</text>
<polygon fill="none" stroke="black" points="722.85,-412 722.85,-515 951.85,-515 951.85,-412 722.85,-412"/>
</g>
<!-- AssetState&#45;&gt;MotorState -->
<g id="AssetState&#45;MotorState" class="edge">
<title>AssetState&#45;&gt;MotorState</title>
<path fill="none" stroke="brown" stroke-dasharray="5,2" d="M936.58,-640.91C919.18,-609.98 892.24,-562.08 870.81,-523.99"/>
<polygon fill="brown" stroke="brown" points="873.73,-522.04 865.78,-515.04 867.63,-525.47 873.73,-522.04"/>
</g>
<!-- DriveState -->
<g id="node15" class="node">
<title>DriveState</title>
<polygon fill="white" stroke="transparent" points="972.35,-473.5 972.35,-492.5 1080.35,-492.5 1080.35,-473.5 972.35,-473.5"/>
<text text-anchor="start" x="980.85" y="-479.3" font-family="Times,serif" font-size="14.00"> &#160;DriveState </text>
<text text-anchor="start" x="974.35" y="-459.3" font-family="Times,serif" font-size="14.00">current: </text>
<text text-anchor="start" x="1083.35" y="-459.3" font-family="Times,serif" font-size="14.00">xsd:decimal</text>
<text text-anchor="start" x="974.35" y="-439.3" font-family="Times,serif" font-size="14.00">boardVoltage: </text>
<text text-anchor="start" x="1083.35" y="-439.3" font-family="Times,serif" font-size="14.00">xsd:decimal</text>
<polygon fill="none" stroke="black" points="970.35,-432 970.35,-495 1172.35,-495 1172.35,-432 970.35,-432"/>
</g>
<!-- AssetState&#45;&gt;DriveState -->
<g id="AssetState&#45;DriveState" class="edge">
<title>AssetState&#45;&gt;DriveState</title>
<path fill="none" stroke="brown" stroke-dasharray="5,2" d="M972.12,-640.91C992.76,-604.22 1026.82,-543.66 1049.18,-503.92"/>
<polygon fill="brown" stroke="brown" points="1052.32,-505.46 1054.17,-495.03 1046.22,-502.03 1052.32,-505.46"/>
</g>
<!-- PowerState -->
<g id="node16" class="node">
<title>PowerState</title>
<polygon fill="white" stroke="transparent" points="1446.35,-573.5 1446.35,-592.5 1634.35,-592.5 1634.35,-573.5 1446.35,-573.5"/>
<text text-anchor="start" x="1491.85" y="-579.3" font-family="Times,serif" font-size="14.00"> &#160;PowerState </text>
<text text-anchor="start" x="1448.35" y="-559.3" font-family="Times,serif" font-size="14.00">robotVoltage: </text>
<text text-anchor="start" x="1637.35" y="-559.3" font-family="Times,serif" font-size="14.00">xsd:decimal</text>
<text text-anchor="start" x="1448.35" y="-539.3" font-family="Times,serif" font-size="14.00">robotCurrent: </text>
<text text-anchor="start" x="1637.35" y="-539.3" font-family="Times,serif" font-size="14.00">xsd:decimal</text>
<text text-anchor="start" x="1448.35" y="-519.3" font-family="Times,serif" font-size="14.00">rmsVoltage: </text>
<text text-anchor="start" x="1637.35" y="-519.3" font-family="Times,serif" font-size="14.00">xsd:decimal</text>
<text text-anchor="start" x="1448.35" y="-499.3" font-family="Times,serif" font-size="14.00">rmsCurrent: </text>
<text text-anchor="start" x="1637.35" y="-499.3" font-family="Times,serif" font-size="14.00">xsd:decimal</text>
<text text-anchor="start" x="1448.35" y="-479.3" font-family="Times,serif" font-size="14.00">power: </text>
<text text-anchor="start" x="1637.35" y="-479.3" font-family="Times,serif" font-size="14.00">xsd:decimal</text>
<text text-anchor="start" x="1448.35" y="-459.3" font-family="Times,serif" font-size="14.00">rmsPower: </text>
<text text-anchor="start" x="1637.35" y="-459.3" font-family="Times,serif" font-size="14.00">xsd:decimal</text>
<text text-anchor="start" x="1448.35" y="-439.3" font-family="Times,serif" font-size="14.00">powerFactor: </text>
<text text-anchor="start" x="1637.35" y="-439.3" font-family="Times,serif" font-size="14.00">xsd:decimal</text>
<text text-anchor="start" x="1448.35" y="-419.3" font-family="Times,serif" font-size="14.00">voltageRange: </text>
<text text-anchor="start" x="1637.35" y="-419.3" font-family="Times,serif" font-size="14.00">xsd:decimal</text>
<text text-anchor="start" x="1448.35" y="-399.3" font-family="Times,serif" font-size="14.00">currentRange: </text>
<text text-anchor="start" x="1637.35" y="-399.3" font-family="Times,serif" font-size="14.00">xsd:decimal</text>
<text text-anchor="start" x="1448.35" y="-379.3" font-family="Times,serif" font-size="14.00">phasor: </text>
<text text-anchor="start" x="1637.35" y="-379.3" font-family="Times,serif" font-size="14.00">xsd:decimal</text>
<text text-anchor="start" x="1448.35" y="-359.3" font-family="Times,serif" font-size="14.00">reactivePower: </text>
<text text-anchor="start" x="1637.35" y="-359.3" font-family="Times,serif" font-size="14.00">xsd:decimal</text>
<text text-anchor="start" x="1448.35" y="-339.3" font-family="Times,serif" font-size="14.00">totalHarmonicDistortion: </text>
<text text-anchor="start" x="1637.35" y="-339.3" font-family="Times,serif" font-size="14.00">xsd:decimal</text>
<polygon fill="none" stroke="black" points="1444.35,-332 1444.35,-595 1726.35,-595 1726.35,-332 1444.35,-332"/>
</g>
<!-- AssetState&#45;&gt;PowerState -->
<g id="AssetState&#45;PowerState" class="edge">
<title>AssetState&#45;&gt;PowerState</title>
<path fill="none" stroke="brown" stroke-dasharray="5,2" d="M1069.85,-671.54C1168.22,-666.79 1311.52,-650.43 1434.98,-594.85"/>
<polygon fill="brown" stroke="brown" points="1436.59,-597.97 1444.21,-590.61 1433.67,-591.61 1436.59,-597.97"/>
</g>
<!-- EndEffectorState -->
<g id="node17" class="node">
<title>EndEffectorState</title>
<polygon fill="white" stroke="transparent" points="1192.35,-513.5 1192.35,-532.5 1334.35,-532.5 1334.35,-513.5 1192.35,-513.5"/>
<text text-anchor="start" x="1194.35" y="-519.3" font-family="Times,serif" font-size="14.00"> &#160;EndEffectorState </text>
<text text-anchor="start" x="1194.35" y="-499.3" font-family="Times,serif" font-size="14.00">position: </text>
<text text-anchor="start" x="1337.35" y="-499.3" font-family="Times,serif" font-size="14.00">xsd:decimal</text>
<text text-anchor="start" x="1194.35" y="-479.3" font-family="Times,serif" font-size="14.00">pose: </text>
<text text-anchor="start" x="1362.85" y="-479.3" font-family="Times,serif" font-size="14.00">Pose</text>
<text text-anchor="start" x="1194.35" y="-459.3" font-family="Times,serif" font-size="14.00">force: </text>
<text text-anchor="start" x="1352.35" y="-459.3" font-family="Times,serif" font-size="14.00">Vector3</text>
<text text-anchor="start" x="1194.35" y="-439.3" font-family="Times,serif" font-size="14.00">momentum: </text>
<text text-anchor="start" x="1352.35" y="-439.3" font-family="Times,serif" font-size="14.00">Vector3</text>
<text text-anchor="start" x="1194.35" y="-419.3" font-family="Times,serif" font-size="14.00">actualMomentum: </text>
<text text-anchor="start" x="1352.35" y="-419.3" font-family="Times,serif" font-size="14.00">Vector3</text>
<text text-anchor="start" x="1194.35" y="-399.3" font-family="Times,serif" font-size="14.00">transform: </text>
<text text-anchor="start" x="1342.35" y="-399.3" font-family="Times,serif" font-size="14.00">Transform</text>
<polygon fill="none" stroke="black" points="1190.35,-392 1190.35,-535 1426.35,-535 1426.35,-392 1190.35,-392"/>
</g>
<!-- AssetState&#45;&gt;EndEffectorState -->
<g id="AssetState&#45;EndEffectorState" class="edge">
<title>AssetState&#45;&gt;EndEffectorState</title>
<path fill="none" stroke="brown" stroke-dasharray="5,2" d="M1069.93,-644.57C1107.19,-632.61 1147.56,-616.37 1181.35,-595 1203.97,-580.69 1225.53,-561.57 1244.24,-542.38"/>
<polygon fill="brown" stroke="brown" points="1246.89,-544.68 1251.27,-535.04 1241.83,-539.84 1246.89,-544.68"/>
</g>
<!-- GroupState&#45;&gt;JointGroup -->
<g id="GroupState&#45;jointGroup&#45;JointGroup" class="edge">
<title>GroupState:jointGroup&#45;&gt;JointGroup</title>
<path fill="none" stroke="black" d="M460.35,-442.5C460.35,-382.39 413.97,-334.97 365.22,-301.73"/>
<polygon fill="black" stroke="black" points="367.01,-298.72 356.74,-296.1 363.14,-304.55 367.01,-298.72"/>
</g>
<!-- EndEffectorState&#45;&gt;Pose -->
<g id="EndEffectorState&#45;pose&#45;Pose" class="edge">
<title>EndEffectorState:pose&#45;&gt;Pose</title>
<path fill="none" stroke="black" d="M1425.35,-483.5C1442.22,-483.5 1423.45,-343.96 1435.35,-332 1514.85,-252.09 1843.03,-351.16 1941.35,-296 1953.26,-289.32 1962.2,-276.86 1968.2,-265.99"/>
<polygon fill="black" stroke="black" points="1971.34,-267.54 1972.71,-257.03 1965.09,-264.39 1971.34,-267.54"/>
</g>
<!-- EndEffectorState&#45;&gt;Vector3 -->
<g id="EndEffectorState&#45;force&#45;Vector3" class="edge">
<title>EndEffectorState:force&#45;&gt;Vector3</title>
<path fill="none" stroke="black" d="M1425.35,-462.5C1439.89,-462.5 1425.12,-342.33 1435.35,-332 1500.64,-266.07 1768.39,-337.58 1851.35,-296 1865.26,-289.02 1876.83,-275.73 1884.76,-264.54"/>
<polygon fill="black" stroke="black" points="1887.7,-266.43 1890.3,-256.17 1881.86,-262.57 1887.7,-266.43"/>
</g>
<!-- EndEffectorState&#45;&gt;Vector3 -->
<g id="EndEffectorState&#45;momentum&#45;Vector3" class="edge">
<title>EndEffectorState:momentum&#45;&gt;Vector3</title>
<path fill="none" stroke="black" d="M1425.35,-442.5C1450,-442.5 1417.88,-349.4 1435.35,-332 1501.09,-266.52 1768.39,-337.58 1851.35,-296 1865.26,-289.02 1876.83,-275.73 1884.76,-264.54"/>
<polygon fill="black" stroke="black" points="1887.7,-266.43 1890.3,-256.17 1881.86,-262.57 1887.7,-266.43"/>
</g>
<!-- EndEffectorState&#45;&gt;Vector3 -->
<g id="EndEffectorState&#45;actualMomentum&#45;Vector3" class="edge">
<title>EndEffectorState:actualMomentum&#45;&gt;Vector3</title>
<path fill="none" stroke="black" d="M1425.35,-422.5C1445.58,-422.5 1420.87,-346.14 1435.35,-332 1501.73,-267.17 1768.39,-337.58 1851.35,-296 1865.26,-289.02 1876.83,-275.73 1884.76,-264.54"/>
<polygon fill="black" stroke="black" points="1887.7,-266.43 1890.3,-256.17 1881.86,-262.57 1887.7,-266.43"/>
</g>
<!-- EndEffectorState&#45;&gt;Transform -->
<g id="EndEffectorState&#45;transform&#45;Transform" class="edge">
<title>EndEffectorState:transform&#45;&gt;Transform</title>
<path fill="none" stroke="black" d="M1425.35,-402.5C1441.17,-402.5 1424.03,-343.06 1435.35,-332 1483.83,-284.6 1676.36,-323.48 1738.35,-296 1754.85,-288.68 1770.1,-275.01 1780.81,-263.74"/>
<polygon fill="black" stroke="black" points="1783.64,-265.83 1787.77,-256.08 1778.45,-261.13 1783.64,-265.83"/>
</g>
<!-- KinematicChain&#45;&gt;Link -->
<g id="KinematicChain&#45;baseLink&#45;Link" class="edge">
<title>KinematicChain:baseLink&#45;&gt;Link</title>
<path fill="none" stroke="black" d="M326.35,-124.5C354.12,-124.5 334.53,-81.9 320.04,-55.98"/>
<polygon fill="black" stroke="black" points="323.06,-54.2 315.03,-47.29 317,-57.7 323.06,-54.2"/>
</g>
<!-- KinematicChain&#45;&gt;Link -->
<g id="KinematicChain&#45;tipLink&#45;Link" class="edge">
<title>KinematicChain:tipLink&#45;&gt;Link</title>
<path fill="none" stroke="black" d="M308.35,-94.5C308.35,-82.24 308.35,-68.53 308.35,-57.52"/>
<polygon fill="black" stroke="black" points="311.85,-57.19 308.35,-47.19 304.85,-57.19 311.85,-57.19"/>
</g>
</g>
</svg>
