<?xml version="1.0" encoding="UTF-8" standalone="no"?>
<!DOCTYPE svg PUBLIC "-//W3C//DTD SVG 1.1//EN"
 "http://www.w3.org/Graphics/SVG/1.1/DTD/svg11.dtd">
<!-- Generated by graphviz version 2.43.0 (0)
 -->
<!-- Title: %3 Pages: 1 -->
<svg width="4800pt" height="806pt"
 viewBox="0.00 0.00 4800.01 806.00" xmlns="http://www.w3.org/2000/svg" xmlns:xlink="http://www.w3.org/1999/xlink">
<g id="graph0" class="graph" transform="scale(1 1) rotate(0) translate(4 802)">
<title>%3</title>
<polygon fill="white" stroke="transparent" points="-4,4 -4,-802 4796.01,-802 4796.01,4 -4,4"/>
<g id="clust1" class="cluster">
<title>cluster0</title>
<polygon fill="none" stroke="black" points="26.01,-8 26.01,-790 4784.01,-790 4784.01,-8 26.01,-8"/>
<text text-anchor="middle" x="101.01" y="-774.8" font-family="Times,serif" font-size="14.00">Schema: fera&#45;v001</text>
</g>
<!-- ProductionSituation -->
<g id="node1" class="node">
<title>ProductionSituation</title>
<polygon fill="white" stroke="transparent" points="4616.01,-615.5 4616.01,-634.5 4773.01,-634.5 4773.01,-615.5 4616.01,-615.5"/>
<text text-anchor="start" x="4618.01" y="-621.3" font-family="Times,serif" font-size="14.00"> ProductionSituation </text>
<polygon fill="none" stroke="magenta" stroke-width="2" points="4613.51,-614 4613.51,-637 4774.51,-637 4774.51,-614 4613.51,-614"/>
</g>
<!-- PenAssemblySituation -->
<g id="node9" class="node">
<title>PenAssemblySituation</title>
<text text-anchor="start" x="4511.01" y="-411.3" font-family="Times,serif" font-size="14.00"> &#160;PenAssemblySituation </text>
<polygon fill="none" stroke="black" points="4507.01,-404 4507.01,-427 4689.01,-427 4689.01,-404 4507.01,-404"/>
</g>
<!-- ProductionSituation&#45;&gt;PenAssemblySituation -->
<g id="ProductionSituation&#45;PenAssemblySituation" class="edge">
<title>ProductionSituation&#45;&gt;PenAssemblySituation</title>
<path fill="none" stroke="magenta" stroke-dasharray="5,2" d="M4688.57,-612.72C4672.78,-578.51 4626.79,-478.88 4607.11,-436.24"/>
<polygon fill="magenta" stroke="magenta" points="4610.29,-434.76 4602.92,-427.14 4603.93,-437.69 4610.29,-434.76"/>
</g>
<!-- ProductionPlan -->
<g id="node2" class="node">
<title>ProductionPlan</title>
<polygon fill="white" stroke="transparent" points="4377.01,-736.5 4377.01,-755.5 4500.01,-755.5 4500.01,-736.5 4377.01,-736.5"/>
<text text-anchor="start" x="4379.01" y="-742.3" font-family="Times,serif" font-size="14.00"> ProductionPlan </text>
<polygon fill="none" stroke="orange" stroke-width="2" points="4374.51,-735 4374.51,-758 4501.51,-758 4501.51,-735 4374.51,-735"/>
</g>
<!-- PenAssemblyPlan -->
<g id="node10" class="node">
<title>PenAssemblyPlan</title>
<text text-anchor="start" x="4286.01" y="-631.3" font-family="Times,serif" font-size="14.00"> &#160;PenAssemblyPlan </text>
<text text-anchor="start" x="4286.01" y="-611.3" font-family="Times,serif" font-size="14.00">hasSetting: </text>
<text text-anchor="start" x="4431.01" y="-611.3" font-family="Times,serif" font-size="14.00">PenAssemblySituation</text>
<polygon fill="none" stroke="black" points="4281.51,-604 4281.51,-647 4594.51,-647 4594.51,-604 4281.51,-604"/>
</g>
<!-- ProductionPlan&#45;&gt;PenAssemblyPlan -->
<g id="ProductionPlan&#45;PenAssemblyPlan" class="edge">
<title>ProductionPlan&#45;&gt;PenAssemblyPlan</title>
<path fill="none" stroke="orange" stroke-dasharray="5,2" d="M4438.01,-733.65C4438.01,-715.96 4438.01,-682.04 4438.01,-657.08"/>
<polygon fill="orange" stroke="orange" points="4441.51,-657.01 4438.01,-647.01 4434.51,-657.01 4441.51,-657.01"/>
</g>
<!-- Gripper -->
<g id="node3" class="node">
<title>Gripper</title>
<polygon fill="white" stroke="transparent" points="4163.01,-736.5 4163.01,-755.5 4232.01,-755.5 4232.01,-736.5 4163.01,-736.5"/>
<text text-anchor="start" x="4165.01" y="-742.3" font-family="Times,serif" font-size="14.00"> Gripper </text>
<polygon fill="none" stroke="green" stroke-width="2" points="4160.51,-735 4160.51,-758 4233.51,-758 4233.51,-735 4160.51,-735"/>
</g>
<!-- RobotiqGripper -->
<g id="node11" class="node">
<title>RobotiqGripper</title>
<text text-anchor="start" x="4135.01" y="-621.3" font-family="Times,serif" font-size="14.00"> &#160;RobotiqGripper </text>
<polygon fill="none" stroke="black" points="4130.51,-614 4130.51,-637 4263.51,-637 4263.51,-614 4130.51,-614"/>
</g>
<!-- Gripper&#45;&gt;RobotiqGripper -->
<g id="Gripper&#45;RobotiqGripper" class="edge">
<title>Gripper&#45;&gt;RobotiqGripper</title>
<path fill="none" stroke="green" stroke-dasharray="5,2" d="M4197.01,-733.65C4197.01,-713.57 4197.01,-672.57 4197.01,-647.52"/>
<polygon fill="green" stroke="green" points="4200.51,-647.26 4197.01,-637.26 4193.51,-647.26 4200.51,-647.26"/>
</g>
<!-- WorkItem -->
<g id="node4" class="node">
<title>WorkItem</title>
<polygon fill="white" stroke="transparent" points="3695.01,-736.5 3695.01,-755.5 3778.01,-755.5 3778.01,-736.5 3695.01,-736.5"/>
<text text-anchor="start" x="3697.01" y="-742.3" font-family="Times,serif" font-size="14.00"> WorkItem </text>
<polygon fill="none" stroke="springgreen" stroke-width="2" points="3692.51,-735 3692.51,-758 3779.51,-758 3779.51,-735 3692.51,-735"/>
</g>
<!-- NovoPen -->
<g id="node12" class="node">
<title>NovoPen</title>
<text text-anchor="start" x="3756.01" y="-411.3" font-family="Times,serif" font-size="14.00"> &#160;NovoPen </text>
<polygon fill="none" stroke="black" points="3751.51,-404 3751.51,-427 3836.51,-427 3836.51,-404 3751.51,-404"/>
</g>
<!-- WorkItem&#45;&gt;NovoPen -->
<g id="WorkItem&#45;NovoPen" class="edge">
<title>WorkItem&#45;&gt;NovoPen</title>
<path fill="none" stroke="springgreen" stroke-dasharray="5,2" d="M3780.82,-740.87C3832.23,-734.53 3911.81,-721.19 3930.01,-698 3949.9,-672.65 3942.31,-582.78 3930.01,-553 3907.7,-499.02 3852.57,-455.18 3819.75,-432.76"/>
<polygon fill="springgreen" stroke="springgreen" points="3821.4,-429.65 3811.14,-427.01 3817.51,-435.47 3821.4,-429.65"/>
</g>
<!-- PenBody -->
<g id="node13" class="node">
<title>PenBody</title>
<text text-anchor="start" x="3964.01" y="-631.3" font-family="Times,serif" font-size="14.00"> &#160;PenBody </text>
<text text-anchor="start" x="3964.01" y="-611.3" font-family="Times,serif" font-size="14.00">isPartOf: </text>
<text text-anchor="start" x="4045.01" y="-611.3" font-family="Times,serif" font-size="14.00">NovoPen</text>
<polygon fill="none" stroke="black" points="3959.51,-604 3959.51,-647 4112.51,-647 4112.51,-604 3959.51,-604"/>
</g>
<!-- WorkItem&#45;&gt;PenBody -->
<g id="WorkItem&#45;PenBody" class="edge">
<title>WorkItem&#45;&gt;PenBody</title>
<path fill="none" stroke="springgreen" stroke-dasharray="5,2" d="M3780.69,-741.12C3824.33,-735.54 3891.76,-723.37 3945.01,-698 3968.07,-687.01 3990.68,-669.29 4007.59,-654.24"/>
<polygon fill="springgreen" stroke="springgreen" points="4010.38,-656.43 4015.42,-647.11 4005.67,-651.26 4010.38,-656.43"/>
</g>
<!-- PenCap -->
<g id="node14" class="node">
<title>PenCap</title>
<text text-anchor="start" x="3188.01" y="-631.3" font-family="Times,serif" font-size="14.00"> &#160;PenCap </text>
<text text-anchor="start" x="3188.01" y="-611.3" font-family="Times,serif" font-size="14.00">isPartOf: </text>
<text text-anchor="start" x="3261.01" y="-611.3" font-family="Times,serif" font-size="14.00">NovoPen</text>
<polygon fill="none" stroke="black" points="3183.51,-604 3183.51,-647 3328.51,-647 3328.51,-604 3183.51,-604"/>
</g>
<!-- WorkItem&#45;&gt;PenCap -->
<g id="WorkItem&#45;PenCap" class="edge">
<title>WorkItem&#45;&gt;PenCap</title>
<path fill="none" stroke="springgreen" stroke-dasharray="5,2" d="M3691.28,-743.47C3601.03,-738.85 3400.41,-725.71 3338.01,-698 3315.75,-688.12 3295.12,-670.06 3280.12,-654.56"/>
<polygon fill="springgreen" stroke="springgreen" points="3282.61,-652.11 3273.22,-647.21 3277.51,-656.9 3282.61,-652.11"/>
</g>
<!-- BodyLiner -->
<g id="node15" class="node">
<title>BodyLiner</title>
<text text-anchor="start" x="3351.01" y="-631.3" font-family="Times,serif" font-size="14.00"> &#160;BodyLiner </text>
<text text-anchor="start" x="3351.01" y="-611.3" font-family="Times,serif" font-size="14.00">isPartOf: </text>
<text text-anchor="start" x="3444.01" y="-611.3" font-family="Times,serif" font-size="14.00">NovoPen</text>
<polygon fill="none" stroke="black" points="3346.51,-604 3346.51,-647 3511.51,-647 3511.51,-604 3346.51,-604"/>
</g>
<!-- WorkItem&#45;&gt;BodyLiner -->
<g id="WorkItem&#45;BodyLiner" class="edge">
<title>WorkItem&#45;&gt;BodyLiner</title>
<path fill="none" stroke="springgreen" stroke-dasharray="5,2" d="M3691.33,-741.44C3646.51,-736.05 3576.37,-724 3521.01,-698 3497.51,-686.96 3474.44,-669.02 3457.29,-653.87"/>
<polygon fill="springgreen" stroke="springgreen" points="3459.61,-651.25 3449.84,-647.14 3454.92,-656.45 3459.61,-651.25"/>
</g>
<!-- CartridgeHolder -->
<g id="node16" class="node">
<title>CartridgeHolder</title>
<text text-anchor="start" x="3534.01" y="-631.3" font-family="Times,serif" font-size="14.00"> &#160;CartridgeHolder </text>
<text text-anchor="start" x="3534.01" y="-611.3" font-family="Times,serif" font-size="14.00">isPartOf: </text>
<text text-anchor="start" x="3671.01" y="-611.3" font-family="Times,serif" font-size="14.00">NovoPen</text>
<polygon fill="none" stroke="black" points="3529.51,-604 3529.51,-647 3738.51,-647 3738.51,-604 3529.51,-604"/>
</g>
<!-- WorkItem&#45;&gt;CartridgeHolder -->
<g id="WorkItem&#45;CartridgeHolder" class="edge">
<title>WorkItem&#45;&gt;CartridgeHolder</title>
<path fill="none" stroke="springgreen" stroke-dasharray="5,2" d="M3725.85,-733.65C3710.21,-715.41 3679.78,-679.9 3658.23,-654.77"/>
<polygon fill="springgreen" stroke="springgreen" points="3660.75,-652.32 3651.58,-647.01 3655.43,-656.88 3660.75,-652.32"/>
</g>
<!-- PistonRod -->
<g id="node17" class="node">
<title>PistonRod</title>
<text text-anchor="start" x="3761.01" y="-631.3" font-family="Times,serif" font-size="14.00"> &#160;PistonRod </text>
<text text-anchor="start" x="3761.01" y="-611.3" font-family="Times,serif" font-size="14.00">isPartOf: </text>
<text text-anchor="start" x="3853.01" y="-611.3" font-family="Times,serif" font-size="14.00">NovoPen</text>
<polygon fill="none" stroke="black" points="3757.01,-604 3757.01,-647 3921.01,-647 3921.01,-604 3757.01,-604"/>
</g>
<!-- WorkItem&#45;&gt;PistonRod -->
<g id="WorkItem&#45;PistonRod" class="edge">
<title>WorkItem&#45;&gt;PistonRod</title>
<path fill="none" stroke="springgreen" stroke-dasharray="5,2" d="M3746.26,-733.65C3762.05,-715.41 3792.79,-679.9 3814.54,-654.77"/>
<polygon fill="springgreen" stroke="springgreen" points="3817.36,-656.86 3821.26,-647.01 3812.06,-652.28 3817.36,-656.86"/>
</g>
<!-- RobotTask -->
<g id="node5" class="node">
<title>RobotTask</title>
<polygon fill="white" stroke="transparent" points="2389.01,-736.5 2389.01,-755.5 2477.01,-755.5 2477.01,-736.5 2389.01,-736.5"/>
<text text-anchor="start" x="2391.01" y="-742.3" font-family="Times,serif" font-size="14.00"> RobotTask </text>
<polygon fill="none" stroke="cyan" stroke-width="2" points="2387.01,-735 2387.01,-758 2479.01,-758 2479.01,-735 2387.01,-735"/>
</g>
<!-- PenAssemblyTask -->
<g id="node18" class="node">
<title>PenAssemblyTask</title>
<text text-anchor="start" x="1923.01" y="-621.3" font-family="Times,serif" font-size="14.00"> &#160;PenAssemblyTask </text>
<polygon fill="none" stroke="black" points="1918.51,-614 1918.51,-637 2067.51,-637 2067.51,-614 1918.51,-614"/>
</g>
<!-- RobotTask&#45;&gt;PenAssemblyTask -->
<g id="RobotTask&#45;PenAssemblyTask" class="edge">
<title>RobotTask&#45;&gt;PenAssemblyTask</title>
<path fill="none" stroke="cyan" stroke-dasharray="5,2" d="M2386,-742.53C2302.35,-736.7 2131.33,-722.19 2077.01,-698 2049.49,-685.75 2024.08,-661.57 2008.57,-644.74"/>
<polygon fill="cyan" stroke="cyan" points="2011.07,-642.27 2001.79,-637.15 2005.85,-646.94 2011.07,-642.27"/>
</g>
<!-- InsertionTask -->
<g id="node19" class="node">
<title>InsertionTask</title>
<text text-anchor="start" x="2090.01" y="-671.3" font-family="Times,serif" font-size="14.00"> &#160;InsertionTask </text>
<text text-anchor="start" x="2090.01" y="-651.3" font-family="Times,serif" font-size="14.00">inhandPose: </text>
<text text-anchor="start" x="2206.01" y="-651.3" font-family="Times,serif" font-size="14.00">InitialInHandPoseEstimationState</text>
<text text-anchor="start" x="2090.01" y="-631.3" font-family="Times,serif" font-size="14.00">fixtureID: </text>
<text text-anchor="start" x="2291.51" y="-631.3" font-family="Times,serif" font-size="14.00">xsd:string</text>
<text text-anchor="start" x="2090.01" y="-611.3" font-family="Times,serif" font-size="14.00">success: </text>
<text text-anchor="start" x="2303.51" y="-611.3" font-family="Times,serif" font-size="14.00">xsd:int</text>
<text text-anchor="start" x="2090.01" y="-591.3" font-family="Times,serif" font-size="14.00">height: </text>
<text text-anchor="start" x="2303.51" y="-591.3" font-family="Times,serif" font-size="14.00">xsd:int</text>
<text text-anchor="start" x="2090.01" y="-571.3" font-family="Times,serif" font-size="14.00">fixturePose: </text>
<text text-anchor="start" x="2311.01" y="-571.3" font-family="Times,serif" font-size="14.00">Pose</text>
<polygon fill="none" stroke="black" points="2086.01,-564 2086.01,-687 2454.01,-687 2454.01,-564 2086.01,-564"/>
</g>
<!-- RobotTask&#45;&gt;InsertionTask -->
<g id="RobotTask&#45;InsertionTask" class="edge">
<title>RobotTask&#45;&gt;InsertionTask</title>
<path fill="none" stroke="cyan" stroke-dasharray="5,2" d="M2417.08,-733.87C2403.51,-723.97 2382.83,-708.87 2361.22,-693.09"/>
<polygon fill="cyan" stroke="cyan" points="2363.05,-690.09 2352.91,-687.02 2358.92,-695.75 2363.05,-690.09"/>
</g>
<!-- InsertionInspectionTask -->
<g id="node20" class="node">
<title>InsertionInspectionTask</title>
<text text-anchor="start" x="2477.01" y="-631.3" font-family="Times,serif" font-size="14.00"> &#160;InsertionInspectionTask </text>
<text text-anchor="start" x="2477.01" y="-611.3" font-family="Times,serif" font-size="14.00">success: </text>
<text text-anchor="start" x="2667.01" y="-611.3" font-family="Times,serif" font-size="14.00">xsd:int</text>
<polygon fill="none" stroke="black" points="2472.51,-604 2472.51,-647 2719.51,-647 2719.51,-604 2472.51,-604"/>
</g>
<!-- RobotTask&#45;&gt;InsertionInspectionTask -->
<g id="RobotTask&#45;InsertionInspectionTask" class="edge">
<title>RobotTask&#45;&gt;InsertionInspectionTask</title>
<path fill="none" stroke="cyan" stroke-dasharray="5,2" d="M2448.93,-733.87C2474.34,-715.33 2524.69,-678.56 2559.35,-653.26"/>
<polygon fill="cyan" stroke="cyan" points="2561.78,-655.82 2567.79,-647.1 2557.65,-650.17 2561.78,-655.82"/>
</g>
<!-- BinPickTask -->
<g id="node21" class="node">
<title>BinPickTask</title>
<text text-anchor="start" x="2742.01" y="-621.3" font-family="Times,serif" font-size="14.00"> &#160;BinPickTask </text>
<polygon fill="none" stroke="black" points="2738.01,-614 2738.01,-637 2846.01,-637 2846.01,-614 2738.01,-614"/>
</g>
<!-- RobotTask&#45;&gt;BinPickTask -->
<g id="RobotTask&#45;BinPickTask" class="edge">
<title>RobotTask&#45;&gt;BinPickTask</title>
<path fill="none" stroke="cyan" stroke-dasharray="5,2" d="M2480.13,-741.83C2552.5,-735.54 2687.07,-721.12 2729.01,-698 2751.38,-685.67 2769.68,-662.2 2780.68,-645.52"/>
<polygon fill="cyan" stroke="cyan" points="2783.65,-647.38 2786.03,-637.06 2777.73,-643.65 2783.65,-647.38"/>
</g>
<!-- ProcessingTask -->
<g id="node22" class="node">
<title>ProcessingTask</title>
<text text-anchor="start" x="2868.01" y="-621.3" font-family="Times,serif" font-size="14.00"> &#160;ProcessingTask </text>
<polygon fill="none" stroke="black" points="2864.01,-614 2864.01,-637 2996.01,-637 2996.01,-614 2864.01,-614"/>
</g>
<!-- RobotTask&#45;&gt;ProcessingTask -->
<g id="RobotTask&#45;ProcessingTask" class="edge">
<title>RobotTask&#45;&gt;ProcessingTask</title>
<path fill="none" stroke="cyan" stroke-dasharray="5,2" d="M2480.16,-743.96C2575.86,-740.23 2789.37,-728.64 2855.01,-698 2880.41,-686.14 2902.68,-662.22 2916.21,-645.33"/>
<polygon fill="cyan" stroke="cyan" points="2919.12,-647.28 2922.46,-637.23 2913.58,-643 2919.12,-647.28"/>
</g>
<!-- GraspTask -->
<g id="node28" class="node">
<title>GraspTask</title>
<text text-anchor="start" x="3019.01" y="-631.3" font-family="Times,serif" font-size="14.00"> &#160;GraspTask </text>
<text text-anchor="start" x="3019.01" y="-611.3" font-family="Times,serif" font-size="14.00">id: </text>
<text text-anchor="start" x="3113.01" y="-611.3" font-family="Times,serif" font-size="14.00">xsd:int</text>
<polygon fill="none" stroke="black" points="3014.51,-604 3014.51,-647 3165.51,-647 3165.51,-604 3014.51,-604"/>
</g>
<!-- RobotTask&#45;&gt;GraspTask -->
<g id="RobotTask&#45;GraspTask" class="edge">
<title>RobotTask&#45;&gt;GraspTask</title>
<path fill="none" stroke="cyan" stroke-dasharray="5,2" d="M2480.38,-745.24C2599.83,-743.99 2910.46,-736.98 3005.01,-698 3028.14,-688.46 3049.66,-670.22 3065.26,-654.55"/>
<polygon fill="cyan" stroke="cyan" points="3068.01,-656.75 3072.42,-647.12 3062.96,-651.89 3068.01,-656.75"/>
</g>
<!-- PoseEstimationTask -->
<g id="node30" class="node">
<title>PoseEstimationTask</title>
<text text-anchor="start" x="1499.01" y="-621.3" font-family="Times,serif" font-size="14.00"> &#160;PoseEstimationTask </text>
<polygon fill="none" stroke="black" points="1494.51,-614 1494.51,-637 1659.51,-637 1659.51,-614 1494.51,-614"/>
</g>
<!-- RobotTask&#45;&gt;PoseEstimationTask -->
<g id="RobotTask&#45;PoseEstimationTask" class="edge">
<title>RobotTask&#45;&gt;PoseEstimationTask</title>
<path fill="none" stroke="cyan" stroke-dasharray="5,2" d="M2385.91,-744.19C2229.86,-739.61 1735.86,-723.27 1669.01,-698 1638.81,-686.59 1610.52,-661.62 1593.48,-644.44"/>
<polygon fill="cyan" stroke="cyan" points="1595.94,-641.94 1586.48,-637.16 1590.89,-646.8 1595.94,-641.94"/>
</g>
<!-- GraspValidationTask -->
<g id="node33" class="node">
<title>GraspValidationTask</title>
<text text-anchor="start" x="1682.01" y="-631.3" font-family="Times,serif" font-size="14.00"> &#160;GraspValidationTask </text>
<text text-anchor="start" x="1682.01" y="-611.3" font-family="Times,serif" font-size="14.00">id: </text>
<text text-anchor="start" x="1847.01" y="-611.3" font-family="Times,serif" font-size="14.00">xsd:int</text>
<polygon fill="none" stroke="black" points="1678.01,-604 1678.01,-647 1900.01,-647 1900.01,-604 1678.01,-604"/>
</g>
<!-- RobotTask&#45;&gt;GraspValidationTask -->
<g id="RobotTask&#45;GraspValidationTask" class="edge">
<title>RobotTask&#45;&gt;GraspValidationTask</title>
<path fill="none" stroke="cyan" stroke-dasharray="5,2" d="M2385.95,-743.87C2274.65,-739.6 1997.97,-726.38 1910.01,-698 1878.91,-687.97 1847.24,-668.87 1824.11,-652.93"/>
<polygon fill="cyan" stroke="cyan" points="1825.87,-649.9 1815.68,-647.01 1821.85,-655.62 1825.87,-649.9"/>
</g>
<!-- Pose -->
<g id="node6" class="node">
<title>Pose</title>
<polygon fill="white" stroke="transparent" points="534.01,-37.5 534.01,-56.5 581.01,-56.5 581.01,-37.5 534.01,-37.5"/>
<text text-anchor="start" x="536.01" y="-43.3" font-family="Times,serif" font-size="14.00"> Pose </text>
<polygon fill="none" stroke="green" stroke-width="2" points="531.51,-36 531.51,-59 582.51,-59 582.51,-36 531.51,-36"/>
</g>
<!-- TaskConfiguration -->
<g id="node7" class="node">
<title>TaskConfiguration</title>
<polygon fill="white" stroke="transparent" points="820.01,-736.5 820.01,-755.5 963.01,-755.5 963.01,-736.5 820.01,-736.5"/>
<text text-anchor="start" x="822.01" y="-742.3" font-family="Times,serif" font-size="14.00"> TaskConfiguration </text>
<polygon fill="none" stroke="#c27e79" stroke-width="2" points="817.51,-735 817.51,-758 964.51,-758 964.51,-735 817.51,-735"/>
</g>
<!-- PenAssemblyConfiguration -->
<g id="node23" class="node">
<title>PenAssemblyConfiguration</title>
<text text-anchor="start" x="788.01" y="-621.3" font-family="Times,serif" font-size="14.00"> &#160;PenAssemblyConfiguration </text>
<polygon fill="none" stroke="black" points="784.01,-614 784.01,-637 998.01,-637 998.01,-614 784.01,-614"/>
</g>
<!-- TaskConfiguration&#45;&gt;PenAssemblyConfiguration -->
<g id="TaskConfiguration&#45;PenAssemblyConfiguration" class="edge">
<title>TaskConfiguration&#45;&gt;PenAssemblyConfiguration</title>
<path fill="none" stroke="#c27e79" stroke-dasharray="5,2" d="M891.01,-733.65C891.01,-713.57 891.01,-672.57 891.01,-647.52"/>
<polygon fill="#c27e79" stroke="#c27e79" points="894.51,-647.26 891.01,-637.26 887.51,-647.26 894.51,-647.26"/>
</g>
<!-- InsertionConfiguration -->
<g id="node24" class="node">
<title>InsertionConfiguration</title>
<text text-anchor="start" x="1020.01" y="-621.3" font-family="Times,serif" font-size="14.00"> &#160;InsertionConfiguration </text>
<polygon fill="none" stroke="black" points="1016.01,-614 1016.01,-637 1200.01,-637 1200.01,-614 1016.01,-614"/>
</g>
<!-- TaskConfiguration&#45;&gt;InsertionConfiguration -->
<g id="TaskConfiguration&#45;InsertionConfiguration" class="edge">
<title>TaskConfiguration&#45;&gt;InsertionConfiguration</title>
<path fill="none" stroke="#c27e79" stroke-dasharray="5,2" d="M924.93,-733.93C948.57,-725.32 980.49,-712.56 1007.01,-698 1036.2,-681.96 1067.08,-659.12 1086.9,-643.6"/>
<polygon fill="#c27e79" stroke="#c27e79" points="1089.26,-646.19 1094.92,-637.24 1084.91,-640.71 1089.26,-646.19"/>
</g>
<!-- InsertionInspectionConfiguration -->
<g id="node25" class="node">
<title>InsertionInspectionConfiguration</title>
<text text-anchor="start" x="1222.01" y="-621.3" font-family="Times,serif" font-size="14.00"> &#160;InsertionInspectionConfiguration </text>
<polygon fill="none" stroke="black" points="1218.01,-614 1218.01,-637 1476.01,-637 1476.01,-614 1218.01,-614"/>
</g>
<!-- TaskConfiguration&#45;&gt;InsertionInspectionConfiguration -->
<g id="TaskConfiguration&#45;InsertionInspectionConfiguration" class="edge">
<title>TaskConfiguration&#45;&gt;InsertionInspectionConfiguration</title>
<path fill="none" stroke="#c27e79" stroke-dasharray="5,2" d="M965.52,-741.32C1030.99,-736.02 1128.15,-724.18 1209.01,-698 1250.8,-684.47 1295.25,-659.23 1322.07,-642.65"/>
<polygon fill="#c27e79" stroke="#c27e79" points="1324.18,-645.46 1330.79,-637.18 1320.46,-639.53 1324.18,-645.46"/>
</g>
<!-- BinPickConfiguration -->
<g id="node26" class="node">
<title>BinPickConfiguration</title>
<text text-anchor="start" x="380.01" y="-621.3" font-family="Times,serif" font-size="14.00"> &#160;BinPickConfiguration </text>
<polygon fill="none" stroke="black" points="376.01,-614 376.01,-637 550.01,-637 550.01,-614 376.01,-614"/>
</g>
<!-- TaskConfiguration&#45;&gt;BinPickConfiguration -->
<g id="TaskConfiguration&#45;BinPickConfiguration" class="edge">
<title>TaskConfiguration&#45;&gt;BinPickConfiguration</title>
<path fill="none" stroke="#c27e79" stroke-dasharray="5,2" d="M816.38,-745.25C747.22,-742.63 642.71,-732.52 559.01,-698 528.52,-685.43 498.94,-660.97 480.86,-644.19"/>
<polygon fill="#c27e79" stroke="#c27e79" points="483.05,-641.45 473.4,-637.09 478.23,-646.52 483.05,-641.45"/>
</g>
<!-- ProcessingConfiguration -->
<g id="node27" class="node">
<title>ProcessingConfiguration</title>
<text text-anchor="start" x="572.01" y="-621.3" font-family="Times,serif" font-size="14.00"> &#160;ProcessingConfiguration </text>
<polygon fill="none" stroke="black" points="568.01,-614 568.01,-637 766.01,-637 766.01,-614 568.01,-614"/>
</g>
<!-- TaskConfiguration&#45;&gt;ProcessingConfiguration -->
<g id="TaskConfiguration&#45;ProcessingConfiguration" class="edge">
<title>TaskConfiguration&#45;&gt;ProcessingConfiguration</title>
<path fill="none" stroke="#c27e79" stroke-dasharray="5,2" d="M857.98,-733.95C834.33,-725.21 802.03,-712.3 775.01,-698 743.91,-681.55 710.49,-658.5 689.19,-643.06"/>
<polygon fill="#c27e79" stroke="#c27e79" points="691.26,-640.24 681.12,-637.15 687.12,-645.89 691.26,-640.24"/>
</g>
<!-- TaskState -->
<g id="node8" class="node">
<title>TaskState</title>
<polygon fill="white" stroke="transparent" points="37.01,-736.5 37.01,-755.5 121.01,-755.5 121.01,-736.5 37.01,-736.5"/>
<text text-anchor="start" x="39.01" y="-742.3" font-family="Times,serif" font-size="14.00"> TaskState </text>
<polygon fill="none" stroke="brown" stroke-width="2" points="35.01,-735 35.01,-758 123.01,-758 123.01,-735 35.01,-735"/>
</g>
<!-- GraspState -->
<g id="node29" class="node">
<title>GraspState</title>
<text text-anchor="start" x="359.01" y="-501.3" font-family="Times,serif" font-size="14.00"> &#160;GraspState </text>
<text text-anchor="start" x="346.01" y="-481.3" font-family="Times,serif" font-size="14.00">poseEstimation: </text>
<text text-anchor="start" x="472.01" y="-481.3" font-family="Times,serif" font-size="14.00">PoseEstimationState</text>
<text text-anchor="start" x="346.01" y="-461.3" font-family="Times,serif" font-size="14.00">attemptNr: </text>
<text text-anchor="start" x="522.51" y="-461.3" font-family="Times,serif" font-size="14.00">xsd:int</text>
<text text-anchor="start" x="346.01" y="-441.3" font-family="Times,serif" font-size="14.00">runTime: </text>
<text text-anchor="start" x="516.51" y="-441.3" font-family="Times,serif" font-size="14.00">xsd:float</text>
<text text-anchor="start" x="346.01" y="-421.3" font-family="Times,serif" font-size="14.00">collision: </text>
<text text-anchor="start" x="522.51" y="-421.3" font-family="Times,serif" font-size="14.00">xsd:int</text>
<text text-anchor="start" x="346.01" y="-401.3" font-family="Times,serif" font-size="14.00">expectedType: </text>
<text text-anchor="start" x="522.51" y="-401.3" font-family="Times,serif" font-size="14.00">xsd:int</text>
<text text-anchor="start" x="346.01" y="-381.3" font-family="Times,serif" font-size="14.00">initialSuccess: </text>
<text text-anchor="start" x="522.51" y="-381.3" font-family="Times,serif" font-size="14.00">xsd:int</text>
<text text-anchor="start" x="346.01" y="-361.3" font-family="Times,serif" font-size="14.00">success: </text>
<text text-anchor="start" x="522.51" y="-361.3" font-family="Times,serif" font-size="14.00">xsd:int</text>
<text text-anchor="start" x="346.01" y="-341.3" font-family="Times,serif" font-size="14.00">intendedPose: </text>
<text text-anchor="start" x="530.01" y="-341.3" font-family="Times,serif" font-size="14.00">Pose</text>
<text text-anchor="start" x="346.01" y="-321.3" font-family="Times,serif" font-size="14.00">expectedPose: </text>
<text text-anchor="start" x="530.01" y="-321.3" font-family="Times,serif" font-size="14.00">Pose</text>
<polygon fill="none" stroke="black" points="342.01,-314 342.01,-517 626.01,-517 626.01,-314 342.01,-314"/>
</g>
<!-- TaskState&#45;&gt;GraspState -->
<g id="TaskState&#45;GraspState" class="edge">
<title>TaskState&#45;&gt;GraspState</title>
<path fill="none" stroke="brown" stroke-dasharray="5,2" d="M77.58,-733.81C73.27,-696.26 62.11,-579.64 86.01,-553 121.24,-513.73 266.05,-534.55 332.27,-516.53"/>
<polygon fill="brown" stroke="brown" points="333.39,-519.84 341.82,-513.43 331.23,-513.18 333.39,-519.84"/>
</g>
<!-- PoseEstimationState -->
<g id="node31" class="node">
<title>PoseEstimationState</title>
<text text-anchor="start" x="277.01" y="-262.3" font-family="Times,serif" font-size="14.00"> &#160;PoseEstimationState </text>
<text text-anchor="start" x="277.01" y="-242.3" font-family="Times,serif" font-size="14.00">id: </text>
<text text-anchor="start" x="460.01" y="-242.3" font-family="Times,serif" font-size="14.00">xsd:int</text>
<text text-anchor="start" x="277.01" y="-222.3" font-family="Times,serif" font-size="14.00">pointCloud: </text>
<text text-anchor="start" x="445.01" y="-222.3" font-family="Times,serif" font-size="14.00">PointCloud</text>
<text text-anchor="start" x="277.01" y="-202.3" font-family="Times,serif" font-size="14.00">objName: </text>
<text text-anchor="start" x="448.01" y="-202.3" font-family="Times,serif" font-size="14.00">xsd:string</text>
<text text-anchor="start" x="277.01" y="-182.3" font-family="Times,serif" font-size="14.00">runTime: </text>
<text text-anchor="start" x="454.01" y="-182.3" font-family="Times,serif" font-size="14.00">xsd:float</text>
<text text-anchor="start" x="277.01" y="-162.3" font-family="Times,serif" font-size="14.00">score: </text>
<text text-anchor="start" x="454.01" y="-162.3" font-family="Times,serif" font-size="14.00">xsd:float</text>
<text text-anchor="start" x="277.01" y="-142.3" font-family="Times,serif" font-size="14.00">camPose: </text>
<text text-anchor="start" x="467.51" y="-142.3" font-family="Times,serif" font-size="14.00">Pose</text>
<text text-anchor="start" x="277.01" y="-122.3" font-family="Times,serif" font-size="14.00">basePose: </text>
<text text-anchor="start" x="467.51" y="-122.3" font-family="Times,serif" font-size="14.00">Pose</text>
<polygon fill="none" stroke="black" points="272.51,-115 272.51,-278 527.51,-278 527.51,-115 272.51,-115"/>
</g>
<!-- TaskState&#45;&gt;PoseEstimationState -->
<g id="TaskState&#45;PoseEstimationState" class="edge">
<title>TaskState&#45;&gt;PoseEstimationState</title>
<path fill="none" stroke="brown" stroke-dasharray="5,2" d="M75.58,-733.91C72.94,-724.37 69.5,-710.44 68.01,-698 57.85,-613.27 16.59,-383.57 66.01,-314 110.5,-251.36 191.28,-222.12 262.25,-208.6"/>
<polygon fill="brown" stroke="brown" points="262.98,-212.02 272.2,-206.79 261.73,-205.13 262.98,-212.02"/>
</g>
<!-- PointCloud -->
<g id="node32" class="node">
<title>PointCloud</title>
<text text-anchor="start" x="194.01" y="-63.3" font-family="Times,serif" font-size="14.00"> &#160;PointCloud </text>
<text text-anchor="start" x="194.01" y="-43.3" font-family="Times,serif" font-size="14.00">id: </text>
<text text-anchor="start" x="303.01" y="-43.3" font-family="Times,serif" font-size="14.00">xsd:int</text>
<text text-anchor="start" x="194.01" y="-23.3" font-family="Times,serif" font-size="14.00">bin: </text>
<text text-anchor="start" x="291.01" y="-23.3" font-family="Times,serif" font-size="14.00">xsd:string</text>
<polygon fill="none" stroke="black" points="190.01,-16 190.01,-79 368.01,-79 368.01,-16 190.01,-16"/>
</g>
<!-- TaskState&#45;&gt;PointCloud -->
<g id="TaskState&#45;PointCloud" class="edge">
<title>TaskState&#45;&gt;PointCloud</title>
<path fill="none" stroke="brown" stroke-dasharray="5,2" d="M68.54,-734C61.02,-724.94 51.45,-711.61 47.01,-698 -6,-535.74 -21.16,-473.36 40.01,-314 77.68,-215.84 170.26,-131.26 228.51,-85.32"/>
<polygon fill="brown" stroke="brown" points="230.76,-88 236.5,-79.09 226.46,-82.48 230.76,-88"/>
</g>
<!-- GraspValidationState -->
<g id="node34" class="node">
<title>GraspValidationState</title>
<polygon fill="white" stroke="transparent" points="98.01,-675.5 98.01,-694.5 268.01,-694.5 268.01,-675.5 98.01,-675.5"/>
<text text-anchor="start" x="100.01" y="-681.3" font-family="Times,serif" font-size="14.00"> &#160;GraspValidationState </text>
<text text-anchor="start" x="100.01" y="-661.3" font-family="Times,serif" font-size="14.00">id: </text>
<text text-anchor="start" x="287.51" y="-661.3" font-family="Times,serif" font-size="14.00">xsd:int</text>
<text text-anchor="start" x="100.01" y="-641.3" font-family="Times,serif" font-size="14.00">success: </text>
<text text-anchor="start" x="287.51" y="-641.3" font-family="Times,serif" font-size="14.00">xsd:int</text>
<text text-anchor="start" x="100.01" y="-621.3" font-family="Times,serif" font-size="14.00">runTime: </text>
<text text-anchor="start" x="281.51" y="-621.3" font-family="Times,serif" font-size="14.00">xsd:float</text>
<text text-anchor="start" x="100.01" y="-601.3" font-family="Times,serif" font-size="14.00">score: </text>
<text text-anchor="start" x="281.51" y="-601.3" font-family="Times,serif" font-size="14.00">xsd:float</text>
<text text-anchor="start" x="100.01" y="-581.3" font-family="Times,serif" font-size="14.00">pose: </text>
<text text-anchor="start" x="295.01" y="-581.3" font-family="Times,serif" font-size="14.00">Pose</text>
<text text-anchor="start" x="100.01" y="-561.3" font-family="Times,serif" font-size="14.00">graspState: </text>
<text text-anchor="start" x="271.01" y="-561.3" font-family="Times,serif" font-size="14.00">GraspState</text>
<polygon fill="none" stroke="brown" stroke-width="2" points="95.51,-554 95.51,-697 356.51,-697 356.51,-554 95.51,-554"/>
</g>
<!-- TaskState&#45;&gt;GraspValidationState -->
<g id="TaskState&#45;GraspValidationState" class="edge">
<title>TaskState&#45;&gt;GraspValidationState</title>
<path fill="none" stroke="brown" stroke-dasharray="5,2" d="M93.37,-733.87C102.57,-726.42 115.41,-716.03 129.5,-704.62"/>
<polygon fill="brown" stroke="brown" points="131.87,-707.21 137.44,-698.19 127.47,-701.77 131.87,-707.21"/>
</g>
<!-- PenAssemblyPlan&#45;&gt;PenAssemblySituation -->
<g id="PenAssemblyPlan&#45;hasSetting&#45;PenAssemblySituation" class="edge">
<title>PenAssemblyPlan:hasSetting&#45;&gt;PenAssemblySituation</title>
<path fill="none" stroke="blue" d="M4594.01,-614.5C4602.8,-614.5 4600.09,-488.11 4598.65,-437.29"/>
<polygon fill="blue" stroke="blue" points="4602.15,-437.04 4598.35,-427.15 4595.15,-437.24 4602.15,-437.04"/>
</g>
<!-- PenBody&#45;&gt;NovoPen -->
<g id="PenBody&#45;isPartOf&#45;NovoPen" class="edge">
<title>PenBody:isPartOf&#45;&gt;NovoPen</title>
<path fill="none" stroke="blue" d="M4077.01,-604.5C4077.01,-495.08 3928.39,-445.52 3846.56,-426.52"/>
<polygon fill="blue" stroke="blue" points="3847.2,-423.08 3836.68,-424.3 3845.67,-429.91 3847.2,-423.08"/>
</g>
<!-- PenCap&#45;&gt;NovoPen -->
<g id="PenCap&#45;isPartOf&#45;NovoPen" class="edge">
<title>PenCap:isPartOf&#45;&gt;NovoPen</title>
<path fill="none" stroke="blue" d="M3328.01,-614.5C3341.85,-614.5 3328.87,-563.4 3338.01,-553 3391.75,-491.79 3633.14,-443.91 3741.3,-425.12"/>
<polygon fill="blue" stroke="blue" points="3742.07,-428.54 3751.34,-423.4 3740.89,-421.64 3742.07,-428.54"/>
</g>
<!-- BodyLiner&#45;&gt;NovoPen -->
<g id="BodyLiner&#45;isPartOf&#45;NovoPen" class="edge">
<title>BodyLiner:isPartOf&#45;&gt;NovoPen</title>
<path fill="none" stroke="blue" d="M3511.01,-614.5C3524.85,-614.5 3512.8,-564.15 3521.01,-553 3574.72,-479.96 3678.58,-443.58 3741.56,-427.48"/>
<polygon fill="blue" stroke="blue" points="3742.44,-430.87 3751.31,-425.07 3740.76,-424.08 3742.44,-430.87"/>
</g>
<!-- CartridgeHolder&#45;&gt;NovoPen -->
<g id="CartridgeHolder&#45;isPartOf&#45;NovoPen" class="edge">
<title>CartridgeHolder:isPartOf&#45;&gt;NovoPen</title>
<path fill="none" stroke="blue" d="M3738.01,-614.5C3751.85,-614.5 3744.67,-566.44 3748.01,-553 3758.43,-510.97 3775.79,-463.36 3785.94,-436.93"/>
<polygon fill="blue" stroke="blue" points="3789.33,-437.88 3789.69,-427.29 3782.81,-435.34 3789.33,-437.88"/>
</g>
<!-- PistonRod&#45;&gt;NovoPen -->
<g id="PistonRod&#45;isPartOf&#45;NovoPen" class="edge">
<title>PistonRod:isPartOf&#45;&gt;NovoPen</title>
<path fill="none" stroke="blue" d="M3885.01,-604.5C3885.01,-536.55 3836.25,-467.35 3810.11,-435.13"/>
<polygon fill="blue" stroke="blue" points="3812.49,-432.51 3803.4,-427.06 3807.1,-436.99 3812.49,-432.51"/>
</g>
<!-- InsertionTask&#45;&gt;Pose -->
<g id="InsertionTask&#45;fixturePose&#45;Pose" class="edge">
<title>InsertionTask:fixturePose&#45;&gt;Pose</title>
<path fill="none" stroke="blue" d="M2328.01,-564.5C2328.01,-189.79 848.14,-68.96 593.95,-50.97"/>
<polygon fill="blue" stroke="blue" points="593.98,-47.47 583.76,-50.26 593.5,-54.45 593.98,-47.47"/>
</g>
<!-- InitialInHandPoseEstimationState -->
<g id="node35" class="node">
<title>InitialInHandPoseEstimationState</title>
<text text-anchor="start" x="648.01" y="-411.3" font-family="Times,serif" font-size="14.00"> &#160;InitialInHandPoseEstimationState </text>
<polygon fill="none" stroke="black" points="644.01,-404 644.01,-427 910.01,-427 910.01,-404 644.01,-404"/>
</g>
<!-- InsertionTask&#45;&gt;InitialInHandPoseEstimationState -->
<g id="InsertionTask&#45;inhandPose&#45;InitialInHandPoseEstimationState" class="edge">
<title>InsertionTask:inhandPose&#45;&gt;InitialInHandPoseEstimationState</title>
<path fill="none" stroke="blue" d="M2453.01,-655.5C2463.17,-655.5 2459.03,-571.35 2452.01,-564 2389.07,-498.07 1723.81,-524.93 1633.01,-517 1350.86,-492.36 1017.99,-449.22 863.64,-428.4"/>
<polygon fill="blue" stroke="blue" points="863.67,-424.87 853.29,-427 862.73,-431.81 863.67,-424.87"/>
</g>
<!-- GraspState&#45;&gt;Pose -->
<g id="GraspState&#45;intendedPose&#45;Pose" class="edge">
<title>GraspState:intendedPose&#45;&gt;Pose</title>
<path fill="none" stroke="blue" d="M625.01,-344.5C653.22,-344.5 586.71,-137.56 564.16,-69.74"/>
<polygon fill="blue" stroke="blue" points="567.43,-68.48 560.94,-60.1 560.79,-70.7 567.43,-68.48"/>
</g>
<!-- GraspState&#45;&gt;Pose -->
<g id="GraspState&#45;expectedPose&#45;Pose" class="edge">
<title>GraspState:expectedPose&#45;&gt;Pose</title>
<path fill="none" stroke="blue" d="M547.01,-314.5C547.01,-223.76 552.89,-115.72 555.63,-70.31"/>
<polygon fill="blue" stroke="blue" points="559.13,-70.36 556.25,-60.16 552.15,-69.93 559.13,-70.36"/>
</g>
<!-- GraspState&#45;&gt;PoseEstimationState -->
<g id="GraspState&#45;poseEstimation&#45;PoseEstimationState" class="edge">
<title>GraspState:poseEstimation&#45;&gt;PoseEstimationState</title>
<path fill="none" stroke="blue" d="M625.01,-485.5C634.53,-485.5 629.24,-321.96 624.01,-314 602.14,-280.74 577.59,-295.84 542.01,-278 540.25,-277.12 538.48,-276.23 536.71,-275.32"/>
<polygon fill="blue" stroke="blue" points="538.28,-272.2 527.79,-270.73 535.08,-278.42 538.28,-272.2"/>
</g>
<!-- PoseEstimationState&#45;&gt;Pose -->
<g id="PoseEstimationState&#45;camPose&#45;Pose" class="edge">
<title>PoseEstimationState:camPose&#45;&gt;Pose</title>
<path fill="none" stroke="blue" d="M527.01,-145.5C534.86,-145.5 546.32,-98.48 552.56,-69.92"/>
<polygon fill="blue" stroke="blue" points="556.01,-70.52 554.67,-60.01 549.16,-69.06 556.01,-70.52"/>
</g>
<!-- PoseEstimationState&#45;&gt;Pose -->
<g id="PoseEstimationState&#45;basePose&#45;Pose" class="edge">
<title>PoseEstimationState:basePose&#45;&gt;Pose</title>
<path fill="none" stroke="blue" d="M527.01,-125.5C538.96,-125.5 548.06,-92.88 552.96,-70.11"/>
<polygon fill="blue" stroke="blue" points="556.41,-70.69 554.96,-60.19 549.55,-69.3 556.41,-70.69"/>
</g>
<!-- PoseEstimationState&#45;&gt;PointCloud -->
<g id="PoseEstimationState&#45;pointCloud&#45;PointCloud" class="edge">
<title>PoseEstimationState:pointCloud&#45;&gt;PointCloud</title>
<path fill="none" stroke="blue" d="M527.01,-226.5C551.78,-226.5 541.17,-134.6 526.01,-115 507.47,-91.04 438.56,-73.74 378.22,-62.79"/>
<polygon fill="blue" stroke="blue" points="378.69,-59.32 368.24,-61.03 377.47,-66.22 378.69,-59.32"/>
</g>
<!-- GraspValidationState&#45;&gt;Pose -->
<g id="GraspValidationState&#45;pose&#45;Pose" class="edge">
<title>GraspValidationState:pose&#45;&gt;Pose</title>
<path fill="none" stroke="brown" d="M356.01,-584.5C370.83,-584.5 355.2,-561.97 367.01,-553 464.87,-478.61 834.96,-606.71 919.01,-517 980.69,-451.16 959.78,-394.48 919.01,-314 849.22,-176.27 670.66,-92.71 593.47,-61.96"/>
<polygon fill="brown" stroke="brown" points="594.29,-58.53 583.7,-58.14 591.74,-65.04 594.29,-58.53"/>
</g>
<!-- GraspValidationState&#45;&gt;GraspState -->
<g id="GraspValidationState&#45;graspState&#45;GraspState" class="edge">
<title>GraspValidationState:graspState&#45;&gt;GraspState</title>
<path fill="none" stroke="brown" d="M356.01,-564.5C356.93,-564.5 371.9,-547.52 391.31,-525.07"/>
<polygon fill="brown" stroke="brown" points="394.17,-527.12 398.05,-517.26 388.87,-522.55 394.17,-527.12"/>
</g>
<!-- GraspValidationState&#45;&gt;InitialInHandPoseEstimationState -->
<g id="GraspValidationState&#45;InitialInHandPoseEstimationState" class="edge">
<title>GraspValidationState&#45;&gt;InitialInHandPoseEstimationState</title>
<path fill="none" stroke="brown" stroke-dasharray="5,2" d="M357.53,-556.12C360.7,-555.02 363.86,-553.98 367.01,-553 481.77,-517.32 523.16,-560.99 635.01,-517 684.46,-497.55 733.02,-457.36 758.54,-434.13"/>
<polygon fill="brown" stroke="brown" points="761.04,-436.59 766,-427.23 756.28,-431.45 761.04,-436.59"/>
</g>
<!-- RotInHandPoseEstimationState -->
<g id="node36" class="node">
<title>RotInHandPoseEstimationState</title>
<text text-anchor="start" x="79.01" y="-411.3" font-family="Times,serif" font-size="14.00"> &#160;RotInHandPoseEstimationState </text>
<polygon fill="none" stroke="black" points="74.51,-404 74.51,-427 323.51,-427 323.51,-404 74.51,-404"/>
</g>
<!-- GraspValidationState&#45;&gt;RotInHandPoseEstimationState -->
<g id="GraspValidationState&#45;RotInHandPoseEstimationState" class="edge">
<title>GraspValidationState&#45;&gt;RotInHandPoseEstimationState</title>
<path fill="none" stroke="brown" stroke-dasharray="5,2" d="M216.71,-552.92C211.43,-512.2 205.19,-464.11 201.7,-437.28"/>
<polygon fill="brown" stroke="brown" points="205.15,-436.63 200.39,-427.17 198.21,-437.54 205.15,-436.63"/>
</g>
</g>
</svg>
