<?xml version="1.0" encoding="UTF-8" standalone="no"?>
<!DOCTYPE svg PUBLIC "-//W3C//DTD SVG 1.1//EN"
 "http://www.w3.org/Graphics/SVG/1.1/DTD/svg11.dtd">
<!-- Generated by graphviz version 2.43.0 (0)
 -->
<!-- Title: %3 Pages: 1 -->
<svg width="1300pt" height="1305pt"
 viewBox="0.00 0.00 1300.00 1305.00" xmlns="http://www.w3.org/2000/svg" xmlns:xlink="http://www.w3.org/1999/xlink">
<g id="graph0" class="graph" transform="scale(1 1) rotate(0) translate(4 1301)">
<title>%3</title>
<polygon fill="white" stroke="transparent" points="-4,4 -4,-1301 1296,-1301 1296,4 -4,4"/>
<g id="clust1" class="cluster">
<title>cluster0</title>
<polygon fill="none" stroke="black" points="8,-8 8,-1289 1284,-1289 1284,-8 8,-8"/>
<text text-anchor="middle" x="114" y="-1273.8" font-family="Times,serif" font-size="14.00">Schema: facilityCobot&#45;v022</text>
</g>
<!-- AbstractEntity -->
<g id="node1" class="node">
<title>AbstractEntity</title>
<polygon fill="white" stroke="transparent" points="448,-1226.5 448,-1245.5 567,-1245.5 567,-1226.5 448,-1226.5"/>
<text text-anchor="start" x="450" y="-1232.3" font-family="Times,serif" font-size="14.00"> AbstractEntity </text>
<polygon fill="none" stroke="aquamarine" stroke-width="2" points="445.5,-1225 445.5,-1248 568.5,-1248 568.5,-1225 445.5,-1225"/>
</g>
<!-- Policy -->
<g id="node8" class="node">
<title>Policy</title>
<polygon fill="white" stroke="transparent" points="302,-1156.5 302,-1175.5 460,-1175.5 460,-1156.5 302,-1156.5"/>
<text text-anchor="start" x="353" y="-1162.3" font-family="Times,serif" font-size="14.00"> &#160;Policy </text>
<text text-anchor="start" x="304" y="-1142.3" font-family="Times,serif" font-size="14.00">policyOn: </text>
<text text-anchor="start" x="476" y="-1142.3" font-family="Times,serif" font-size="14.00">[PhysicalEntity]</text>
<text text-anchor="start" x="304" y="-1122.3" font-family="Times,serif" font-size="14.00">policyIn: </text>
<text text-anchor="start" x="500" y="-1122.3" font-family="Times,serif" font-size="14.00">PolicySet</text>
<text text-anchor="start" x="304" y="-1102.3" font-family="Times,serif" font-size="14.00">enabled: </text>
<text text-anchor="start" x="491" y="-1102.3" font-family="Times,serif" font-size="14.00">xsd:boolean</text>
<text text-anchor="start" x="304" y="-1082.3" font-family="Times,serif" font-size="14.00">policyOnCompletion: </text>
<text text-anchor="start" x="512" y="-1082.3" font-family="Times,serif" font-size="14.00">Policy</text>
<text text-anchor="start" x="304" y="-1062.3" font-family="Times,serif" font-size="14.00">policyHolder: </text>
<text text-anchor="start" x="463" y="-1062.3" font-family="Times,serif" font-size="14.00">CyberPhysicalActor</text>
<text text-anchor="start" x="304" y="-1042.3" font-family="Times,serif" font-size="14.00">condition: </text>
<text text-anchor="start" x="499" y="-1042.3" font-family="Times,serif" font-size="14.00">JsonLogic</text>
<text text-anchor="start" x="304" y="-1022.3" font-family="Times,serif" font-size="14.00">vars: </text>
<text text-anchor="start" x="466" y="-1022.3" font-family="Times,serif" font-size="14.00">[JsonLogicVarMap]</text>
<text text-anchor="start" x="304" y="-1002.3" font-family="Times,serif" font-size="14.00">action: </text>
<text text-anchor="start" x="488.5" y="-1002.3" font-family="Times,serif" font-size="14.00">ActionEntity</text>
<polygon fill="none" stroke="purple" stroke-width="2" points="300,-995 300,-1178 608,-1178 608,-995 300,-995"/>
</g>
<!-- AbstractEntity&#45;&gt;Policy -->
<g id="AbstractEntity&#45;Policy" class="edge">
<title>AbstractEntity&#45;&gt;Policy</title>
<path fill="none" stroke="aquamarine" stroke-dasharray="5,2" d="M502.84,-1223.89C499.78,-1215.33 495.28,-1202.78 490.24,-1188.7"/>
<polygon fill="aquamarine" stroke="aquamarine" points="493.52,-1187.49 486.86,-1179.25 486.93,-1189.85 493.52,-1187.49"/>
</g>
<!-- PhysicalEntity -->
<g id="node2" class="node">
<title>PhysicalEntity</title>
<polygon fill="white" stroke="transparent" points="1156,-556.5 1156,-575.5 1273,-575.5 1273,-556.5 1156,-556.5"/>
<text text-anchor="start" x="1158" y="-562.3" font-family="Times,serif" font-size="14.00"> PhysicalEntity </text>
<polygon fill="none" stroke="#1e8449" stroke-width="2" points="1153.5,-555 1153.5,-578 1274.5,-578 1274.5,-555 1153.5,-555"/>
</g>
<!-- CyberPhysicalActor -->
<g id="node3" class="node">
<title>CyberPhysicalActor</title>
<polygon fill="white" stroke="transparent" points="977,-556.5 977,-575.5 1131,-575.5 1131,-556.5 977,-556.5"/>
<text text-anchor="start" x="979" y="-562.3" font-family="Times,serif" font-size="14.00"> CyberPhysicalActor </text>
<polygon fill="none" stroke="purple" stroke-width="2" points="975,-555 975,-578 1133,-578 1133,-555 975,-555"/>
</g>
<!-- ActionEntity -->
<g id="node4" class="node">
<title>ActionEntity</title>
<polygon fill="white" stroke="transparent" points="483,-556.5 483,-575.5 586,-575.5 586,-556.5 483,-556.5"/>
<text text-anchor="start" x="485" y="-562.3" font-family="Times,serif" font-size="14.00"> ActionEntity </text>
<polygon fill="none" stroke="red" stroke-width="2" points="480.5,-555 480.5,-578 587.5,-578 587.5,-555 480.5,-555"/>
</g>
<!-- JsonLogicVarMap -->
<g id="node5" class="node">
<title>JsonLogicVarMap</title>
<polygon fill="white" stroke="transparent" points="498,-117.5 498,-136.5 640,-136.5 640,-117.5 498,-117.5"/>
<text text-anchor="start" x="500" y="-123.3" font-family="Times,serif" font-size="14.00"> &#160;JsonLogicVarMap </text>
<text text-anchor="start" x="500" y="-103.3" font-family="Times,serif" font-size="14.00">variable: </text>
<text text-anchor="start" x="643" y="-103.3" font-family="Times,serif" font-size="14.00">xsd:string</text>
<text text-anchor="start" x="500" y="-83.3" font-family="Times,serif" font-size="14.00">property: </text>
<text text-anchor="start" x="643" y="-83.3" font-family="Times,serif" font-size="14.00">xsd:string</text>
<text text-anchor="start" x="500" y="-63.3" font-family="Times,serif" font-size="14.00">subjectType: </text>
<text text-anchor="start" x="643" y="-63.3" font-family="Times,serif" font-size="14.00">xsd:string</text>
<text text-anchor="start" x="500" y="-43.3" font-family="Times,serif" font-size="14.00">subjectName: </text>
<text text-anchor="start" x="643" y="-43.3" font-family="Times,serif" font-size="14.00">xsd:string</text>
<text text-anchor="start" x="500" y="-23.3" font-family="Times,serif" font-size="14.00">subjectId: </text>
<text text-anchor="start" x="643" y="-23.3" font-family="Times,serif" font-size="14.00">xsd:string</text>
<polygon fill="none" stroke="black" points="496,-16 496,-139 720,-139 720,-16 496,-16"/>
</g>
<!-- TaggedValue -->
<g id="node6" class="node">
<title>TaggedValue</title>
<polygon fill="white" stroke="transparent" points="740,-106.5 740,-125.5 849,-125.5 849,-106.5 740,-106.5"/>
<text text-anchor="start" x="742" y="-112.3" font-family="Times,serif" font-size="14.00"> &#160;TaggedValue </text>
<text text-anchor="start" x="742" y="-63.8" font-family="Times,serif" font-size="14.00">oneOf</text>
<polygon fill="white" stroke="transparent" points="856,-95.5 856,-99.5 978,-99.5 978,-95.5 856,-95.5"/>
<text text-anchor="start" x="858" y="-81.3" font-family="Times,serif" font-size="14.00">taggedString: </text>
<text text-anchor="start" x="987" y="-81.3" font-family="Times,serif" font-size="14.00">xsd:string</text>
<text text-anchor="start" x="858" y="-61.3" font-family="Times,serif" font-size="14.00">taggedNumber: </text>
<text text-anchor="start" x="981" y="-61.3" font-family="Times,serif" font-size="14.00">xsd:decimal</text>
<text text-anchor="start" x="858" y="-41.3" font-family="Times,serif" font-size="14.00">taggedBoolean: </text>
<text text-anchor="start" x="981" y="-41.3" font-family="Times,serif" font-size="14.00">xsd:boolean</text>
<polygon fill="none" stroke="grey" points="854,-33.5 854,-101.5 1070,-101.5 1070,-33.5 854,-33.5"/>
<polygon fill="none" stroke="black" points="738,-27.5 738,-127.5 1076,-127.5 1076,-27.5 738,-27.5"/>
</g>
<!-- JsonLogic -->
<g id="node7" class="node">
<title>JsonLogic</title>
<polygon fill="white" stroke="transparent" points="629,-936.5 629,-955.5 814,-955.5 814,-936.5 629,-936.5"/>
<text text-anchor="start" x="631" y="-942.3" font-family="Times,serif" font-size="14.00"> &#160;TaggedUnion:JsonLogic </text>
<text text-anchor="start" x="631" y="-922.3" font-family="Times,serif" font-size="14.00">taggedString: </text>
<text text-anchor="start" x="848" y="-922.3" font-family="Times,serif" font-size="14.00">xsd:string</text>
<text text-anchor="start" x="631" y="-902.3" font-family="Times,serif" font-size="14.00">taggedNumber: </text>
<text text-anchor="start" x="842" y="-902.3" font-family="Times,serif" font-size="14.00">xsd:decimal</text>
<text text-anchor="start" x="631" y="-882.3" font-family="Times,serif" font-size="14.00">taggedBoolean: </text>
<text text-anchor="start" x="842" y="-882.3" font-family="Times,serif" font-size="14.00">xsd:boolean</text>
<text text-anchor="start" x="631" y="-862.3" font-family="Times,serif" font-size="14.00">var: </text>
<text text-anchor="start" x="833.5" y="-862.3" font-family="Times,serif" font-size="14.00">[TaggedValue]</text>
<text text-anchor="start" x="631" y="-842.3" font-family="Times,serif" font-size="14.00">missing: </text>
<text text-anchor="start" x="817" y="-842.3" font-family="Times,serif" font-size="14.00">[JsonLogicVarMap]</text>
<text text-anchor="start" x="631" y="-822.3" font-family="Times,serif" font-size="14.00">scheduleCron: </text>
<text text-anchor="start" x="845" y="-822.3" font-family="Times,serif" font-size="14.00">[JsonLogic]</text>
<text text-anchor="start" x="631" y="-802.3" font-family="Times,serif" font-size="14.00">scheduleDate: </text>
<text text-anchor="start" x="845" y="-802.3" font-family="Times,serif" font-size="14.00">[JsonLogic]</text>
<text text-anchor="start" x="631" y="-782.3" font-family="Times,serif" font-size="14.00">if: </text>
<text text-anchor="start" x="845" y="-782.3" font-family="Times,serif" font-size="14.00">[JsonLogic]</text>
<text text-anchor="start" x="631" y="-762.3" font-family="Times,serif" font-size="14.00">and: </text>
<text text-anchor="start" x="845" y="-762.3" font-family="Times,serif" font-size="14.00">[JsonLogic]</text>
<text text-anchor="start" x="631" y="-742.3" font-family="Times,serif" font-size="14.00">or: </text>
<text text-anchor="start" x="845" y="-742.3" font-family="Times,serif" font-size="14.00">[JsonLogic]</text>
<text text-anchor="start" x="631" y="-722.3" font-family="Times,serif" font-size="14.00">==: </text>
<text text-anchor="start" x="845" y="-722.3" font-family="Times,serif" font-size="14.00">[JsonLogic]</text>
<text text-anchor="start" x="631" y="-702.3" font-family="Times,serif" font-size="14.00">===: </text>
<text text-anchor="start" x="845" y="-702.3" font-family="Times,serif" font-size="14.00">[JsonLogic]</text>
<text text-anchor="start" x="631" y="-682.3" font-family="Times,serif" font-size="14.00">!=: </text>
<text text-anchor="start" x="845" y="-682.3" font-family="Times,serif" font-size="14.00">[JsonLogic]</text>
<text text-anchor="start" x="631" y="-662.3" font-family="Times,serif" font-size="14.00">!==: </text>
<text text-anchor="start" x="845" y="-662.3" font-family="Times,serif" font-size="14.00">[JsonLogic]</text>
<text text-anchor="start" x="631" y="-642.3" font-family="Times,serif" font-size="14.00">!: </text>
<text text-anchor="start" x="845" y="-642.3" font-family="Times,serif" font-size="14.00">[JsonLogic]</text>
<text text-anchor="start" x="631" y="-622.3" font-family="Times,serif" font-size="14.00">!!: </text>
<text text-anchor="start" x="845" y="-622.3" font-family="Times,serif" font-size="14.00">[JsonLogic]</text>
<text text-anchor="start" x="631" y="-602.3" font-family="Times,serif" font-size="14.00">&gt;: </text>
<text text-anchor="start" x="845" y="-602.3" font-family="Times,serif" font-size="14.00">[JsonLogic]</text>
<text text-anchor="start" x="631" y="-582.3" font-family="Times,serif" font-size="14.00">&lt;: </text>
<text text-anchor="start" x="845" y="-582.3" font-family="Times,serif" font-size="14.00">[JsonLogic]</text>
<text text-anchor="start" x="631" y="-562.3" font-family="Times,serif" font-size="14.00">&gt;=: </text>
<text text-anchor="start" x="845" y="-562.3" font-family="Times,serif" font-size="14.00">[JsonLogic]</text>
<text text-anchor="start" x="631" y="-542.3" font-family="Times,serif" font-size="14.00">&lt;=: </text>
<text text-anchor="start" x="845" y="-542.3" font-family="Times,serif" font-size="14.00">[JsonLogic]</text>
<text text-anchor="start" x="631" y="-522.3" font-family="Times,serif" font-size="14.00">max: </text>
<text text-anchor="start" x="845" y="-522.3" font-family="Times,serif" font-size="14.00">[JsonLogic]</text>
<text text-anchor="start" x="631" y="-502.3" font-family="Times,serif" font-size="14.00">min: </text>
<text text-anchor="start" x="845" y="-502.3" font-family="Times,serif" font-size="14.00">[JsonLogic]</text>
<text text-anchor="start" x="631" y="-482.3" font-family="Times,serif" font-size="14.00">+: </text>
<text text-anchor="start" x="845" y="-482.3" font-family="Times,serif" font-size="14.00">[JsonLogic]</text>
<text text-anchor="start" x="631" y="-462.3" font-family="Times,serif" font-size="14.00">&#45;: </text>
<text text-anchor="start" x="845" y="-462.3" font-family="Times,serif" font-size="14.00">[JsonLogic]</text>
<text text-anchor="start" x="631" y="-442.3" font-family="Times,serif" font-size="14.00">*: </text>
<text text-anchor="start" x="845" y="-442.3" font-family="Times,serif" font-size="14.00">[JsonLogic]</text>
<text text-anchor="start" x="631" y="-422.3" font-family="Times,serif" font-size="14.00">/: </text>
<text text-anchor="start" x="845" y="-422.3" font-family="Times,serif" font-size="14.00">[JsonLogic]</text>
<text text-anchor="start" x="631" y="-402.3" font-family="Times,serif" font-size="14.00">%: </text>
<text text-anchor="start" x="845" y="-402.3" font-family="Times,serif" font-size="14.00">[JsonLogic]</text>
<text text-anchor="start" x="631" y="-382.3" font-family="Times,serif" font-size="14.00">map: </text>
<text text-anchor="start" x="845" y="-382.3" font-family="Times,serif" font-size="14.00">[JsonLogic]</text>
<text text-anchor="start" x="631" y="-362.3" font-family="Times,serif" font-size="14.00">reduce: </text>
<text text-anchor="start" x="845" y="-362.3" font-family="Times,serif" font-size="14.00">[JsonLogic]</text>
<text text-anchor="start" x="631" y="-342.3" font-family="Times,serif" font-size="14.00">filter: </text>
<text text-anchor="start" x="845" y="-342.3" font-family="Times,serif" font-size="14.00">[JsonLogic]</text>
<text text-anchor="start" x="631" y="-322.3" font-family="Times,serif" font-size="14.00">all: </text>
<text text-anchor="start" x="845" y="-322.3" font-family="Times,serif" font-size="14.00">[JsonLogic]</text>
<text text-anchor="start" x="631" y="-302.3" font-family="Times,serif" font-size="14.00">none: </text>
<text text-anchor="start" x="845" y="-302.3" font-family="Times,serif" font-size="14.00">[JsonLogic]</text>
<text text-anchor="start" x="631" y="-282.3" font-family="Times,serif" font-size="14.00">some: </text>
<text text-anchor="start" x="845" y="-282.3" font-family="Times,serif" font-size="14.00">[JsonLogic]</text>
<text text-anchor="start" x="631" y="-262.3" font-family="Times,serif" font-size="14.00">merge: </text>
<text text-anchor="start" x="845" y="-262.3" font-family="Times,serif" font-size="14.00">[JsonLogic]</text>
<text text-anchor="start" x="631" y="-242.3" font-family="Times,serif" font-size="14.00">in: </text>
<text text-anchor="start" x="845" y="-242.3" font-family="Times,serif" font-size="14.00">[JsonLogic]</text>
<text text-anchor="start" x="631" y="-222.3" font-family="Times,serif" font-size="14.00">cat: </text>
<text text-anchor="start" x="845" y="-222.3" font-family="Times,serif" font-size="14.00">[JsonLogic]</text>
<text text-anchor="start" x="631" y="-202.3" font-family="Times,serif" font-size="14.00">substr: </text>
<text text-anchor="start" x="845" y="-202.3" font-family="Times,serif" font-size="14.00">[JsonLogic]</text>
<text text-anchor="start" x="631" y="-182.3" font-family="Times,serif" font-size="14.00">log: </text>
<text text-anchor="start" x="845" y="-182.3" font-family="Times,serif" font-size="14.00">[JsonLogic]</text>
<polygon fill="none" stroke="black" points="626.5,-175 626.5,-958 955.5,-958 955.5,-175 626.5,-175"/>
</g>
<!-- JsonLogic&#45;&gt;JsonLogicVarMap -->
<g id="JsonLogic&#45;missing&#45;JsonLogicVarMap" class="edge">
<title>JsonLogic:missing&#45;&gt;JsonLogicVarMap</title>
<path fill="none" stroke="black" d="M955,-846.5C964.33,-846.5 960.06,-182.09 954,-175 922.85,-138.53 792.07,-152.76 729.95,-138.65"/>
<polygon fill="black" stroke="black" points="730.81,-135.26 720.24,-136.02 728.97,-142.02 730.81,-135.26"/>
</g>
<!-- JsonLogic&#45;&gt;TaggedValue -->
<g id="JsonLogic&#45;var&#45;TaggedValue" class="edge">
<title>JsonLogic:var&#45;&gt;TaggedValue</title>
<path fill="none" stroke="black" d="M955,-866.5C974.21,-866.5 958.33,-193.71 954,-175 951.05,-162.27 946.2,-149.27 940.69,-137.11"/>
<polygon fill="black" stroke="black" points="943.82,-135.53 936.38,-127.99 937.49,-138.53 943.82,-135.53"/>
</g>
<!-- Policy&#45;&gt;PhysicalEntity -->
<g id="Policy&#45;policyOn&#45;PhysicalEntity" class="edge">
<title>Policy:policyOn&#45;&gt;PhysicalEntity</title>
<path fill="none" stroke="purple" d="M607,-1146.5C733.26,-1146.5 1061.06,-1054.06 1143,-958 1237.29,-847.47 1224.42,-654.12 1216.95,-589.35"/>
<polygon fill="purple" stroke="purple" points="1220.39,-588.61 1215.69,-579.12 1213.44,-589.47 1220.39,-588.61"/>
</g>
<!-- Policy&#45;&gt;CyberPhysicalActor -->
<g id="Policy&#45;policyHolder&#45;CyberPhysicalActor" class="edge">
<title>Policy:policyHolder&#45;&gt;CyberPhysicalActor</title>
<path fill="none" stroke="purple" d="M607,-1065.5C690.06,-1065.5 908.28,-1018.69 965,-958 1065.31,-850.67 1060.67,-654.52 1055.98,-589.26"/>
<polygon fill="purple" stroke="purple" points="1059.47,-588.98 1055.19,-579.29 1052.5,-589.54 1059.47,-588.98"/>
</g>
<!-- Policy&#45;&gt;ActionEntity -->
<g id="Policy&#45;action&#45;ActionEntity" class="edge">
<title>Policy:action&#45;&gt;ActionEntity</title>
<path fill="none" stroke="purple" d="M534,-995.5C534,-839.86 534,-652.38 534,-589.36"/>
<polygon fill="purple" stroke="purple" points="537.5,-589.08 534,-579.08 530.5,-589.08 537.5,-589.08"/>
</g>
<!-- Policy&#45;&gt;JsonLogicVarMap -->
<g id="Policy&#45;vars&#45;JsonLogicVarMap" class="edge">
<title>Policy:vars&#45;&gt;JsonLogicVarMap</title>
<path fill="none" stroke="purple" d="M607,-1025.5C617.95,-1025.5 611.36,-369.19 608.85,-149.32"/>
<polygon fill="purple" stroke="purple" points="612.35,-149.14 608.73,-139.18 605.35,-149.22 612.35,-149.14"/>
</g>
<!-- Policy&#45;&gt;JsonLogic -->
<g id="Policy&#45;condition&#45;JsonLogic" class="edge">
<title>Policy:condition&#45;&gt;JsonLogic</title>
<path fill="none" stroke="purple" d="M607,-1045.5C665.49,-1045.5 706.08,-1013.94 734.09,-967.04"/>
<polygon fill="purple" stroke="purple" points="737.27,-968.53 739.17,-958.11 731.18,-965.06 737.27,-968.53"/>
</g>
<!-- Policy&#45;&gt;Policy -->
<g id="Policy&#45;policyOnCompletion&#45;Policy" class="edge">
<title>Policy:policyOnCompletion&#45;&gt;Policy</title>
<path fill="none" stroke="purple" d="M548.68,-1076.48C597.6,-1048.29 627,-1051.34 627,-1086 627,-1092.33 623.8,-1097.6 618.21,-1101.82"/>
<polygon fill="purple" stroke="purple" points="616.15,-1098.97 609.16,-1106.93 619.59,-1105.06 616.15,-1098.97"/>
</g>
<!-- PolicySet -->
<g id="node9" class="node">
<title>PolicySet</title>
<polygon fill="white" stroke="transparent" points="374,-556.5 374,-575.5 458,-575.5 458,-556.5 374,-556.5"/>
<text text-anchor="start" x="376" y="-562.3" font-family="Times,serif" font-size="14.00"> &#160;PolicySet </text>
<polygon fill="none" stroke="purple" stroke-width="2" points="372,-555 372,-578 460,-578 460,-555 372,-555"/>
</g>
<!-- Policy&#45;&gt;PolicySet -->
<g id="Policy&#45;PolicySet" class="edge">
<title>Policy&#45;&gt;PolicySet</title>
<path fill="none" stroke="purple" stroke-dasharray="5,2" d="M447.27,-993.79C438.21,-870.19 422.62,-657.77 417.61,-589.39"/>
<polygon fill="purple" stroke="purple" points="421.09,-589.07 416.87,-579.35 414.11,-589.58 421.09,-589.07"/>
</g>
<!-- Policy&#45;&gt;PolicySet -->
<g id="Policy&#45;policyIn&#45;PolicySet" class="edge">
<title>Policy:policyIn&#45;&gt;PolicySet</title>
<path fill="none" stroke="purple" d="M607,-1126.5C665.89,-1126.5 642.05,-1040.56 606,-994 567.98,-944.9 512.18,-1004.48 471,-958 375.07,-849.74 400.02,-654.19 411.67,-589.18"/>
<polygon fill="purple" stroke="purple" points="415.13,-589.72 413.53,-579.25 408.25,-588.43 415.13,-589.72"/>
</g>
<!-- OperationPolicy -->
<g id="node10" class="node">
<title>OperationPolicy</title>
<polygon fill="white" stroke="transparent" points="19,-556.5 19,-575.5 150,-575.5 150,-556.5 19,-556.5"/>
<text text-anchor="start" x="21" y="-562.3" font-family="Times,serif" font-size="14.00"> &#160;OperationPolicy </text>
<polygon fill="none" stroke="black" points="16.5,-555 16.5,-578 151.5,-578 151.5,-555 16.5,-555"/>
</g>
<!-- Policy&#45;&gt;OperationPolicy -->
<g id="Policy&#45;OperationPolicy" class="edge">
<title>Policy&#45;&gt;OperationPolicy</title>
<path fill="none" stroke="purple" stroke-dasharray="5,2" d="M298.94,-1049.32C248.09,-1030.13 195.78,-1001.22 161,-958 69.45,-844.22 76.58,-652.15 81.85,-588.61"/>
<polygon fill="purple" stroke="purple" points="85.37,-588.57 82.79,-578.29 78.4,-587.93 85.37,-588.57"/>
</g>
<!-- SubSystemStatePolicy -->
<g id="node11" class="node">
<title>SubSystemStatePolicy</title>
<polygon fill="white" stroke="transparent" points="172,-556.5 172,-575.5 351,-575.5 351,-556.5 172,-556.5"/>
<text text-anchor="start" x="174" y="-562.3" font-family="Times,serif" font-size="14.00"> &#160;SubSystemStatePolicy </text>
<polygon fill="none" stroke="black" points="169.5,-555 169.5,-578 352.5,-578 352.5,-555 169.5,-555"/>
</g>
<!-- Policy&#45;&gt;SubSystemStatePolicy -->
<g id="Policy&#45;SubSystemStatePolicy" class="edge">
<title>Policy&#45;&gt;SubSystemStatePolicy</title>
<path fill="none" stroke="purple" stroke-dasharray="5,2" d="M381.97,-993.97C374.57,-982.25 367.69,-970.11 362,-958 299.64,-825.21 271.7,-648.24 263.61,-588.33"/>
<polygon fill="purple" stroke="purple" points="267.06,-587.71 262.29,-578.25 260.12,-588.62 267.06,-587.71"/>
</g>
<!-- WorkItemTask -->
<g id="node12" class="node">
<title>WorkItemTask</title>
<polygon fill="white" stroke="transparent" points="256,-1236.5 256,-1255.5 376,-1255.5 376,-1236.5 256,-1236.5"/>
<text text-anchor="start" x="258" y="-1242.3" font-family="Times,serif" font-size="14.00"> &#160;WorkItemTask </text>
<text text-anchor="start" x="258" y="-1222.3" font-family="Times,serif" font-size="14.00">parentPolicy: </text>
<text text-anchor="start" x="379" y="-1222.3" font-family="Times,serif" font-size="14.00">Policy</text>
<polygon fill="none" stroke="black" points="254,-1215 254,-1258 426,-1258 426,-1215 254,-1215"/>
</g>
<!-- WorkItemTask&#45;&gt;Policy -->
<g id="WorkItemTask&#45;parentPolicy&#45;Policy" class="edge">
<title>WorkItemTask:parentPolicy&#45;&gt;Policy</title>
<path fill="none" stroke="black" d="M401,-1215.5C401,-1206.68 402.09,-1197.75 403.95,-1188.94"/>
<polygon fill="black" stroke="black" points="407.4,-1189.59 406.37,-1179.04 400.6,-1187.92 407.4,-1189.59"/>
</g>
</g>
</svg>
