<?xml version="1.0" encoding="UTF-8" standalone="no"?>
<!DOCTYPE svg PUBLIC "-//W3C//DTD SVG 1.1//EN"
 "http://www.w3.org/Graphics/SVG/1.1/DTD/svg11.dtd">
<!-- Generated by graphviz version 2.43.0 (0)
 -->
<!-- Title: %3 Pages: 1 -->
<svg width="717pt" height="746pt"
 viewBox="0.00 0.00 716.81 746.00" xmlns="http://www.w3.org/2000/svg" xmlns:xlink="http://www.w3.org/1999/xlink">
<g id="graph0" class="graph" transform="scale(1 1) rotate(0) translate(4 742)">
<title>%3</title>
<polygon fill="white" stroke="transparent" points="-4,4 -4,-742 712.81,-742 712.81,4 -4,4"/>
<g id="clust1" class="cluster">
<title>cluster0</title>
<polygon fill="none" stroke="black" points="8,-8 8,-730 688,-730 688,-8 8,-8"/>
<text text-anchor="middle" x="97.5" y="-714.8" font-family="Times,serif" font-size="14.00">Schema: digitech&#45;v022</text>
</g>
<g id="clust2" class="cluster">
<title>cluster1</title>
<polygon fill="none" stroke="black" points="33,-635 33,-699 622,-699 622,-635 33,-635"/>
<text text-anchor="middle" x="87.5" y="-683.8" font-family="Times,serif" font-size="14.00">Cluster: core</text>
</g>
<g id="clust6" class="cluster">
<title>cluster5</title>
<polygon fill="none" stroke="black" points="16,-80 16,-627 594,-627 594,-80 16,-80"/>
<text text-anchor="middle" x="62" y="-611.8" font-family="Times,serif" font-size="14.00">Cluster: i4</text>
</g>
<!-- PhysicalEntity -->
<g id="node1" class="node">
<title>PhysicalEntity</title>
<polygon fill="white" stroke="transparent" points="45,-645.5 45,-664.5 162,-664.5 162,-645.5 45,-645.5"/>
<text text-anchor="start" x="47" y="-651.3" font-family="Times,serif" font-size="14.00"> PhysicalEntity </text>
<polygon fill="none" stroke="#1e8449" stroke-width="2" points="42.5,-644 42.5,-667 163.5,-667 163.5,-644 42.5,-644"/>
</g>
<!-- Asset -->
<g id="node5" class="node">
<title>Asset</title>
<polygon fill="white" stroke="transparent" points="202,-362.5 202,-381.5 259,-381.5 259,-362.5 202,-362.5"/>
<text text-anchor="start" x="204" y="-368.3" font-family="Times,serif" font-size="14.00"> &#160;Asset </text>
<polygon fill="none" stroke="#1e8449" stroke-width="2" points="199.5,-361 199.5,-384 260.5,-384 260.5,-361 199.5,-361"/>
</g>
<!-- PhysicalEntity&#45;&gt;Asset -->
<g id="PhysicalEntity&#45;Asset" class="edge">
<title>PhysicalEntity&#45;&gt;Asset</title>
<path fill="none" stroke="#1e8449" stroke-dasharray="5,2" d="M94.36,-642.79C91.42,-638.12 88.5,-632.55 87,-627 66.63,-551.48 41.82,-514.86 87,-451 114.77,-411.76 148.41,-440.75 189,-415 198.29,-409.1 207.09,-400.73 214.13,-393.05"/>
<polygon fill="#1e8449" stroke="#1e8449" points="217.09,-394.98 221.02,-385.14 211.82,-390.38 217.09,-394.98"/>
</g>
<!-- AbstractEntity -->
<g id="node2" class="node">
<title>AbstractEntity</title>
<polygon fill="white" stroke="transparent" points="186,-645.5 186,-664.5 305,-664.5 305,-645.5 186,-645.5"/>
<text text-anchor="start" x="188" y="-651.3" font-family="Times,serif" font-size="14.00"> AbstractEntity </text>
<polygon fill="none" stroke="aquamarine" stroke-width="2" points="183.5,-644 183.5,-667 306.5,-667 306.5,-644 183.5,-644"/>
</g>
<!-- ProductionEntity -->
<g id="node6" class="node">
<title>ProductionEntity</title>
<polygon fill="white" stroke="transparent" points="99,-513.5 99,-532.5 239,-532.5 239,-513.5 99,-513.5"/>
<text text-anchor="start" x="101" y="-519.3" font-family="Times,serif" font-size="14.00"> &#160;ProductionEntity </text>
<polygon fill="none" stroke="purple" stroke-width="2" points="97,-512 97,-535 241,-535 241,-512 97,-512"/>
</g>
<!-- AbstractEntity&#45;&gt;ProductionEntity -->
<g id="AbstractEntity&#45;ProductionEntity" class="edge">
<title>AbstractEntity&#45;&gt;ProductionEntity</title>
<path fill="none" stroke="aquamarine" stroke-dasharray="5,2" d="M238.26,-642.96C225.39,-620.95 197.17,-572.69 181.01,-545.04"/>
<polygon fill="aquamarine" stroke="aquamarine" points="183.91,-543.06 175.84,-536.2 177.86,-546.6 183.91,-543.06"/>
</g>
<!-- CyberPhysicalActor -->
<g id="node3" class="node">
<title>CyberPhysicalActor</title>
<polygon fill="white" stroke="transparent" points="329,-645.5 329,-664.5 483,-664.5 483,-645.5 329,-645.5"/>
<text text-anchor="start" x="331" y="-651.3" font-family="Times,serif" font-size="14.00"> CyberPhysicalActor </text>
<polygon fill="none" stroke="purple" stroke-width="2" points="327,-644 327,-667 485,-667 485,-644 327,-644"/>
</g>
<!-- AssetShell -->
<g id="node7" class="node">
<title>AssetShell</title>
<polygon fill="white" stroke="transparent" points="263,-573.5 263,-592.5 419,-592.5 419,-573.5 263,-573.5"/>
<text text-anchor="start" x="296.5" y="-579.3" font-family="Times,serif" font-size="14.00"> &#160;AssetShell </text>
<text text-anchor="start" x="265" y="-559.3" font-family="Times,serif" font-size="14.00">assetName: </text>
<text text-anchor="start" x="465.5" y="-559.3" font-family="Times,serif" font-size="14.00">xsd:string</text>
<text text-anchor="start" x="265" y="-539.3" font-family="Times,serif" font-size="14.00">asset: </text>
<text text-anchor="start" x="482" y="-539.3" font-family="Times,serif" font-size="14.00">Asset</text>
<text text-anchor="start" x="265" y="-519.3" font-family="Times,serif" font-size="14.00">availableOperations: </text>
<text text-anchor="start" x="422" y="-519.3" font-family="Times,serif" font-size="14.00">[ProductionOperation]</text>
<text text-anchor="start" x="265" y="-499.3" font-family="Times,serif" font-size="14.00">subModels: </text>
<text text-anchor="start" x="460.5" y="-499.3" font-family="Times,serif" font-size="14.00">[SubModel]</text>
<text text-anchor="start" x="265" y="-479.3" font-family="Times,serif" font-size="14.00">state: </text>
<text text-anchor="start" x="482.5" y="-479.3" font-family="Times,serif" font-size="14.00">State</text>
<text text-anchor="start" x="265" y="-459.3" font-family="Times,serif" font-size="14.00">heathSummary: </text>
<text text-anchor="start" x="465.5" y="-459.3" font-family="Times,serif" font-size="14.00">xsd:string</text>
<polygon fill="none" stroke="purple" stroke-width="2" points="260.5,-452 260.5,-595 585.5,-595 585.5,-452 260.5,-452"/>
</g>
<!-- CyberPhysicalActor&#45;&gt;AssetShell -->
<g id="CyberPhysicalActor&#45;AssetShell" class="edge">
<title>CyberPhysicalActor&#45;&gt;AssetShell</title>
<path fill="none" stroke="purple" stroke-dasharray="5,2" d="M407.51,-642.96C408.68,-634.03 410.41,-620.76 412.3,-606.31"/>
<polygon fill="purple" stroke="purple" points="415.8,-606.52 413.63,-596.15 408.86,-605.61 415.8,-606.52"/>
</g>
<!-- ActionEntity -->
<g id="node4" class="node">
<title>ActionEntity</title>
<polygon fill="white" stroke="transparent" points="508,-645.5 508,-664.5 611,-664.5 611,-645.5 508,-645.5"/>
<text text-anchor="start" x="510" y="-651.3" font-family="Times,serif" font-size="14.00"> ActionEntity </text>
<polygon fill="none" stroke="red" stroke-width="2" points="505.5,-644 505.5,-667 612.5,-667 612.5,-644 505.5,-644"/>
</g>
<!-- ProductionOperation -->
<g id="node12" class="node">
<title>ProductionOperation</title>
<polygon fill="white" stroke="transparent" points="376,-251.5 376,-270.5 543,-270.5 543,-251.5 376,-251.5"/>
<text text-anchor="start" x="378" y="-257.3" font-family="Times,serif" font-size="14.00"> &#160;ProductionOperation </text>
<polygon fill="none" stroke="red" stroke-width="2" points="373.5,-250 373.5,-273 544.5,-273 544.5,-250 373.5,-250"/>
</g>
<!-- ActionEntity&#45;&gt;ProductionOperation -->
<g id="ActionEntity&#45;ProductionOperation" class="edge">
<title>ActionEntity&#45;&gt;ProductionOperation</title>
<path fill="none" stroke="red" stroke-dasharray="5,2" d="M578.9,-642.91C585.05,-638.56 591.4,-633.15 596,-627 677.73,-517.7 754.77,-440.01 674,-330 646.77,-292.92 599.2,-275.66 555.71,-267.84"/>
<polygon fill="red" stroke="red" points="556.07,-264.35 545.63,-266.18 554.93,-271.26 556.07,-264.35"/>
</g>
<!-- SubModel -->
<g id="node8" class="node">
<title>SubModel</title>
<polygon fill="white" stroke="transparent" points="283,-392.5 283,-411.5 378,-411.5 378,-392.5 283,-392.5"/>
<text text-anchor="start" x="287.5" y="-398.3" font-family="Times,serif" font-size="14.00"> &#160;SubModel </text>
<text text-anchor="start" x="285" y="-378.3" font-family="Times,serif" font-size="14.00">assetName: </text>
<text text-anchor="start" x="424.5" y="-378.3" font-family="Times,serif" font-size="14.00">xsd:string</text>
<text text-anchor="start" x="285" y="-358.3" font-family="Times,serif" font-size="14.00">capabilities: </text>
<text text-anchor="start" x="419" y="-358.3" font-family="Times,serif" font-size="14.00">[Capability]</text>
<text text-anchor="start" x="285" y="-338.3" font-family="Times,serif" font-size="14.00">skills: </text>
<text text-anchor="start" x="381" y="-338.3" font-family="Times,serif" font-size="14.00">[ProductionOperation]</text>
<polygon fill="none" stroke="purple" stroke-width="2" points="281,-331 281,-414 545,-414 545,-331 281,-331"/>
</g>
<!-- ProductionEntity&#45;&gt;SubModel -->
<g id="ProductionEntity&#45;SubModel" class="edge">
<title>ProductionEntity&#45;&gt;SubModel</title>
<path fill="none" stroke="purple" stroke-dasharray="5,2" d="M180.4,-510.75C195.53,-495.6 223.54,-469.06 251,-451 268.13,-439.74 287.14,-429.15 305.94,-419.63"/>
<polygon fill="purple" stroke="purple" points="307.76,-422.64 315.15,-415.05 304.63,-416.37 307.76,-422.64"/>
</g>
<!-- SubModelElement -->
<g id="node9" class="node">
<title>SubModelElement</title>
<polygon fill="white" stroke="transparent" points="27,-362.5 27,-381.5 177,-381.5 177,-362.5 27,-362.5"/>
<text text-anchor="start" x="29" y="-368.3" font-family="Times,serif" font-size="14.00"> &#160;SubModelElement </text>
<polygon fill="none" stroke="purple" stroke-width="2" points="25,-361 25,-384 179,-384 179,-361 25,-361"/>
</g>
<!-- ProductionEntity&#45;&gt;SubModelElement -->
<g id="ProductionEntity&#45;SubModelElement" class="edge">
<title>ProductionEntity&#45;&gt;SubModelElement</title>
<path fill="none" stroke="purple" stroke-dasharray="5,2" d="M163.74,-510.81C152.44,-485.67 125.7,-426.21 111.4,-394.41"/>
<polygon fill="purple" stroke="purple" points="114.53,-392.82 107.23,-385.14 108.14,-395.69 114.53,-392.82"/>
</g>
<!-- AssetShell&#45;&gt;Asset -->
<g id="AssetShell&#45;asset&#45;Asset" class="edge">
<title>AssetShell:asset&#45;&gt;Asset</title>
<path fill="none" stroke="purple" d="M585,-543.5C626.11,-543.5 611.53,-481.54 584,-451 537.12,-398.99 333.95,-445.64 271,-415 260.62,-409.95 251.35,-401.16 244.27,-392.98"/>
<polygon fill="purple" stroke="purple" points="246.95,-390.73 237.95,-385.15 241.51,-395.13 246.95,-390.73"/>
</g>
<!-- AssetShell&#45;&gt;SubModel -->
<g id="AssetShell&#45;subModels&#45;SubModel" class="edge">
<title>AssetShell:subModels&#45;&gt;SubModel</title>
<path fill="none" stroke="purple" d="M585,-502.5C607.89,-502.5 596.59,-470.12 584,-451 576.21,-439.17 566.14,-429.13 554.78,-420.6"/>
<polygon fill="purple" stroke="purple" points="556.5,-417.53 546.3,-414.65 552.48,-423.26 556.5,-417.53"/>
</g>
<!-- AssetShell&#45;&gt;ProductionOperation -->
<g id="AssetShell&#45;availableOperations&#45;ProductionOperation" class="edge">
<title>AssetShell:availableOperations&#45;&gt;ProductionOperation</title>
<path fill="none" stroke="purple" d="M585,-522.5C610.82,-522.5 578.72,-364.93 555,-330 539.84,-307.68 514.68,-290.4 493.92,-278.9"/>
<polygon fill="purple" stroke="purple" points="495.52,-275.79 485.04,-274.18 492.23,-281.97 495.52,-275.79"/>
</g>
<!-- State -->
<g id="node14" class="node">
<title>State</title>
<polygon fill="none" stroke="black" points="659.5,-390.5 604.5,-390.5 604.5,-354.5 659.5,-354.5 659.5,-390.5"/>
<text text-anchor="middle" x="632" y="-368.8" font-family="Times,serif" font-size="14.00">State</text>
</g>
<!-- AssetShell&#45;&gt;State -->
<g id="AssetShell&#45;state&#45;State" class="edge">
<title>AssetShell:state&#45;&gt;State</title>
<path fill="none" stroke="purple" d="M585,-482.5C620.55,-482.5 629.53,-433.01 631.61,-400.72"/>
<polygon fill="purple" stroke="purple" points="635.11,-400.68 632.08,-390.53 628.12,-400.36 635.11,-400.68"/>
</g>
<!-- Capability -->
<g id="node10" class="node">
<title>Capability</title>
<polygon fill="white" stroke="transparent" points="121,-140.5 121,-159.5 225,-159.5 225,-140.5 121,-140.5"/>
<text text-anchor="start" x="129.5" y="-146.3" font-family="Times,serif" font-size="14.00"> &#160;Capability </text>
<text text-anchor="start" x="123" y="-126.3" font-family="Times,serif" font-size="14.00">bddBehavior: </text>
<text text-anchor="start" x="228" y="-126.3" font-family="Times,serif" font-size="14.00">BDDBehavior</text>
<polygon fill="none" stroke="yellow" stroke-width="2" points="119,-119 119,-162 329,-162 329,-119 119,-119"/>
</g>
<!-- SubModel&#45;&gt;Capability -->
<g id="SubModel&#45;capabilities&#45;Capability" class="edge">
<title>SubModel:capabilities&#45;&gt;Capability</title>
<path fill="none" stroke="purple" d="M544,-361.5C558.01,-361.5 552.05,-340.69 543,-330 490.6,-268.04 424.56,-348.02 364,-294 341.34,-273.79 360.75,-253.63 343,-229 325.04,-204.08 297.83,-183.33 273.96,-168.29"/>
<polygon fill="purple" stroke="purple" points="275.7,-165.25 265.34,-163.01 272.04,-171.22 275.7,-165.25"/>
</g>
<!-- SubModel&#45;&gt;ProductionOperation -->
<g id="SubModel&#45;skills&#45;ProductionOperation" class="edge">
<title>SubModel:skills&#45;&gt;ProductionOperation</title>
<path fill="none" stroke="purple" d="M461,-331.5C461,-315.77 460.47,-298.03 459.96,-284.48"/>
<polygon fill="purple" stroke="purple" points="463.45,-284.07 459.55,-274.22 456.45,-284.35 463.45,-284.07"/>
</g>
<!-- SubModelElement&#45;&gt;Capability -->
<g id="SubModelElement&#45;Capability" class="edge">
<title>SubModelElement&#45;&gt;Capability</title>
<path fill="none" stroke="purple" stroke-dasharray="5,2" d="M96.14,-359.91C84.16,-334.44 59.94,-272.4 84,-229 99.29,-201.41 127.31,-181.37 154.29,-167.49"/>
<polygon fill="purple" stroke="purple" points="155.95,-170.57 163.38,-163.01 152.86,-164.29 155.95,-170.57"/>
</g>
<!-- CapabilityMap -->
<g id="node11" class="node">
<title>CapabilityMap</title>
<polygon fill="white" stroke="transparent" points="96,-271.5 96,-290.5 218,-290.5 218,-271.5 96,-271.5"/>
<text text-anchor="start" x="98" y="-277.3" font-family="Times,serif" font-size="14.00"> &#160;CapabilityMap </text>
<text text-anchor="start" x="98" y="-257.3" font-family="Times,serif" font-size="14.00">capability: </text>
<text text-anchor="start" x="238.5" y="-257.3" font-family="Times,serif" font-size="14.00">Capability</text>
<text text-anchor="start" x="98" y="-237.3" font-family="Times,serif" font-size="14.00">skill: </text>
<text text-anchor="start" x="221" y="-237.3" font-family="Times,serif" font-size="14.00">ShellOperation</text>
<polygon fill="none" stroke="orange" stroke-width="2" points="93.5,-230 93.5,-293 332.5,-293 332.5,-230 93.5,-230"/>
</g>
<!-- SubModelElement&#45;&gt;CapabilityMap -->
<g id="SubModelElement&#45;CapabilityMap" class="edge">
<title>SubModelElement&#45;&gt;CapabilityMap</title>
<path fill="none" stroke="purple" stroke-dasharray="5,2" d="M113.88,-359.84C127.99,-345.98 152.25,-322.15 173.25,-301.54"/>
<polygon fill="purple" stroke="purple" points="175.83,-303.91 180.51,-294.4 170.92,-298.91 175.83,-303.91"/>
</g>
<!-- SubModelElement&#45;&gt;ProductionOperation -->
<g id="SubModelElement&#45;ProductionOperation" class="edge">
<title>SubModelElement&#45;&gt;ProductionOperation</title>
<path fill="none" stroke="purple" stroke-dasharray="5,2" d="M123.17,-359.97C140.67,-350.82 166.4,-338.24 190,-330 255.95,-306.98 275.28,-311.16 343,-294 364.38,-288.58 387.88,-282.27 408.11,-276.72"/>
<polygon fill="purple" stroke="purple" points="409.04,-280.1 417.75,-274.07 407.18,-273.35 409.04,-280.1"/>
</g>
<!-- BDDBehavior -->
<g id="node15" class="node">
<title>BDDBehavior</title>
<polygon fill="none" stroke="black" points="401.5,-52 288.5,-52 288.5,-16 401.5,-16 401.5,-52"/>
<text text-anchor="middle" x="345" y="-30.3" font-family="Times,serif" font-size="14.00">BDDBehavior</text>
</g>
<!-- Capability&#45;&gt;BDDBehavior -->
<g id="Capability&#45;bddBehavior&#45;BDDBehavior" class="edge">
<title>Capability:bddBehavior&#45;&gt;BDDBehavior</title>
<path fill="none" stroke="yellow" d="M328,-129.5C331.44,-129.5 337.5,-90.28 341.38,-62.37"/>
<polygon fill="yellow" stroke="yellow" points="344.87,-62.71 342.75,-52.33 337.93,-61.77 344.87,-62.71"/>
</g>
<!-- CapabilityMap&#45;&gt;Capability -->
<g id="CapabilityMap&#45;capability&#45;Capability" class="edge">
<title>CapabilityMap:capability&#45;&gt;Capability</title>
<path fill="none" stroke="orange" d="M332,-260.5C346.01,-260.5 337.2,-241.56 331,-229 318.58,-203.83 295.17,-183.39 273.4,-168.62"/>
<polygon fill="orange" stroke="orange" points="275.14,-165.57 264.85,-163.04 271.31,-171.43 275.14,-165.57"/>
</g>
<!-- ShellOperation -->
<g id="node13" class="node">
<title>ShellOperation</title>
<polygon fill="white" stroke="transparent" points="351,-170.5 351,-189.5 476,-189.5 476,-170.5 351,-170.5"/>
<text text-anchor="start" x="353" y="-176.3" font-family="Times,serif" font-size="14.00"> &#160;ShellOperation </text>
<text text-anchor="start" x="353" y="-156.3" font-family="Times,serif" font-size="14.00">param: </text>
<text text-anchor="start" x="491" y="-156.3" font-family="Times,serif" font-size="14.00">xsd:string</text>
<text text-anchor="start" x="353" y="-136.3" font-family="Times,serif" font-size="14.00">actor: </text>
<text text-anchor="start" x="489.5" y="-136.3" font-family="Times,serif" font-size="14.00">AssetShell</text>
<text text-anchor="start" x="353" y="-116.3" font-family="Times,serif" font-size="14.00">swAsset: </text>
<text text-anchor="start" x="496" y="-116.3" font-family="Times,serif" font-size="14.00">SWAsset</text>
<text text-anchor="start" x="353" y="-96.3" font-family="Times,serif" font-size="14.00">bddBehavior: </text>
<text text-anchor="start" x="479" y="-96.3" font-family="Times,serif" font-size="14.00">BDDBehavior</text>
<polygon fill="none" stroke="red" stroke-width="2" points="348.5,-89 348.5,-192 579.5,-192 579.5,-89 348.5,-89"/>
</g>
<!-- CapabilityMap&#45;&gt;ShellOperation -->
<g id="CapabilityMap&#45;skill&#45;ShellOperation" class="edge">
<title>CapabilityMap:skill&#45;&gt;ShellOperation</title>
<path fill="none" stroke="orange" d="M332,-240.5C348.16,-240.5 375.72,-221.27 401.48,-199.76"/>
<polygon fill="orange" stroke="orange" points="404.05,-202.17 409.41,-193.03 399.52,-196.83 404.05,-202.17"/>
</g>
<!-- ProductionOperation&#45;&gt;ShellOperation -->
<g id="ProductionOperation&#45;ShellOperation" class="edge">
<title>ProductionOperation&#45;&gt;ShellOperation</title>
<path fill="none" stroke="red" stroke-dasharray="5,2" d="M459.5,-248.65C459.96,-237.74 460.67,-220.67 461.4,-203.32"/>
<polygon fill="red" stroke="red" points="464.91,-203.27 461.83,-193.13 457.91,-202.97 464.91,-203.27"/>
</g>
<!-- ShellOperation&#45;&gt;AssetShell -->
<g id="ShellOperation&#45;actor&#45;AssetShell" class="edge">
<title>ShellOperation:actor&#45;&gt;AssetShell</title>
<path fill="none" stroke="red" d="M579,-139.5C594.36,-139.5 562.3,-401.48 555,-415 549.57,-425.06 542.76,-434.53 535.13,-443.36"/>
<polygon fill="red" stroke="red" points="532.36,-441.2 528.22,-450.96 537.54,-445.92 532.36,-441.2"/>
</g>
<!-- ShellOperation&#45;&gt;BDDBehavior -->
<g id="ShellOperation&#45;bddBehavior&#45;BDDBehavior" class="edge">
<title>ShellOperation:bddBehavior&#45;&gt;BDDBehavior</title>
<path fill="none" stroke="red" d="M528,-89.5C528,-64.43 464.12,-49.96 411.84,-42.31"/>
<polygon fill="red" stroke="red" points="412.29,-38.84 401.9,-40.92 411.32,-45.78 412.29,-38.84"/>
</g>
<!-- SWAsset -->
<g id="node16" class="node">
<title>SWAsset</title>
<polygon fill="none" stroke="black" points="567.5,-52 488.5,-52 488.5,-16 567.5,-16 567.5,-52"/>
<text text-anchor="middle" x="528" y="-30.3" font-family="Times,serif" font-size="14.00">SWAsset</text>
</g>
<!-- ShellOperation&#45;&gt;SWAsset -->
<g id="ShellOperation&#45;swAsset&#45;SWAsset" class="edge">
<title>ShellOperation:swAsset&#45;&gt;SWAsset</title>
<path fill="none" stroke="red" d="M579,-119.5C607.26,-119.5 577.94,-84.42 553.5,-59.47"/>
<polygon fill="red" stroke="red" points="555.68,-56.7 546.14,-52.1 550.73,-61.65 555.68,-56.7"/>
</g>
</g>
</svg>
