<?xml version="1.0" encoding="UTF-8" standalone="no"?>
<!DOCTYPE svg PUBLIC "-//W3C//DTD SVG 1.1//EN"
 "http://www.w3.org/Graphics/SVG/1.1/DTD/svg11.dtd">
<!-- Generated by graphviz version 2.43.0 (0)
 -->
<!-- Title: %3 Pages: 1 -->
<svg width="804pt" height="704pt"
 viewBox="0.00 0.00 804.00 704.00" xmlns="http://www.w3.org/2000/svg" xmlns:xlink="http://www.w3.org/1999/xlink">
<g id="graph0" class="graph" transform="scale(1 1) rotate(0) translate(4 700)">
<title>%3</title>
<polygon fill="white" stroke="transparent" points="-4,4 -4,-700 800,-700 800,4 -4,4"/>
<g id="clust1" class="cluster">
<title>cluster0</title>
<polygon fill="none" stroke="black" points="8,-8 8,-688 788,-688 788,-8 8,-8"/>
<text text-anchor="middle" x="97.5" y="-672.8" font-family="Times,serif" font-size="14.00">Schema: digitech&#45;v022</text>
</g>
<!-- PhysicalEntity -->
<g id="node1" class="node">
<title>PhysicalEntity</title>
<polygon fill="white" stroke="transparent" points="660,-513.5 660,-532.5 777,-532.5 777,-513.5 660,-513.5"/>
<text text-anchor="start" x="662" y="-519.3" font-family="Times,serif" font-size="14.00"> PhysicalEntity </text>
<polygon fill="none" stroke="#1e8449" stroke-width="2" points="657.5,-512 657.5,-535 778.5,-535 778.5,-512 657.5,-512"/>
</g>
<!-- Asset -->
<g id="node5" class="node">
<title>Asset</title>
<polygon fill="white" stroke="transparent" points="720,-362.5 720,-381.5 777,-381.5 777,-362.5 720,-362.5"/>
<text text-anchor="start" x="722" y="-368.3" font-family="Times,serif" font-size="14.00"> &#160;Asset </text>
<polygon fill="none" stroke="#1e8449" stroke-width="2" points="717.5,-361 717.5,-384 778.5,-384 778.5,-361 717.5,-361"/>
</g>
<!-- PhysicalEntity&#45;&gt;Asset -->
<g id="PhysicalEntity&#45;Asset" class="edge">
<title>PhysicalEntity&#45;&gt;Asset</title>
<path fill="none" stroke="#1e8449" stroke-dasharray="5,2" d="M720.35,-510.81C725.37,-485.89 737.18,-427.24 743.62,-395.24"/>
<polygon fill="#1e8449" stroke="#1e8449" points="747.11,-395.63 745.66,-385.14 740.25,-394.25 747.11,-395.63"/>
</g>
<!-- AbstractEntity -->
<g id="node2" class="node">
<title>AbstractEntity</title>
<polygon fill="white" stroke="transparent" points="98,-634.5 98,-653.5 217,-653.5 217,-634.5 98,-634.5"/>
<text text-anchor="start" x="100" y="-640.3" font-family="Times,serif" font-size="14.00"> AbstractEntity </text>
<polygon fill="none" stroke="aquamarine" stroke-width="2" points="95.5,-633 95.5,-656 218.5,-656 218.5,-633 95.5,-633"/>
</g>
<!-- ProductionEntity -->
<g id="node6" class="node">
<title>ProductionEntity</title>
<polygon fill="white" stroke="transparent" points="87,-513.5 87,-532.5 227,-532.5 227,-513.5 87,-513.5"/>
<text text-anchor="start" x="89" y="-519.3" font-family="Times,serif" font-size="14.00"> &#160;ProductionEntity </text>
<polygon fill="none" stroke="purple" stroke-width="2" points="85,-512 85,-535 229,-535 229,-512 85,-512"/>
</g>
<!-- AbstractEntity&#45;&gt;ProductionEntity -->
<g id="AbstractEntity&#45;ProductionEntity" class="edge">
<title>AbstractEntity&#45;&gt;ProductionEntity</title>
<path fill="none" stroke="aquamarine" stroke-dasharray="5,2" d="M157,-631.65C157,-611.79 157,-571.45 157,-546.33"/>
<polygon fill="aquamarine" stroke="aquamarine" points="160.5,-546.3 157,-536.3 153.5,-546.3 160.5,-546.3"/>
</g>
<!-- CyberPhysicalActor -->
<g id="node3" class="node">
<title>CyberPhysicalActor</title>
<polygon fill="white" stroke="transparent" points="398,-634.5 398,-653.5 552,-653.5 552,-634.5 398,-634.5"/>
<text text-anchor="start" x="400" y="-640.3" font-family="Times,serif" font-size="14.00"> CyberPhysicalActor </text>
<polygon fill="none" stroke="purple" stroke-width="2" points="396,-633 396,-656 554,-656 554,-633 396,-633"/>
</g>
<!-- AssetShell -->
<g id="node7" class="node">
<title>AssetShell</title>
<polygon fill="white" stroke="transparent" points="315,-573.5 315,-592.5 471,-592.5 471,-573.5 315,-573.5"/>
<text text-anchor="start" x="348.5" y="-579.3" font-family="Times,serif" font-size="14.00"> &#160;AssetShell </text>
<text text-anchor="start" x="317" y="-559.3" font-family="Times,serif" font-size="14.00">assetName: </text>
<text text-anchor="start" x="517.5" y="-559.3" font-family="Times,serif" font-size="14.00">xsd:string</text>
<text text-anchor="start" x="317" y="-539.3" font-family="Times,serif" font-size="14.00">asset: </text>
<text text-anchor="start" x="534" y="-539.3" font-family="Times,serif" font-size="14.00">Asset</text>
<text text-anchor="start" x="317" y="-519.3" font-family="Times,serif" font-size="14.00">availableOperations: </text>
<text text-anchor="start" x="474" y="-519.3" font-family="Times,serif" font-size="14.00">[ProductionOperation]</text>
<text text-anchor="start" x="317" y="-499.3" font-family="Times,serif" font-size="14.00">subModels: </text>
<text text-anchor="start" x="512.5" y="-499.3" font-family="Times,serif" font-size="14.00">[SubModel]</text>
<text text-anchor="start" x="317" y="-479.3" font-family="Times,serif" font-size="14.00">state: </text>
<text text-anchor="start" x="534.5" y="-479.3" font-family="Times,serif" font-size="14.00">State</text>
<text text-anchor="start" x="317" y="-459.3" font-family="Times,serif" font-size="14.00">heathSummary: </text>
<text text-anchor="start" x="517.5" y="-459.3" font-family="Times,serif" font-size="14.00">xsd:string</text>
<polygon fill="none" stroke="purple" stroke-width="2" points="312.5,-452 312.5,-595 637.5,-595 637.5,-452 312.5,-452"/>
</g>
<!-- CyberPhysicalActor&#45;&gt;AssetShell -->
<g id="CyberPhysicalActor&#45;AssetShell" class="edge">
<title>CyberPhysicalActor&#45;&gt;AssetShell</title>
<path fill="none" stroke="purple" stroke-dasharray="5,2" d="M475,-631.65C475,-625.04 475,-616.16 475,-606.33"/>
<polygon fill="purple" stroke="purple" points="478.5,-606.23 475,-596.23 471.5,-606.23 478.5,-606.23"/>
</g>
<!-- ActionEntity -->
<g id="node4" class="node">
<title>ActionEntity</title>
<polygon fill="white" stroke="transparent" points="478,-362.5 478,-381.5 581,-381.5 581,-362.5 478,-362.5"/>
<text text-anchor="start" x="480" y="-368.3" font-family="Times,serif" font-size="14.00"> ActionEntity </text>
<polygon fill="none" stroke="red" stroke-width="2" points="475.5,-361 475.5,-384 582.5,-384 582.5,-361 475.5,-361"/>
</g>
<!-- ProductionOperation -->
<g id="node12" class="node">
<title>ProductionOperation</title>
<polygon fill="white" stroke="transparent" points="414,-251.5 414,-270.5 581,-270.5 581,-251.5 414,-251.5"/>
<text text-anchor="start" x="416" y="-257.3" font-family="Times,serif" font-size="14.00"> &#160;ProductionOperation </text>
<polygon fill="none" stroke="red" stroke-width="2" points="411.5,-250 411.5,-273 582.5,-273 582.5,-250 411.5,-250"/>
</g>
<!-- ActionEntity&#45;&gt;ProductionOperation -->
<g id="ActionEntity&#45;ProductionOperation" class="edge">
<title>ActionEntity&#45;&gt;ProductionOperation</title>
<path fill="none" stroke="red" stroke-dasharray="5,2" d="M525.58,-359.84C520.26,-341.72 509.94,-306.56 503.26,-283.83"/>
<polygon fill="red" stroke="red" points="506.58,-282.69 500.4,-274.08 499.86,-284.66 506.58,-282.69"/>
</g>
<!-- SubModel -->
<g id="node8" class="node">
<title>SubModel</title>
<polygon fill="white" stroke="transparent" points="193,-392.5 193,-411.5 288,-411.5 288,-392.5 193,-392.5"/>
<text text-anchor="start" x="197.5" y="-398.3" font-family="Times,serif" font-size="14.00"> &#160;SubModel </text>
<text text-anchor="start" x="195" y="-378.3" font-family="Times,serif" font-size="14.00">assetName: </text>
<text text-anchor="start" x="334.5" y="-378.3" font-family="Times,serif" font-size="14.00">xsd:string</text>
<text text-anchor="start" x="195" y="-358.3" font-family="Times,serif" font-size="14.00">capabilities: </text>
<text text-anchor="start" x="329" y="-358.3" font-family="Times,serif" font-size="14.00">[Capability]</text>
<text text-anchor="start" x="195" y="-338.3" font-family="Times,serif" font-size="14.00">skills: </text>
<text text-anchor="start" x="291" y="-338.3" font-family="Times,serif" font-size="14.00">[ProductionOperation]</text>
<polygon fill="none" stroke="purple" stroke-width="2" points="191,-331 191,-414 455,-414 455,-331 191,-331"/>
</g>
<!-- ProductionEntity&#45;&gt;SubModel -->
<g id="ProductionEntity&#45;SubModel" class="edge">
<title>ProductionEntity&#45;&gt;SubModel</title>
<path fill="none" stroke="purple" stroke-dasharray="5,2" d="M170.03,-510.81C191.13,-491.87 233.96,-453.42 268.95,-422.02"/>
<polygon fill="purple" stroke="purple" points="271.64,-424.31 276.74,-415.02 266.96,-419.1 271.64,-424.31"/>
</g>
<!-- SubModelElement -->
<g id="node9" class="node">
<title>SubModelElement</title>
<polygon fill="white" stroke="transparent" points="19,-362.5 19,-381.5 169,-381.5 169,-362.5 19,-362.5"/>
<text text-anchor="start" x="21" y="-368.3" font-family="Times,serif" font-size="14.00"> &#160;SubModelElement </text>
<polygon fill="none" stroke="purple" stroke-width="2" points="17,-361 17,-384 171,-384 171,-361 17,-361"/>
</g>
<!-- ProductionEntity&#45;&gt;SubModelElement -->
<g id="ProductionEntity&#45;SubModelElement" class="edge">
<title>ProductionEntity&#45;&gt;SubModelElement</title>
<path fill="none" stroke="purple" stroke-dasharray="5,2" d="M152.06,-510.81C141.43,-485.67 116.29,-426.21 102.84,-394.41"/>
<polygon fill="purple" stroke="purple" points="106.04,-392.98 98.92,-385.14 99.59,-395.71 106.04,-392.98"/>
</g>
<!-- AssetShell&#45;&gt;Asset -->
<g id="AssetShell&#45;asset&#45;Asset" class="edge">
<title>AssetShell:asset&#45;&gt;Asset</title>
<path fill="none" stroke="purple" d="M637,-543.5C657.7,-543.5 637.17,-468.64 648,-451 663.09,-426.42 679.23,-432.71 702,-415 711.04,-407.97 720.52,-399.6 728.51,-392.23"/>
<polygon fill="purple" stroke="purple" points="731.03,-394.67 735.93,-385.28 726.24,-389.56 731.03,-394.67"/>
</g>
<!-- AssetShell&#45;&gt;SubModel -->
<g id="AssetShell&#45;subModels&#45;SubModel" class="edge">
<title>AssetShell:subModels&#45;&gt;SubModel</title>
<path fill="none" stroke="purple" d="M637,-502.5C648.45,-502.5 643.29,-459.82 636,-451 586.79,-391.47 540.91,-433.78 466,-415 465.9,-414.97 465.8,-414.95 465.69,-414.92"/>
<polygon fill="purple" stroke="purple" points="466.67,-411.56 456.12,-412.48 464.94,-418.34 466.67,-411.56"/>
</g>
<!-- AssetShell&#45;&gt;ProductionOperation -->
<g id="AssetShell&#45;availableOperations&#45;ProductionOperation" class="edge">
<title>AssetShell:availableOperations&#45;&gt;ProductionOperation</title>
<path fill="none" stroke="purple" d="M637,-522.5C653.08,-522.5 640.45,-465.19 648,-451 659.08,-430.18 677.54,-436.61 687,-415 702.15,-380.39 708.79,-360.86 687,-330 665.5,-299.55 629.01,-282.75 593.72,-273.52"/>
<polygon fill="purple" stroke="purple" points="594.36,-270.07 583.82,-271.11 592.71,-276.87 594.36,-270.07"/>
</g>
<!-- State -->
<g id="node14" class="node">
<title>State</title>
<polygon fill="none" stroke="black" points="677.5,-390.5 622.5,-390.5 622.5,-354.5 677.5,-354.5 677.5,-390.5"/>
<text text-anchor="middle" x="650" y="-368.8" font-family="Times,serif" font-size="14.00">State</text>
</g>
<!-- AssetShell&#45;&gt;State -->
<g id="AssetShell&#45;state&#45;State" class="edge">
<title>AssetShell:state&#45;&gt;State</title>
<path fill="none" stroke="purple" d="M637,-482.5C645.22,-482.5 648.26,-433.01 649.38,-400.72"/>
<polygon fill="purple" stroke="purple" points="652.88,-400.63 649.68,-390.53 645.88,-400.42 652.88,-400.63"/>
</g>
<!-- Capability -->
<g id="node10" class="node">
<title>Capability</title>
<polygon fill="white" stroke="transparent" points="172,-140.5 172,-159.5 276,-159.5 276,-140.5 172,-140.5"/>
<text text-anchor="start" x="180.5" y="-146.3" font-family="Times,serif" font-size="14.00"> &#160;Capability </text>
<text text-anchor="start" x="174" y="-126.3" font-family="Times,serif" font-size="14.00">bddBehavior: </text>
<text text-anchor="start" x="279" y="-126.3" font-family="Times,serif" font-size="14.00">BDDBehavior</text>
<polygon fill="none" stroke="yellow" stroke-width="2" points="170,-119 170,-162 380,-162 380,-119 170,-119"/>
</g>
<!-- SubModel&#45;&gt;Capability -->
<g id="SubModel&#45;capabilities&#45;Capability" class="edge">
<title>SubModel:capabilities&#45;&gt;Capability</title>
<path fill="none" stroke="purple" d="M454,-361.5C468.01,-361.5 459.64,-342.33 453,-330 439.85,-305.57 421.21,-314.02 402,-294 378.18,-269.19 381.42,-255.91 360,-229 343.42,-208.16 322.62,-186.69 305.74,-170.22"/>
<polygon fill="purple" stroke="purple" points="307.92,-167.46 298.3,-163.03 303.06,-172.5 307.92,-167.46"/>
</g>
<!-- SubModel&#45;&gt;ProductionOperation -->
<g id="SubModel&#45;skills&#45;ProductionOperation" class="edge">
<title>SubModel:skills&#45;&gt;ProductionOperation</title>
<path fill="none" stroke="purple" d="M454,-341.5C460.63,-341.5 477.37,-306.77 487.9,-283.36"/>
<polygon fill="purple" stroke="purple" points="491.13,-284.72 491.99,-274.16 484.73,-281.88 491.13,-284.72"/>
</g>
<!-- SubModelElement&#45;&gt;Capability -->
<g id="SubModelElement&#45;Capability" class="edge">
<title>SubModelElement&#45;&gt;Capability</title>
<path fill="none" stroke="purple" stroke-dasharray="5,2" d="M90.98,-359.99C84.91,-334.14 73.98,-270.52 101,-229 119.8,-200.11 151.23,-180.35 182.24,-167.03"/>
<polygon fill="purple" stroke="purple" points="183.91,-170.13 191.83,-163.11 181.25,-163.65 183.91,-170.13"/>
</g>
<!-- CapabilityMap -->
<g id="node11" class="node">
<title>CapabilityMap</title>
<polygon fill="white" stroke="transparent" points="114,-271.5 114,-290.5 236,-290.5 236,-271.5 114,-271.5"/>
<text text-anchor="start" x="116" y="-277.3" font-family="Times,serif" font-size="14.00"> &#160;CapabilityMap </text>
<text text-anchor="start" x="116" y="-257.3" font-family="Times,serif" font-size="14.00">capability: </text>
<text text-anchor="start" x="256.5" y="-257.3" font-family="Times,serif" font-size="14.00">Capability</text>
<text text-anchor="start" x="116" y="-237.3" font-family="Times,serif" font-size="14.00">skill: </text>
<text text-anchor="start" x="239" y="-237.3" font-family="Times,serif" font-size="14.00">ShellOperation</text>
<polygon fill="none" stroke="orange" stroke-width="2" points="111.5,-230 111.5,-293 350.5,-293 350.5,-230 111.5,-230"/>
</g>
<!-- SubModelElement&#45;&gt;CapabilityMap -->
<g id="SubModelElement&#45;CapabilityMap" class="edge">
<title>SubModelElement&#45;&gt;CapabilityMap</title>
<path fill="none" stroke="purple" stroke-dasharray="5,2" d="M108.66,-359.84C126.36,-345.75 157.03,-321.35 183.23,-300.51"/>
<polygon fill="purple" stroke="purple" points="185.55,-303.13 191.2,-294.17 181.19,-297.66 185.55,-303.13"/>
</g>
<!-- SubModelElement&#45;&gt;ProductionOperation -->
<g id="SubModelElement&#45;ProductionOperation" class="edge">
<title>SubModelElement&#45;&gt;ProductionOperation</title>
<path fill="none" stroke="purple" stroke-dasharray="5,2" d="M114.49,-359.94C131.75,-350.65 157.35,-337.89 181,-330 257.98,-304.34 280.67,-311.09 360,-294 385.79,-288.44 414.23,-281.96 438.48,-276.33"/>
<polygon fill="purple" stroke="purple" points="439.31,-279.73 448.25,-274.05 437.72,-272.91 439.31,-279.73"/>
</g>
<!-- BDDBehavior -->
<g id="node15" class="node">
<title>BDDBehavior</title>
<polygon fill="none" stroke="black" points="452.5,-52 339.5,-52 339.5,-16 452.5,-16 452.5,-52"/>
<text text-anchor="middle" x="396" y="-30.3" font-family="Times,serif" font-size="14.00">BDDBehavior</text>
</g>
<!-- Capability&#45;&gt;BDDBehavior -->
<g id="Capability&#45;bddBehavior&#45;BDDBehavior" class="edge">
<title>Capability:bddBehavior&#45;&gt;BDDBehavior</title>
<path fill="none" stroke="yellow" d="M379,-129.5C382.44,-129.5 388.5,-90.28 392.38,-62.37"/>
<polygon fill="yellow" stroke="yellow" points="395.87,-62.71 393.75,-52.33 388.93,-61.77 395.87,-62.71"/>
</g>
<!-- CapabilityMap&#45;&gt;Capability -->
<g id="CapabilityMap&#45;capability&#45;Capability" class="edge">
<title>CapabilityMap:capability&#45;&gt;Capability</title>
<path fill="none" stroke="orange" d="M350,-260.5C364.01,-260.5 354.02,-242.07 349,-229 340.41,-206.66 323.55,-185.99 308.09,-170.36"/>
<polygon fill="orange" stroke="orange" points="310.26,-167.58 300.66,-163.1 305.37,-172.59 310.26,-167.58"/>
</g>
<!-- ShellOperation -->
<g id="node13" class="node">
<title>ShellOperation</title>
<polygon fill="white" stroke="transparent" points="402,-170.5 402,-189.5 527,-189.5 527,-170.5 402,-170.5"/>
<text text-anchor="start" x="404" y="-176.3" font-family="Times,serif" font-size="14.00"> &#160;ShellOperation </text>
<text text-anchor="start" x="404" y="-156.3" font-family="Times,serif" font-size="14.00">param: </text>
<text text-anchor="start" x="542" y="-156.3" font-family="Times,serif" font-size="14.00">xsd:string</text>
<text text-anchor="start" x="404" y="-136.3" font-family="Times,serif" font-size="14.00">actor: </text>
<text text-anchor="start" x="540.5" y="-136.3" font-family="Times,serif" font-size="14.00">AssetShell</text>
<text text-anchor="start" x="404" y="-116.3" font-family="Times,serif" font-size="14.00">swAsset: </text>
<text text-anchor="start" x="547" y="-116.3" font-family="Times,serif" font-size="14.00">SWAsset</text>
<text text-anchor="start" x="404" y="-96.3" font-family="Times,serif" font-size="14.00">bddBehavior: </text>
<text text-anchor="start" x="530" y="-96.3" font-family="Times,serif" font-size="14.00">BDDBehavior</text>
<polygon fill="none" stroke="red" stroke-width="2" points="399.5,-89 399.5,-192 630.5,-192 630.5,-89 399.5,-89"/>
</g>
<!-- CapabilityMap&#45;&gt;ShellOperation -->
<g id="CapabilityMap&#45;skill&#45;ShellOperation" class="edge">
<title>CapabilityMap:skill&#45;&gt;ShellOperation</title>
<path fill="none" stroke="orange" d="M350,-240.5C369.17,-240.5 404.32,-220.6 437.26,-198.65"/>
<polygon fill="orange" stroke="orange" points="439.25,-201.53 445.58,-193.03 435.33,-195.72 439.25,-201.53"/>
</g>
<!-- ProductionOperation&#45;&gt;ShellOperation -->
<g id="ProductionOperation&#45;ShellOperation" class="edge">
<title>ProductionOperation&#45;&gt;ShellOperation</title>
<path fill="none" stroke="red" stroke-dasharray="5,2" d="M498.79,-248.65C500.44,-237.74 503.03,-220.67 505.65,-203.32"/>
<polygon fill="red" stroke="red" points="509.16,-203.54 507.19,-193.13 502.23,-202.49 509.16,-203.54"/>
</g>
<!-- ShellOperation&#45;&gt;AssetShell -->
<g id="ShellOperation&#45;actor&#45;AssetShell" class="edge">
<title>ShellOperation:actor&#45;&gt;AssetShell</title>
<path fill="none" stroke="red" d="M630,-139.5C645.44,-139.5 600.35,-401.42 593,-415 587.64,-424.89 581.01,-434.36 573.65,-443.27"/>
<polygon fill="red" stroke="red" points="570.9,-441.11 567.01,-450.96 576.2,-445.68 570.9,-441.11"/>
</g>
<!-- ShellOperation&#45;&gt;BDDBehavior -->
<g id="ShellOperation&#45;bddBehavior&#45;BDDBehavior" class="edge">
<title>ShellOperation:bddBehavior&#45;&gt;BDDBehavior</title>
<path fill="none" stroke="red" d="M579,-89.5C579,-64.43 515.12,-49.96 462.84,-42.31"/>
<polygon fill="red" stroke="red" points="463.29,-38.84 452.9,-40.92 462.32,-45.78 463.29,-38.84"/>
</g>
<!-- SWAsset -->
<g id="node16" class="node">
<title>SWAsset</title>
<polygon fill="none" stroke="black" points="618.5,-52 539.5,-52 539.5,-16 618.5,-16 618.5,-52"/>
<text text-anchor="middle" x="579" y="-30.3" font-family="Times,serif" font-size="14.00">SWAsset</text>
</g>
<!-- ShellOperation&#45;&gt;SWAsset -->
<g id="ShellOperation&#45;swAsset&#45;SWAsset" class="edge">
<title>ShellOperation:swAsset&#45;&gt;SWAsset</title>
<path fill="none" stroke="red" d="M630,-119.5C658.26,-119.5 628.94,-84.42 604.5,-59.47"/>
<polygon fill="red" stroke="red" points="606.68,-56.7 597.14,-52.1 601.73,-61.65 606.68,-56.7"/>
</g>
</g>
</svg>
