<?xml version="1.0" encoding="UTF-8" standalone="no"?>
<!DOCTYPE svg PUBLIC "-//W3C//DTD SVG 1.1//EN"
 "http://www.w3.org/Graphics/SVG/1.1/DTD/svg11.dtd">
<!-- Generated by graphviz version 2.43.0 (0)
 -->
<!-- Title: %3 Pages: 1 -->
<svg width="846pt" height="379pt"
 viewBox="0.00 0.00 846.00 379.00" xmlns="http://www.w3.org/2000/svg" xmlns:xlink="http://www.w3.org/1999/xlink">
<g id="graph0" class="graph" transform="scale(1 1) rotate(0) translate(4 375)">
<title>%3</title>
<polygon fill="white" stroke="transparent" points="-4,4 -4,-375 842,-375 842,4 -4,4"/>
<g id="clust1" class="cluster">
<title>cluster0</title>
<polygon fill="none" stroke="black" points="8,-8 8,-363 830,-363 830,-8 8,-8"/>
<text text-anchor="middle" x="114" y="-347.8" font-family="Times,serif" font-size="14.00">Schema: facilityCobot&#45;v022</text>
</g>
<g id="clust2" class="cluster">
<title>cluster1</title>
<polygon fill="none" stroke="black" points="16,-16 16,-80 598,-80 598,-16 16,-16"/>
<text text-anchor="middle" x="70.5" y="-64.8" font-family="Times,serif" font-size="14.00">Cluster: core</text>
</g>
<g id="clust3" class="cluster">
<title>cluster2</title>
<polygon fill="none" stroke="black" points="606,-16 606,-80 712,-80 712,-16 606,-16"/>
<text text-anchor="middle" x="656.5" y="-64.8" font-family="Times,serif" font-size="14.00">Cluster: ros</text>
</g>
<g id="clust7" class="cluster">
<title>cluster6</title>
<polygon fill="none" stroke="black" points="16,-88 16,-332 686,-332 686,-88 16,-88"/>
<text text-anchor="middle" x="76" y="-316.8" font-family="Times,serif" font-size="14.00">Cluster: vision</text>
</g>
<!-- TemporalEntity -->
<g id="node1" class="node">
<title>TemporalEntity</title>
<polygon fill="white" stroke="transparent" points="169,-26.5 169,-45.5 294,-45.5 294,-26.5 169,-26.5"/>
<text text-anchor="start" x="171" y="-32.3" font-family="Times,serif" font-size="14.00"> TemporalEntity </text>
<polygon fill="none" stroke="cornflowerblue" stroke-width="2" points="166.5,-25 166.5,-48 295.5,-48 295.5,-25 166.5,-25"/>
</g>
<!-- SensedEntity -->
<g id="node6" class="node">
<title>SensedEntity</title>
<polygon fill="white" stroke="transparent" points="345,-278.5 345,-297.5 475,-297.5 475,-278.5 345,-278.5"/>
<text text-anchor="start" x="355" y="-284.3" font-family="Times,serif" font-size="14.00"> &#160;SensedEntity </text>
<text text-anchor="start" x="347" y="-264.3" font-family="Times,serif" font-size="14.00">actor: </text>
<text text-anchor="start" x="478" y="-264.3" font-family="Times,serif" font-size="14.00">CyberPhysicalActor</text>
<text text-anchor="start" x="347" y="-244.3" font-family="Times,serif" font-size="14.00">anchorState: </text>
<text text-anchor="start" x="512" y="-244.3" font-family="Times,serif" font-size="14.00">xsd:string</text>
<text text-anchor="start" x="347" y="-224.3" font-family="Times,serif" font-size="14.00">physicalEntity: </text>
<text text-anchor="start" x="496.5" y="-224.3" font-family="Times,serif" font-size="14.00">PhysicalEntity</text>
<text text-anchor="start" x="347" y="-204.3" font-family="Times,serif" font-size="14.00">entityOn: </text>
<text text-anchor="start" x="500" y="-204.3" font-family="Times,serif" font-size="14.00">SensedEntity</text>
<text text-anchor="start" x="347" y="-184.3" font-family="Times,serif" font-size="14.00">entitiesNear: </text>
<text text-anchor="start" x="495" y="-184.3" font-family="Times,serif" font-size="14.00">[SensedEntity]</text>
<text text-anchor="start" x="347" y="-164.3" font-family="Times,serif" font-size="14.00">entityIn: </text>
<text text-anchor="start" x="500" y="-164.3" font-family="Times,serif" font-size="14.00">SensedEntity</text>
<text text-anchor="start" x="347" y="-144.3" font-family="Times,serif" font-size="14.00">entityGeometry: </text>
<text text-anchor="start" x="513" y="-144.3" font-family="Times,serif" font-size="14.00">Geometry</text>
<text text-anchor="start" x="347" y="-124.3" font-family="Times,serif" font-size="14.00">fromData: </text>
<text text-anchor="start" x="509.5" y="-124.3" font-family="Times,serif" font-size="14.00">VisionData</text>
<text text-anchor="start" x="347" y="-104.3" font-family="Times,serif" font-size="14.00">recognizedState: </text>
<text text-anchor="start" x="501.5" y="-104.3" font-family="Times,serif" font-size="14.00">[EntityState]</text>
<polygon fill="none" stroke="lightblue" stroke-width="2" points="343,-97 343,-300 623,-300 623,-97 343,-97"/>
</g>
<!-- TemporalEntity&#45;&gt;SensedEntity -->
<g id="TemporalEntity&#45;SensedEntity" class="edge">
<title>TemporalEntity&#45;&gt;SensedEntity</title>
<path fill="none" stroke="cornflowerblue" stroke-dasharray="5,2" d="M248.9,-49.18C263.73,-58.49 285.61,-71.34 306,-80 317.52,-84.89 321.78,-82.45 333,-88 335.05,-89.02 337.11,-90.06 339.17,-91.13"/>
<polygon fill="cornflowerblue" stroke="cornflowerblue" points="337.71,-94.32 348.18,-95.98 341.03,-88.16 337.71,-94.32"/>
</g>
<!-- CyberPhysicalActor -->
<g id="node2" class="node">
<title>CyberPhysicalActor</title>
<polygon fill="white" stroke="transparent" points="433,-26.5 433,-45.5 587,-45.5 587,-26.5 433,-26.5"/>
<text text-anchor="start" x="435" y="-32.3" font-family="Times,serif" font-size="14.00"> CyberPhysicalActor </text>
<polygon fill="none" stroke="purple" stroke-width="2" points="431,-25 431,-48 589,-48 589,-25 431,-25"/>
</g>
<!-- PhysicalEntity -->
<g id="node3" class="node">
<title>PhysicalEntity</title>
<polygon fill="white" stroke="transparent" points="28,-26.5 28,-45.5 145,-45.5 145,-26.5 28,-26.5"/>
<text text-anchor="start" x="30" y="-32.3" font-family="Times,serif" font-size="14.00"> PhysicalEntity </text>
<polygon fill="none" stroke="#1e8449" stroke-width="2" points="25.5,-25 25.5,-48 146.5,-48 146.5,-25 25.5,-25"/>
</g>
<!-- UnRecognizable -->
<g id="node8" class="node">
<title>UnRecognizable</title>
<polygon fill="white" stroke="transparent" points="26,-188.5 26,-207.5 160,-207.5 160,-188.5 26,-188.5"/>
<text text-anchor="start" x="28" y="-194.3" font-family="Times,serif" font-size="14.00"> &#160;UnRecognizable </text>
<polygon fill="none" stroke="black" points="24,-187 24,-210 162,-210 162,-187 24,-187"/>
</g>
<!-- PhysicalEntity&#45;&gt;UnRecognizable -->
<g id="PhysicalEntity&#45;UnRecognizable" class="edge">
<title>PhysicalEntity&#45;&gt;UnRecognizable</title>
<path fill="none" stroke="#1e8449" stroke-dasharray="5,2" d="M86.51,-49.05C87.68,-75.81 90.59,-142.34 92.08,-176.51"/>
<polygon fill="#1e8449" stroke="#1e8449" points="88.6,-176.92 92.53,-186.75 95.59,-176.61 88.6,-176.92"/>
</g>
<!-- VisionData -->
<g id="node4" class="node">
<title>VisionData</title>
<polygon fill="white" stroke="transparent" points="318,-26.5 318,-45.5 409,-45.5 409,-26.5 318,-26.5"/>
<text text-anchor="start" x="320" y="-32.3" font-family="Times,serif" font-size="14.00"> VisionData </text>
<polygon fill="none" stroke="lightblue" stroke-width="2" points="315.5,-25 315.5,-48 410.5,-48 410.5,-25 315.5,-25"/>
</g>
<!-- Geometry -->
<g id="node5" class="node">
<title>Geometry</title>
<polygon fill="white" stroke="transparent" points="617,-26.5 617,-45.5 701,-45.5 701,-26.5 617,-26.5"/>
<text text-anchor="start" x="619" y="-32.3" font-family="Times,serif" font-size="14.00"> Geometry </text>
<polygon fill="none" stroke="cyan" stroke-width="2" points="615,-25 615,-48 703,-48 703,-25 615,-25"/>
</g>
<!-- SensedEntity&#45;&gt;CyberPhysicalActor -->
<g id="SensedEntity&#45;actor&#45;CyberPhysicalActor" class="edge">
<title>SensedEntity:actor&#45;&gt;CyberPhysicalActor</title>
<path fill="none" stroke="lightblue" d="M622,-268.5C698.67,-268.5 660.8,-161.53 621,-96 616.53,-88.64 575.22,-68.05 544.3,-53.38"/>
<polygon fill="lightblue" stroke="lightblue" points="545.63,-50.14 535.09,-49.04 542.64,-56.47 545.63,-50.14"/>
</g>
<!-- SensedEntity&#45;&gt;PhysicalEntity -->
<g id="SensedEntity&#45;physicalEntity&#45;PhysicalEntity" class="edge">
<title>SensedEntity:physicalEntity&#45;&gt;PhysicalEntity</title>
<path fill="none" stroke="lightblue" d="M622,-228.5C680.89,-228.5 662.08,-138.2 621,-96 603.01,-77.52 181.74,-87.3 157,-80 139.65,-74.88 122.19,-64.51 108.92,-55.3"/>
<polygon fill="lightblue" stroke="lightblue" points="110.62,-52.21 100.46,-49.18 106.52,-57.88 110.62,-52.21"/>
</g>
<!-- SensedEntity&#45;&gt;VisionData -->
<g id="SensedEntity&#45;fromData&#45;VisionData" class="edge">
<title>SensedEntity:fromData&#45;&gt;VisionData</title>
<path fill="none" stroke="lightblue" d="M622,-127.5C636.01,-127.5 630.66,-106.14 621,-96 590.24,-63.72 462.79,-95.54 421,-80 406.78,-74.71 392.99,-64.87 382.43,-55.99"/>
<polygon fill="lightblue" stroke="lightblue" points="384.52,-53.16 374.7,-49.17 379.89,-58.41 384.52,-53.16"/>
</g>
<!-- SensedEntity&#45;&gt;Geometry -->
<g id="SensedEntity&#45;entityGeometry&#45;Geometry" class="edge">
<title>SensedEntity:entityGeometry&#45;&gt;Geometry</title>
<path fill="none" stroke="lightblue" d="M622,-147.5C658.77,-147.5 661.92,-91.61 660.7,-59.5"/>
<polygon fill="lightblue" stroke="lightblue" points="664.18,-59.06 660.13,-49.27 657.19,-59.45 664.18,-59.06"/>
</g>
<!-- SensedEntity&#45;&gt;SensedEntity -->
<g id="SensedEntity&#45;entityOn&#45;SensedEntity" class="edge">
<title>SensedEntity:entityOn&#45;&gt;SensedEntity</title>
<path fill="none" stroke="lightblue" d="M561.77,-217.65C608.29,-248.69 642,-245.27 642,-203.5 642,-195.38 638.62,-188.7 632.77,-183.45"/>
<polygon fill="lightblue" stroke="lightblue" points="634.34,-180.29 624.1,-177.56 630.4,-186.08 634.34,-180.29"/>
</g>
<!-- SensedEntity&#45;&gt;SensedEntity -->
<g id="SensedEntity&#45;entitiesNear&#45;SensedEntity" class="edge">
<title>SensedEntity:entitiesNear&#45;&gt;SensedEntity</title>
<path fill="none" stroke="lightblue" d="M561.77,-178.35C608.29,-147.31 642,-150.77 642,-193 642,-201.21 638.62,-207.96 632.77,-213.27"/>
<polygon fill="lightblue" stroke="lightblue" points="630.36,-210.68 624.1,-219.23 634.32,-216.45 630.36,-210.68"/>
</g>
<!-- SensedEntity&#45;&gt;SensedEntity -->
<g id="SensedEntity&#45;entityIn&#45;SensedEntity" class="edge">
<title>SensedEntity:entityIn&#45;&gt;SensedEntity</title>
<path fill="none" stroke="lightblue" d="M561.77,-158.36C608.29,-127.38 642,-131.59 642,-183 642,-193.44 638.31,-201.94 631.97,-208.59"/>
<polygon fill="lightblue" stroke="lightblue" points="629.59,-206.02 624.1,-215.08 634.04,-211.42 629.59,-206.02"/>
</g>
<!-- EntityState -->
<g id="node9" class="node">
<title>EntityState</title>
<polygon fill="none" stroke="black" points="821.5,-54.5 722.5,-54.5 722.5,-18.5 821.5,-18.5 821.5,-54.5"/>
<text text-anchor="middle" x="772" y="-32.8" font-family="Times,serif" font-size="14.00">EntityState</text>
</g>
<!-- SensedEntity&#45;&gt;EntityState -->
<g id="SensedEntity&#45;recognizedState&#45;EntityState" class="edge">
<title>SensedEntity:recognizedState&#45;&gt;EntityState</title>
<path fill="none" stroke="lightblue" d="M622,-107.5C665.53,-107.5 677.13,-99.59 716,-80 726.16,-74.88 736.34,-67.85 745.19,-60.99"/>
<polygon fill="lightblue" stroke="lightblue" points="747.62,-63.52 753.22,-54.52 743.23,-58.07 747.62,-63.52"/>
</g>
<!-- RecognizedState -->
<g id="node7" class="node">
<title>RecognizedState</title>
<polygon fill="white" stroke="transparent" points="183,-188.5 183,-207.5 321,-207.5 321,-188.5 183,-188.5"/>
<text text-anchor="start" x="185" y="-194.3" font-family="Times,serif" font-size="14.00"> &#160;RecognizedState </text>
<polygon fill="none" stroke="lightblue" stroke-width="2" points="181,-187 181,-210 323,-210 323,-187 181,-187"/>
</g>
</g>
</svg>
