<?xml version="1.0" encoding="UTF-8" standalone="no"?>
<!DOCTYPE svg PUBLIC "-//W3C//DTD SVG 1.1//EN"
 "http://www.w3.org/Graphics/SVG/1.1/DTD/svg11.dtd">
<!-- Generated by graphviz version 2.43.0 (0)
 -->
<!-- Title: %3 Pages: 1 -->
<svg width="1447pt" height="589pt"
 viewBox="0.00 0.00 1447.00 589.00" xmlns="http://www.w3.org/2000/svg" xmlns:xlink="http://www.w3.org/1999/xlink">
<g id="graph0" class="graph" transform="scale(1 1) rotate(0) translate(4 585)">
<title>%3</title>
<polygon fill="white" stroke="transparent" points="-4,4 -4,-585 1443,-585 1443,4 -4,4"/>
<g id="clust1" class="cluster">
<title>cluster0</title>
<polygon fill="none" stroke="black" points="8,-8 8,-573 1431,-573 1431,-8 8,-8"/>
<text text-anchor="middle" x="77.5" y="-557.8" font-family="Times,serif" font-size="14.00">Schema: all&#45;v022</text>
</g>
<g id="clust2" class="cluster">
<title>cluster1</title>
<polygon fill="none" stroke="black" points="1154,-125 1154,-189 1423,-189 1423,-125 1154,-125"/>
<text text-anchor="middle" x="1208.5" y="-173.8" font-family="Times,serif" font-size="14.00">Cluster: core</text>
</g>
<g id="clust4" class="cluster">
<title>cluster3</title>
<polygon fill="none" stroke="black" points="16,-16 16,-542 1146,-542 1146,-16 16,-16"/>
<text text-anchor="middle" x="65" y="-526.8" font-family="Times,serif" font-size="14.00">Cluster: sw</text>
</g>
<!-- AbstractEntity -->
<g id="node1" class="node">
<title>AbstractEntity</title>
<polygon fill="white" stroke="transparent" points="1293,-135.5 1293,-154.5 1412,-154.5 1412,-135.5 1293,-135.5"/>
<text text-anchor="start" x="1295" y="-141.3" font-family="Times,serif" font-size="14.00"> AbstractEntity </text>
<polygon fill="none" stroke="aquamarine" stroke-width="2" points="1290.5,-134 1290.5,-157 1413.5,-157 1413.5,-134 1290.5,-134"/>
</g>
<!-- SWEntity -->
<g id="node3" class="node">
<title>SWEntity</title>
<polygon fill="white" stroke="transparent" points="539,-488.5 539,-507.5 625,-507.5 625,-488.5 539,-488.5"/>
<text text-anchor="start" x="541" y="-494.3" font-family="Times,serif" font-size="14.00"> &#160;SWEntity </text>
<polygon fill="none" stroke="blue" stroke-width="2" points="537,-487 537,-510 627,-510 627,-487 537,-487"/>
</g>
<!-- AbstractEntity&#45;&gt;SWEntity -->
<g id="AbstractEntity&#45;SWEntity" class="edge">
<title>AbstractEntity&#45;&gt;SWEntity</title>
<path fill="none" stroke="aquamarine" stroke-dasharray="5,2" d="M1333.97,-158.14C1319.82,-167.06 1299.5,-179.43 1281,-189 1036.23,-315.65 728.36,-439.93 621.03,-482.26"/>
<polygon fill="aquamarine" stroke="aquamarine" points="619.59,-479.06 611.57,-485.98 622.16,-485.58 619.59,-479.06"/>
</g>
<!-- ActionEntity -->
<g id="node2" class="node">
<title>ActionEntity</title>
<polygon fill="white" stroke="transparent" points="1166,-135.5 1166,-154.5 1269,-154.5 1269,-135.5 1166,-135.5"/>
<text text-anchor="start" x="1168" y="-141.3" font-family="Times,serif" font-size="14.00"> ActionEntity </text>
<polygon fill="none" stroke="red" stroke-width="2" points="1163.5,-134 1163.5,-157 1270.5,-157 1270.5,-134 1163.5,-134"/>
</g>
<!-- SWEffect -->
<g id="node4" class="node">
<title>SWEffect</title>
<polygon fill="white" stroke="transparent" points="940,-45.5 940,-64.5 1041,-64.5 1041,-45.5 940,-45.5"/>
<text text-anchor="start" x="950.5" y="-51.3" font-family="Times,serif" font-size="14.00"> &#160;SWEffect </text>
<text text-anchor="start" x="942" y="-31.3" font-family="Times,serif" font-size="14.00">actionEntity: </text>
<text text-anchor="start" x="1044" y="-31.3" font-family="Times,serif" font-size="14.00">ActionEntity</text>
<polygon fill="none" stroke="black" points="938,-24 938,-67 1138,-67 1138,-24 938,-24"/>
</g>
<!-- ActionEntity&#45;&gt;SWEffect -->
<g id="ActionEntity&#45;SWEffect" class="edge">
<title>ActionEntity&#45;&gt;SWEffect</title>
<path fill="none" stroke="red" stroke-dasharray="5,2" d="M1199.34,-132.97C1185.97,-124.39 1167.07,-112.57 1150,-103 1130.74,-92.2 1109.16,-81.09 1090.12,-71.61"/>
<polygon fill="red" stroke="red" points="1091.52,-68.4 1081.01,-67.1 1088.42,-74.67 1091.52,-68.4"/>
</g>
<!-- ASTEntity -->
<g id="node5" class="node">
<title>ASTEntity</title>
<polygon fill="white" stroke="transparent" points="389,-145.5 389,-164.5 480,-164.5 480,-145.5 389,-145.5"/>
<text text-anchor="start" x="391" y="-151.3" font-family="Times,serif" font-size="14.00"> &#160;ASTEntity </text>
<text text-anchor="start" x="391" y="-131.3" font-family="Times,serif" font-size="14.00">edges: </text>
<text text-anchor="start" x="483" y="-131.3" font-family="Times,serif" font-size="14.00">[ASTEntity]</text>
<polygon fill="none" stroke="blue" stroke-width="2" points="387,-124 387,-167 571,-167 571,-124 387,-124"/>
</g>
<!-- SWEntity&#45;&gt;ASTEntity -->
<g id="SWEntity&#45;ASTEntity" class="edge">
<title>SWEntity&#45;&gt;ASTEntity</title>
<path fill="none" stroke="blue" stroke-dasharray="5,2" d="M586.82,-485.89C602.47,-446.3 648.03,-314.04 599,-224 586.91,-201.79 565.41,-184.98 543.93,-172.79"/>
<polygon fill="blue" stroke="blue" points="545.53,-169.68 535.07,-168.02 542.21,-175.84 545.53,-169.68"/>
</g>
<!-- SWAsset -->
<g id="node7" class="node">
<title>SWAsset</title>
<polygon fill="white" stroke="transparent" points="429,-326.5 429,-345.5 509,-345.5 509,-326.5 429,-326.5"/>
<text text-anchor="start" x="431" y="-332.3" font-family="Times,serif" font-size="14.00"> &#160;SWAsset </text>
<text text-anchor="start" x="431" y="-312.3" font-family="Times,serif" font-size="14.00">dirPath: </text>
<text text-anchor="start" x="512" y="-312.3" font-family="Times,serif" font-size="14.00">xsd:string</text>
<text text-anchor="start" x="431" y="-292.3" font-family="Times,serif" font-size="14.00">fileName: </text>
<text text-anchor="start" x="512" y="-292.3" font-family="Times,serif" font-size="14.00">xsd:string</text>
<text text-anchor="start" x="431" y="-272.3" font-family="Times,serif" font-size="14.00">src: </text>
<text text-anchor="start" x="512" y="-272.3" font-family="Times,serif" font-size="14.00">xsd:string</text>
<text text-anchor="start" x="431" y="-252.3" font-family="Times,serif" font-size="14.00">origin: </text>
<text text-anchor="start" x="512" y="-252.3" font-family="Times,serif" font-size="14.00">xsd:string</text>
<text text-anchor="start" x="431" y="-232.3" font-family="Times,serif" font-size="14.00">ast: </text>
<text text-anchor="start" x="512" y="-232.3" font-family="Times,serif" font-size="14.00">ASTEntity</text>
<polygon fill="none" stroke="blue" stroke-width="2" points="427,-225 427,-348 589,-348 589,-225 427,-225"/>
</g>
<!-- SWEntity&#45;&gt;SWAsset -->
<g id="SWEntity&#45;SWAsset" class="edge">
<title>SWEntity&#45;&gt;SWAsset</title>
<path fill="none" stroke="blue" stroke-dasharray="5,2" d="M577.92,-485.91C569.47,-461.94 549.49,-405.24 533.04,-358.57"/>
<polygon fill="blue" stroke="blue" points="536.32,-357.35 529.7,-349.08 529.72,-359.68 536.32,-357.35"/>
</g>
<!-- SWAssetElement -->
<g id="node8" class="node">
<title>SWAssetElement</title>
<polygon fill="white" stroke="transparent" points="274,-427.5 274,-446.5 414,-446.5 414,-427.5 274,-427.5"/>
<text text-anchor="start" x="276" y="-433.3" font-family="Times,serif" font-size="14.00"> &#160;SWAssetElement </text>
<text text-anchor="start" x="276" y="-413.3" font-family="Times,serif" font-size="14.00">swAsset: </text>
<text text-anchor="start" x="426.5" y="-413.3" font-family="Times,serif" font-size="14.00">SWAsset</text>
<text text-anchor="start" x="276" y="-393.3" font-family="Times,serif" font-size="14.00">lineNumber: </text>
<text text-anchor="start" x="417" y="-393.3" font-family="Times,serif" font-size="14.00">xsd:integer</text>
<polygon fill="none" stroke="blue" stroke-width="2" points="271.5,-386 271.5,-449 502.5,-449 502.5,-386 271.5,-386"/>
</g>
<!-- SWEntity&#45;&gt;SWAssetElement -->
<g id="SWEntity&#45;SWAssetElement" class="edge">
<title>SWEntity&#45;&gt;SWAssetElement</title>
<path fill="none" stroke="blue" stroke-dasharray="5,2" d="M553.23,-485.84C532.29,-477.36 502.74,-465.39 474.36,-453.89"/>
<polygon fill="blue" stroke="blue" points="475.37,-450.52 464.79,-450.01 472.74,-457.01 475.37,-450.52"/>
</g>
<!-- SWEffect&#45;&gt;ActionEntity -->
<g id="SWEffect&#45;actionEntity&#45;ActionEntity" class="edge">
<title>SWEffect:actionEntity&#45;&gt;ActionEntity</title>
<path fill="none" stroke="black" d="M1137,-34.5C1180.28,-34.5 1202.59,-90.88 1211.78,-122.92"/>
<polygon fill="black" stroke="black" points="1208.44,-123.97 1214.4,-132.73 1215.2,-122.16 1208.44,-123.97"/>
</g>
<!-- ASTEntity&#45;&gt;ASTEntity -->
<g id="ASTEntity&#45;edges&#45;ASTEntity" class="edge">
<title>ASTEntity:edges&#45;&gt;ASTEntity</title>
<path fill="none" stroke="blue" d="M540.02,-125.45C569.32,-110.1 590,-113.79 590,-140 590,-146.32 586.82,-151.34 581.45,-155.09"/>
<polygon fill="blue" stroke="blue" points="579.54,-152.12 572.12,-159.68 582.64,-158.4 579.54,-152.12"/>
</g>
<!-- EffectProgram -->
<g id="node11" class="node">
<title>EffectProgram</title>
<polygon fill="white" stroke="transparent" points="682,-35.5 682,-54.5 804,-54.5 804,-35.5 682,-35.5"/>
<text text-anchor="start" x="684" y="-41.3" font-family="Times,serif" font-size="14.00"> &#160;EffectProgram </text>
<polygon fill="none" stroke="black" points="680,-34 680,-57 806,-57 806,-34 680,-34"/>
</g>
<!-- ASTEntity&#45;&gt;EffectProgram -->
<g id="ASTEntity&#45;EffectProgram" class="edge">
<title>ASTEntity&#45;&gt;EffectProgram</title>
<path fill="none" stroke="blue" stroke-dasharray="5,2" d="M536.94,-122.99C588.02,-104.03 660.98,-76.95 704.99,-60.61"/>
<polygon fill="blue" stroke="blue" points="706.29,-63.86 714.45,-57.1 703.86,-57.3 706.29,-63.86"/>
</g>
<!-- PureProgram -->
<g id="node12" class="node">
<title>PureProgram</title>
<polygon fill="white" stroke="transparent" points="164,-35.5 164,-54.5 278,-54.5 278,-35.5 164,-35.5"/>
<text text-anchor="start" x="166" y="-41.3" font-family="Times,serif" font-size="14.00"> &#160;PureProgram </text>
<polygon fill="none" stroke="black" points="162,-34 162,-57 280,-57 280,-34 162,-34"/>
</g>
<!-- ASTEntity&#45;&gt;PureProgram -->
<g id="ASTEntity&#45;PureProgram" class="edge">
<title>ASTEntity&#45;&gt;PureProgram</title>
<path fill="none" stroke="blue" stroke-dasharray="5,2" d="M422.38,-122.99C372.56,-104.07 301.46,-77.06 258.42,-60.71"/>
<polygon fill="blue" stroke="blue" points="259.49,-57.38 248.9,-57.1 257.01,-63.92 259.49,-57.38"/>
</g>
<!-- Procedure -->
<g id="node13" class="node">
<title>Procedure</title>
<polygon fill="white" stroke="transparent" points="826,-35.5 826,-54.5 918,-54.5 918,-35.5 826,-35.5"/>
<text text-anchor="start" x="828" y="-41.3" font-family="Times,serif" font-size="14.00"> &#160;Procedure </text>
<polygon fill="none" stroke="black" points="824,-34 824,-57 920,-57 920,-34 824,-34"/>
</g>
<!-- ASTEntity&#45;&gt;Procedure -->
<g id="ASTEntity&#45;Procedure" class="edge">
<title>ASTEntity&#45;&gt;Procedure</title>
<path fill="none" stroke="blue" stroke-dasharray="5,2" d="M534.88,-123C554.88,-115.88 577.74,-108.41 599,-103 693.32,-79.01 720.83,-91.57 815,-67 821.84,-65.22 829.01,-62.96 835.88,-60.59"/>
<polygon fill="blue" stroke="blue" points="837.4,-63.77 845.63,-57.1 835.04,-57.18 837.4,-63.77"/>
</g>
<!-- PureFunction -->
<g id="node14" class="node">
<title>PureFunction</title>
<polygon fill="white" stroke="transparent" points="27,-35.5 27,-54.5 142,-54.5 142,-35.5 27,-35.5"/>
<text text-anchor="start" x="29" y="-41.3" font-family="Times,serif" font-size="14.00"> &#160;PureFunction </text>
<polygon fill="none" stroke="black" points="24.5,-34 24.5,-57 143.5,-57 143.5,-34 24.5,-34"/>
</g>
<!-- ASTEntity&#45;&gt;PureFunction -->
<g id="ASTEntity&#45;PureFunction" class="edge">
<title>ASTEntity&#45;&gt;PureFunction</title>
<path fill="none" stroke="blue" stroke-dasharray="5,2" d="M410,-122.96C386.92,-116.13 360.96,-108.83 337,-103 256.04,-83.29 233.92,-86.89 153,-67 144.54,-64.92 135.57,-62.45 126.99,-59.96"/>
<polygon fill="blue" stroke="blue" points="127.75,-56.54 117.17,-57.05 125.76,-63.25 127.75,-56.54"/>
</g>
<!-- EffectFunction -->
<g id="node15" class="node">
<title>EffectFunction</title>
<polygon fill="white" stroke="transparent" points="537,-35.5 537,-54.5 660,-54.5 660,-35.5 537,-35.5"/>
<text text-anchor="start" x="539" y="-41.3" font-family="Times,serif" font-size="14.00"> &#160;EffectFunction </text>
<polygon fill="none" stroke="black" points="534.5,-34 534.5,-57 661.5,-57 661.5,-34 534.5,-34"/>
</g>
<!-- ASTEntity&#45;&gt;EffectFunction -->
<g id="ASTEntity&#45;EffectFunction" class="edge">
<title>ASTEntity&#45;&gt;EffectFunction</title>
<path fill="none" stroke="blue" stroke-dasharray="5,2" d="M505.12,-122.99C526.79,-105.15 557.19,-80.11 577.23,-63.6"/>
<polygon fill="blue" stroke="blue" points="579.64,-66.16 585.13,-57.1 575.19,-60.75 579.64,-66.16"/>
</g>
<!-- Statement -->
<g id="node16" class="node">
<title>Statement</title>
<polygon fill="white" stroke="transparent" points="301,-35.5 301,-54.5 394,-54.5 394,-35.5 301,-35.5"/>
<text text-anchor="start" x="303" y="-41.3" font-family="Times,serif" font-size="14.00"> &#160;Statement </text>
<polygon fill="none" stroke="black" points="298.5,-34 298.5,-57 395.5,-57 395.5,-34 298.5,-34"/>
</g>
<!-- ASTEntity&#45;&gt;Statement -->
<g id="ASTEntity&#45;Statement" class="edge">
<title>ASTEntity&#45;&gt;Statement</title>
<path fill="none" stroke="blue" stroke-dasharray="5,2" d="M450.03,-122.99C425.78,-104.99 391.66,-79.66 369.44,-63.16"/>
<polygon fill="blue" stroke="blue" points="371.39,-60.25 361.27,-57.1 367.22,-65.87 371.39,-60.25"/>
</g>
<!-- Expression -->
<g id="node17" class="node">
<title>Expression</title>
<polygon fill="white" stroke="transparent" points="416,-35.5 416,-54.5 514,-54.5 514,-35.5 416,-35.5"/>
<text text-anchor="start" x="418" y="-41.3" font-family="Times,serif" font-size="14.00"> &#160;Expression </text>
<polygon fill="none" stroke="black" points="414,-34 414,-57 516,-57 516,-34 414,-34"/>
</g>
<!-- ASTEntity&#45;&gt;Expression -->
<g id="ASTEntity&#45;Expression" class="edge">
<title>ASTEntity&#45;&gt;Expression</title>
<path fill="none" stroke="blue" stroke-dasharray="5,2" d="M475.89,-122.75C473.52,-106.16 470.28,-83.47 467.95,-67.16"/>
<polygon fill="blue" stroke="blue" points="471.39,-66.45 466.51,-57.04 464.46,-67.44 471.39,-66.45"/>
</g>
<!-- PureFunctional -->
<g id="node6" class="node">
<title>PureFunctional</title>
<polygon fill="white" stroke="transparent" points="109,-155.5 109,-174.5 237,-174.5 237,-155.5 109,-155.5"/>
<text text-anchor="start" x="111" y="-161.3" font-family="Times,serif" font-size="14.00"> &#160;PureFunctional </text>
<text text-anchor="start" x="111" y="-141.3" font-family="Times,serif" font-size="14.00">argList: </text>
<text text-anchor="start" x="240" y="-141.3" font-family="Times,serif" font-size="14.00">[xsd:string]</text>
<text text-anchor="start" x="111" y="-121.3" font-family="Times,serif" font-size="14.00">return: </text>
<text text-anchor="start" x="245" y="-121.3" font-family="Times,serif" font-size="14.00">xsd:string</text>
<polygon fill="none" stroke="blue" stroke-width="2" points="107,-114 107,-177 327,-177 327,-114 107,-114"/>
</g>
<!-- PureFunctional&#45;&gt;PureProgram -->
<g id="PureFunctional&#45;PureProgram" class="edge">
<title>PureFunctional&#45;&gt;PureProgram</title>
<path fill="none" stroke="blue" stroke-dasharray="5,2" d="M218.29,-112.95C218.9,-97.92 219.62,-80.35 220.16,-67.06"/>
<polygon fill="blue" stroke="blue" points="223.66,-67.19 220.57,-57.05 216.66,-66.9 223.66,-67.19"/>
</g>
<!-- PureFunctional&#45;&gt;PureFunction -->
<g id="PureFunctional&#45;PureFunction" class="edge">
<title>PureFunctional&#45;&gt;PureFunction</title>
<path fill="none" stroke="blue" stroke-dasharray="5,2" d="M174.19,-112.95C151.63,-96.34 124.9,-76.64 106.43,-63.03"/>
<polygon fill="blue" stroke="blue" points="108.45,-60.17 98.32,-57.05 104.29,-65.8 108.45,-60.17"/>
</g>
<!-- SWAsset&#45;&gt;ASTEntity -->
<g id="SWAsset&#45;ast&#45;ASTEntity" class="edge">
<title>SWAsset:ast&#45;&gt;ASTEntity</title>
<path fill="none" stroke="blue" d="M549,-225.5C549,-205.37 536.11,-187.97 521.39,-174.66"/>
<polygon fill="blue" stroke="blue" points="523.49,-171.85 513.59,-168.08 518.98,-177.21 523.49,-171.85"/>
</g>
<!-- SWAssetElement&#45;&gt;PureFunctional -->
<g id="SWAssetElement&#45;PureFunctional" class="edge">
<title>SWAssetElement&#45;&gt;PureFunctional</title>
<path fill="none" stroke="blue" stroke-dasharray="5,2" d="M365.48,-384.72C357.97,-373.49 349.53,-360.74 342,-349 306.25,-293.28 266.28,-227.98 241.38,-186.92"/>
<polygon fill="blue" stroke="blue" points="244.32,-185.02 236.15,-178.28 238.33,-188.65 244.32,-185.02"/>
</g>
<!-- SWAssetElement&#45;&gt;SWAsset -->
<g id="SWAssetElement&#45;swAsset&#45;SWAsset" class="edge">
<title>SWAssetElement:swAsset&#45;&gt;SWAsset</title>
<path fill="none" stroke="blue" d="M502,-416.5C528.49,-416.5 531.81,-389.03 527.7,-359.43"/>
<polygon fill="blue" stroke="blue" points="531.12,-358.66 526.04,-349.36 524.21,-359.79 531.12,-358.66"/>
</g>
<!-- EffectFunctional -->
<g id="node9" class="node">
<title>EffectFunctional</title>
<polygon fill="white" stroke="transparent" points="611,-165.5 611,-184.5 747,-184.5 747,-165.5 611,-165.5"/>
<text text-anchor="start" x="613" y="-171.3" font-family="Times,serif" font-size="14.00"> &#160;EffectFunctional </text>
<text text-anchor="start" x="613" y="-151.3" font-family="Times,serif" font-size="14.00">argList: </text>
<text text-anchor="start" x="750" y="-151.3" font-family="Times,serif" font-size="14.00">[xsd:string]</text>
<text text-anchor="start" x="613" y="-131.3" font-family="Times,serif" font-size="14.00">effects: </text>
<text text-anchor="start" x="753" y="-131.3" font-family="Times,serif" font-size="14.00">[SWEffect]</text>
<text text-anchor="start" x="613" y="-111.3" font-family="Times,serif" font-size="14.00">return: </text>
<text text-anchor="start" x="755" y="-111.3" font-family="Times,serif" font-size="14.00">xsd:string</text>
<polygon fill="none" stroke="blue" stroke-width="2" points="609,-104 609,-187 837,-187 837,-104 609,-104"/>
</g>
<!-- SWAssetElement&#45;&gt;EffectFunctional -->
<g id="SWAssetElement&#45;EffectFunctional" class="edge">
<title>SWAssetElement&#45;&gt;EffectFunctional</title>
<path fill="none" stroke="blue" stroke-dasharray="5,2" d="M384.98,-384.81C382.6,-336.3 381.29,-246.85 402,-224 459.62,-160.43 509.3,-207.67 597.83,-188.99"/>
<polygon fill="blue" stroke="blue" points="598.74,-192.38 607.67,-186.68 597.13,-185.56 598.74,-192.38"/>
</g>
<!-- EffectProcedure -->
<g id="node10" class="node">
<title>EffectProcedure</title>
<polygon fill="white" stroke="transparent" points="859,-155.5 859,-174.5 993,-174.5 993,-155.5 859,-155.5"/>
<text text-anchor="start" x="861" y="-161.3" font-family="Times,serif" font-size="14.00"> &#160;EffectProcedure </text>
<text text-anchor="start" x="861" y="-141.3" font-family="Times,serif" font-size="14.00">argList: </text>
<text text-anchor="start" x="996" y="-141.3" font-family="Times,serif" font-size="14.00">[xsd:string]</text>
<text text-anchor="start" x="861" y="-121.3" font-family="Times,serif" font-size="14.00">effects: </text>
<text text-anchor="start" x="999" y="-121.3" font-family="Times,serif" font-size="14.00">[SWEffect]</text>
<polygon fill="none" stroke="blue" stroke-width="2" points="857,-114 857,-177 1083,-177 1083,-114 857,-114"/>
</g>
<!-- SWAssetElement&#45;&gt;EffectProcedure -->
<g id="SWAssetElement&#45;EffectProcedure" class="edge">
<title>SWAssetElement&#45;&gt;EffectProcedure</title>
<path fill="none" stroke="blue" stroke-dasharray="5,2" d="M391.66,-384.99C399.72,-330.74 415.53,-225.37 417,-224 487.23,-158.74 753.17,-208.7 847,-189 857.14,-186.87 867.59,-184.14 877.92,-181.1"/>
<polygon fill="blue" stroke="blue" points="879.23,-184.36 887.77,-178.09 877.18,-177.66 879.23,-184.36"/>
</g>
<!-- SWAssetElement&#45;&gt;Statement -->
<g id="SWAssetElement&#45;Statement" class="edge">
<title>SWAssetElement&#45;&gt;Statement</title>
<path fill="none" stroke="blue" stroke-dasharray="5,2" d="M373,-384.81C368.7,-373.7 364.46,-361 362,-349 340.65,-244.82 343.67,-116.45 345.88,-67.13"/>
<polygon fill="blue" stroke="blue" points="349.38,-67.25 346.37,-57.09 342.39,-66.91 349.38,-67.25"/>
</g>
<!-- SWAssetElement&#45;&gt;Expression -->
<g id="SWAssetElement&#45;Expression" class="edge">
<title>SWAssetElement&#45;&gt;Expression</title>
<path fill="none" stroke="blue" stroke-dasharray="5,2" d="M382.03,-384.92C371.68,-315.25 350.89,-150.79 377,-103 387.38,-84 407.17,-70.45 425.37,-61.38"/>
<polygon fill="blue" stroke="blue" points="427.09,-64.44 434.68,-57.05 424.13,-58.1 427.09,-64.44"/>
</g>
<!-- EffectFunctional&#45;&gt;SWEffect -->
<g id="EffectFunctional&#45;effects&#45;SWEffect" class="edge">
<title>EffectFunctional:effects&#45;&gt;SWEffect</title>
<path fill="none" stroke="blue" d="M836,-134.5C850.83,-134.5 836.26,-113.23 847,-103 859.96,-90.65 893.67,-79.05 929.23,-69.62"/>
<polygon fill="blue" stroke="blue" points="930.49,-72.91 939.29,-67.01 928.73,-66.13 930.49,-72.91"/>
</g>
<!-- EffectFunctional&#45;&gt;EffectFunction -->
<g id="EffectFunctional&#45;EffectFunction" class="edge">
<title>EffectFunctional&#45;&gt;EffectFunction</title>
<path fill="none" stroke="blue" stroke-dasharray="5,2" d="M669.99,-102.94C652.25,-89.03 633.46,-74.3 619.53,-63.38"/>
<polygon fill="blue" stroke="blue" points="621.56,-60.52 611.53,-57.11 617.24,-66.03 621.56,-60.52"/>
</g>
<!-- EffectProcedure&#45;&gt;SWEffect -->
<g id="EffectProcedure&#45;effects&#45;SWEffect" class="edge">
<title>EffectProcedure:effects&#45;&gt;SWEffect</title>
<path fill="none" stroke="blue" d="M1038,-114.5C1038,-102.3 1038,-88.86 1038,-77.18"/>
<polygon fill="blue" stroke="blue" points="1041.5,-77.03 1038,-67.03 1034.5,-77.03 1041.5,-77.03"/>
</g>
<!-- EffectProcedure&#45;&gt;EffectProgram -->
<g id="EffectProcedure&#45;EffectProgram" class="edge">
<title>EffectProcedure&#45;&gt;EffectProgram</title>
<path fill="none" stroke="blue" stroke-dasharray="5,2" d="M896.93,-112.95C856.52,-95.51 808.25,-74.67 776.68,-61.04"/>
<polygon fill="blue" stroke="blue" points="778.01,-57.8 767.44,-57.05 775.23,-64.23 778.01,-57.8"/>
</g>
<!-- EffectProcedure&#45;&gt;Procedure -->
<g id="EffectProcedure&#45;Procedure" class="edge">
<title>EffectProcedure&#45;&gt;Procedure</title>
<path fill="none" stroke="blue" stroke-dasharray="5,2" d="M938.45,-112.95C922.36,-96.86 903.38,-77.88 889.84,-64.34"/>
<polygon fill="blue" stroke="blue" points="892.1,-61.65 882.55,-57.05 887.15,-66.6 892.1,-61.65"/>
</g>
</g>
</svg>
