<?xml version="1.0" encoding="UTF-8" standalone="no"?>
<!DOCTYPE svg PUBLIC "-//W3C//DTD SVG 1.1//EN"
 "http://www.w3.org/Graphics/SVG/1.1/DTD/svg11.dtd">
<!-- Generated by graphviz version 2.43.0 (0)
 -->
<!-- Title: %3 Pages: 1 -->
<svg width="1590pt" height="897pt"
 viewBox="0.00 0.00 1590.00 897.00" xmlns="http://www.w3.org/2000/svg" xmlns:xlink="http://www.w3.org/1999/xlink">
<g id="graph0" class="graph" transform="scale(1 1) rotate(0) translate(4 893)">
<title>%3</title>
<polygon fill="white" stroke="transparent" points="-4,4 -4,-893 1586,-893 1586,4 -4,4"/>
<g id="clust1" class="cluster">
<title>cluster0</title>
<polygon fill="none" stroke="black" points="8,-8 8,-881 1574,-881 1574,-8 8,-8"/>
<text text-anchor="middle" x="83" y="-865.8" font-family="Times,serif" font-size="14.00">Schema: fera&#45;v001</text>
</g>
<g id="clust2" class="cluster">
<title>cluster1</title>
<polygon fill="none" stroke="black" points="490,-786 490,-850 612,-850 612,-786 490,-786"/>
<text text-anchor="middle" x="545.5" y="-834.8" font-family="Times,serif" font-size="14.00">Cluster: base</text>
</g>
<g id="clust3" class="cluster">
<title>cluster2</title>
<polygon fill="none" stroke="black" points="16,-16 16,-778 1566,-778 1566,-16 16,-16"/>
<text text-anchor="middle" x="68" y="-762.8" font-family="Times,serif" font-size="14.00">Cluster: usd</text>
</g>
<!-- NamedType -->
<g id="node1" class="node">
<title>NamedType</title>
<polygon fill="white" stroke="transparent" points="502,-796.5 502,-815.5 601,-815.5 601,-796.5 502,-796.5"/>
<text text-anchor="start" x="504" y="-802.3" font-family="Times,serif" font-size="14.00"> NamedType </text>
<polygon fill="none" stroke="cyan" stroke-width="2" points="499.5,-795 499.5,-818 602.5,-818 602.5,-795 499.5,-795"/>
</g>
<!-- UsdStage -->
<g id="node2" class="node">
<title>UsdStage</title>
<polygon fill="white" stroke="transparent" points="1060,-405.5 1060,-424.5 1167,-424.5 1167,-405.5 1060,-405.5"/>
<text text-anchor="start" x="1071.5" y="-411.3" font-family="Times,serif" font-size="14.00"> &#160;UsdStage </text>
<text text-anchor="start" x="1062" y="-391.3" font-family="Times,serif" font-size="14.00">usdaHeader: </text>
<text text-anchor="start" x="1170" y="-391.3" font-family="Times,serif" font-size="14.00">xsd:string</text>
<text text-anchor="start" x="1062" y="-371.3" font-family="Times,serif" font-size="14.00">usdaFilePath: </text>
<text text-anchor="start" x="1170" y="-371.3" font-family="Times,serif" font-size="14.00">xsd:string</text>
<text text-anchor="start" x="1062" y="-351.3" font-family="Times,serif" font-size="14.00">defaultPrim: </text>
<text text-anchor="start" x="1170" y="-351.3" font-family="Times,serif" font-size="14.00">xsd:string</text>
<polygon fill="none" stroke="black" points="1057.5,-344 1057.5,-427 1246.5,-427 1246.5,-344 1057.5,-344"/>
</g>
<!-- NamedType&#45;&gt;UsdStage -->
<g id="NamedType&#45;UsdStage" class="edge">
<title>NamedType&#45;&gt;UsdStage</title>
<path fill="none" stroke="cyan" stroke-dasharray="5,2" d="M603.54,-805.29C663.51,-803.99 764.13,-798.54 848,-778 975.78,-746.7 1042.92,-771.14 1122,-666 1171.91,-599.63 1168.73,-498.01 1160.98,-437.32"/>
<polygon fill="cyan" stroke="cyan" points="1164.42,-436.65 1159.6,-427.21 1157.49,-437.59 1164.42,-436.65"/>
</g>
<!-- UsdDictionary -->
<g id="node6" class="node">
<title>UsdDictionary</title>
<polygon fill="white" stroke="transparent" points="600,-724.5 600,-743.5 746,-743.5 746,-724.5 600,-724.5"/>
<text text-anchor="start" x="614.5" y="-730.3" font-family="Times,serif" font-size="14.00"> &#160;UsdDictionary </text>
<text text-anchor="start" x="602" y="-710.3" font-family="Times,serif" font-size="14.00">dictionaryIsEmpty: </text>
<text text-anchor="start" x="749" y="-710.3" font-family="Times,serif" font-size="14.00">xsd:boolean</text>
<polygon fill="none" stroke="cyan" stroke-width="2" points="598,-703 598,-746 838,-746 838,-703 598,-703"/>
</g>
<!-- NamedType&#45;&gt;UsdDictionary -->
<g id="NamedType&#45;UsdDictionary" class="edge">
<title>NamedType&#45;&gt;UsdDictionary</title>
<path fill="none" stroke="cyan" stroke-dasharray="5,2" d="M575.28,-793.87C598.4,-782.79 634,-765.74 663.86,-751.44"/>
<polygon fill="cyan" stroke="cyan" points="665.41,-754.57 672.92,-747.1 662.39,-748.26 665.41,-754.57"/>
</g>
<!-- StringPair -->
<g id="node11" class="node">
<title>StringPair</title>
<polygon fill="white" stroke="transparent" points="26,-166.5 26,-185.5 118,-185.5 118,-166.5 26,-166.5"/>
<text text-anchor="start" x="28" y="-172.3" font-family="Times,serif" font-size="14.00"> &#160;StringPair </text>
<text text-anchor="start" x="28" y="-152.3" font-family="Times,serif" font-size="14.00">value: </text>
<text text-anchor="start" x="121" y="-152.3" font-family="Times,serif" font-size="14.00">xsd:string</text>
<polygon fill="none" stroke="black" points="24,-145 24,-188 198,-188 198,-145 24,-145"/>
</g>
<!-- NamedType&#45;&gt;StringPair -->
<g id="NamedType&#45;StringPair" class="edge">
<title>NamedType&#45;&gt;StringPair</title>
<path fill="none" stroke="cyan" stroke-dasharray="5,2" d="M498.36,-802.18C452.21,-798.45 389.26,-791.12 368,-778 242.61,-700.6 234.79,-642.55 177,-507 131.24,-399.66 116.92,-259.65 112.68,-198.42"/>
<polygon fill="cyan" stroke="cyan" points="116.16,-198.02 112.02,-188.27 109.17,-198.48 116.16,-198.02"/>
</g>
<!-- UsdTyped -->
<g id="node17" class="node">
<title>UsdTyped</title>
<polygon fill="white" stroke="transparent" points="339,-594.5 339,-613.5 429,-613.5 429,-594.5 339,-594.5"/>
<text text-anchor="start" x="341" y="-600.3" font-family="Times,serif" font-size="14.00"> &#160;UsdTyped </text>
<polygon fill="none" stroke="black" points="337,-593 337,-616 431,-616 431,-593 337,-593"/>
</g>
<!-- NamedType&#45;&gt;UsdTyped -->
<g id="NamedType&#45;UsdTyped" class="edge">
<title>NamedType&#45;&gt;UsdTyped</title>
<path fill="none" stroke="cyan" stroke-dasharray="5,2" d="M498.23,-802.64C459.77,-799.38 412.19,-792.47 399,-778 360.64,-735.93 370.83,-661.68 378.73,-625.9"/>
<polygon fill="cyan" stroke="cyan" points="382.15,-626.65 381.05,-616.11 375.34,-625.04 382.15,-626.65"/>
</g>
<!-- UsdPrim -->
<g id="node3" class="node">
<title>UsdPrim</title>
<polygon fill="white" stroke="transparent" points="432,-485.5 432,-504.5 565,-504.5 565,-485.5 432,-485.5"/>
<text text-anchor="start" x="460" y="-491.3" font-family="Times,serif" font-size="14.00"> &#160;UsdPrim </text>
<text text-anchor="start" x="434" y="-471.3" font-family="Times,serif" font-size="14.00">typeName: </text>
<text text-anchor="start" x="596" y="-471.3" font-family="Times,serif" font-size="14.00">xsd:string</text>
<text text-anchor="start" x="434" y="-451.3" font-family="Times,serif" font-size="14.00">apiSchemas: </text>
<text text-anchor="start" x="591" y="-451.3" font-family="Times,serif" font-size="14.00">[xsd:string]</text>
<text text-anchor="start" x="434" y="-431.3" font-family="Times,serif" font-size="14.00">specializesName: </text>
<text text-anchor="start" x="596" y="-431.3" font-family="Times,serif" font-size="14.00">xsd:string</text>
<text text-anchor="start" x="434" y="-411.3" font-family="Times,serif" font-size="14.00">specifier: </text>
<text text-anchor="start" x="586.5" y="-411.3" font-family="Times,serif" font-size="14.00">UsdSpecifier</text>
<text text-anchor="start" x="434" y="-391.3" font-family="Times,serif" font-size="14.00">active: </text>
<text text-anchor="start" x="590" y="-391.3" font-family="Times,serif" font-size="14.00">xsd:boolean</text>
<text text-anchor="start" x="434" y="-371.3" font-family="Times,serif" font-size="14.00">kind: </text>
<text text-anchor="start" x="601.5" y="-371.3" font-family="Times,serif" font-size="14.00">UsdKind</text>
<text text-anchor="start" x="434" y="-351.3" font-family="Times,serif" font-size="14.00">referenceNames: </text>
<text text-anchor="start" x="591" y="-351.3" font-family="Times,serif" font-size="14.00">[xsd:string]</text>
<text text-anchor="start" x="434" y="-331.3" font-family="Times,serif" font-size="14.00">relationships: </text>
<text text-anchor="start" x="568" y="-331.3" font-family="Times,serif" font-size="14.00">[UsdRelationship]</text>
<text text-anchor="start" x="434" y="-311.3" font-family="Times,serif" font-size="14.00">variants: </text>
<text text-anchor="start" x="590" y="-311.3" font-family="Times,serif" font-size="14.00">[StringPair]</text>
<text text-anchor="start" x="434" y="-291.3" font-family="Times,serif" font-size="14.00">variantSet: </text>
<text text-anchor="start" x="595.5" y="-291.3" font-family="Times,serif" font-size="14.00">[UsdPrim]</text>
<text text-anchor="start" x="434" y="-271.3" font-family="Times,serif" font-size="14.00">variability: </text>
<text text-anchor="start" x="581" y="-271.3" font-family="Times,serif" font-size="14.00">UsdVariability</text>
<polygon fill="none" stroke="black" points="429.5,-264 429.5,-507 700.5,-507 700.5,-264 429.5,-264"/>
</g>
<!-- UsdPrim&#45;&gt;UsdPrim -->
<g id="UsdPrim&#45;variantSet&#45;UsdPrim" class="edge">
<title>UsdPrim:variantSet&#45;&gt;UsdPrim</title>
<path fill="none" stroke="black" d="M641.82,-285.49C688.07,-240.34 718.5,-245.86 718.5,-340 718.5,-360.75 714.1,-377.19 706.66,-389.73"/>
<polygon fill="black" stroke="black" points="703.61,-387.99 700.72,-398.18 709.34,-392.01 703.61,-387.99"/>
</g>
<!-- UsdKind -->
<g id="node10" class="node">
<title>UsdKind</title>
<polygon fill="white" stroke="transparent" points="408,-206.5 408,-225.5 534,-225.5 534,-206.5 408,-206.5"/>
<text text-anchor="start" x="410" y="-212.3" font-family="Times,serif" font-size="14.00"> &#160;Enum:UsdKind </text>
<text text-anchor="start" x="483" y="-192.3" font-family="Times,serif" font-size="14.00">model </text>
<text text-anchor="start" x="485" y="-172.3" font-family="Times,serif" font-size="14.00">group </text>
<text text-anchor="start" x="460" y="-152.3" font-family="Times,serif" font-size="14.00">assembly </text>
<text text-anchor="start" x="448" y="-132.3" font-family="Times,serif" font-size="14.00">component </text>
<text text-anchor="start" x="423" y="-112.3" font-family="Times,serif" font-size="14.00">subcomponent </text>
<polygon fill="none" stroke="black" points="406,-105 406,-228 536,-228 536,-105 406,-105"/>
</g>
<!-- UsdPrim&#45;&gt;UsdKind -->
<g id="UsdPrim&#45;kind&#45;UsdKind" class="edge">
<title>UsdPrim:kind&#45;&gt;UsdKind</title>
<path fill="none" stroke="black" d="M700,-374.5C724.56,-374.5 714.35,-283.17 699,-264 655.07,-209.13 608.06,-259.05 545,-228 544.91,-227.95 544.81,-227.91 544.72,-227.86"/>
<polygon fill="black" stroke="black" points="546.59,-224.89 536.12,-223.21 543.25,-231.05 546.59,-224.89"/>
</g>
<!-- UsdPrim&#45;&gt;StringPair -->
<g id="UsdPrim&#45;variants&#45;StringPair" class="edge">
<title>UsdPrim:variants&#45;&gt;StringPair</title>
<path fill="none" stroke="black" d="M700,-314.5C722.45,-314.5 714.45,-280.29 699,-264 661.29,-224.22 259.07,-245.12 207,-228 184.48,-220.6 161.93,-206.79 144.34,-194.23"/>
<polygon fill="black" stroke="black" points="146.26,-191.3 136.13,-188.2 142.12,-196.94 146.26,-191.3"/>
</g>
<!-- UsdSpecifier -->
<g id="node12" class="node">
<title>UsdSpecifier</title>
<polygon fill="white" stroke="transparent" points="556,-186.5 556,-205.5 712,-205.5 712,-186.5 556,-186.5"/>
<text text-anchor="start" x="558" y="-192.3" font-family="Times,serif" font-size="14.00"> &#160;Enum:UsdSpecifier </text>
<text text-anchor="start" x="617" y="-172.3" font-family="Times,serif" font-size="14.00">SpecifierDef </text>
<text text-anchor="start" x="607" y="-152.3" font-family="Times,serif" font-size="14.00">SpecifierOver </text>
<text text-anchor="start" x="604" y="-132.3" font-family="Times,serif" font-size="14.00">SpecifierClass </text>
<polygon fill="none" stroke="black" points="554,-125 554,-208 714,-208 714,-125 554,-125"/>
</g>
<!-- UsdPrim&#45;&gt;UsdSpecifier -->
<g id="UsdPrim&#45;specifier&#45;UsdSpecifier" class="edge">
<title>UsdPrim:specifier&#45;&gt;UsdSpecifier</title>
<path fill="none" stroke="black" d="M700,-415.5C733.67,-415.5 708.94,-296.17 699,-264 693.87,-247.38 684.83,-231.03 675.1,-216.64"/>
<polygon fill="black" stroke="black" points="677.93,-214.57 669.32,-208.4 672.2,-218.6 677.93,-214.57"/>
</g>
<!-- UsdVariability -->
<g id="node14" class="node">
<title>UsdVariability</title>
<polygon fill="white" stroke="transparent" points="219,-176.5 219,-195.5 386,-195.5 386,-176.5 219,-176.5"/>
<text text-anchor="start" x="221" y="-182.3" font-family="Times,serif" font-size="14.00"> &#160;Enum:UsdVariability </text>
<text text-anchor="start" x="323" y="-162.3" font-family="Times,serif" font-size="14.00">uniform </text>
<text text-anchor="start" x="325" y="-142.3" font-family="Times,serif" font-size="14.00">varying </text>
<polygon fill="none" stroke="black" points="216.5,-135 216.5,-198 387.5,-198 387.5,-135 216.5,-135"/>
</g>
<!-- UsdPrim&#45;&gt;UsdVariability -->
<g id="UsdPrim&#45;variability&#45;UsdVariability" class="edge">
<title>UsdPrim:variability&#45;&gt;UsdVariability</title>
<path fill="none" stroke="black" d="M633,-264.5C633,-211.43 446.66,-246.71 397,-228 381.09,-222.01 365.03,-213.1 350.75,-203.96"/>
<polygon fill="black" stroke="black" points="352.39,-200.85 342.11,-198.26 348.53,-206.69 352.39,-200.85"/>
</g>
<!-- UsdRelationship -->
<g id="node15" class="node">
<title>UsdRelationship</title>
<polygon fill="white" stroke="transparent" points="1120,-166.5 1120,-185.5 1256,-185.5 1256,-166.5 1120,-166.5"/>
<text text-anchor="start" x="1122" y="-172.3" font-family="Times,serif" font-size="14.00"> &#160;UsdRelationship </text>
<text text-anchor="start" x="1122" y="-152.3" font-family="Times,serif" font-size="14.00">primObjectPath: </text>
<text text-anchor="start" x="1259" y="-152.3" font-family="Times,serif" font-size="14.00">xsd:string</text>
<polygon fill="none" stroke="black" points="1118,-145 1118,-188 1336,-188 1336,-145 1118,-145"/>
</g>
<!-- UsdPrim&#45;&gt;UsdRelationship -->
<g id="UsdPrim&#45;relationships&#45;UsdRelationship" class="edge">
<title>UsdPrim:relationships&#45;&gt;UsdRelationship</title>
<path fill="none" stroke="black" d="M700,-334.5C733.71,-334.5 701.03,-284.23 728,-264 796.04,-212.98 1027.36,-251.83 1109,-228 1136,-220.12 1164.1,-205.98 1186.11,-193.35"/>
<polygon fill="black" stroke="black" points="1187.98,-196.32 1194.84,-188.24 1184.44,-190.28 1187.98,-196.32"/>
</g>
<!-- UsdAttribute -->
<g id="node4" class="node">
<title>UsdAttribute</title>
<polygon fill="white" stroke="transparent" points="1356,-176.5 1356,-195.5 1478,-195.5 1478,-176.5 1356,-176.5"/>
<text text-anchor="start" x="1363" y="-182.3" font-family="Times,serif" font-size="14.00"> &#160;UsdAttribute </text>
<text text-anchor="start" x="1358" y="-162.3" font-family="Times,serif" font-size="14.00">appliedSchema: </text>
<text text-anchor="start" x="1481" y="-162.3" font-family="Times,serif" font-size="14.00">xsd:string</text>
<text text-anchor="start" x="1358" y="-142.3" font-family="Times,serif" font-size="14.00">roleName: </text>
<text text-anchor="start" x="1481" y="-142.3" font-family="Times,serif" font-size="14.00">xsd:string</text>
<polygon fill="none" stroke="black" points="1354,-135 1354,-198 1558,-198 1558,-135 1354,-135"/>
</g>
<!-- UsdObject -->
<g id="node5" class="node">
<title>UsdObject</title>
<polygon fill="white" stroke="transparent" points="848,-644.5 848,-663.5 968,-663.5 968,-644.5 848,-644.5"/>
<text text-anchor="start" x="863.5" y="-650.3" font-family="Times,serif" font-size="14.00"> &#160;UsdObject </text>
<text text-anchor="start" x="850" y="-630.3" font-family="Times,serif" font-size="14.00">definedIn: </text>
<text text-anchor="start" x="971" y="-630.3" font-family="Times,serif" font-size="14.00">DefinitionSource</text>
<text text-anchor="start" x="850" y="-610.3" font-family="Times,serif" font-size="14.00">parentObject: </text>
<text text-anchor="start" x="993" y="-610.3" font-family="Times,serif" font-size="14.00">UsdObject</text>
<text text-anchor="start" x="850" y="-590.3" font-family="Times,serif" font-size="14.00">displayName: </text>
<text text-anchor="start" x="994.5" y="-590.3" font-family="Times,serif" font-size="14.00">xsd:string</text>
<text text-anchor="start" x="850" y="-570.3" font-family="Times,serif" font-size="14.00">doc: </text>
<text text-anchor="start" x="994.5" y="-570.3" font-family="Times,serif" font-size="14.00">xsd:string</text>
<text text-anchor="start" x="850" y="-550.3" font-family="Times,serif" font-size="14.00">documentation: </text>
<text text-anchor="start" x="994.5" y="-550.3" font-family="Times,serif" font-size="14.00">xsd:string</text>
<polygon fill="none" stroke="black" points="845.5,-543 845.5,-666 1094.5,-666 1094.5,-543 845.5,-543"/>
</g>
<!-- UsdObject&#45;&gt;UsdStage -->
<g id="UsdObject&#45;UsdStage" class="edge">
<title>UsdObject&#45;&gt;UsdStage</title>
<path fill="none" stroke="black" stroke-dasharray="5,2" d="M1020.94,-542.76C1049.44,-508.78 1084.49,-466.99 1111.17,-435.18"/>
<polygon fill="black" stroke="black" points="1114.02,-437.23 1117.77,-427.32 1108.66,-432.73 1114.02,-437.23"/>
</g>
<!-- UsdObject&#45;&gt;UsdPrim -->
<g id="UsdObject&#45;UsdPrim" class="edge">
<title>UsdObject&#45;&gt;UsdPrim</title>
<path fill="none" stroke="black" stroke-dasharray="5,2" d="M845.49,-549.98C839.59,-547.59 833.74,-545.25 828,-543 784.03,-525.74 769.65,-529.28 728,-507 721.71,-503.63 715.39,-500.05 709.08,-496.29"/>
<polygon fill="black" stroke="black" points="710.87,-493.28 700.51,-491.07 707.23,-499.26 710.87,-493.28"/>
</g>
<!-- UsdObject&#45;&gt;UsdObject -->
<g id="UsdObject&#45;parentObject&#45;UsdObject" class="edge">
<title>UsdObject:parentObject&#45;&gt;UsdObject</title>
<path fill="none" stroke="black" d="M1046.59,-623.53C1085.77,-644.05 1112.5,-640.54 1112.5,-609.5 1112.5,-603.01 1109.24,-597.73 1103.62,-593.62"/>
<polygon fill="black" stroke="black" points="1105.05,-590.41 1094.59,-588.73 1101.72,-596.57 1105.05,-590.41"/>
</g>
<!-- DefinitionSource -->
<g id="node9" class="node">
<title>DefinitionSource</title>
<text text-anchor="start" x="1269" y="-411.3" font-family="Times,serif" font-size="14.00"> &#160;Enum:DefinitionSource </text>
<text text-anchor="start" x="1418" y="-391.3" font-family="Times,serif" font-size="14.00">usd </text>
<text text-anchor="start" x="1423" y="-371.3" font-family="Times,serif" font-size="14.00">rdf </text>
<text text-anchor="start" x="1370" y="-351.3" font-family="Times,serif" font-size="14.00">omniverse </text>
<polygon fill="none" stroke="black" points="1265,-344 1265,-427 1453,-427 1453,-344 1265,-344"/>
</g>
<!-- UsdObject&#45;&gt;DefinitionSource -->
<g id="UsdObject&#45;definedIn&#45;DefinitionSource" class="edge">
<title>UsdObject:definedIn&#45;&gt;DefinitionSource</title>
<path fill="none" stroke="black" d="M1094,-634.5C1208.96,-634.5 1294.66,-508.54 1334.41,-436.15"/>
<polygon fill="black" stroke="black" points="1337.59,-437.64 1339.26,-427.17 1331.43,-434.31 1337.59,-437.64"/>
</g>
<!-- UsdProperty -->
<g id="node13" class="node">
<title>UsdProperty</title>
<polygon fill="white" stroke="transparent" points="926,-375.5 926,-394.5 1036,-394.5 1036,-375.5 926,-375.5"/>
<text text-anchor="start" x="928" y="-381.3" font-family="Times,serif" font-size="14.00"> &#160;UsdProperty </text>
<polygon fill="none" stroke="cyan" stroke-width="2" points="924,-374 924,-397 1038,-397 1038,-374 924,-374"/>
</g>
<!-- UsdObject&#45;&gt;UsdProperty -->
<g id="UsdObject&#45;UsdProperty" class="edge">
<title>UsdObject&#45;&gt;UsdProperty</title>
<path fill="none" stroke="black" stroke-dasharray="5,2" d="M973.08,-542.76C975.35,-497.87 978.32,-439.35 979.9,-408.22"/>
<polygon fill="black" stroke="black" points="983.4,-408.22 980.41,-398.06 976.41,-407.87 983.4,-408.22"/>
</g>
<!-- UsdAPISchemaBase -->
<g id="node18" class="node">
<title>UsdAPISchemaBase</title>
<polygon fill="white" stroke="transparent" points="740,-375.5 740,-394.5 902,-394.5 902,-375.5 740,-375.5"/>
<text text-anchor="start" x="742" y="-381.3" font-family="Times,serif" font-size="14.00"> &#160;UsdAPISchemaBase </text>
<polygon fill="none" stroke="lightblue" stroke-width="2" points="738,-374 738,-397 904,-397 904,-374 738,-374"/>
</g>
<!-- UsdObject&#45;&gt;UsdAPISchemaBase -->
<g id="UsdObject&#45;UsdAPISchemaBase" class="edge">
<title>UsdObject&#45;&gt;UsdAPISchemaBase</title>
<path fill="none" stroke="black" stroke-dasharray="5,2" d="M928.3,-542.76C896.93,-497.09 855.88,-437.3 834.8,-406.6"/>
<polygon fill="black" stroke="black" points="837.48,-404.32 828.94,-398.06 831.71,-408.28 837.48,-404.32"/>
</g>
<!-- UsdDictionary&#45;&gt;UsdObject -->
<g id="UsdDictionary&#45;UsdObject" class="edge">
<title>UsdDictionary&#45;&gt;UsdObject</title>
<path fill="none" stroke="cyan" stroke-dasharray="5,2" d="M763.93,-701.99C784.56,-692.33 810.09,-680.38 836.07,-668.21"/>
<polygon fill="cyan" stroke="cyan" points="837.7,-671.31 845.27,-663.9 834.73,-664.97 837.7,-671.31"/>
</g>
<!-- UsdSegment -->
<g id="node7" class="node">
<title>UsdSegment</title>
<polygon fill="white" stroke="transparent" points="621,-614.5 621,-633.5 738,-633.5 738,-614.5 621,-614.5"/>
<text text-anchor="start" x="626.5" y="-620.3" font-family="Times,serif" font-size="14.00"> &#160;UsdSegment </text>
<text text-anchor="start" x="623" y="-600.3" font-family="Times,serif" font-size="14.00">segmentName: </text>
<text text-anchor="start" x="741" y="-600.3" font-family="Times,serif" font-size="14.00">xsd:string</text>
<text text-anchor="start" x="623" y="-580.3" font-family="Times,serif" font-size="14.00">path: </text>
<text text-anchor="start" x="741" y="-580.3" font-family="Times,serif" font-size="14.00">xsd:string</text>
<polygon fill="none" stroke="cyan" stroke-width="2" points="618.5,-573 618.5,-636 817.5,-636 817.5,-573 618.5,-573"/>
</g>
<!-- UsdDictionary&#45;&gt;UsdSegment -->
<g id="UsdDictionary&#45;UsdSegment" class="edge">
<title>UsdDictionary&#45;&gt;UsdSegment</title>
<path fill="none" stroke="cyan" stroke-dasharray="5,2" d="M718,-701.86C718,-686.66 718,-665.84 718,-647.44"/>
<polygon fill="cyan" stroke="cyan" points="721.5,-647.24 718,-637.24 714.5,-647.24 721.5,-647.24"/>
</g>
<!-- UsdSegment&#45;&gt;UsdPrim -->
<g id="UsdSegment&#45;UsdPrim" class="edge">
<title>UsdSegment&#45;&gt;UsdPrim</title>
<path fill="none" stroke="cyan" stroke-dasharray="5,2" d="M695.75,-571.95C684.78,-556.38 670.73,-536.46 655.94,-515.48"/>
<polygon fill="cyan" stroke="cyan" points="658.64,-513.24 650.02,-507.08 652.92,-517.27 658.64,-513.24"/>
</g>
<!-- UsdSegment&#45;&gt;UsdProperty -->
<g id="UsdSegment&#45;UsdProperty" class="edge">
<title>UsdSegment&#45;&gt;UsdProperty</title>
<path fill="none" stroke="cyan" stroke-dasharray="5,2" d="M779.26,-571.87C797.75,-562.45 818.15,-552.2 837,-543 870.95,-526.44 886.37,-532.76 914,-507 944.14,-478.9 964.04,-434.1 973.85,-407.77"/>
<polygon fill="cyan" stroke="cyan" points="977.15,-408.94 977.22,-398.34 970.55,-406.58 977.15,-408.94"/>
</g>
<!-- UsdObjectValue -->
<g id="node8" class="node">
<title>UsdObjectValue</title>
<polygon fill="white" stroke="transparent" points="908,-46.5 908,-65.5 1040,-65.5 1040,-46.5 908,-46.5"/>
<text text-anchor="start" x="910" y="-52.3" font-family="Times,serif" font-size="14.00"> &#160;UsdObjectValue </text>
<text text-anchor="start" x="910" y="-32.3" font-family="Times,serif" font-size="14.00">valueTypeToken: </text>
<text text-anchor="start" x="1043" y="-32.3" font-family="Times,serif" font-size="14.00">xsd:string</text>
<polygon fill="none" stroke="green" stroke-width="2" points="906,-25 906,-68 1120,-68 1120,-25 906,-25"/>
</g>
<!-- UsdProperty&#45;&gt;UsdAttribute -->
<g id="UsdProperty&#45;UsdAttribute" class="edge">
<title>UsdProperty&#45;&gt;UsdAttribute</title>
<path fill="none" stroke="cyan" stroke-dasharray="5,2" d="M983.8,-372.82C990.4,-348.06 1009.45,-290.42 1049,-264 1159.19,-190.38 1218.79,-268.43 1345,-228 1363.96,-221.93 1383.41,-212.56 1400.63,-203"/>
<polygon fill="cyan" stroke="cyan" points="1402.46,-205.99 1409.42,-198 1399,-199.91 1402.46,-205.99"/>
</g>
<!-- UsdProperty&#45;&gt;UsdRelationship -->
<g id="UsdProperty&#45;UsdRelationship" class="edge">
<title>UsdProperty&#45;&gt;UsdRelationship</title>
<path fill="none" stroke="cyan" stroke-dasharray="5,2" d="M985.05,-372.83C993.63,-349.57 1015.6,-296.84 1049,-264 1059.16,-254.02 1127.78,-218 1176.78,-192.91"/>
<polygon fill="cyan" stroke="cyan" points="1178.68,-195.88 1185.99,-188.21 1175.49,-189.64 1178.68,-195.88"/>
</g>
<!-- UsdSchemaBase -->
<g id="node16" class="node">
<title>UsdSchemaBase</title>
<polygon fill="white" stroke="transparent" points="412,-714.5 412,-733.5 549,-733.5 549,-714.5 412,-714.5"/>
<text text-anchor="start" x="414" y="-720.3" font-family="Times,serif" font-size="14.00"> &#160;UsdSchemaBase </text>
<polygon fill="none" stroke="lightblue" stroke-width="2" points="409.5,-713 409.5,-736 550.5,-736 550.5,-713 409.5,-713"/>
</g>
<!-- UsdSchemaBase&#45;&gt;UsdTyped -->
<g id="UsdSchemaBase&#45;UsdTyped" class="edge">
<title>UsdSchemaBase&#45;&gt;UsdTyped</title>
<path fill="none" stroke="lightblue" stroke-dasharray="5,2" d="M470.44,-711.75C453.73,-691.21 419.06,-648.6 399.08,-624.04"/>
<polygon fill="lightblue" stroke="lightblue" points="401.71,-621.72 392.68,-616.17 396.28,-626.14 401.71,-621.72"/>
</g>
<!-- UsdSchemaBase&#45;&gt;UsdAPISchemaBase -->
<g id="UsdSchemaBase&#45;UsdAPISchemaBase" class="edge">
<title>UsdSchemaBase&#45;&gt;UsdAPISchemaBase</title>
<path fill="none" stroke="lightblue" stroke-dasharray="5,2" d="M485.04,-711.77C499.42,-679.66 543.89,-589.68 609,-543 653.91,-510.8 682.51,-538.37 728,-507 766.17,-480.68 795.7,-433.84 810.51,-406.96"/>
<polygon fill="lightblue" stroke="lightblue" points="813.65,-408.51 815.29,-398.04 807.48,-405.21 813.65,-408.51"/>
</g>
<!-- UsdTyped&#45;&gt;UsdPrim -->
<g id="UsdTyped&#45;UsdPrim" class="edge">
<title>UsdTyped&#45;&gt;UsdPrim</title>
<path fill="none" stroke="black" stroke-dasharray="5,2" d="M392.98,-592.74C405.79,-577.38 430.78,-547.42 457.83,-514.99"/>
<polygon fill="black" stroke="black" points="460.65,-517.07 464.37,-507.15 455.27,-512.59 460.65,-517.07"/>
</g>
<!-- XForm -->
<g id="node21" class="node">
<title>XForm</title>
<polygon fill="white" stroke="transparent" points="268,-375.5 268,-394.5 333,-394.5 333,-375.5 268,-375.5"/>
<text text-anchor="start" x="270" y="-381.3" font-family="Times,serif" font-size="14.00"> &#160;XForm </text>
<polygon fill="none" stroke="black" points="265.5,-374 265.5,-397 334.5,-397 334.5,-374 265.5,-374"/>
</g>
<!-- UsdTyped&#45;&gt;XForm -->
<g id="UsdTyped&#45;XForm" class="edge">
<title>UsdTyped&#45;&gt;XForm</title>
<path fill="none" stroke="black" stroke-dasharray="5,2" d="M379.24,-592.87C371.38,-575.19 355.31,-538.54 343,-507 329.41,-472.19 315.11,-431.09 306.9,-407"/>
<polygon fill="black" stroke="black" points="310.11,-405.56 303.59,-397.22 303.48,-407.81 310.11,-405.56"/>
</g>
<!-- Cube -->
<g id="node22" class="node">
<title>Cube</title>
<polygon fill="white" stroke="transparent" points="355,-375.5 355,-394.5 410,-394.5 410,-375.5 355,-375.5"/>
<text text-anchor="start" x="357" y="-381.3" font-family="Times,serif" font-size="14.00"> &#160;Cube </text>
<polygon fill="none" stroke="black" points="352.5,-374 352.5,-397 411.5,-397 411.5,-374 352.5,-374"/>
</g>
<!-- UsdTyped&#45;&gt;Cube -->
<g id="UsdTyped&#45;Cube" class="edge">
<title>UsdTyped&#45;&gt;Cube</title>
<path fill="none" stroke="black" stroke-dasharray="5,2" d="M383.9,-592.74C383.59,-558.68 382.61,-452.83 382.19,-407.47"/>
<polygon fill="black" stroke="black" points="385.69,-407.29 382.1,-397.33 378.69,-407.36 385.69,-407.29"/>
</g>
<!-- Mesh -->
<g id="node23" class="node">
<title>Mesh</title>
<polygon fill="white" stroke="transparent" points="189,-375.5 189,-394.5 246,-394.5 246,-375.5 189,-375.5"/>
<text text-anchor="start" x="191" y="-381.3" font-family="Times,serif" font-size="14.00"> &#160;Mesh </text>
<polygon fill="none" stroke="black" points="186.5,-374 186.5,-397 247.5,-397 247.5,-374 186.5,-374"/>
</g>
<!-- UsdTyped&#45;&gt;Mesh -->
<g id="UsdTyped&#45;Mesh" class="edge">
<title>UsdTyped&#45;&gt;Mesh</title>
<path fill="none" stroke="black" stroke-dasharray="5,2" d="M362.64,-592.81C334.26,-577.55 284.42,-546.9 256,-507 234.11,-476.27 224.04,-432.59 219.78,-407.13"/>
<polygon fill="black" stroke="black" points="223.23,-406.49 218.26,-397.13 216.31,-407.54 223.23,-406.49"/>
</g>
<!-- UsdSingleAppliedAPI -->
<g id="node19" class="node">
<title>UsdSingleAppliedAPI</title>
<polygon fill="white" stroke="transparent" points="735,-156.5 735,-175.5 905,-175.5 905,-156.5 735,-156.5"/>
<text text-anchor="start" x="737" y="-162.3" font-family="Times,serif" font-size="14.00"> &#160;UsdSingleAppliedAPI </text>
<polygon fill="none" stroke="lightblue" stroke-width="2" points="733,-155 733,-178 907,-178 907,-155 733,-155"/>
</g>
<!-- UsdAPISchemaBase&#45;&gt;UsdSingleAppliedAPI -->
<g id="UsdAPISchemaBase&#45;UsdSingleAppliedAPI" class="edge">
<title>UsdAPISchemaBase&#45;&gt;UsdSingleAppliedAPI</title>
<path fill="none" stroke="lightblue" stroke-dasharray="5,2" d="M820.95,-372.83C820.79,-338.1 820.31,-234.96 820.1,-189.47"/>
<polygon fill="lightblue" stroke="lightblue" points="823.6,-189.21 820.05,-179.22 816.6,-189.24 823.6,-189.21"/>
</g>
<!-- UsdMultiAppliedAPI -->
<g id="node20" class="node">
<title>UsdMultiAppliedAPI</title>
<polygon fill="white" stroke="transparent" points="931,-156.5 931,-175.5 1095,-175.5 1095,-156.5 931,-156.5"/>
<text text-anchor="start" x="933" y="-162.3" font-family="Times,serif" font-size="14.00"> &#160;UsdMultiAppliedAPI </text>
<polygon fill="none" stroke="blue" stroke-width="4" points="928,-154 928,-179 1098,-179 1098,-154 928,-154"/>
</g>
<!-- UsdAPISchemaBase&#45;&gt;UsdMultiAppliedAPI -->
<g id="UsdAPISchemaBase&#45;UsdMultiAppliedAPI" class="edge">
<title>UsdAPISchemaBase&#45;&gt;UsdMultiAppliedAPI</title>
<path fill="none" stroke="lightblue" stroke-dasharray="5,2" d="M829.2,-372.78C844.81,-350.72 880.25,-301.89 914,-264 938.52,-236.47 969.26,-207.23 989.93,-188.25"/>
<polygon fill="lightblue" stroke="lightblue" points="992.56,-190.59 997.59,-181.26 987.84,-185.42 992.56,-190.59"/>
</g>
<!-- UsdMultiAppliedAPI&#45;&gt;UsdObjectValue -->
<g id="UsdMultiAppliedAPI&#45;UsdObjectValue" class="edge">
<title>UsdMultiAppliedAPI&#45;&gt;UsdObjectValue</title>
<path fill="none" stroke="blue" stroke-dasharray="5,2" d="M1013,-151.96C1013,-134.43 1013,-103.3 1013,-79.57"/>
<polygon fill="blue" stroke="blue" points="1016.5,-79.27 1013,-69.27 1009.5,-79.27 1016.5,-79.27"/>
</g>
</g>
</svg>
