<?xml version="1.0" encoding="UTF-8" standalone="no"?>
<!DOCTYPE svg PUBLIC "-//W3C//DTD SVG 1.1//EN"
 "http://www.w3.org/Graphics/SVG/1.1/DTD/svg11.dtd">
<!-- Generated by graphviz version 2.43.0 (0)
 -->
<!-- Title: %3 Pages: 1 -->
<svg width="958pt" height="416pt"
 viewBox="0.00 0.00 958.00 416.00" xmlns="http://www.w3.org/2000/svg" xmlns:xlink="http://www.w3.org/1999/xlink">
<g id="graph0" class="graph" transform="scale(1 1) rotate(0) translate(4 412)">
<title>%3</title>
<polygon fill="white" stroke="transparent" points="-4,4 -4,-412 954,-412 954,4 -4,4"/>
<g id="clust1" class="cluster">
<title>cluster0</title>
<polygon fill="none" stroke="black" points="8,-8 8,-400 942,-400 942,-8 8,-8"/>
<text text-anchor="middle" x="77.5" y="-384.8" font-family="Times,serif" font-size="14.00">Schema: all&#45;v022</text>
</g>
<g id="clust2" class="cluster">
<title>cluster1</title>
<polygon fill="none" stroke="black" points="335,-305 335,-369 626,-369 626,-305 335,-305"/>
<text text-anchor="middle" x="389.5" y="-353.8" font-family="Times,serif" font-size="14.00">Cluster: core</text>
</g>
<g id="clust4" class="cluster">
<title>cluster3</title>
<polygon fill="none" stroke="black" points="16,-16 16,-297 934,-297 934,-16 16,-16"/>
<text text-anchor="middle" x="78.5" y="-281.8" font-family="Times,serif" font-size="14.00">Cluster: metric</text>
</g>
<!-- TemporalEntity -->
<g id="node1" class="node">
<title>TemporalEntity</title>
<polygon fill="white" stroke="transparent" points="347,-315.5 347,-334.5 472,-334.5 472,-315.5 347,-315.5"/>
<text text-anchor="start" x="349" y="-321.3" font-family="Times,serif" font-size="14.00"> TemporalEntity </text>
<polygon fill="none" stroke="cornflowerblue" stroke-width="2" points="344.5,-314 344.5,-337 473.5,-337 473.5,-314 344.5,-314"/>
</g>
<!-- Metric -->
<g id="node3" class="node">
<title>Metric</title>
<polygon fill="white" stroke="transparent" points="344,-244.5 344,-263.5 448,-263.5 448,-244.5 344,-244.5"/>
<text text-anchor="start" x="365.5" y="-250.3" font-family="Times,serif" font-size="14.00"> &#160;Metric </text>
<text text-anchor="start" x="346" y="-230.3" font-family="Times,serif" font-size="14.00">comparative: </text>
<text text-anchor="start" x="457.5" y="-230.3" font-family="Times,serif" font-size="14.00">[Comparative]</text>
<text text-anchor="start" x="346" y="-210.3" font-family="Times,serif" font-size="14.00">environment: </text>
<text text-anchor="start" x="457" y="-210.3" font-family="Times,serif" font-size="14.00">[Environment]</text>
<text text-anchor="start" x="346" y="-190.3" font-family="Times,serif" font-size="14.00">metricOn: </text>
<text text-anchor="start" x="451" y="-190.3" font-family="Times,serif" font-size="14.00">[AbstractEntity]</text>
<polygon fill="none" stroke="black" points="341.5,-183 341.5,-266 570.5,-266 570.5,-183 341.5,-183"/>
</g>
<!-- TemporalEntity&#45;&gt;Metric -->
<g id="TemporalEntity&#45;Metric" class="edge">
<title>TemporalEntity&#45;&gt;Metric</title>
<path fill="none" stroke="cornflowerblue" stroke-dasharray="5,2" d="M414.58,-312.75C419.04,-303.34 425.64,-289.45 432.26,-275.5"/>
<polygon fill="cornflowerblue" stroke="cornflowerblue" points="435.47,-276.91 436.59,-266.37 429.14,-273.91 435.47,-276.91"/>
</g>
<!-- AbstractEntity -->
<g id="node2" class="node">
<title>AbstractEntity</title>
<polygon fill="white" stroke="transparent" points="496,-315.5 496,-334.5 615,-334.5 615,-315.5 496,-315.5"/>
<text text-anchor="start" x="498" y="-321.3" font-family="Times,serif" font-size="14.00"> AbstractEntity </text>
<polygon fill="none" stroke="aquamarine" stroke-width="2" points="493.5,-314 493.5,-337 616.5,-337 616.5,-314 493.5,-314"/>
</g>
<!-- Metric&#45;&gt;AbstractEntity -->
<g id="Metric&#45;metricOn&#45;AbstractEntity" class="edge">
<title>Metric:metricOn&#45;&gt;AbstractEntity</title>
<path fill="none" stroke="black" d="M570,-193.5C613.73,-193.5 583.84,-266.45 565.86,-303.48"/>
<polygon fill="black" stroke="black" points="562.5,-302.36 561.17,-312.87 568.76,-305.49 562.5,-302.36"/>
</g>
<!-- ContourFitMetric -->
<g id="node4" class="node">
<title>ContourFitMetric</title>
<polygon fill="white" stroke="transparent" points="27,-75.5 27,-94.5 170,-94.5 170,-75.5 27,-75.5"/>
<text text-anchor="start" x="29" y="-81.3" font-family="Times,serif" font-size="14.00"> &#160;ContourFitMetric </text>
<polygon fill="none" stroke="black" points="24.5,-74 24.5,-97 171.5,-97 171.5,-74 24.5,-74"/>
</g>
<!-- Metric&#45;&gt;ContourFitMetric -->
<g id="Metric&#45;ContourFitMetric" class="edge">
<title>Metric&#45;&gt;ContourFitMetric</title>
<path fill="none" stroke="black" stroke-dasharray="5,2" d="M341.29,-201.3C290.63,-189.07 231.3,-171.33 181,-147 157.35,-135.56 133.44,-117.25 117.39,-103.77"/>
<polygon fill="black" stroke="black" points="119.63,-101.08 109.76,-97.22 115.07,-106.39 119.63,-101.08"/>
</g>
<!-- PositionDistributionFitMetric -->
<g id="node5" class="node">
<title>PositionDistributionFitMetric</title>
<polygon fill="white" stroke="transparent" points="192,-95.5 192,-114.5 421,-114.5 421,-95.5 192,-95.5"/>
<text text-anchor="start" x="194" y="-101.3" font-family="Times,serif" font-size="14.00"> &#160;PositionDistributionFitMetric </text>
<text text-anchor="start" x="194" y="-81.3" font-family="Times,serif" font-size="14.00">mean: </text>
<text text-anchor="start" x="424" y="-81.3" font-family="Times,serif" font-size="14.00">xsd:float</text>
<text text-anchor="start" x="194" y="-61.3" font-family="Times,serif" font-size="14.00">variance: </text>
<text text-anchor="start" x="424" y="-61.3" font-family="Times,serif" font-size="14.00">xsd:float</text>
<polygon fill="none" stroke="black" points="189.5,-54 189.5,-117 488.5,-117 488.5,-54 189.5,-54"/>
</g>
<!-- Metric&#45;&gt;PositionDistributionFitMetric -->
<g id="Metric&#45;PositionDistributionFitMetric" class="edge">
<title>Metric&#45;&gt;PositionDistributionFitMetric</title>
<path fill="none" stroke="black" stroke-dasharray="5,2" d="M421.21,-182.77C405.67,-164.57 387.45,-143.23 372.11,-125.27"/>
<polygon fill="black" stroke="black" points="374.45,-122.62 365.29,-117.28 369.12,-127.16 374.45,-122.62"/>
</g>
<!-- Comparative -->
<g id="node6" class="node">
<title>Comparative</title>
<polygon fill="white" stroke="transparent" points="768,-125.5 768,-144.5 924,-144.5 924,-125.5 768,-125.5"/>
<text text-anchor="start" x="770" y="-131.3" font-family="Times,serif" font-size="14.00"> &#160;Enum:Comparative </text>
<text text-anchor="start" x="849" y="-111.3" font-family="Times,serif" font-size="14.00">reference </text>
<text text-anchor="start" x="886" y="-91.3" font-family="Times,serif" font-size="14.00">best </text>
<text text-anchor="start" x="876" y="-71.3" font-family="Times,serif" font-size="14.00">worst </text>
<text text-anchor="start" x="867" y="-51.3" font-family="Times,serif" font-size="14.00">normal </text>
<text text-anchor="start" x="870" y="-31.3" font-family="Times,serif" font-size="14.00">outlier </text>
<polygon fill="none" stroke="black" points="766,-24 766,-147 926,-147 926,-24 766,-24"/>
</g>
<!-- Metric&#45;&gt;Comparative -->
<g id="Metric&#45;comparative&#45;Comparative" class="edge">
<title>Metric:comparative&#45;&gt;Comparative</title>
<path fill="none" stroke="black" d="M570,-234.5C644.06,-234.5 717.45,-192.6 769.91,-153.39"/>
<polygon fill="black" stroke="black" points="772.31,-155.96 778.15,-147.12 768.07,-150.39 772.31,-155.96"/>
</g>
<!-- Environment -->
<g id="node7" class="node">
<title>Environment</title>
<polygon fill="white" stroke="transparent" points="509,-115.5 509,-134.5 656,-134.5 656,-115.5 509,-115.5"/>
<text text-anchor="start" x="529" y="-121.3" font-family="Times,serif" font-size="14.00"> &#160;Environment </text>
<text text-anchor="start" x="511" y="-101.3" font-family="Times,serif" font-size="14.00">lightQuality: </text>
<text text-anchor="start" x="659" y="-101.3" font-family="Times,serif" font-size="14.00">xsd:decimal</text>
<text text-anchor="start" x="511" y="-81.3" font-family="Times,serif" font-size="14.00">peopleCount: </text>
<text text-anchor="start" x="659" y="-81.3" font-family="Times,serif" font-size="14.00">xsd:decimal</text>
<text text-anchor="start" x="511" y="-61.3" font-family="Times,serif" font-size="14.00">obstructionDegree: </text>
<text text-anchor="start" x="659" y="-61.3" font-family="Times,serif" font-size="14.00">xsd:decimal</text>
<text text-anchor="start" x="511" y="-41.3" font-family="Times,serif" font-size="14.00">timeOfDay: </text>
<text text-anchor="start" x="659" y="-41.3" font-family="Times,serif" font-size="14.00">xsd:decimal</text>
<polygon fill="none" stroke="black" points="506.5,-34 506.5,-137 747.5,-137 747.5,-34 506.5,-34"/>
</g>
<!-- Metric&#45;&gt;Environment -->
<g id="Metric&#45;environment&#45;Environment" class="edge">
<title>Metric:environment&#45;&gt;Environment</title>
<path fill="none" stroke="black" d="M570,-213.5C601.87,-213.5 616.03,-179.81 622.27,-147.13"/>
<polygon fill="black" stroke="black" points="625.76,-147.5 623.96,-137.06 618.85,-146.34 625.76,-147.5"/>
</g>
</g>
</svg>
