<svg version="1.1" id="Layer_1" xmlns="http://www.w3.org/2000/svg" xmlns:xlink="http://www.w3.org/1999/xlink" x="0px" y="0px"
	 width="100%" viewBox="0 0 2943 1677" enable-background="new 0 0 2943 1677" xml:space="preserve">
<path fill="#FFFFFF" opacity="1.000000" stroke="none" 
	d="
M1530.000000,2.000000 
	C2001.913940,2.000000 2473.827881,2.000000 2945.871094,2.000000 
	C2945.871094,561.145325 2945.871094,1120.290649 2945.871094,1680.000000 
	C2455.944092,1680.000000 1965.887939,1680.000000 1474.728149,1679.279541 
	C1474.645020,1677.742798 1475.577515,1676.772217 1476.698608,1676.132446 
	C1543.242798,1638.150879 1609.821045,1600.229248 1676.334106,1562.193237 
	C1683.766602,1557.942627 1690.835083,1553.055420 1698.679077,1548.121582 
	C1699.519653,1547.544067 1699.800537,1547.339478 1699.980957,1547.068115 
	C1742.192505,1483.539673 1784.405273,1420.011963 1826.556030,1356.443115 
	C1827.614136,1354.847168 1827.987427,1352.796997 1829.301025,1350.435059 
	C1830.468262,1348.726074 1831.370605,1347.580200 1831.507690,1346.349121 
	C1833.158813,1331.535645 1834.598389,1316.698364 1836.290771,1301.889893 
	C1838.056885,1286.437134 1840.038086,1271.009033 1842.724609,1255.671387 
	C1844.507812,1255.942749 1845.517578,1256.022461 1846.472168,1256.295166 
	C1954.658081,1287.222412 2062.838379,1318.169189 2171.031250,1349.072266 
	C2173.505615,1349.778931 2176.117920,1350.001587 2178.551514,1350.429932 
	C2182.583252,1345.756836 2186.233887,1341.476929 2189.936035,1337.242065 
	C2234.086426,1286.738892 2278.274658,1236.268433 2322.391602,1185.736084 
	C2360.826904,1141.711548 2399.223389,1097.652954 2437.542725,1053.527466 
	C2445.343506,1044.544800 2452.724121,1035.197266 2461.216797,1026.034546 
	C2480.061768,1026.697510 2497.987305,1027.381226 2515.915283,1027.980591 
	C2537.173096,1028.691162 2558.433594,1029.318481 2579.692383,1030.001343 
	C2599.952148,1030.652100 2620.211182,1031.335449 2640.470947,1031.990845 
	C2661.400146,1032.667969 2682.330078,1033.325073 2703.259521,1033.997437 
	C2723.855957,1034.659058 2744.451904,1035.336914 2765.048584,1035.992676 
	C2786.307373,1036.669556 2807.565186,1037.394531 2828.826416,1037.979004 
	C2859.078125,1038.810547 2889.332031,1039.573242 2919.587158,1040.274780 
	C2927.449219,1040.457031 2935.319336,1040.302246 2945.461426,1040.302246 
	C2942.321533,1034.768921 2940.539795,1031.019653 2938.220459,1027.638794 
	C2921.304688,1002.981201 2904.121582,978.505859 2887.333008,953.762573 
	C2867.363281,924.330505 2847.825684,894.605225 2827.875244,865.159851 
	C2807.372070,834.898438 2786.487793,804.895386 2765.971436,774.642700 
	C2745.635498,744.656433 2725.645020,714.436096 2705.330566,684.435303 
	C2682.411621,650.588928 2659.247070,616.909302 2636.298584,583.082886 
	C2626.777100,569.048279 2617.630615,554.759460 2608.124023,540.714722 
	C2604.649902,535.582886 2600.625732,530.823608 2597.088135,526.202209 
	C2589.776123,528.198547 2583.326416,529.748596 2577.009033,531.721375 
	C2551.651367,539.639771 2526.340576,547.706726 2501.001465,555.684753 
	C2477.890625,562.961304 2454.755371,570.160950 2431.649902,577.454285 
	C2403.777588,586.252380 2375.936768,595.150696 2348.060059,603.935181 
	C2327.485352,610.418640 2306.860840,616.744324 2286.283936,623.220886 
	C2259.043945,631.794617 2231.839600,640.481567 2204.598877,649.052673 
	C2188.447998,654.134460 2172.256592,659.086914 2155.903809,663.191956 
	C2155.341309,653.501953 2154.958496,644.717407 2154.822754,635.712585 
	C2155.309082,634.778137 2155.039062,634.289185 2154.002930,633.222473 
	C2153.413818,626.914001 2153.082520,621.408447 2152.968994,615.682007 
	C2153.390869,614.791016 2153.140869,614.319031 2152.103271,613.271179 
	C2151.578125,608.195435 2151.385986,603.893677 2151.339111,598.942627 
	C2151.076904,597.540588 2150.669434,596.787964 2150.003906,595.304077 
	C2149.569580,591.566223 2149.393066,588.559509 2149.367676,584.928223 
	C2149.159668,583.556763 2148.800781,582.809937 2148.104004,581.355835 
	C2147.369385,577.076660 2146.972412,573.504822 2146.822754,569.712585 
	C2147.309082,568.778137 2147.039062,568.289185 2145.997559,567.250000 
	C2144.681641,560.294006 2143.628662,554.113464 2142.822754,547.712585 
	C2143.309082,546.778137 2143.039062,546.289185 2141.991211,545.368042 
	C2141.398438,542.441467 2141.074707,540.172241 2140.968994,537.682007 
	C2141.390869,536.790771 2141.140869,536.318787 2140.092285,535.420532 
	C2139.357178,532.508301 2138.966553,530.220581 2138.822998,527.712585 
	C2139.309082,526.778137 2139.039062,526.289185 2137.984619,525.277527 
	C2137.189209,522.624329 2136.597168,520.735413 2136.160400,518.811340 
	C2115.313232,426.987396 2081.255371,340.768799 2027.862183,262.689331 
	C2001.675537,224.395157 1971.715942,189.358185 1937.131470,158.476791 
	C1895.774658,121.548111 1850.020996,91.150482 1799.657837,67.671974 
	C1764.010742,51.053871 1727.223877,37.859207 1689.215332,27.867964 
	C1637.045410,14.154150 1583.944824,6.704913 1530.143188,3.247197 
	C1530.124268,2.828658 1530.000000,2.000000 1530.000000,2.000000 
z"/>
<path fill="#FFFFFF" opacity="1.000000" stroke="none" 
	d="
M1470.000000,1680.000000 
	C980.864075,1680.000000 491.728180,1680.000000 2.000000,1680.000000 
	C2.000000,1467.283936 2.000000,1254.567261 2.934970,1041.002319 
	C26.427265,1039.543945 48.985477,1038.964600 71.541664,1038.314941 
	C93.435692,1037.684326 115.328445,1037.006470 137.220291,1036.303345 
	C156.785217,1035.675049 176.346970,1034.947388 195.912247,1034.330444 
	C218.472900,1033.618896 241.036957,1033.014771 263.597504,1032.300049 
	C282.833862,1031.690552 302.065186,1030.917236 321.302612,1030.347778 
	C346.520599,1029.601074 371.740875,1028.915039 396.963226,1028.338501 
	C410.264496,1028.034302 423.577148,1028.192383 436.876038,1027.827515 
	C452.453918,1027.400269 468.020508,1026.568604 483.597412,1026.090454 
	C485.465271,1026.033081 487.367188,1027.087524 489.808502,1028.114502 
	C531.671814,1075.908936 572.993469,1123.203735 614.284607,1170.524902 
	C664.755920,1228.366821 715.270508,1286.171387 765.535645,1344.192139 
	C769.842834,1349.163818 773.291687,1350.723999 779.892883,1348.716675 
	C808.179382,1340.115234 836.688477,1332.248047 865.093323,1324.033325 
	C928.926208,1305.572510 992.729492,1287.009399 1056.581299,1268.614258 
	C1072.187134,1264.118286 1087.933350,1260.109375 1103.646973,1256.798096 
	C1105.919678,1284.375854 1108.075562,1311.040039 1110.484009,1337.681274 
	C1110.888672,1342.157837 1112.386108,1346.535767 1113.611328,1351.575928 
	C1117.568237,1357.687744 1121.232666,1363.224487 1125.025757,1368.671509 
	C1160.716675,1419.924927 1196.377319,1471.199707 1232.185669,1522.371094 
	C1238.430298,1531.295044 1245.323364,1539.765259 1252.273193,1549.002563 
	C1254.763550,1551.100586 1256.789551,1552.824707 1259.047852,1554.154785 
	C1323.981689,1592.396973 1388.957153,1630.568237 1453.859375,1668.863892 
	C1459.474854,1672.177246 1464.630615,1676.269531 1470.000000,1680.000000 
z"/>
<path fill="#FFFFFF" opacity="1.000000" stroke="none" 
	d="
M2.000000,1038.000000 
	C2.000000,692.784729 2.000000,347.569519 2.000000,2.000000 
	C474.053650,2.000000 946.107422,2.000000 1419.012939,2.410667 
	C1419.864868,2.821334 1419.840210,3.653358 1418.931885,3.823676 
	C1387.823242,5.215840 1357.869751,8.748224 1328.062378,13.630887 
	C1255.421387,25.530010 1186.024170,47.191925 1121.060913,82.273430 
	C1062.821533,113.723778 1011.598572,154.133011 967.753357,203.628464 
	C910.138977,268.667450 869.051880,343.430908 840.372803,425.130157 
	C813.184082,502.583649 797.377991,582.332703 793.182617,664.408569 
	C790.417847,663.978455 788.411316,663.758179 786.522156,663.164307 
	C740.877502,648.817139 695.235901,634.460144 649.613892,620.041138 
	C610.005005,607.522522 570.412354,594.952332 530.827820,582.356873 
	C480.469788,566.333496 430.133881,550.240662 379.771545,534.230713 
	C370.949219,531.426147 362.043884,528.882690 352.595154,526.043884 
	C350.756989,528.469360 348.898621,530.737671 347.238617,533.142944 
	C338.743011,545.452759 330.244141,557.760986 321.846008,570.137329 
	C292.901550,612.792847 263.998749,655.476624 235.079712,698.149414 
	C209.335083,736.138123 183.573944,774.115662 157.849258,812.117920 
	C128.207474,855.906799 98.605774,899.722778 68.971214,943.516663 
	C49.025726,972.991943 29.057739,1002.452087 9.085598,1031.909424 
	C7.284073,1034.566528 6.300063,1038.227661 2.000000,1038.000000 
z"/>
<path fill="#FDDF8B" opacity="1.000000" stroke="none" 
	d="
M2.000000,1038.500000 
	C6.300063,1038.227661 7.284073,1034.566528 9.085598,1031.909424 
	C29.057739,1002.452087 49.025726,972.991943 68.971214,943.516663 
	C98.605774,899.722778 128.207474,855.906799 157.849258,812.117920 
	C183.573944,774.115662 209.335083,736.138123 235.079712,698.149414 
	C263.998749,655.476624 292.901550,612.792847 321.846008,570.137329 
	C330.244141,557.760986 338.743011,545.452759 347.238617,533.142944 
	C348.898621,530.737671 350.756989,528.469360 352.595154,526.043884 
	C362.043884,528.882690 370.949219,531.426147 379.771545,534.230713 
	C430.133881,550.240662 480.469788,566.333496 530.827820,582.356873 
	C570.412354,594.952332 610.005005,607.522522 649.613892,620.041138 
	C695.235901,634.460144 740.877502,648.817139 786.522156,663.164307 
	C788.411316,663.758179 790.417847,663.978455 793.577637,664.960266 
	C796.842224,666.517029 798.821167,667.728271 800.967712,668.417358 
	C819.920959,674.501953 838.880005,680.570618 857.887329,686.483276 
	C868.625061,689.823425 879.456543,692.862122 890.944275,696.263794 
	C894.176025,697.227539 896.726562,697.909790 899.239990,698.708557 
	C956.174744,716.802734 1013.091797,734.953186 1070.043213,752.994629 
	C1096.607544,761.409790 1123.237183,769.618225 1149.861816,778.702881 
	C1149.737671,780.468506 1149.711670,781.489319 1149.422363,782.429199 
	C1132.944092,835.975403 1116.406006,889.503235 1099.965210,943.060913 
	C1093.546387,963.970703 1087.341919,984.946350 1080.701416,1005.916504 
	C1080.362793,1005.940979 1079.775513,1006.281677 1078.898682,1006.328613 
	C1071.050293,1006.772278 1064.083496,1007.307434 1057.106567,1007.542847 
	C1016.549316,1008.911682 975.990295,1010.229980 935.430725,1011.526550 
	C892.543030,1012.897583 849.653320,1014.203918 806.765686,1015.578430 
	C766.537964,1016.867615 726.313782,1018.270996 686.084595,1019.512146 
	C634.547485,1021.102356 583.006165,1022.556885 531.468384,1024.124512 
	C519.502563,1024.488525 507.538757,1024.985718 495.585846,1025.638428 
	C493.445160,1025.755371 491.362671,1026.936646 489.253296,1027.626587 
	C487.367188,1027.087524 485.465271,1026.033081 483.597412,1026.090454 
	C468.020508,1026.568604 452.453918,1027.400269 436.876038,1027.827515 
	C423.577148,1028.192383 410.264496,1028.034302 396.963226,1028.338501 
	C371.740875,1028.915039 346.520599,1029.601074 321.302612,1030.347778 
	C302.065186,1030.917236 282.833862,1031.690552 263.597504,1032.300049 
	C241.036957,1033.014771 218.472900,1033.618896 195.912247,1034.330444 
	C176.346970,1034.947388 156.785217,1035.675049 137.220291,1036.303345 
	C115.328445,1037.006470 93.435692,1037.684326 71.541664,1038.314941 
	C48.985477,1038.964600 26.427265,1039.543945 2.934970,1040.077026 
	C2.000000,1040.000000 2.000000,1039.000000 2.000000,1038.500000 
z"/>
<path fill="#232323" opacity="1.000000" stroke="none" 
	d="
M890.245728,696.036621 
	C879.456543,692.862122 868.625061,689.823425 857.887329,686.483276 
	C838.880005,680.570618 819.920959,674.501953 800.967712,668.417358 
	C798.821167,667.728271 796.842224,666.517029 794.390503,664.996094 
	C797.377991,582.332703 813.184082,502.583649 840.372803,425.130157 
	C869.051880,343.430908 910.138977,268.667450 967.753357,203.628464 
	C1011.598572,154.133011 1062.821533,113.723778 1121.060913,82.273430 
	C1186.024170,47.191925 1255.421387,25.530010 1328.062378,13.630887 
	C1357.869751,8.748224 1387.823242,5.215840 1419.840576,3.963731 
	C1425.534790,3.952912 1429.433105,4.228871 1433.281860,3.908459 
	C1436.220459,3.663821 1439.096313,2.663918 1442.000000,1.999992 
	C1462.708496,2.000000 1483.416870,2.000000 1505.568604,2.678646 
	C1514.728516,3.460107 1522.445312,3.562922 1530.162109,3.665736 
	C1583.944824,6.704913 1637.045410,14.154150 1689.215332,27.867964 
	C1727.223877,37.859207 1764.010742,51.053871 1799.657837,67.671974 
	C1850.020996,91.150482 1895.774658,121.548111 1937.131470,158.476791 
	C1971.715942,189.358185 2001.675537,224.395157 2027.862183,262.689331 
	C2081.255371,340.768799 2115.313232,426.987396 2136.160400,518.811340 
	C2136.597168,520.735413 2137.189209,522.624329 2137.888428,525.783325 
	C2138.237549,527.335571 2138.406738,527.634277 2138.575684,527.932922 
	C2138.966553,530.220581 2139.357178,532.508301 2140.053223,535.904907 
	C2140.358887,537.013794 2140.751221,537.902954 2140.751221,537.902954 
	C2141.074707,540.172241 2141.398438,542.441467 2141.895020,545.873840 
	C2142.237549,547.335571 2142.406738,547.634277 2142.575684,547.932922 
	C2143.628662,554.113464 2144.681641,560.294006 2145.901367,567.755737 
	C2146.237549,569.335571 2146.406738,569.634277 2146.575684,569.932922 
	C2146.972412,573.504822 2147.369385,577.076660 2148.048828,581.980286 
	C2148.626465,584.058960 2148.921387,584.805908 2149.216553,585.552856 
	C2149.393066,588.559509 2149.569580,591.566223 2149.916504,595.947327 
	C2150.456055,598.078491 2150.825195,598.835205 2151.193848,599.591919 
	C2151.385986,603.893677 2151.578125,608.195435 2152.064453,613.755493 
	C2152.358887,615.013794 2152.751221,615.902893 2152.751221,615.902893 
	C2153.082520,621.408447 2153.413818,626.914001 2153.906738,633.728271 
	C2154.237549,635.335571 2154.406738,635.634277 2154.575684,635.932922 
	C2154.958496,644.717407 2155.341309,653.501953 2155.631592,663.852051 
	C2153.121826,666.865051 2150.875488,668.863159 2148.260986,669.673340 
	C2125.276367,676.794739 2102.236084,683.735474 2079.182861,690.632141 
	C2076.726562,691.366943 2074.083740,691.477905 2071.565918,691.055542 
	C2071.182861,687.293030 2070.593262,684.366150 2070.365234,681.411438 
	C2067.501221,644.297424 2060.573730,607.854309 2051.850586,571.749756 
	C2033.009033,493.768097 2004.345947,419.749725 1962.053711,351.295349 
	C1932.706421,303.793732 1897.755615,261.042725 1855.868408,223.935226 
	C1802.601074,176.745972 1741.957642,142.610352 1674.654663,120.054405 
	C1609.850586,98.336006 1542.873779,89.607895 1474.879150,88.336823 
	C1451.027954,87.890968 1427.107422,89.929733 1403.249878,91.357307 
	C1372.024658,93.225739 1341.335815,98.761284 1310.949585,106.062744 
	C1253.189697,119.941742 1199.329346,142.957108 1149.938110,175.950760 
	C1103.935547,206.680893 1064.659668,244.654465 1031.198608,288.714569 
	C981.116821,354.660156 947.188232,428.514160 923.737549,507.510590 
	C905.460083,569.080688 894.642517,631.992371 890.245728,696.036621 
z"/>
<path fill="#3D3C3E" opacity="1.000000" stroke="none" 
	d="
M1470.666626,1680.000000 
	C1464.630615,1676.269531 1459.474854,1672.177246 1453.859375,1668.863892 
	C1388.957153,1630.568237 1323.981689,1592.396973 1259.047852,1554.154785 
	C1256.789551,1552.824707 1254.763550,1551.100586 1253.227051,1549.029541 
	C1401.907227,1548.487061 1549.989868,1548.475220 1698.072388,1548.463379 
	C1690.835083,1553.055420 1683.766602,1557.942627 1676.334106,1562.193237 
	C1609.821045,1600.229248 1543.242798,1638.150879 1476.698608,1676.132446 
	C1475.577515,1676.772217 1474.645020,1677.742798 1473.812256,1679.279541 
	C1473.111084,1680.000000 1472.222168,1680.000000 1470.666626,1680.000000 
z"/>
<path fill="#B2B2B2" opacity="1.000000" stroke="none" 
	d="
M1530.143188,3.247198 
	C1522.445312,3.562922 1514.728516,3.460107 1506.505859,2.678646 
	C1513.385864,2.000000 1520.771606,2.000000 1529.078735,2.000000 
	C1530.000000,2.000000 1530.124268,2.828658 1530.143188,3.247198 
z"/>
<path fill="#B5B5B5" opacity="1.000000" stroke="none" 
	d="
M1441.083862,1.999992 
	C1439.096313,2.663918 1436.220459,3.663821 1433.281860,3.908459 
	C1429.433105,4.228871 1425.534790,3.952912 1420.749023,3.793413 
	C1419.840210,3.653358 1419.864868,2.821334 1419.932373,2.410667 
	C1426.722534,2.000000 1433.445190,2.000000 1441.083862,1.999992 
z"/>
<path fill="#FDDF8B" opacity="1.000000" stroke="none" 
	d="
M2071.527344,691.878296 
	C2074.083740,691.477905 2076.726562,691.366943 2079.182861,690.632141 
	C2102.236084,683.735474 2125.276367,676.794739 2148.260986,669.673340 
	C2150.875488,668.863159 2153.121826,666.865051 2155.811035,664.757568 
	C2172.256592,659.086914 2188.447998,654.134460 2204.598877,649.052673 
	C2231.839600,640.481567 2259.043945,631.794617 2286.283936,623.220886 
	C2306.860840,616.744324 2327.485352,610.418640 2348.060059,603.935181 
	C2375.936768,595.150696 2403.777588,586.252380 2431.649902,577.454285 
	C2454.755371,570.160950 2477.890625,562.961304 2501.001465,555.684753 
	C2526.340576,547.706726 2551.651367,539.639771 2577.009033,531.721375 
	C2583.326416,529.748596 2589.776123,528.198547 2597.088135,526.202209 
	C2600.625732,530.823608 2604.649902,535.582886 2608.124023,540.714722 
	C2617.630615,554.759460 2626.777100,569.048279 2636.298584,583.082886 
	C2659.247070,616.909302 2682.411621,650.588928 2705.330566,684.435303 
	C2725.645020,714.436096 2745.635498,744.656433 2765.971436,774.642700 
	C2786.487793,804.895386 2807.372070,834.898438 2827.875244,865.159851 
	C2847.825684,894.605225 2867.363281,924.330505 2887.333008,953.762573 
	C2904.121582,978.505859 2921.304688,1002.981201 2938.220459,1027.638794 
	C2940.539795,1031.019653 2942.321533,1034.768921 2945.461426,1040.302246 
	C2935.319336,1040.302246 2927.449219,1040.457031 2919.587158,1040.274780 
	C2889.332031,1039.573242 2859.078125,1038.810547 2828.826416,1037.979004 
	C2807.565186,1037.394531 2786.307373,1036.669556 2765.048584,1035.992676 
	C2744.451904,1035.336914 2723.855957,1034.659058 2703.259521,1033.997437 
	C2682.330078,1033.325073 2661.400146,1032.667969 2640.470947,1031.990845 
	C2620.211182,1031.335449 2599.952148,1030.652100 2579.692383,1030.001343 
	C2558.433594,1029.318481 2537.173096,1028.691162 2515.915283,1027.980591 
	C2497.987305,1027.381226 2480.061768,1026.697510 2460.328857,1025.911377 
	C2273.073975,1019.756287 2087.625244,1013.741089 1901.500000,1007.240356 
	C1890.498169,1006.425659 1880.172729,1006.096558 1869.619751,1005.729004 
	C1869.392090,1005.690552 1868.979736,1005.898560 1868.745605,1005.116516 
	C1867.815796,1001.779297 1867.226562,999.189514 1866.408569,996.674072 
	C1844.660645,929.795776 1822.869263,862.931702 1801.155396,796.042358 
	C1799.221558,790.084778 1797.764771,783.972229 1796.833252,777.858582 
	C1802.629272,776.100769 1807.653564,774.337036 1812.731201,772.743408 
	C1876.780273,752.641663 1940.829956,732.542053 2004.895508,712.492798 
	C2027.083618,705.549072 2049.315430,698.745728 2071.527344,691.878296 
z"/>
<path fill="#DCA929" opacity="1.000000" stroke="none" 
	d="
M1868.979736,1005.898560 
	C1868.979736,1005.898560 1869.392090,1005.690552 1869.616211,1006.205322 
	C1869.840332,1006.720093 1869.879150,1007.667908 1869.752808,1008.269043 
	C1869.528809,1009.267944 1869.431152,1009.665649 1868.955811,1010.479980 
	C1868.474854,1012.002563 1868.371582,1013.108459 1868.254150,1015.096802 
	C1865.892090,1037.768188 1863.612915,1059.564819 1861.176636,1081.343994 
	C1858.888306,1101.799072 1856.428345,1122.234863 1854.054932,1142.680542 
	C1851.642944,1163.457031 1849.126709,1184.222412 1846.877075,1205.016602 
	C1845.056152,1221.849365 1843.563599,1238.717529 1841.925293,1255.570068 
	C1840.038086,1271.009033 1838.056885,1286.437134 1836.290771,1301.889893 
	C1834.598389,1316.698364 1833.158813,1331.535645 1831.507690,1346.349121 
	C1831.370605,1347.580200 1830.468262,1348.726074 1828.349976,1350.109009 
	C1823.784790,1350.207153 1820.791382,1350.020996 1817.797852,1350.020874 
	C1586.614502,1350.007446 1355.431030,1350.004272 1124.247681,1350.048096 
	C1120.624634,1350.048828 1117.001587,1350.642334 1113.378540,1350.959229 
	C1112.386108,1346.535767 1110.888672,1342.157837 1110.484009,1337.681274 
	C1108.075562,1311.040039 1105.919678,1284.375854 1103.820068,1255.912354 
	C1102.703491,1239.558716 1101.479614,1225.009155 1100.180420,1210.466431 
	C1098.022827,1186.314819 1095.916870,1162.158081 1093.607056,1138.020874 
	C1090.412354,1104.634399 1087.116211,1071.257324 1083.718384,1037.890991 
	C1082.642944,1027.330322 1081.102905,1016.816772 1079.775513,1006.281677 
	C1079.775513,1006.281677 1080.362793,1005.940979 1081.731934,1005.950928 
	C1085.100464,1005.980713 1087.100098,1006.017944 1089.099609,1006.018005 
	C1346.060547,1006.020691 1603.021606,1006.020996 1859.982544,1006.015625 
	C1862.981567,1006.015564 1865.980713,1005.939270 1868.979736,1005.898560 
M1535.345825,1133.483154 
	C1535.027344,1130.841797 1534.732544,1128.197388 1534.386475,1125.559570 
	C1531.328369,1102.249756 1519.658081,1090.021729 1496.442993,1085.708252 
	C1480.105225,1082.672363 1463.926758,1083.597534 1448.025024,1088.126953 
	C1428.045044,1093.818237 1415.937500,1107.533813 1414.790283,1128.292114 
	C1414.100464,1140.775146 1415.521973,1153.574219 1417.607422,1165.959717 
	C1420.068481,1180.575195 1429.851562,1189.931396 1443.488892,1195.286255 
	C1446.802490,1196.587402 1450.156982,1197.784668 1454.060547,1199.241821 
	C1454.060547,1217.555054 1454.060547,1235.413696 1454.060547,1253.687134 
	C1468.725098,1253.687134 1482.547607,1253.687134 1497.551758,1253.687134 
	C1497.551758,1235.065552 1497.551758,1216.906616 1497.551758,1199.086182 
	C1500.281006,1198.176636 1501.839600,1197.601318 1503.430420,1197.135742 
	C1522.429932,1191.576660 1531.579224,1178.040527 1533.765137,1159.166504 
	C1534.682983,1151.242432 1534.846680,1143.231201 1535.345825,1133.483154 
z"/>
<path fill="#58585A" opacity="1.000000" stroke="none" 
	d="
M1842.724609,1255.671387 
	C1843.563599,1238.717529 1845.056152,1221.849365 1846.877075,1205.016602 
	C1849.126709,1184.222412 1851.642944,1163.457031 1854.054932,1142.680542 
	C1856.428345,1122.234863 1858.888306,1101.799072 1861.176636,1081.343994 
	C1863.612915,1059.564819 1865.892090,1037.768188 1868.650879,1014.677124 
	C1869.152466,1012.271179 1869.242920,1011.167236 1869.333496,1010.063354 
	C1869.431152,1009.665649 1869.528809,1009.267944 1870.697266,1008.320435 
	C1881.904297,1007.755798 1892.040405,1007.740845 1902.176636,1007.725891 
	C2087.625244,1013.741089 2273.073975,1019.756287 2459.410400,1025.894775 
	C2452.724121,1035.197266 2445.343506,1044.544800 2437.542725,1053.527466 
	C2399.223389,1097.652954 2360.826904,1141.711548 2322.391602,1185.736084 
	C2278.274658,1236.268433 2234.086426,1286.738892 2189.936035,1337.242065 
	C2186.233887,1341.476929 2182.583252,1345.756836 2178.551514,1350.429932 
	C2176.117920,1350.001587 2173.505615,1349.778931 2171.031250,1349.072266 
	C2062.838379,1318.169189 1954.658081,1287.222412 1846.472168,1256.295166 
	C1845.517578,1256.022461 1844.507812,1255.942749 1842.724609,1255.671387 
z"/>
<path fill="#FDDF8B" opacity="1.000000" stroke="none" 
	d="
M1113.611328,1351.575928 
	C1117.001587,1350.642334 1120.624634,1350.048828 1124.247681,1350.048096 
	C1355.431030,1350.004272 1586.614502,1350.007446 1817.797852,1350.020874 
	C1820.791382,1350.020996 1823.784790,1350.207153 1827.729248,1350.632568 
	C1827.987427,1352.796997 1827.614136,1354.847168 1826.556030,1356.443115 
	C1784.405273,1420.011963 1742.192505,1483.539673 1699.980957,1547.068115 
	C1699.800537,1547.339478 1699.519653,1547.544067 1698.679077,1548.121704 
	C1549.989868,1548.475220 1401.907227,1548.487061 1252.870850,1548.471924 
	C1245.323364,1539.765259 1238.430298,1531.295044 1232.185669,1522.371094 
	C1196.377319,1471.199707 1160.716675,1419.924927 1125.025757,1368.671509 
	C1121.232666,1363.224487 1117.568237,1357.687744 1113.611328,1351.575928 
z"/>
<path fill="#FFFFFF" opacity="1.000000" stroke="none" 
	d="
M2151.339355,598.942627 
	C2150.825195,598.835205 2150.456055,598.078491 2150.174316,596.678528 
	C2150.669434,596.787964 2151.076904,597.540588 2151.339355,598.942627 
z"/>
<path fill="#FFFFFF" opacity="1.000000" stroke="none" 
	d="
M2152.968994,615.682007 
	C2152.751221,615.902893 2152.358887,615.013794 2152.397705,614.529480 
	C2153.140869,614.319031 2153.390869,614.791016 2152.968994,615.682007 
z"/>
<path fill="#FFFFFF" opacity="1.000000" stroke="none" 
	d="
M2154.822754,635.712585 
	C2154.406738,635.634277 2154.237549,635.335571 2154.164307,634.531128 
	C2155.039062,634.289185 2155.309082,634.778137 2154.822754,635.712585 
z"/>
<path fill="#FFFFFF" opacity="1.000000" stroke="none" 
	d="
M2149.367676,584.928223 
	C2148.921387,584.805908 2148.626465,584.058960 2148.386719,582.687561 
	C2148.800781,582.809937 2149.159668,583.556763 2149.367676,584.928223 
z"/>
<path fill="#FFFFFF" opacity="1.000000" stroke="none" 
	d="
M2146.822754,569.712585 
	C2146.406738,569.634277 2146.237549,569.335571 2146.164307,568.531128 
	C2147.039062,568.289185 2147.309082,568.778137 2146.822754,569.712585 
z"/>
<path fill="#FFFFFF" opacity="1.000000" stroke="none" 
	d="
M2142.822754,547.712585 
	C2142.406738,547.634277 2142.237549,547.335571 2142.164307,546.531128 
	C2143.039062,546.289185 2143.309082,546.778137 2142.822754,547.712585 
z"/>
<path fill="#FFFFFF" opacity="1.000000" stroke="none" 
	d="
M2140.968994,537.682007 
	C2140.751221,537.902954 2140.358887,537.013794 2140.397705,536.529419 
	C2141.140869,536.318787 2141.390869,536.790771 2140.968994,537.682007 
z"/>
<path fill="#FFFFFF" opacity="1.000000" stroke="none" 
	d="
M2138.822754,527.712585 
	C2138.406738,527.634277 2138.237549,527.335571 2138.164307,526.531128 
	C2139.039062,526.289185 2139.309082,526.778137 2138.822754,527.712585 
z"/>
<path fill="#59585A" opacity="1.000000" stroke="none" 
	d="
M1078.898682,1006.328613 
	C1081.102905,1016.816772 1082.642944,1027.330322 1083.718384,1037.890991 
	C1087.116211,1071.257324 1090.412354,1104.634399 1093.607056,1138.020874 
	C1095.916870,1162.158081 1098.022827,1186.314819 1100.180420,1210.466431 
	C1101.479614,1225.009155 1102.703491,1239.558716 1103.788086,1254.990967 
	C1087.933350,1260.109375 1072.187134,1264.118286 1056.581299,1268.614258 
	C992.729492,1287.009399 928.926208,1305.572510 865.093323,1324.033325 
	C836.688477,1332.248047 808.179382,1340.115234 779.892883,1348.716675 
	C773.291687,1350.723999 769.842834,1349.163818 765.535645,1344.192139 
	C715.270508,1286.171387 664.755920,1228.366821 614.284607,1170.524902 
	C572.993469,1123.203735 531.671814,1075.908936 489.808502,1028.114502 
	C491.362671,1026.936646 493.445160,1025.755371 495.585846,1025.638428 
	C507.538757,1024.985718 519.502563,1024.488525 531.468384,1024.124512 
	C583.006165,1022.556885 634.547485,1021.102356 686.084595,1019.512146 
	C726.313782,1018.270996 766.537964,1016.867615 806.765686,1015.578430 
	C849.653320,1014.203918 892.543030,1012.897583 935.430725,1011.526550 
	C975.990295,1010.229980 1016.549316,1008.911682 1057.106567,1007.542847 
	C1064.083496,1007.307434 1071.050293,1006.772278 1078.898682,1006.328613 
z"/>
<path fill="#FEFFFF" opacity="1.000000" stroke="none" 
	d="
M2071.565918,691.055542 
	C2049.315430,698.745728 2027.083618,705.549072 2004.895508,712.492798 
	C1940.829956,732.542053 1876.780273,752.641663 1812.731201,772.743408 
	C1807.653564,774.337036 1802.629272,776.100769 1796.497803,777.205750 
	C1784.688232,743.767212 1773.961060,710.908325 1763.426758,677.229431 
	C1763.956177,674.441833 1764.216675,672.457642 1764.640381,670.509033 
	C1774.514771,625.093140 1784.247192,579.645081 1794.484009,534.310974 
	C1795.870361,528.171631 1794.599243,524.401917 1790.276001,520.347717 
	C1778.863159,509.645050 1767.739258,498.632751 1756.558472,487.684296 
	C1737.042725,468.574066 1717.536255,449.453888 1698.088013,430.274933 
	C1670.806396,403.371124 1643.612915,376.377838 1616.316162,349.489410 
	C1606.117065,339.442719 1595.456421,329.848755 1585.557007,319.520477 
	C1580.962769,314.727081 1576.158081,313.207794 1569.737061,313.227081 
	C1507.411743,313.414185 1445.085083,313.472992 1382.760620,313.160431 
	C1375.458130,313.123840 1370.026123,315.345398 1365.023438,320.120514 
	C1352.266968,332.296692 1339.447998,344.407349 1326.622070,356.510254 
	C1309.680786,372.496368 1292.755615,388.499786 1275.739258,404.405823 
	C1251.443115,427.116882 1227.039429,449.712769 1202.741577,472.422028 
	C1185.481079,488.554108 1168.584839,505.090515 1150.932861,520.779114 
	C1146.360107,524.843201 1145.479370,528.224426 1146.749146,533.581482 
	C1158.160400,581.722168 1169.438721,629.894287 1180.468994,678.788940 
	C1170.067139,712.320618 1159.952271,745.120483 1149.837280,777.920410 
	C1123.237183,769.618225 1096.607544,761.409790 1070.043213,752.994629 
	C1013.091797,734.953186 956.174744,716.802734 899.239990,698.708557 
	C896.726562,697.909790 894.176025,697.227539 890.944275,696.263794 
	C894.642517,631.992371 905.460083,569.080688 923.737549,507.510590 
	C947.188232,428.514160 981.116821,354.660156 1031.198608,288.714569 
	C1064.659668,244.654465 1103.935547,206.680893 1149.938110,175.950760 
	C1199.329346,142.957108 1253.189697,119.941742 1310.949585,106.062744 
	C1341.335815,98.761284 1372.024658,93.225739 1403.249878,91.357307 
	C1427.107422,89.929733 1451.027954,87.890968 1474.879150,88.336823 
	C1542.873779,89.607895 1609.850586,98.336006 1674.654663,120.054405 
	C1741.957642,142.610352 1802.601074,176.745972 1855.868408,223.935226 
	C1897.755615,261.042725 1932.706421,303.793732 1962.053711,351.295349 
	C2004.345947,419.749725 2033.009033,493.768097 2051.850586,571.749756 
	C2060.573730,607.854309 2067.501221,644.297424 2070.365234,681.411438 
	C2070.593262,684.366150 2071.182861,687.293030 2071.565918,691.055542 
z"/>
<path fill="#BA862C" opacity="1.000000" stroke="none" 
	d="
M1763.233887,678.049438 
	C1773.961060,710.908325 1784.688232,743.767212 1795.750977,777.278870 
	C1797.764771,783.972229 1799.221558,790.084778 1801.155396,796.042358 
	C1822.869263,862.931702 1844.660645,929.795776 1866.408569,996.674072 
	C1867.226562,999.189514 1867.815796,1001.779297 1868.745605,1005.116516 
	C1865.980713,1005.939270 1862.981567,1006.015564 1859.982544,1006.015625 
	C1603.021606,1006.020996 1346.060547,1006.020691 1089.099609,1006.018005 
	C1087.100098,1006.017944 1085.100464,1005.980713 1082.070435,1005.926392 
	C1087.341919,984.946350 1093.546387,963.970703 1099.965210,943.060913 
	C1116.406006,889.503235 1132.944092,835.975403 1149.422363,782.429199 
	C1149.711670,781.489319 1149.737671,780.468506 1149.861816,778.702881 
	C1159.952271,745.120483 1170.067139,712.320618 1181.354858,678.783203 
	C1376.096313,678.046997 1569.665161,678.048218 1763.233887,678.049438 
z"/>
<path fill="#BD8B71" opacity="1.000000" stroke="none" 
	d="
M1901.500000,1007.240356 
	C1892.040405,1007.740845 1881.904297,1007.755798 1870.823608,1007.719360 
	C1869.879150,1007.667908 1869.840332,1006.720093 1869.843872,1006.243774 
	C1880.172729,1006.096558 1890.498169,1006.425659 1901.500000,1007.240356 
z"/>
<path fill="#242322" opacity="1.000000" stroke="none" 
	d="
M1535.349487,1134.371338 
	C1534.846680,1143.231201 1534.682983,1151.242432 1533.765137,1159.166504 
	C1531.579224,1178.040527 1522.429932,1191.576660 1503.430420,1197.135742 
	C1501.839600,1197.601318 1500.281006,1198.176636 1497.551758,1199.086182 
	C1497.551758,1216.906616 1497.551758,1235.065552 1497.551758,1253.687134 
	C1482.547607,1253.687134 1468.725098,1253.687134 1454.060547,1253.687134 
	C1454.060547,1235.413696 1454.060547,1217.555054 1454.060547,1199.241821 
	C1450.156982,1197.784668 1446.802490,1196.587402 1443.488892,1195.286255 
	C1429.851562,1189.931396 1420.068481,1180.575195 1417.607422,1165.959717 
	C1415.521973,1153.574219 1414.100464,1140.775146 1414.790283,1128.292114 
	C1415.937500,1107.533813 1428.045044,1093.818237 1448.025024,1088.126953 
	C1463.926758,1083.597534 1480.105225,1082.672363 1496.442993,1085.708252 
	C1519.658081,1090.021729 1531.328369,1102.249756 1534.386475,1125.559570 
	C1534.732544,1128.197388 1535.027344,1130.841797 1535.349487,1134.371338 
z"/>
<path fill="#BA862C" opacity="1.000000" stroke="none" 
	d="
M1868.955811,1010.479980 
	C1869.242920,1011.167236 1869.152466,1012.271179 1868.665039,1013.794739 
	C1868.371582,1013.108459 1868.474854,1012.002563 1868.955811,1010.479980 
z"/>
<path fill="#58585A" opacity="1.000000" stroke="none" 
	d="
M1763.426758,677.229431 
	C1569.665161,678.048218 1376.096313,678.046997 1181.641846,678.051514 
	C1169.438721,629.894287 1158.160400,581.722168 1146.749146,533.581482 
	C1145.479370,528.224426 1146.360107,524.843201 1150.932861,520.779114 
	C1168.584839,505.090515 1185.481079,488.554108 1202.741577,472.422028 
	C1227.039429,449.712769 1251.443115,427.116882 1275.739258,404.405823 
	C1292.755615,388.499786 1309.680786,372.496368 1326.622070,356.510254 
	C1339.447998,344.407349 1352.266968,332.296692 1365.023438,320.120514 
	C1370.026123,315.345398 1375.458130,313.123840 1382.760620,313.160431 
	C1445.085083,313.472992 1507.411743,313.414185 1569.737061,313.227081 
	C1576.158081,313.207794 1580.962769,314.727081 1585.557007,319.520477 
	C1595.456421,329.848755 1606.117065,339.442719 1616.316162,349.489410 
	C1643.612915,376.377838 1670.806396,403.371124 1698.088013,430.274933 
	C1717.536255,449.453888 1737.042725,468.574066 1756.558472,487.684296 
	C1767.739258,498.632751 1778.863159,509.645050 1790.276001,520.347717 
	C1794.599243,524.401917 1795.870361,528.171631 1794.484009,534.310974 
	C1784.247192,579.645081 1774.514771,625.093140 1764.640381,670.509033 
	C1764.216675,672.457642 1763.956177,674.441833 1763.426758,677.229431 
z"/>
</svg>